<?xml version="1.0" encoding="UTF-8"?>
<svg id="_レイヤー_2" data-name="レイヤー 2" xmlns="http://www.w3.org/2000/svg" width="333.54" height="221.31" viewBox="0 0 333.54 221.31">
  <defs>
    <style>
      .cls-1 {
        fill: none;
      }

      .cls-1, .cls-2 {
        stroke: #7c4721;
        stroke-miterlimit: 10;
      }

      .cls-3 {
        fill: #fffae6;
      }

      .cls-4 {
        fill: #fff1cc;
      }

      .cls-5 {
        fill: #e37d2e;
      }

      .cls-2 {
        fill: #fffcf2;
      }

      .cls-6 {
        fill: #7c4721;
      }

      .cls-7 {
        fill: #0480b5;
      }
    </style>
  </defs>
  <g id="_レイヤー_2-2" data-name="レイヤー 2">
    <g>
      <rect class="cls-4" width="333.54" height="221.31"/>
      <rect class="cls-3" x="11.86" y="20.89" width="309.83" height="98.96" rx="13.55" ry="13.55"/>
      <g>
        <path class="cls-6" d="M40.89,64.15h9.1c6.13,0,8.41,2.94,8.41,7.21,0,5.58-3.65,8.35-8.77,8.35h-4.14v8.02h-4.6v-23.58ZM45.42,67.77v8.35h3.46c3.55,0,4.86-1.6,4.86-4.37,0-2.45-1.01-3.98-4.7-3.98h-3.62Z"/>
        <path class="cls-6" d="M62.8,64.15h14.54v3.72h-9.95v6.07h9.39v3.75h-9.39v6.39h9.98v3.65h-14.58v-23.58Z"/>
        <path class="cls-6" d="M82.69,64.15h9.2c5.38,0,8.09,2.48,8.09,6.85,0,3.26-1.4,5.67-3.95,6.95l5.64,9.78h-5.25l-4.6-8.71c-.33.03-.68.03-1.01.03h-3.52v8.67h-4.6v-23.58ZM87.22,67.71v8.02h3.13c3.62,0,4.99-1.53,4.99-4.34,0-2.35-1.21-3.68-4.43-3.68h-3.68Z"/>
      </g>
      <g>
        <path class="cls-6" d="M246.18,159.58l-5.36.83-.14-4.39,10.58-1.44-.04,2.95v23.47h-5.04v-21.42Z"/>
        <path class="cls-6" d="M257.88,168.33c0-8.6,4.03-13.75,10.37-13.75s9.86,4.57,9.86,13.03-3.89,13.68-10.29,13.68-9.93-4.61-9.93-12.96ZM272.92,168.04c0-6.59-1.58-9.03-5-9.03-3.1,0-4.86,2.88-4.86,8.93s1.73,8.96,5.04,8.96c3.06,0,4.82-2.77,4.82-8.86Z"/>
      </g>
      <path class="cls-6" d="M121.15,72.77h13.97v2.79h-13.97v-2.79ZM121.15,79.09h13.97v2.81h-13.97v-2.81Z"/>
      <path class="cls-6" d="M212.47,165.11h12.14v1.7h-12.14v-1.7ZM212.47,170.54h12.14v1.7h-12.14v-1.7Z"/>
      <g>
        <path class="cls-5" d="M214.44,64.53c-.47,1.48-1.01,2.74-1.68,3.9l-.8-2.05c1.01-1.3,1.79-2.97,2.3-4.81h-1.92v-1.66h2.1v-3.19h1.7v3.19h1.71v1.6c.46-.96.77-2.22.96-3.86l1.6.24c-.05.52-.13,1.06-.23,1.56h1.24v-2.74h1.73v2.74h3.1v1.6h-3.1v1.92h3.78v1.6h-3.41c.98,1.61,2.31,2.95,3.83,3.86l-1.03,1.69c-1.32-1.11-2.43-2.46-3.18-3.85v5.1h-1.73v-4.95c-.7,1.48-1.73,2.9-2.93,4.04l-1.19-1.52c1.58-1.09,2.82-2.53,3.76-4.38h-3.29v-1.6h3.65v-1.92h-1.63c-.18.59-.44,1.21-.75,1.83l-1.37-1.01c.05-.08.1-.16.15-.29h-1.68v1.58c.78.7,1.35,1.3,2.05,2.15l-.98,1.63c-.37-.72-.65-1.21-1.08-1.84v6.29h-1.7v-6.84Z"/>
        <path class="cls-5" d="M230.35,64.19c-.28.52-.55,1.01-.96,1.61l-.72-1.86c1.24-2.02,2.1-4.5,2.56-7.3l1.71.34c-.33,1.38-.55,2.22-.9,3.23v11.16h-1.69v-7.19ZM233.4,61.29h2.72v-1.92h-3.16v-1.66h10.72v1.66h-3.26v1.92h2.8v9.92h-1.56v-.85h-6.7v.85h-1.56v-9.92ZM236.22,68.77v-5.92h-1.25v5.92h1.25ZM238.89,61.29v-1.92h-1.24v1.92h1.24ZM238.89,68.77v-5.92h-1.24v5.92h1.24ZM241.66,68.77v-5.92h-1.34v5.92h1.34Z"/>
      </g>
      <g>
        <path class="cls-7" d="M166.78,92.21l-2.43.38-.06-1.99,4.79-.65-.02,1.34v10.63h-2.28v-9.7Z"/>
        <path class="cls-7" d="M178.63,96.28c-.47,1.48-1.01,2.74-1.68,3.9l-.8-2.05c1.01-1.3,1.79-2.97,2.3-4.81h-1.92v-1.66h2.1v-3.19h1.7v3.19h1.71v1.6c.46-.96.77-2.22.96-3.86l1.6.24c-.05.52-.13,1.06-.23,1.56h1.24v-2.74h1.73v2.74h3.1v1.6h-3.1v1.92h3.78v1.6h-3.41c.98,1.61,2.31,2.95,3.83,3.86l-1.03,1.69c-1.32-1.11-2.43-2.46-3.18-3.85v5.1h-1.73v-4.95c-.7,1.48-1.73,2.9-2.93,4.04l-1.19-1.52c1.58-1.09,2.82-2.53,3.76-4.38h-3.29v-1.6h3.65v-1.92h-1.63c-.18.59-.44,1.21-.75,1.83l-1.37-1.01c.05-.08.1-.16.15-.29h-1.68v1.58c.78.7,1.35,1.3,2.05,2.15l-.98,1.63c-.37-.72-.65-1.21-1.08-1.84v6.29h-1.7v-6.84Z"/>
        <path class="cls-7" d="M199.02,101.14c-.83.57-1.7.91-2.53.91-1.52,0-2.43-1.09-2.43-2.79,0-1.35.7-2.79,1.92-3.86.55-.49,1.21-.93,1.86-1.22.02-.49.05-1.08.1-1.71-1.24.06-2.33.1-3.1.1l-.1-1.81c.85.03,2.02.02,3.34-.05.08-.73.16-1.43.26-2.05l2,.26c-.13.5-.24,1.09-.33,1.68,1.52-.13,3.1-.31,4.5-.57l.16,1.84c-1.5.2-3.26.38-4.91.49-.07.49-.1.95-.13,1.35.72-.15,1.5-.23,2.31-.23.07-.31.11-.6.15-.95l1.84.25-.2.93c1.89.46,3.32,1.87,3.32,3.85,0,2.33-1.29,4.14-4.53,5.25l-1.47-1.48c2.98-.86,4.01-2.25,4.01-3.76,0-1.08-.73-1.91-1.79-2.27-.64,1.71-1.61,3.39-2.75,4.63.15.29.29.57.46.83l-1.53,1.32c-.16-.31-.33-.62-.46-.93ZM196.77,100.18c.5,0,1.08-.25,1.63-.73-.28-.96-.47-2.13-.54-3.37-.23.15-.46.34-.68.55-.65.57-1.22,1.53-1.22,2.41,0,.77.33,1.14.81,1.14ZM199.93,98.04c.64-.83,1.25-1.91,1.65-2.98-.7,0-1.37.1-1.96.28.03,1.01.11,1.91.31,2.71Z"/>
        <path class="cls-7" d="M210.76,101.74c1.34-2.98,2.28-5.75,2.95-8.59-1.11.08-2.12.13-2.93.16l-.21-1.94c1.11-.02,2.33-.06,3.57-.15.18-.88.33-1.78.46-2.69l2.02.31c-.15.75-.29,1.5-.46,2.22,1.21-.11,2.41-.28,3.52-.5l.29,1.91c-1.3.23-2.8.39-4.25.52-.77,3.23-1.69,6.27-2.98,9.53l-1.97-.78ZM216.5,99.57c0-.65.33-1.52.85-2.23l1.79.55c-.47.49-.7.99-.7,1.34,0,.57.65.93,2.2.93.95,0,2.13-.1,3.06-.29l.39,1.97c-1.06.18-2.45.23-3.23.23-3.01,0-4.37-.99-4.37-2.49ZM217.36,94.23c2.02-.36,4.25-.51,6.16-.39l-.26,1.89c-1.61-.13-3.85.02-5.39.31l-.5-1.81Z"/>
        <path class="cls-7" d="M229.54,93.53c0-1.35.18-2.72.55-4.61l1.97.46c-.42,1.63-.72,3.36-.72,4.6,0,.26,0,.47.02.68.34-.83.75-1.66,1.04-2.23l.95,1.3c-.54.86-.9,1.63-1.09,2.22-.26.78-.33,1.38-.28,2.25l-1.58.52c-.64-1.76-.86-3.44-.86-5.18ZM231.87,101.74c3.16-1.86,4.42-3.8,4.42-7.43,0-1.27-.13-3.23-.38-5.08l2.05-.23c.21,1.99.31,3.88.31,5.23,0,4.3-1.24,6.57-4.51,8.7l-1.89-1.19Z"/>
        <path class="cls-7" d="M250.49,100.75c3.01-.82,4.66-2.49,4.66-4.79s-1.43-3.65-3.58-3.85c-.15,1.81-.44,3.44-.91,4.87-.78,2.53-2.2,3.98-3.8,3.98s-2.87-1.65-2.87-3.8c0-3.86,3.15-6.91,7.09-6.91,3.65,0,6.13,2.25,6.13,5.69,0,3.01-1.81,5.18-5.18,6.36l-1.53-1.55ZM246.94,98.85c.73,0,1.43-.91,1.99-2.66.39-1.29.62-2.48.72-3.93-2.12.6-3.68,2.59-3.68,4.79,0,.99.46,1.79.98,1.79Z"/>
        <path class="cls-7" d="M263.42,96.87c-.68,1.6-1.48,2.87-2.31,3.76l-1.08-1.66c1.4-1.22,2.4-2.66,3.18-4.51h-2.87v-1.66h3.08v-1.68c-.64.1-1.53.23-2.2.29l-.7-1.5c2.1-.21,4.24-.65,5.98-1.22l1.03,1.48c-.7.23-1.53.46-2.35.62v2h2.61v1.66h-2.61v.99c1.11.73,1.91,1.34,2.64,2l-.99,1.71c-.41-.49-.62-.73-1.65-1.83v5.79h-1.76v-6.26ZM268.62,90.41h1.76v8.72h-1.76v-8.72ZM269.58,102.78l-.38-1.86c.83.13,1.63.2,2.35.2.46,0,.57-.11.57-.57v-11.28h1.79v11.98c0,1.3-.42,1.66-2,1.66-.73,0-1.6-.05-2.33-.13Z"/>
        <path class="cls-7" d="M276.76,101.04h2.12v-3.75c-.29.23-.59.41-1.24.77l-1.19-1.34c1.91-.86,3.42-2.12,4.42-3.67h-3.78v-1.56h4.06c-.33-.77-.75-1.5-1.27-2.17l1.78-.72c.47.6,1.03,1.47,1.43,2.3l-1.42.59h3.18c.55-.85,1.06-1.89,1.42-2.93l2,.65c-.46.83-.95,1.61-1.45,2.28h4.29v1.56h-3.73c1.12,1.32,2.71,2.51,4.33,3.28l-1.06,1.53c-.57-.36-1.01-.65-1.34-.88v4.06h2.12v1.56h-14.67v-1.56ZM288.4,96.26c-1.17-.95-2.15-2.02-2.9-3.21h-2.79c-.6,1.16-1.47,2.25-2.51,3.21h8.2ZM281.89,101.04v-3.34h-1.35v3.34h1.35ZM284.75,101.04v-3.34h-1.35v3.34h1.35ZM287.65,101.04v-3.34h-1.4v3.34h1.4Z"/>
      </g>
      <line class="cls-1" x1="155.71" y1="79.86" x2="300.29" y2="79.86"/>
      <g>
        <path class="cls-5" d="M67.61,152.32c-.52,1.64-1.12,3.02-1.85,4.3l-.88-2.27c1.12-1.44,1.98-3.28,2.54-5.31h-2.12v-1.84h2.32v-3.53h1.87v3.53h1.89v1.76c.5-1.06.85-2.45,1.06-4.27l1.76.27c-.05.58-.14,1.17-.25,1.73h1.37v-3.02h1.91v3.02h3.42v1.76h-3.42v2.12h4.18v1.76h-3.76c1.08,1.78,2.56,3.26,4.23,4.27l-1.13,1.87c-1.46-1.22-2.68-2.72-3.51-4.25v5.64h-1.91v-5.47c-.77,1.64-1.91,3.2-3.24,4.46l-1.31-1.67c1.75-1.21,3.11-2.79,4.16-4.84h-3.64v-1.76h4.03v-2.12h-1.8c-.2.65-.49,1.33-.83,2.02l-1.51-1.12c.05-.09.11-.18.16-.32h-1.85v1.75c.86.77,1.49,1.44,2.27,2.38l-1.08,1.8c-.42-.79-.72-1.33-1.19-2.03v6.95h-1.87v-7.56Z"/>
        <path class="cls-5" d="M85.18,151.95c-.31.58-.61,1.12-1.06,1.78l-.79-2.05c1.37-2.23,2.32-4.97,2.83-8.07l1.89.38c-.36,1.53-.61,2.45-.99,3.57v12.33h-1.87v-7.94ZM88.54,148.74h3.01v-2.12h-3.49v-1.84h11.85v1.84h-3.6v2.12h3.1v10.96h-1.73v-.94h-7.4v.94h-1.73v-10.96ZM91.66,157.01v-6.54h-1.39v6.54h1.39ZM94.61,148.74v-2.12h-1.37v2.12h1.37ZM94.61,157.01v-6.54h-1.37v6.54h1.37ZM97.67,157.01v-6.54h-1.48v6.54h1.48Z"/>
        <path class="cls-5" d="M107.39,150.25c0-.86.63-1.62,1.6-1.62s1.6.76,1.6,1.62-.67,1.6-1.6,1.6-1.6-.72-1.6-1.6ZM107.39,157.1c0-.86.63-1.6,1.6-1.6s1.6.74,1.6,1.6-.67,1.62-1.6,1.62-1.6-.74-1.6-1.62Z"/>
        <path class="cls-5" d="M120.51,147.82l-2.68.42-.07-2.2,5.29-.72-.02,1.48v11.74h-2.52v-10.71Z"/>
        <path class="cls-5" d="M126.72,152.2c0-4.3,2.02-6.88,5.19-6.88s4.93,2.29,4.93,6.52-1.94,6.84-5.15,6.84-4.97-2.3-4.97-6.48ZM134.24,152.05c0-3.29-.79-4.52-2.5-4.52-1.55,0-2.43,1.44-2.43,4.46s.86,4.48,2.52,4.48c1.53,0,2.41-1.39,2.41-4.43Z"/>
        <path class="cls-5" d="M139.03,152.2c0-4.3,2.02-6.88,5.19-6.88s4.93,2.29,4.93,6.52-1.94,6.84-5.15,6.84-4.97-2.3-4.97-6.48ZM146.56,152.05c0-3.29-.79-4.52-2.5-4.52-1.55,0-2.43,1.44-2.43,4.46s.86,4.48,2.52,4.48c1.53,0,2.41-1.39,2.41-4.43Z"/>
        <path class="cls-5" d="M151.34,152.2c0-4.3,2.02-6.88,5.19-6.88s4.93,2.29,4.93,6.52-1.94,6.84-5.15,6.84-4.97-2.3-4.97-6.48ZM158.87,152.05c0-3.29-.79-4.52-2.5-4.52-1.55,0-2.43,1.44-2.43,4.46s.86,4.48,2.52,4.48c1.53,0,2.41-1.39,2.41-4.43Z"/>
        <path class="cls-5" d="M169.32,144.76h13.9v12.89c0,1.41-.49,1.89-1.95,1.89-.74,0-1.94-.05-2.9-.13l-.43-2.11c.81.13,1.75.2,2.52.2.54,0,.7-.14.7-.65v-3.82h-9.79v6.66h-2.05v-14.94ZM175.19,151.24v-4.65h-3.82v4.65h3.82ZM181.17,151.24v-4.65h-3.93v4.65h3.93Z"/>
      </g>
      <g>
        <path class="cls-7" d="M75.13,188.69c-.76,1.76-1.64,3.17-2.56,4.16l-1.19-1.84c1.55-1.35,2.65-2.93,3.51-4.99h-3.17v-1.84h3.4v-1.85c-.7.11-1.69.25-2.43.32l-.77-1.66c2.32-.23,4.68-.72,6.61-1.35l1.13,1.64c-.77.25-1.69.5-2.59.68v2.21h2.88v1.84h-2.88v1.1c1.22.81,2.11,1.48,2.92,2.21l-1.1,1.89c-.45-.54-.68-.81-1.82-2.02v6.39h-1.95v-6.91ZM80.88,181.56h1.94v9.63h-1.94v-9.63ZM81.94,195.23l-.41-2.05c.92.14,1.8.22,2.59.22.5,0,.63-.13.63-.63v-12.46h1.98v13.23c0,1.44-.47,1.84-2.21,1.84-.81,0-1.76-.05-2.57-.14Z"/>
        <path class="cls-7" d="M89.86,193.3h2.34v-4.14c-.32.25-.65.45-1.37.85l-1.31-1.48c2.11-.96,3.78-2.34,4.88-4.05h-4.18v-1.73h4.48c-.36-.85-.83-1.66-1.41-2.39l1.96-.79c.52.67,1.13,1.62,1.58,2.54l-1.57.65h3.51c.61-.94,1.17-2.09,1.57-3.24l2.21.72c-.5.92-1.04,1.78-1.6,2.52h4.74v1.73h-4.12c1.24,1.46,2.99,2.77,4.79,3.62l-1.17,1.69c-.63-.4-1.12-.72-1.48-.97v4.48h2.34v1.73h-16.21v-1.73ZM102.71,188.03c-1.3-1.04-2.38-2.23-3.21-3.55h-3.08c-.67,1.28-1.62,2.49-2.77,3.55h9.06ZM95.53,193.3v-3.69h-1.5v3.69h1.5ZM98.68,193.3v-3.69h-1.49v3.69h1.49ZM101.88,193.3v-3.69h-1.55v3.69h1.55Z"/>
        <path class="cls-7" d="M113.54,185.97c0-.86.63-1.62,1.6-1.62s1.6.76,1.6,1.62-.67,1.6-1.6,1.6-1.6-.72-1.6-1.6ZM113.54,192.82c0-.86.63-1.6,1.6-1.6s1.6.74,1.6,1.6-.67,1.62-1.6,1.62-1.6-.74-1.6-1.62Z"/>
        <path class="cls-7" d="M126.66,183.54l-2.68.42-.07-2.2,5.29-.72-.02,1.48v11.74h-2.52v-10.71Z"/>
        <path class="cls-7" d="M132.87,187.92c0-4.3,2.02-6.88,5.19-6.88s4.93,2.29,4.93,6.52-1.94,6.84-5.15,6.84-4.97-2.3-4.97-6.48ZM140.4,187.77c0-3.29-.79-4.52-2.5-4.52-1.55,0-2.43,1.44-2.43,4.46s.86,4.48,2.52,4.48c1.53,0,2.41-1.39,2.41-4.43Z"/>
        <path class="cls-7" d="M145.19,187.92c0-4.3,2.02-6.88,5.19-6.88s4.93,2.29,4.93,6.52-1.94,6.84-5.15,6.84-4.97-2.3-4.97-6.48ZM152.71,187.77c0-3.29-.79-4.52-2.5-4.52-1.55,0-2.43,1.44-2.43,4.46s.86,4.48,2.52,4.48c1.53,0,2.41-1.39,2.41-4.43Z"/>
        <path class="cls-7" d="M163.17,180.48h13.9v12.89c0,1.41-.49,1.89-1.95,1.89-.74,0-1.94-.05-2.9-.13l-.43-2.11c.81.13,1.75.2,2.52.2.54,0,.7-.14.7-.65v-3.82h-9.79v6.66h-2.05v-14.94ZM169.04,186.96v-4.65h-3.82v4.65h3.82ZM175.02,186.96v-4.65h-3.93v4.65h3.93Z"/>
      </g>
      <line class="cls-1" x1="52.15" y1="168.38" x2="197.47" y2="168.38"/>
      <path class="cls-6" d="M286.02,174.52l-.07.11c-.5.76-.74,1.08-1.04,1.48l-.85-2.09c1.48-2.18,2.59-4.93,3.21-7.85l1.98.45c-.45,1.67-.81,2.84-1.28,4.02v11.81h-1.94v-7.92ZM288.75,172.57h2.75c-.34-1.21-.56-1.87-.88-2.59h-1.19v-1.62h3.94v-2.12h1.98v2.12h4.27v1.62h-1.48c-.23.79-.59,1.75-.97,2.59h3.24v1.66h-11.67v-1.66ZM290.21,175.62h8.52v6.82h-1.95v-.86h-4.63v.86h-1.94v-6.82ZM296.78,179.85v-2.58h-4.63v2.58h4.63ZM295.22,172.57c.34-.85.65-1.69.88-2.59h-3.48c.38.99.63,1.76.85,2.59h1.75Z"/>
      <g>
        <path class="cls-6" d="M25.54,147.17c0-2.11.65-4.08,1.91-5.89h1.74c-1.31,1.78-2,3.76-2,5.86s.69,4.13,2,5.85h-1.74c-1.26-1.7-1.91-3.72-1.91-5.82Z"/>
        <path class="cls-6" d="M31.74,147.26c-.22.42-.44.81-.77,1.29l-.57-1.48c.99-1.61,1.68-3.59,2.04-5.82l1.37.27c-.22.96-.44,1.74-.74,2.65v8.83h-1.33v-5.73ZM33.43,151.89c.99-.6,1.74-1.46,2.5-2.83-.47-.52-.75-.81-1.13-1.12-.31.57-.52.88-.81,1.25l-.74-1.2c.83-1.14,1.38-2.67,1.66-4.67h-1.08v-1.33h4.42v1.33h-2.09c-.07.44-.12.74-.22,1.3h1.61l.58.56c-.38,3.81-1.61,6.38-3.71,7.75l-1-1.04ZM36.79,145.87h-1.17c-.14.44-.22.69-.36,1.05.51.35.78.56,1.14.88.18-.61.34-1.34.39-1.94ZM38.55,142.98h1.3v7.09h-1.3v-7.09ZM39.03,152.79l-.26-1.35c.48.07,1.05.1,1.47.1.32,0,.4-.07.4-.39v-9.33h1.33v9.95c0,.81-.33,1.12-1.2,1.12-.45,0-1.18-.04-1.74-.09Z"/>
        <path class="cls-6" d="M45.85,147.14c0-2.11-.69-4.08-2-5.86h1.74c1.26,1.81,1.91,3.78,1.91,5.89s-.65,4.12-1.91,5.82h-1.74c1.31-1.72,2-3.74,2-5.85Z"/>
      </g>
      <path class="cls-2" d="M239.78,14.84H19.1c-4,0-7.25,3.24-7.25,7.25v10.4c0,4,3.24,7.25,7.25,7.25h41.8l4.78,9.3,4.24-9.3h169.86c4,0,7.25-3.24,7.25-7.25v-10.4c0-4-3.24-7.25-7.25-7.25Z"/>
      <g>
        <path class="cls-6" d="M27.46,26.17c1.69-.64,2.96-1.71,3.85-3.25h1.3c.98,1.31,2.3,2.29,4.03,2.99l-.71.97c-.61-.27-1.18-.58-1.68-.91v.7h-4.35v-.58c-.47.35-1.04.68-1.75,1.02l-.69-.94ZM34.53,30.89c-1.8.27-3.94.51-6.15.68l-.34-1.11,1.36-.06c.31-.54.6-1.15.89-1.86h-2.34v-1h8.2v1h-4.56c-.31.68-.59,1.24-.92,1.78,1.11-.07,2.29-.17,3.16-.26-.32-.36-.49-.53-.91-.93l.97-.51c.88.79,1.65,1.61,2.32,2.5l-1.03.69c-.22-.32-.43-.62-.65-.92ZM33.84,25.69c-.73-.53-1.37-1.14-1.87-1.79-.42.67-.95,1.28-1.55,1.79h3.42Z"/>
        <path class="cls-6" d="M39.35,28.32c-.35.39-.76.78-1.16,1.11l-.53-1.01c.93-.66,2.08-1.91,2.62-2.85h-2.3v-1.02h1.34v-1.73h1.08v1.73h.86l.44.46c-.27.59-.68,1.24-1.22,1.96.69.44,1.25.84,1.71,1.23l-.67.97c-.38-.41-.68-.71-1.09-1.07v3.67h-1.08v-3.45ZM41.25,30.38h2.17v-3.82h-1.74v-1.06h1.74v-2.58h1.16v2.58h1.91v1.06h-1.91v3.82h2.25v1.08h-5.58v-1.08Z"/>
        <path class="cls-6" d="M52.45,30.31c1.85-.5,2.86-1.53,2.86-2.94s-.88-2.24-2.2-2.36c-.09,1.11-.27,2.11-.56,2.99-.48,1.55-1.35,2.44-2.33,2.44s-1.76-1.01-1.76-2.33c0-2.37,1.93-4.24,4.35-4.24,2.24,0,3.76,1.38,3.76,3.49,0,1.85-1.11,3.18-3.18,3.9l-.94-.95ZM50.27,29.15c.45,0,.88-.56,1.22-1.63.24-.79.38-1.52.44-2.41-1.3.37-2.26,1.59-2.26,2.94,0,.61.28,1.1.6,1.1Z"/>
        <path class="cls-6" d="M60.38,27.93c-.42.98-.91,1.76-1.42,2.31l-.66-1.02c.86-.75,1.47-1.63,1.95-2.77h-1.76v-1.02h1.89v-1.03c-.39.06-.94.14-1.35.18l-.43-.92c1.29-.13,2.6-.4,3.67-.75l.63.91c-.43.14-.94.28-1.44.38v1.23h1.6v1.02h-1.6v.61c.68.45,1.17.82,1.62,1.23l-.61,1.05c-.25-.3-.38-.45-1.01-1.12v3.55h-1.08v-3.84ZM63.57,23.97h1.08v5.35h-1.08v-5.35ZM64.16,31.55l-.23-1.14c.51.08,1,.12,1.44.12.28,0,.35-.07.35-.35v-6.92h1.1v7.35c0,.8-.26,1.02-1.23,1.02-.45,0-.98-.03-1.43-.08Z"/>
        <path class="cls-6" d="M68.56,30.49h1.3v-2.3c-.18.14-.36.25-.76.47l-.73-.82c1.17-.53,2.1-1.3,2.71-2.25h-2.32v-.96h2.49c-.2-.47-.46-.92-.78-1.33l1.09-.44c.29.37.63.9.88,1.41l-.87.36h1.95c.34-.52.65-1.16.87-1.8l1.23.4c-.28.51-.58.99-.89,1.4h2.63v.96h-2.29c.69.81,1.66,1.54,2.66,2.01l-.65.94c-.35-.22-.62-.4-.82-.54v2.49h1.3v.96h-9v-.96ZM75.69,27.56c-.72-.58-1.32-1.24-1.78-1.97h-1.71c-.37.71-.9,1.38-1.54,1.97h5.03ZM71.71,30.49v-2.05h-.83v2.05h.83ZM73.46,30.49v-2.05h-.83v2.05h.83ZM75.23,30.49v-2.05h-.86v2.05h.86Z"/>
        <path class="cls-6" d="M79.83,27.95c0-.97.19-2.67.53-4.64l1.23.2c-.42,1.96-.61,3.63-.61,4.37,0,.29,0,.55.04.78.15-.46.35-.94.56-1.33l.69.73c-.33.64-.5,1.08-.6,1.48-.13.48-.18.93-.13,1.33l-.94.4c-.49-.92-.77-2.05-.77-3.32ZM82.72,29.07c0-.46.19-.98.71-1.55l1.11.38c-.44.39-.62.7-.62.98,0,.47.38.72,1.44.72.48,0,1.11-.06,1.76-.22l.24,1.24c-.66.11-1.44.15-1.84.15-1.92,0-2.8-.5-2.8-1.7ZM82.81,24.36c1.17.03,3.02-.07,4.19-.25l.13,1.19c-1.26.19-2.99.28-4.21.27l-.11-1.21Z"/>
        <path class="cls-6" d="M89.2,30.8c.75-.43,1.45-1.26,1.9-2.24-.59-.76-1.06-1.3-1.57-1.83l.79-.69c.4.41.74.8,1.18,1.33.15-.52.25-1.13.32-1.81h-2.66v-1.04h1.81v-1.65h1.1v1.65h1.55v.55h2.31v-2.2h1.1v2.2h1.05v1.04h-1v4.58c0,.74-.24.96-1.05.96-.41,0-.93-.02-1.33-.06l-.25-1.17c.39.06.84.1,1.21.1.26,0,.32-.06.32-.29v-4.12h-2.56v-.55h-.56c-.08.93-.29,1.92-.59,2.78.4.51.79,1.07,1.15,1.62l-.82.88c-.29-.5-.48-.79-.83-1.32-.49.95-1.09,1.67-1.8,2.17l-.77-.89ZM93.46,27.06l.89-.52c.48.66.9,1.43,1.21,2.21l-.91.58c-.33-.88-.76-1.69-1.19-2.27Z"/>
        <path class="cls-6" d="M101.55,28.59c0-.56.03-1.72.05-2.48.02-.67.02-2.09,0-2.94h1.35c-.02.87-.06,2.22-.09,2.87-.03.67-.06,1.83-.06,2.45,0,1.16.34,1.67,1.19,1.67,1.09,0,2.32-.85,3.01-2.16l.67,1.33c-.95,1.27-2.25,2.04-3.72,2.04-1.71,0-2.4-1.02-2.4-2.78Z"/>
        <path class="cls-6" d="M112.68,28.27c0-1.02.67-2.05,1.84-2.93-1.74.18-2.97.28-4.32.38l-.16-1.25c2.09-.08,5.43-.27,7.82-.67l.22,1.22c-1.44.16-2.06.42-2.79,1.02-.85.69-1.37,1.42-1.37,2.22,0,1.11.93,1.67,2.76,1.9l-.56,1.19c-2.13-.29-3.44-1.33-3.44-3.08Z"/>
        <path class="cls-6" d="M119.62,29.58l.99-.84c.65.55,1.39,1.38,1.92,2.15l-1.06.94c-.46-.79-1.18-1.66-1.85-2.25Z"/>
        <path class="cls-6" d="M131.37,27.57c-.29.91-.62,1.68-1.03,2.39l-.49-1.26c.62-.8,1.1-1.82,1.41-2.95h-1.18v-1.02h1.29v-1.96h1.04v1.96h1.05v.98c.28-.59.47-1.36.59-2.37l.98.15c-.03.32-.08.65-.14.96h.76v-1.68h1.06v1.68h1.9v.98h-1.9v1.18h2.32v.98h-2.09c.6.99,1.42,1.81,2.35,2.37l-.63,1.04c-.81-.68-1.49-1.51-1.95-2.36v3.13h-1.06v-3.04c-.43.91-1.06,1.78-1.8,2.48l-.73-.93c.97-.67,1.73-1.55,2.31-2.69h-2.02v-.98h2.24v-1.18h-1c-.11.36-.27.74-.46,1.12l-.84-.62c.03-.05.06-.1.09-.18h-1.03v.97c.48.43.83.8,1.26,1.32l-.6,1c-.23-.44-.4-.74-.66-1.13v3.86h-1.04v-4.2Z"/>
        <path class="cls-6" d="M141.13,27.36c-.17.32-.34.62-.59.99l-.44-1.14c.76-1.24,1.29-2.76,1.57-4.48l1.05.21c-.2.85-.34,1.36-.55,1.98v6.85h-1.04v-4.41ZM143,25.58h1.67v-1.18h-1.94v-1.02h6.58v1.02h-2v1.18h1.72v6.09h-.96v-.52h-4.11v.52h-.96v-6.09ZM144.73,30.17v-3.63h-.77v3.63h.77ZM146.37,25.58v-1.18h-.76v1.18h.76ZM146.37,30.17v-3.63h-.76v3.63h.76ZM148.06,30.17v-3.63h-.82v3.63h.82Z"/>
        <path class="cls-6" d="M150.91,30.68c.8-1.47,1.39-2.83,1.8-4.26l-1.52.22-.21-1.17c.47-.03,1.25-.12,1.96-.21.16-.7.29-1.42.41-2.19l1.22.2c-.12.59-.26,1.2-.41,1.84.26-.03.49-.04.68-.04,1.05,0,1.7.66,1.7,1.89,0,.86-.08,1.95-.3,2.87-.24,1-.76,1.39-1.54,1.39-.42,0-.9-.07-1.34-.22l-.09-1.31c.46.22.91.31,1.18.31.36,0,.56-.18.69-.82.12-.57.19-1.3.19-2.02,0-.67-.24-.96-.69-.96-.16,0-.38.02-.71.05-.5,1.76-1.07,3.35-1.88,5.02l-1.14-.59ZM156.64,25.1l.96-.62c-.17-.33-.34-.58-.58-.88l.62-.42c.4.46.6.81.87,1.38l-.56.36c.59.9.99,1.85,1.36,3.25l-1.13.62c-.38-1.64-.82-2.78-1.54-3.69ZM158.2,23.25l.62-.42c.4.47.61.86.86,1.4l-.68.42c-.23-.57-.45-.95-.8-1.4Z"/>
        <path class="cls-6" d="M161.01,23.65h3.69v-.88h1.16v.88h3.74v.88h-8.59v-.88ZM161.26,27.18h8.1v3.67c0,.61-.29.85-1.01.85-.42,0-.88-.02-1.28-.05l-.21-1.04c.33.05.75.08,1.07.08.3,0,.35-.04.35-.29v-2.38h-5.94v3.75h-1.08v-4.59ZM162.61,24.92h5.4v1.87h-5.4v-1.87ZM163.23,28.41h4.05v2h-3.03v.52h-1.02v-2.52ZM166.92,26.09v-.47h-3.24v.47h3.24ZM166.25,29.65v-.52h-2.01v.52h2.01Z"/>
        <path class="cls-6" d="M172.37,29.05c-.23-.73-.39-1.98-.39-3.21,0-.53.02-1.23.08-1.89l1.3.27c-.08.69-.12,1.28-.12,1.95,0,1.03.1,1.79.27,2.37.18.62.45.99.73.99.31,0,.7-.73.94-1.96l1.07.9c-.42,1.61-1.15,2.48-2,2.48s-1.51-.74-1.88-1.9ZM176.92,25.29l.94-.86c1.19,1.06,1.61,2.57,1.86,4.56l-1.28.39c-.26-1.92-.57-3.22-1.52-4.09Z"/>
        <path class="cls-6" d="M181.86,30.58c.81-1.49,1.38-2.82,1.8-4.26l-1.52.22-.21-1.17c.47-.03,1.25-.12,1.95-.21.16-.69.3-1.42.42-2.19l1.22.2c-.11.59-.25,1.2-.41,1.84.26-.03.49-.04.68-.04,1.05,0,1.7.66,1.7,1.89,0,.86-.08,1.95-.3,2.87-.24,1-.76,1.39-1.54,1.39-.42,0-.9-.08-1.34-.22l-.09-1.31c.46.22.91.31,1.18.31.36,0,.56-.18.69-.82.12-.57.19-1.3.19-2.02,0-.67-.24-.96-.69-.96-.16,0-.39.02-.71.05-.5,1.76-1.06,3.33-1.88,5.02l-1.14-.59ZM187.64,24.96l1.02-.65c.76,1.05,1.16,2.11,1.59,3.76l-1.14.62c-.37-1.65-.77-2.8-1.47-3.73Z"/>
        <path class="cls-6" d="M196.66,30.33c-.9.72-2.31,1.2-4.1,1.4l-.68-1c1.76-.12,2.8-.38,3.72-.91-.53-.24-.76-.34-1.31-.57-.1.16-.2.3-.33.48l-1.04-.41c.37-.52.67-.98,1.14-1.78h-2.35v-.98h2.86c.22-.45.42-.91.62-1.42l1.12.21c-.19.48-.33.82-.51,1.21h4.61v.98h-1.89c-.21.68-.58,1.39-1.05,1.98,1.1.51,1.71.8,2.66,1.29l-.85.95c-1.17-.67-1.72-.97-2.62-1.43ZM191.96,23.89h3.48v-1.12h1.18v1.12h3.54v2.18h-1.14v-1.24h-5.92v1.24h-1.14v-2.18ZM197.33,27.54h-2c-.18.33-.35.63-.51.9.59.22,1,.38,1.64.64.34-.38.66-.94.87-1.54Z"/>
        <path class="cls-6" d="M203.12,29.05c-.23-.73-.39-1.98-.39-3.21,0-.53.02-1.23.08-1.89l1.3.27c-.08.69-.12,1.28-.12,1.95,0,1.03.1,1.79.27,2.37.18.62.45.99.73.99.31,0,.7-.73.94-1.96l1.07.9c-.42,1.61-1.15,2.48-2,2.48s-1.51-.74-1.88-1.9ZM207.67,25.29l.94-.86c1.19,1.06,1.61,2.57,1.86,4.56l-1.28.39c-.26-1.92-.57-3.22-1.52-4.09Z"/>
        <path class="cls-6" d="M212.61,30.58c.81-1.49,1.38-2.82,1.8-4.26l-1.52.22-.21-1.17c.47-.03,1.25-.12,1.95-.21.16-.69.3-1.42.42-2.19l1.22.2c-.11.59-.25,1.2-.41,1.84.26-.03.49-.04.68-.04,1.05,0,1.7.66,1.7,1.89,0,.86-.08,1.95-.3,2.87-.24,1-.76,1.39-1.54,1.39-.42,0-.9-.08-1.34-.22l-.09-1.31c.46.22.91.31,1.18.31.36,0,.56-.18.69-.82.12-.57.19-1.3.19-2.02,0-.67-.24-.96-.69-.96-.16,0-.39.02-.71.05-.5,1.76-1.06,3.33-1.88,5.02l-1.14-.59ZM218.39,24.96l1.02-.65c.76,1.05,1.16,2.11,1.59,3.76l-1.14.62c-.37-1.65-.77-2.8-1.47-3.73Z"/>
      </g>
    </g>
  </g>
</svg>