<?xml version="1.0" encoding="UTF-8"?>
<svg id="_レイヤー_2" data-name="レイヤー 2" xmlns="http://www.w3.org/2000/svg" width="339.66" height="306.31" viewBox="0 0 339.66 306.31">
  <defs>
    <style>
      .cls-1 {
        fill: #211815;
      }

      .cls-2 {
        fill: #f5f19b;
      }

      .cls-3 {
        fill: #ecbb6e;
      }

      .cls-4 {
        fill: #93c9ce;
      }

      .cls-5 {
        fill: #5c948d;
      }

      .cls-6 {
        fill: #fffba1;
      }

      .cls-7, .cls-8 {
        fill: #fff;
      }

      .cls-9 {
        fill: #d3f2c9;
      }

      .cls-10 {
        fill: #de8a4c;
      }

      .cls-11 {
        fill: #ceeaeb;
      }

      .cls-12 {
        fill: #f2d496;
      }

      .cls-8 {
        stroke: #ceeaeb;
        stroke-miterlimit: 10;
        stroke-width: 2.83px;
      }
    </style>
  </defs>
  <g id="_レイヤー_1-2" data-name="レイヤー 1">
    <g>
      <path class="cls-8" d="M9.89,195.69h239.38c4.68,0,8.47,3.79,8.47,8.47v69.68s9.69,9.69,9.69,9.69h-9.69s0,.5,0,.5c0,4.68-3.79,8.47-8.47,8.47H9.89c-4.68,0-8.47-3.79-8.47-8.47v-79.87c0-4.68,3.79-8.47,8.47-8.47Z"/>
      <circle class="cls-9" cx="305.91" cy="276.31" r="30"/>
      <g>
        <path d="M26.64,220.4c-.69,0-1.79.23-2.54.51-1.59.61-2.64,1.74-2.64,2.83,0,.69.45,1.15,1.35,1.38.41.1,1.11.18,1.6.17h.15c.25,0,.34.09.34.29,0,.49-.09,1.18-.17,1.38-.06.12-.13.17-.29.17-.91,0-2.07-.24-2.85-.6-1.15-.51-1.79-1.4-1.79-2.51,0-.71.27-1.42.78-2.07.29-.34.51-.56,1.05-.93-2.73.83-4.09,1.35-5.01,1.95-.12.08-.19.1-.27.1-.17,0-.3-.13-.51-.51-.21-.34-.36-.76-.36-.99,0-.14.06-.18.42-.29.34-.1.58-.25,1.16-.66.69-.51,1.77-1.44,2.7-2.33.77-.73,1.2-1.18,2.1-2.23-.87.11-3.23.51-3.57.6-.21.06-.22.06-.27.06-.14,0-.2-.06-.25-.21-.12-.33-.23-.88-.3-1.51.21.01.32.01.45.01.67,0,2.13-.12,3.93-.34.67-.08,1.07-.17,1.33-.3.18-.09.21-.1.32-.1.18,0,.42.19.84.7.3.35.39.51.39.68s-.06.24-.25.38q-.27.17-1.53,1.33c-1.04.96-2.27,2.01-3.65,3.1,2.12-.63,3.22-.93,5.52-1.44.51-.11,1.01-.24,1.58-.42.08-.03.13-.04.18-.04.12,0,.18.06.25.19.17.34.36,1.08.36,1.35,0,.21-.06.3-.22.3h-.34Z"/>
        <path d="M34.14,218.2c.97-.25,1.62-.34,2.33-.34,2.13,0,3.36,1.26,3.36,3.42,0,1.88-.81,3.39-2.45,4.59-.87.64-2.19,1.29-2.62,1.29-.2,0-.24-.04-.56-.49-.22-.35-.45-.55-.82-.83,1.72-.58,2.44-.96,3.22-1.64.9-.79,1.35-1.75,1.35-2.89,0-1.21-.57-1.9-1.58-1.9-.81,0-1.86.31-3.22.97-.2.09-.3.17-.55.35-.06.03-.12.06-.18.06-.29,0-.77-.84-1.1-1.96.56-.04.84-.12,2.82-.61ZM35.15,214.54c.54.17,1.35.32,2.08.41.3.03.41.04,1.17.07.22,0,.29.06.29.23,0,.5-.11,1.31-.2,1.46-.03.09-.1.12-.21.12-.34,0-1.56-.17-2.26-.31-1.19-.24-2.22-.54-2.43-.71-.05-.04-.08-.11-.08-.17,0-.12.31-.93.46-1.21.08-.12.12-.15.21-.15q.08,0,.96.27Z"/>
        <path d="M55.56,220.4c-.69,0-1.79.23-2.54.51-1.59.61-2.64,1.74-2.64,2.83,0,.69.45,1.15,1.35,1.38.41.1,1.11.18,1.6.17h.15c.25,0,.34.09.34.29,0,.49-.09,1.18-.17,1.38-.06.12-.13.17-.29.17-.91,0-2.07-.24-2.85-.6-1.15-.51-1.79-1.4-1.79-2.51,0-.71.27-1.42.78-2.07.29-.34.51-.56,1.05-.93-2.73.83-4.09,1.35-5.01,1.95-.12.08-.19.1-.27.1-.17,0-.3-.13-.51-.51-.21-.34-.36-.76-.36-.99,0-.14.06-.18.42-.29.34-.1.58-.25,1.16-.66.69-.51,1.77-1.44,2.7-2.33.77-.73,1.2-1.18,2.1-2.23-.87.11-3.23.51-3.57.6-.21.06-.22.06-.27.06-.14,0-.2-.06-.25-.21-.12-.33-.23-.88-.3-1.51.21.01.32.01.45.01.67,0,2.13-.12,3.93-.34.67-.08,1.07-.17,1.33-.3.18-.09.21-.1.32-.1.18,0,.42.19.84.7.3.35.39.51.39.68s-.06.24-.25.38q-.27.17-1.53,1.33c-1.04.96-2.27,2.01-3.65,3.1,2.12-.63,3.22-.93,5.52-1.44.51-.11,1.01-.24,1.58-.42.08-.03.13-.04.18-.04.12,0,.18.06.25.19.17.34.36,1.08.36,1.35,0,.21-.06.3-.22.3h-.34Z"/>
        <path d="M63.06,218.2c.97-.25,1.62-.34,2.33-.34,2.13,0,3.36,1.26,3.36,3.42,0,1.88-.81,3.39-2.45,4.59-.87.64-2.19,1.29-2.62,1.29-.2,0-.24-.04-.56-.49-.22-.35-.45-.55-.82-.83,1.72-.58,2.44-.96,3.22-1.64.9-.79,1.35-1.75,1.35-2.89,0-1.21-.57-1.9-1.58-1.9-.81,0-1.86.31-3.22.97-.2.09-.3.17-.55.35-.06.03-.12.06-.18.06-.29,0-.77-.84-1.1-1.96.56-.04.84-.12,2.82-.61ZM64.07,214.54c.54.17,1.35.32,2.08.41.3.03.41.04,1.17.07.22,0,.29.06.29.23,0,.5-.11,1.31-.2,1.46-.03.09-.1.12-.21.12-.34,0-1.56-.17-2.26-.31-1.19-.24-2.22-.54-2.43-.71-.05-.04-.08-.11-.08-.17,0-.12.31-.93.46-1.21.08-.12.12-.15.21-.15q.08,0,.96.27Z"/>
        <path d="M80.54,225.83c0,.66-.52,1.18-1.18,1.18s-1.19-.53-1.19-1.18.53-1.18,1.19-1.18,1.18.52,1.18,1.18ZM80.01,223.61h-1.33l-.41-8.98h2.16l-.42,8.98Z"/>
        <path d="M89.85,218.21c-.39.09-.53.13-1.07.33-.19.08-.3.11-.39.11-.33,0-.63-.62-.9-1.91.96-.04,1.31-.09,2.97-.34,1.8-.27,4.08-.62,5.28-.77,1.35-.18,2.43-.36,3-.48.1-.03.15-.03.22-.03.2,0,.27.09.41.46.12.32.21.77.21.97,0,.18-.06.24-.27.24-.32,0-.6.03-.89.08-2.53.42-4.56,2.64-4.56,4.98,0,1.76,1.38,2.91,3.72,3.12.21.01.29.09.29.27,0,.38-.15,1.09-.29,1.42-.08.17-.19.24-.39.24s-.65-.09-1.11-.22c-2.55-.75-3.88-2.37-3.88-4.66,0-1.25.41-2.4,1.19-3.39.42-.54.78-.84,1.63-1.42-1.96.33-4.04.72-5.17,1ZM97.53,218.61c.21,0,1.48,1.42,1.48,1.65,0,.08-.09.17-.36.41-.29.24-.3.24-.42.29q-.08.03-.11.03c-.06,0-.08-.01-.34-.43-.24-.38-.5-.71-.97-1.2-.03-.03-.08-.11-.08-.12.03-.08.04-.12.06-.12.04-.06.3-.27.36-.31.15-.08.24-.13.25-.15.01-.03.04-.03.04-.03h.08ZM100.1,219.64c-.22.16-.36.25-.43.25-.06,0-.09-.03-.17-.15-.45-.67-.67-.96-1.16-1.42-.03-.04-.06-.09-.06-.12,0-.08.09-.17.3-.32.21-.15.39-.24.46-.24.11,0,.29.14.6.45.44.45.84,1,.84,1.14,0,.09-.11.2-.39.41Z"/>
        <path d="M105.86,218.85c-1.07-.21-1.88-.53-2.43-.92-.27-.18-.33-.25-.33-.39,0-.17.12-.46.54-1.3.73.46,1.56.79,2.5.99.21-1.05.3-1.92.31-2.89.77.13,1.44.36,1.82.57.17.09.22.18.21.3,0,.06-.03.12-.11.27-.22.46-.24.51-.55,1.98.15.01.34.01.46.01h.11c.36-.01.63-.01.76-.01h.04c.13,0,.18.06.18.25,0,.66-.04,1.2-.1,1.3-.04.08-.24.11-.87.11-.29,0-.51-.02-.93-.03q-.32,1.54-.45,2.35c.51.04.62.04.87.04h.84c.15-.01.22.02.27.09.06.09.11.57.11,1.11,0,.27-.02.34-.11.39-.07.03-.4.05-.97.05-.27,0-.67-.01-1.2-.05-.01.27-.01.45-.01.57,0,1.38.64,2.01,2.05,2.01,1.58,0,2.52-.76,2.52-2.05,0-.46-.1-.88-.34-1.35-.3-.57-.58-.9-1.3-1.47h.13c.24,0,.75-.07,1.2-.16.24-.04.33-.06.41-.06.22,0,.38.11.67.48.69.84,1.04,1.72,1.04,2.65,0,2.12-1.71,3.51-4.31,3.51-2.43,0-3.64-1.21-3.64-3.67,0-.21,0-.38.03-.63-1.49-.31-2.29-1.05-2.29-2.12,0-.55.17-.96.58-1.38.04-.06.1-.08.17-.08.09,0,.19.08.54.36.27.22.31.27.31.34q0,.06-.09.19c-.06.11-.12.27-.12.36,0,.19.12.36.35.46.21.1.27.12.75.23l.39-2.43Z"/>
        <path d="M116.52,223.54c.27-.24.34-.3.45-.3.19,0,1.09.66,1.75,1.29.75.69,1.59,1.7,1.59,1.91,0,.14-.03.17-.46.56-.57.52-.69.62-.79.62-.09,0-.18-.06-.25-.21-.53-.93-1.73-2.16-2.79-2.85-.12-.09-.18-.15-.18-.24,0-.11.03-.15.69-.76Z"/>
        <path d="M143.64,221.42c-.64-.08-1.33-.1-2.19-.1h-8.52c-.79,0-1.59.04-2.21.1v-1.92c.64.08,1.26.1,2.21.1h8.52c.97,0,1.65-.03,2.19-.1v1.92Z"/>
        <path d="M152.46,224.53q-.04-.16-.1-.34c-.78.57-1.19.81-2.28,1.41-.71.38-.81.43-1.23.67l-.48-1.51c.45-.14.62-.19.95-.33v-3.69c-.14.17-.21.27-.27.35-.01.03-.1.18-.22.38-.03.06-.08.12-.13.22-.29-.51-.44-.82-.68-1.47q0,.3.02.67c.01.18.01.68.01,1.11v3.64c0,.71.03,1.29.08,1.77h-1.54c.06-.53.09-1.08.09-1.77v-3.04q.03-.6.03-.76c.01-.18.01-.35.03-.51.02-.15.02-.24.03-.46-.46,1.51-.76,2.25-1.27,3.13-.29-.71-.44-.97-.78-1.43.84-1.23,1.62-3.15,1.88-4.53h-.46c-.44,0-.72.02-.98.06v-1.44c.29.04.5.06.98.06h.54v-1.17c0-.71-.02-1.06-.08-1.5h1.54c-.06.41-.08.83-.08,1.49v1.18h.13c.38,0,.57-.01.84-.06v1.44c-.25-.04-.49-.06-.82-.06h-.11c.18.72.58,1.47,1.23,2.29v-4.38c0-.63-.02-1.04-.04-1.38.28.03.66.04,1.14.04h1.58c.48,0,.81-.02,1.12-.04-.03.33-.05.72-.05,1.32v4.12c0,.63.02.93.05,1.18-.21-.01-.44-.03-.93-.03h-1.57v2.69c.51-.24.87-.45,1.32-.74-.22-.45-.31-.63-.62-1.16l1.07-.44c.64,1.11.66,1.12,1.18,2.37.57-.78,1.04-1.67,1.53-2.87h-.43c-.54,0-.92.01-1.31.06v-1.47c.27.03.33.03.6.04v-3.67c-.24.01-.36.01-.51.03v-1.46c.41.06.68.07,1.26.07h2.29c.51,0,.88-.01,1.27-.07v1.48c-.31-.03-.48-.04-.78-.06-.13,1.59-.24,2.24-.63,3.67h.17c.62,0,.92-.01,1.32-.07v1.51c-.39-.06-.75-.07-1.38-.07h-.54c-.17.44-.22.57-.41.99h.6c-.04.29-.06.54-.06.9v2.44c0,.3.06.38.32.38.19,0,.33-.06.38-.16.09-.18.13-.79.13-1.61v-.54c.45.3.72.42,1.12.54-.08,1.7-.17,2.33-.42,2.7-.23.34-.54.45-1.38.45-1.14,0-1.37-.2-1.37-1.21v-2.49c-.9,1.7-1.93,2.98-3.15,3.93-.41-.49-.69-.76-1.16-1.11.92-.57,1.75-1.34,2.38-2.16l-.96.45ZM151.83,217.28v-1.32h-1.23v1.32h1.23ZM150.6,219.85h1.23v-1.35h-1.23v1.35ZM155.55,219.67c.38-1.33.48-2.07.55-3.67h-.85v3.67h.3Z"/>
        <path d="M163.64,223c.04.07.06.13.06.21,0,.1-.02.12-.15.45-.3.69-.66,1.77-.84,2.58-.04.16-.09.25-.15.29-.08.03-.59.1-.75.1h-.06c-.08,0-.18-.01-.3-.01-.2,0-.24-.04-.3-.23-.29-.97-.51-2.99-.51-4.5,0-1.65.1-2.67.52-4.92.15-.81.22-1.26.29-1.76.63.12,1.17.27,1.62.48.25.11.33.18.33.33,0,.11-.02.15-.18.39-.5.79-1.05,3.98-1.05,6.12,0,.34.02.81.06,1.56.42-.94.57-1.23.92-1.96.13.32.22.46.49.87ZM166.89,224.06c.48.26,1.05.35,2.06.35s1.53-.08,2.46-.35c.09-.03.16-.04.21-.04.1,0,.18.06.19.21.08.51.13,1.11.13,1.41,0,.15-.04.2-.25.25-.81.21-1.63.32-2.64.32-1.38,0-2.23-.17-2.94-.58-.66-.41-1.35-1.23-1.35-1.63,0-.21.32-.5,1.12-.99.27.54.53.81,1,1.06ZM165.84,216.41c.33.08,1.29.14,2.03.14.99,0,1.98-.08,2.91-.24q.08-.02.14-.02c.1,0,.15.04.18.17.03.15.08.81.08,1.22,0,.22-.04.3-.21.33-.62.12-1.63.19-2.71.19-1.29,0-2.45-.08-2.59-.17-.08-.04-.11-.15-.11-.42,0-.41.04-1,.08-1.12.01-.06.06-.09.15-.09.02,0,.04,0,.08.01Z"/>
        <path d="M174.36,223.54c.27-.24.34-.3.45-.3.19,0,1.09.66,1.75,1.29.75.69,1.59,1.7,1.59,1.91,0,.14-.03.17-.46.56-.57.52-.69.62-.79.62-.09,0-.18-.06-.25-.21-.53-.93-1.73-2.16-2.79-2.85-.12-.09-.18-.15-.18-.24,0-.11.03-.15.69-.76Z"/>
        <path d="M189.83,221.39c0-.67.01-1.24.04-1.57-.33.55-.67,1.04-1.14,1.57-.21-.73-.35-1.09-.67-1.77,1.02-1.05,1.75-2.19,2.32-3.64.27-.66.5-1.47.58-2.05l1.65.42c-.57,1.77-.72,2.16-1.29,3.29v8.07c0,.63.01,1.12.08,1.67h-1.67c.06-.59.09-1.01.09-1.68v-4.29ZM194.61,220.03v2.92c.94-.21,1.54-.38,2.55-.68l-.02,1.44c-1.68.54-2.55.76-4.47,1.16-.25.06-.4.09-.6.15l-.22-1.62q.43-.03,1.24-.16v-6.62c0-.73-.01-.97-.06-1.32h.33c2.16,0,5.31-.64,6.51-1.33l1.18,1.42q-1.83.56-2.71.74c0,.6.03,1.39.08,2.37l1.59-.04c.74-.03.96-.04,1.39-.12l.03,1.56c-.42-.01-.52-.01-1.02-.01h-.41l-1.46.05c.12.94.32,1.71.63,2.43.41.96.87,1.59,1.16,1.59.09,0,.18-.09.24-.23.07-.17.13-.61.18-1.12,0-.04.01-.3.03-.78.38.39.75.69,1.17.93-.21,2.16-.63,3.01-1.52,3.01-.72,0-1.71-.95-2.4-2.28-.5-.98-.79-2.06-.97-3.51l-2.46.06ZM192.62,225.36c.3.04.58.06,1.09.06h4.21c.64,0,1.14-.03,1.47-.08v1.54c-.5-.06-.85-.08-1.47-.08h-3.88c-.66,0-.99.01-1.42.08v-1.53ZM196.94,218.54c-.03-.34-.06-1.06-.12-2.14-.87.12-1.14.15-2.2.24v1.96l2.32-.06Z"/>
        <path d="M204.82,215.05v-.21c.94.17,1.42.3,1.81.5.11.04.13.1.13.21,0,.06-.03.13-.09.24-.13.24-.18.42-.41,1.41-.28,1.29-.43,2.73-.43,4.3,0,.84.03,1.3.12,2.1l.79-1.6c.09.32.21.57.39.78.12.15.13.19.13.31s0,.12-.28.75c-.32.67-.5,1.26-.66,2.03-.04.24-.09.31-.17.34-.12.06-.63.13-.93.13-.21,0-.29-.04-.33-.18-.36-1.02-.66-3.12-.66-4.62,0-1.29.17-3.07.43-4.95.09-.62.14-1.07.14-1.38v-.16ZM209.93,219.29c-.84,0-1.08-.03-1.16-.13-.1-.13-.19-.75-.19-1.3v-.22c.6.06,1.08.09,1.84.09.58,0,.92-.02,1.51-.06-.04-1.56-.13-2.49-.31-2.97h.4c.53,0,1.17.04,1.5.12.15.03.23.12.23.24,0,.06-.02.12-.04.22-.08.21-.12.54-.12.93,0,.22.01.93.01,1.11v.15c.75-.12,1.11-.2,1.74-.4.06-.02.12-.03.18-.03.09,0,.13.04.17.13.06.17.12.75.12,1.08,0,.24-.04.34-.17.39-.2.08-1.11.26-2,.38.02.42.02.65.02.88,0,2.21-.27,3.78-.87,4.96-.54,1.07-1.71,2.31-2.19,2.31-.13,0-.19-.03-.36-.18-.5-.44-.58-.51-1.17-.78,1.05-.58,1.72-1.22,2.19-2.07.5-.92.76-2.17.76-3.55,0-.1,0-.36-.01-.72-.01-.15-.01-.38-.03-.68-.54.04-1.75.11-2.05.11Z"/>
        <path d="M220.31,218.63c-.67.13-1.32.3-1.74.45-.11.04-.2.06-.27.06-.13,0-.21-.07-.3-.33-.1-.33-.21-.85-.27-1.38.22.01.33.03.46.03.57,0,1.18-.07,2.13-.25l.03-.9c.02-.21.02-.36.02-.41,0-.65-.02-1.04-.08-1.44.79.03,1.29.09,1.77.21.2.04.29.13.29.27,0,.06-.01.11-.09.27-.13.29-.15.46-.25,1.71.33.22.62.54.62.69,0,.09-.04.17-.18.33-.22.24-.3.34-.58.76q-.03.39-.03.5c.5-.44.82-.72,1.33-1.09.57-.43,1.2-.84,1.65-1.07.58-.31.99-.42,1.53-.42.79,0,1.37.3,1.68.87.18.36.25.71.25,1.29,0,.51-.03.99-.12,2.08-.12,1.29-.18,2.25-.18,2.83s.13.76.55.76c.6,0,1.33-.43,1.98-1.17.01.58.06.76.25,1.37.04.12.06.19.06.25,0,.17-.08.3-.33.5-.61.5-1.5.81-2.29.81-1.32,0-1.92-.69-1.92-2.21,0-.69.04-1.57.2-3.67.04-.5.06-.92.06-1.12,0-.62-.21-.9-.66-.9s-1.33.48-2.52,1.39c-.6.45-.94.77-1.57,1.41v.69c0,1.12.07,3.72.13,4.63v.18c0,.12-.02.17-.04.21-.08.09-.51.15-1.2.15-.43,0-.53-.06-.53-.32,0-.09,0-.24.02-.41v-.34q.01-.52.08-3.38-.86,1.11-1.37,1.93c-.13.21-.23.29-.34.29s-.39-.24-.86-.75c-.29-.33-.39-.46-.39-.55,0-.07.03-.13.13-.24.95-.97,1.74-1.9,2.87-3.31l.03-1.28Z"/>
        <path d="M235.55,223.33c.04.06.06.11.06.17q0,.09-.25.78c-.31.91-.51,1.66-.57,2.25-.02.19-.08.27-.27.31-.21.06-.61.09-1,.09-.15,0-.22-.03-.27-.12-.14-.28-.38-1.32-.5-2.16-.11-.71-.15-1.44-.15-2.21,0-1.72.2-3.36.74-6.3.09-.48.12-.7.17-1.17.69.09,1.17.23,1.6.45.23.12.32.21.32.36,0,.08-.03.15-.11.27-.61,1.05-1.18,4.29-1.18,6.69,0,.36.01.93.06,1.65.36-.93.53-1.35.86-2.07.1.41.21.6.51,1.01ZM238.07,219.38c-.72,0-.87-.03-.91-.2-.05-.13-.09-.61-.09-.96,0-.12,0-.24.02-.51.4.03.64.04,1.14.04.81,0,1.32-.02,2.1-.06-.01-1.9-.03-2.14-.18-2.87.74.02,1.29.08,1.77.2.23.06.32.13.32.29,0,.07-.01.11-.06.22-.15.36-.23.95-.26,1.98.56-.08,1.04-.17,1.94-.38.08-.03.1-.03.15-.03.09,0,.14.04.17.15.03.14.08.71.08,1.02,0,.36-.01.43-.17.5-.24.11-.9.22-2.17.38,0,1.04.09,2.74.2,3.72.94.41,1.59.75,2.25,1.21.42.32.51.41.51.52,0,.15-.27.66-.58,1.1-.18.25-.27.33-.38.33s-.11,0-.45-.33c-.33-.33-.67-.57-1.33-1.02v.12c0,1.34-1.09,2.19-2.76,2.19s-2.8-.9-2.8-2.25,1.14-2.35,2.65-2.35c.56,0,.84.01,1.25.07q-.06-1.17-.1-3.16c-.65.04-1.67.07-2.27.07ZM239.3,223.79c-.75,0-1.25.34-1.25.87,0,.48.46.78,1.18.78.79,0,1.22-.36,1.22-1.04,0-.22-.02-.38-.02-.39-.39-.15-.73-.22-1.14-.22ZM243.3,216.01c-.21-.45-.34-.67-.81-1.3-.03-.04-.04-.07-.04-.11,0-.12.5-.46.68-.46.09,0,.19.11.49.48.38.5.79,1.19.79,1.33,0,.09-.04.15-.27.29-.22.17-.42.25-.51.25q-.11,0-.33-.48ZM244.11,213.67c.21-.12.35-.18.44-.18.1,0,.18.06.39.33.46.6.85,1.25.85,1.41,0,.09-.06.16-.3.3-.18.12-.39.23-.46.23-.06,0-.1-.04-.15-.15-.26-.57-.66-1.25-.95-1.58-.04-.04-.06-.09-.06-.12,0-.06.06-.13.24-.24Z"/>
        <path d="M18.38,244.67c-1.19.12-1.49.13-2.16.13-.46,0-.54-.2-.65-1.53h.58c.74,0,1.4-.04,2.22-.13v-.32c0-.97-.06-1.74-.21-2.55,1.14.06,1.59.12,1.9.21.15.04.21.12.21.27,0,.09-.01.15-.09.3-.13.29-.21.83-.22,1.85.5-.09,1.29-.29,1.89-.46.04-.02.08-.02.1-.02.12,0,.2.06.23.17.08.3.17.9.17,1.12,0,.12-.08.23-.2.27-.18.07-1.27.3-2.23.46v1.93c1.48-.5,2.64-.74,3.63-.74,1.92,0,3.16,1.23,3.16,3.13,0,1.23-.49,2.22-1.38,2.75-.46.27-1.12.43-1.84.43s-1.37-.06-1.53-.16c-.16-.09-.18-.13-.21-.5-.03-.42-.12-.78-.3-1.22.62.23,1.12.32,1.71.32,1.17,0,1.83-.6,1.83-1.67s-.63-1.66-1.63-1.66c-.95,0-2.15.3-3.43.85q0,.06.01.65.01.99.01,1.2c.02.27.02.54.02.68,0,1.21-.46,1.8-1.46,1.8s-1.94-.51-2.54-1.29c-.24-.33-.36-.68-.36-1.08,0-.97.87-1.86,2.76-2.84v-2.37ZM18.38,248.69c-.87.53-1.23.87-1.23,1.19,0,.34.5.72.95.72.21,0,.29-.14.29-.48v-1.43ZM26.75,245.29c-.76-.81-1.81-1.49-2.8-1.8-.12-.04-.18-.1-.18-.18,0-.09.15-.33.57-.9.17-.22.18-.24.33-.24.15.01.72.21,1.11.39.94.44,2.17,1.37,2.17,1.65,0,.27-.75,1.21-.98,1.21-.07,0-.13-.03-.22-.13Z"/>
        <path d="M35.45,247.75c0,.92.04,3.36.08,4.07v.08c0,.13-.03.24-.11.29-.1.09-.71.16-1.26.16-.48,0-.57-.04-.57-.34v-.06c.03-.39.07-4.71.07-6.49,0-3.45-.03-4.43-.17-5.29,1.08.07,1.56.12,2,.21.15.04.23.12.23.24q0,.08-.06.33c-.06.18-.09.39-.1.63,0,.03-.03.93-.08,2.7q1.06.3,1.68.53c1.5.52,2.36.91,3.69,1.62.12.09.18.17.18.26,0,.15-.27.87-.51,1.32-.12.25-.2.33-.29.33-.06,0-.13-.03-.24-.1-1.47-.98-3.01-1.7-4.54-2.15v1.69Z"/>
        <path d="M49.65,243.64c-1.04,1.38-2.8,3.03-3.24,3.03-.13,0-.19-.03-.49-.28-.23-.2-.62-.47-1.11-.75,1.06-.58,2.16-1.47,2.98-2.46.89-1.04,1.41-1.9,1.94-3.22.73.24,1.12.4,1.62.69.21.12.28.2.28.33,0,.12-.04.2-.18.3-.15.1-.3.3-.69.82l2.23.02c.81,0,.96-.02,1.41-.18.06-.01.1-.03.17-.03.24,0,.5.23.93.78.29.38.36.51.36.67s-.04.24-.25.45c-.12.14-.32.42-.46.67-1.62,2.93-3.18,4.77-5.57,6.55-1.04.78-2.4,1.58-2.68,1.58-.12,0-.23-.06-.36-.21-.25-.27-.66-.55-1.25-.87,2.19-1.05,3.72-2.1,5.22-3.61,1.07-1.08,1.82-2.1,2.48-3.35.13-.25.22-.45.46-.94h-3.79Z"/>
        <path d="M66.08,251.35c0,.66-.53,1.18-1.18,1.18s-1.19-.53-1.19-1.18.53-1.18,1.19-1.18,1.18.52,1.18,1.18ZM65.55,249.13h-1.33l-.41-8.98h2.16l-.42,8.98Z"/>
        <path d="M78.44,240.41c0-.31-.02-.6-.08-.88h1.75c-.04.3-.08.57-.08.88v.18h4.26c.63,0,1.05-.03,1.5-.09v1.47c-.48-.06-.84-.08-1.5-.08h-9.93c-.66,0-1,.02-1.48.08v-1.47c.45.06.88.09,1.56.09h3.99v-.18ZM73.29,247.49c0-.5-.01-.86-.06-1.31.45.05.9.06,1.5.06h9.31c.69,0,1.02-.01,1.42-.06-.04.43-.06.8-.06,1.29v3.67c0,.71-.08.99-.34,1.23-.29.26-.72.35-1.74.35-.3,0-.38,0-.83-.03q-.22,0-.46-.01c-.03-.64-.1-.97-.3-1.44.73.09,1.41.13,1.8.13.27,0,.34-.06.34-.3v-3.58h-9.06v3.82c0,.73.02,1.1.08,1.59h-1.7c.06-.31.09-.9.09-1.59v-3.82ZM75.08,243.46c0-.45-.01-.71-.04-1.04.39.03.75.04,1.41.04h5.97c.62,0,.9-.02,1.29-.04-.03.36-.04.58-.04,1.05v1.23c0,.54.01.72.04,1.05-.38-.03-.71-.04-1.37-.04h-5.94c-.6,0-.96.01-1.37.04.03-.29.04-.58.04-1.05v-1.24ZM82.43,250.15c0,.42.02.71.04.97-.25-.03-.82-.04-1.2-.04h-3.63v.72h-1.49c.04-.27.06-.6.06-1.17v-1.67c0-.4-.02-.69-.04-.94.36.03.64.04,1.17.04h3.96c.54,0,.68,0,1.17-.04-.03.29-.04.5-.04.93v1.2ZM76.58,244.51h5.57v-.87h-5.57v.87ZM77.64,249.94h3.4v-.78h-3.4v.78Z"/>
        <path d="M89.13,240.56v-.21c.94.17,1.42.3,1.81.5.11.04.13.1.13.21,0,.06-.03.13-.09.24-.13.24-.18.42-.41,1.41-.28,1.29-.43,2.73-.43,4.3,0,.84.03,1.3.12,2.1l.79-1.6c.09.32.21.57.39.78.12.15.14.19.14.31s0,.12-.29.75c-.32.67-.5,1.26-.66,2.03-.04.24-.09.31-.17.34-.12.06-.63.13-.93.13-.21,0-.29-.04-.33-.18-.36-1.02-.66-3.12-.66-4.62,0-1.29.17-3.07.43-4.95.09-.62.14-1.07.14-1.38v-.16ZM94.25,244.81c-.84,0-1.08-.03-1.16-.13-.1-.13-.19-.75-.19-1.3v-.22c.6.06,1.08.09,1.84.09.58,0,.92-.02,1.51-.06-.04-1.56-.13-2.49-.31-2.97h.4c.53,0,1.17.04,1.5.12.15.03.23.12.23.24,0,.06-.02.12-.04.22-.08.21-.12.54-.12.93,0,.22.01.93.01,1.11v.15c.75-.12,1.11-.2,1.74-.4.06-.02.12-.03.18-.03.09,0,.13.04.17.13.06.17.12.75.12,1.08,0,.24-.04.34-.17.39-.2.08-1.11.26-2,.38.02.42.02.65.02.88,0,2.21-.27,3.78-.87,4.96-.54,1.07-1.71,2.31-2.19,2.31-.13,0-.19-.03-.36-.18-.5-.44-.58-.51-1.17-.78,1.05-.58,1.72-1.22,2.19-2.07.5-.92.76-2.17.76-3.55,0-.1,0-.36-.01-.72-.01-.15-.01-.38-.03-.68-.54.04-1.75.11-2.05.11Z"/>
        <path d="M104.63,244.15c-.67.13-1.32.3-1.74.45-.11.04-.2.06-.27.06-.13,0-.21-.07-.3-.33-.11-.33-.21-.85-.27-1.38.22.01.33.03.46.03.57,0,1.18-.07,2.13-.25l.03-.9c.02-.21.02-.36.02-.41,0-.65-.02-1.04-.08-1.44.79.03,1.29.09,1.77.21.2.04.29.13.29.27,0,.06-.01.11-.09.27-.13.29-.15.46-.25,1.71.33.22.62.54.62.69,0,.09-.04.17-.18.33-.22.24-.3.34-.58.76q-.03.39-.03.5c.5-.44.82-.72,1.33-1.09.57-.43,1.2-.84,1.65-1.07.58-.31.99-.42,1.53-.42.79,0,1.37.3,1.68.87.18.36.25.71.25,1.29,0,.51-.03.99-.12,2.08-.12,1.29-.18,2.25-.18,2.83s.13.76.55.76c.6,0,1.33-.43,1.98-1.17.01.58.06.76.25,1.37.04.12.06.19.06.25,0,.17-.08.3-.33.5-.61.5-1.5.81-2.29.81-1.32,0-1.92-.69-1.92-2.21,0-.69.04-1.57.2-3.67.04-.5.06-.92.06-1.12,0-.62-.21-.9-.66-.9s-1.33.48-2.52,1.39c-.6.45-.94.77-1.57,1.41v.69c0,1.12.07,3.72.13,4.63v.18c0,.12-.02.17-.04.21-.08.09-.51.15-1.2.15-.43,0-.53-.06-.53-.32,0-.09,0-.24.02-.41v-.34q.01-.52.08-3.38-.86,1.11-1.37,1.93c-.13.21-.23.29-.34.29s-.39-.24-.86-.75c-.29-.33-.39-.46-.39-.55,0-.07.03-.13.13-.24.95-.97,1.74-1.9,2.87-3.31l.03-1.28Z"/>
        <path d="M119.87,248.84c.04.06.06.11.06.17q0,.09-.25.78c-.31.91-.51,1.66-.57,2.25-.02.19-.08.27-.27.31-.21.06-.61.09-1,.09-.15,0-.22-.03-.27-.12-.14-.28-.38-1.32-.5-2.16-.11-.71-.15-1.44-.15-2.21,0-1.72.2-3.36.74-6.3.09-.48.12-.7.17-1.17.69.09,1.17.23,1.6.45.23.12.32.21.32.36,0,.08-.03.15-.11.27-.61,1.05-1.18,4.29-1.18,6.69,0,.36.01.93.06,1.65.36-.93.53-1.35.86-2.07.1.41.21.6.51,1.01ZM122.39,244.9c-.72,0-.87-.03-.92-.2-.04-.13-.09-.61-.09-.96,0-.12,0-.24.02-.51.4.03.64.04,1.14.04.81,0,1.32-.02,2.1-.06-.01-1.9-.03-2.14-.18-2.87.74.02,1.29.08,1.77.2.23.06.32.13.32.29,0,.07-.01.11-.06.22-.15.36-.23.95-.26,1.98.56-.08,1.04-.17,1.94-.38.08-.03.1-.03.15-.03.09,0,.14.04.17.15.03.14.08.71.08,1.02,0,.36-.01.43-.17.5-.24.11-.9.22-2.17.38,0,1.04.09,2.74.2,3.72.94.41,1.59.75,2.25,1.21.42.32.51.41.51.52,0,.15-.27.66-.58,1.1-.18.25-.27.33-.38.33s-.11,0-.45-.33c-.33-.33-.67-.57-1.33-1.02v.12c0,1.34-1.09,2.19-2.76,2.19s-2.8-.9-2.8-2.25,1.14-2.35,2.65-2.35c.56,0,.84.01,1.25.07q-.06-1.17-.1-3.16c-.65.04-1.67.07-2.27.07ZM123.62,249.31c-.75,0-1.25.34-1.25.87,0,.48.46.78,1.18.78.8,0,1.22-.36,1.22-1.04,0-.22-.02-.38-.02-.39-.39-.15-.73-.22-1.14-.22ZM127.62,241.52c-.21-.45-.34-.67-.81-1.3-.03-.04-.04-.07-.04-.11,0-.12.5-.46.68-.46.09,0,.19.11.49.48.38.5.79,1.19.79,1.33,0,.09-.04.15-.27.29-.22.17-.42.25-.51.25q-.11,0-.33-.48ZM128.43,239.18c.21-.12.35-.18.44-.18.1,0,.18.06.39.33.46.6.86,1.25.86,1.41,0,.09-.06.16-.3.3-.18.12-.39.23-.46.23-.06,0-.1-.04-.15-.15-.26-.57-.66-1.25-.95-1.58-.04-.04-.06-.09-.06-.12,0-.06.06-.13.24-.24Z"/>
        <path d="M133.08,246.14c-.45.36-.69.51-.81.51s-.13,0-.42-.3c-.27-.27-.65-.54-1.07-.76,1.61-.98,2.57-1.84,3.5-3.15.63-.89,1.09-1.76,1.33-2.58,1.59.6,1.96.78,1.96.99,0,.09-.04.13-.2.24-.15.1-.34.38-.75.99h.27c.52.02.9.02.99.02,1.45,0,1.83-.03,2.29-.21.12-.04.17-.06.25-.06.21,0,.42.16.88.72.38.42.48.6.48.76,0,.13-.04.21-.21.38-.12.12-.3.41-.52.84-1.41,2.57-2.46,3.97-4.16,5.5-1.33,1.22-3.45,2.64-3.92,2.64-.13,0-.25-.06-.38-.18-.45-.44-.82-.71-1.26-.88,2.07-1,3.67-2.12,5.1-3.55q-.1-.11-.43-.45c-.32-.33-.66-.61-1.42-1.18-.09-.08-.12-.12-.12-.18,0-.08.2-.3.72-.84.25-.25.32-.3.41-.3.24,0,1.12.72,2.02,1.63.9-1.17,1.54-2.28,1.91-3.24q-1.71.03-3.9.04c-.69.9-1.56,1.79-2.57,2.61ZM142.95,242.29c-.33.29-.53.42-.62.42s-.09,0-.36-.45c-.24-.41-.6-.87-.94-1.21-.06-.06-.08-.09-.08-.14,0-.12.57-.54.74-.54.12,0,.3.15.75.66.41.46.69.87.69.97s-.04.17-.18.29ZM143.63,241.52c-.36-.62-.71-1.05-1.11-1.42-.06-.06-.08-.09-.08-.12,0-.07.08-.15.33-.33.2-.15.29-.18.39-.18.17.02.55.39,1.06,1.04.21.27.34.5.34.57,0,.09-.04.15-.22.29-.24.18-.46.31-.55.31-.06,0-.11-.03-.17-.15Z"/>
        <path d="M153.68,241.67c.17-.45.24-.77.33-1.3,1.3.46,2.1.91,2.1,1.2,0,.08-.03.12-.13.24-.29.3-.51.64-.75,1.16-.75,1.54-1.15,2.28-1.86,3.38.67.55,1.35,1.21,1.86,1.77.13.15.2.25.2.38,0,.15-.18.42-.6.87-.32.35-.5.5-.63.5-.07,0-.15-.04-.27-.18-.9-1.02-.99-1.12-1.65-1.78-1.27,1.6-2.73,2.97-4.14,3.9-.45.32-.72.44-.88.44-.15,0-.17,0-.54-.36-.25-.23-.63-.5-1.08-.75,2.07-1.02,3.78-2.44,5.28-4.45-.71-.59-1.07-.84-2.34-1.67-.3-.18-.33-.21-.33-.31,0-.17.18-.42.66-.97.17-.2.28-.27.4-.27.2,0,1.2.67,2.62,1.74.78-1.26,1.32-2.34,1.75-3.5Z"/>
        <path d="M167.3,251.35c0,.66-.52,1.18-1.18,1.18s-1.19-.53-1.19-1.18.53-1.18,1.19-1.18,1.18.52,1.18,1.18ZM166.77,249.13h-1.33l-.41-8.98h2.16l-.42,8.98Z"/>
        <path d="M177.6,245.15c1.89-.53,3.25-.77,4.27-.77,2.12,0,3.42,1.16,3.42,3.03,0,1.12-.46,2.12-1.35,2.87-.58.5-1.46.92-2.61,1.26-.64.18-1.33.32-1.63.32-.18,0-.27-.04-.33-.19-.21-.53-.45-.9-.76-1.21,3.3-.35,4.98-1.4,4.98-3.11,0-.87-.72-1.54-1.65-1.54-1.62,0-3.39.54-5.25,1.57-.15.08-.24.12-.3.12-.25,0-.67-.75-1.02-1.83.74-.11.99-.17,2.24-.51Z"/>
        <path d="M191.07,243.73c-.39.09-.53.13-1.07.33-.19.08-.3.11-.39.11-.33,0-.63-.62-.9-1.91.96-.04,1.31-.09,2.97-.34,1.8-.27,4.08-.62,5.28-.77,1.35-.18,2.43-.36,3-.48.1-.03.15-.03.22-.03.2,0,.27.09.41.46.12.32.21.77.21.97,0,.18-.06.24-.27.24-.32,0-.6.03-.89.08-2.53.42-4.56,2.64-4.56,4.98,0,1.76,1.38,2.91,3.72,3.12.21.01.29.09.29.27,0,.38-.15,1.09-.29,1.42-.08.17-.19.24-.39.24s-.65-.09-1.11-.22c-2.55-.75-3.88-2.37-3.88-4.66,0-1.25.41-2.4,1.19-3.39.42-.54.78-.84,1.63-1.42-1.96.33-4.04.72-5.17,1Z"/>
        <path d="M205.98,250.31q0-1.63.01-2.34c-.75.83-1.26,1.49-1.51,1.95-.08.15-.18.24-.27.24-.15,0-.51-.32-.99-.86-.19-.24-.28-.38-.28-.44q0-.1.76-.85c.64-.65,1.51-1.67,2.33-2.75,0-.09,0-.43.01-1.04-.74.13-1.68.39-1.93.53-.15.08-.18.09-.25.09-.26,0-.47-.58-.66-1.75.79-.01,1.79-.12,2.88-.3,0-.54.01-1.3.01-1.72,0-.45-.03-.81-.09-1.11.95.06,1.41.12,1.83.23.22.06.31.15.31.31,0,.08-.03.15-.09.3-.15.3-.17.41-.29,1.59.36.22.71.6.71.79q0,.13-.46.7c-.04.06-.18.25-.41.54q-.01.48-.01.58c1.47-1.25,2.71-1.77,4.18-1.77,2.34,0,3.81,1.49,3.81,3.87,0,1.83-.84,3.19-2.57,4.12-.66.38-1.79.78-2.12.78-.09,0-.19-.03-.24-.09t-.23-.3c-.25-.36-.54-.64-.84-.85,2.99-.81,4.17-1.86,4.17-3.7,0-1.44-.85-2.37-2.21-2.37-.88,0-1.69.29-2.65.92q-.48.31-1.33,1.04.01.12.01.31c0,1.61,0,1.74.09,4.89.02.17.02.29.02.32,0,.29-.21.34-1.31.34-.39,0-.42-.04-.42-.47l.02-1.74Z"/>
        <path d="M219.27,240.56v-.21c.94.17,1.42.3,1.81.5.11.04.13.1.13.21,0,.06-.03.13-.09.24-.13.24-.18.42-.41,1.41-.28,1.29-.43,2.73-.43,4.3,0,.84.03,1.3.12,2.1l.79-1.6c.09.32.21.57.39.78.12.15.14.19.14.31s0,.12-.29.75c-.32.67-.5,1.26-.66,2.03-.04.24-.09.31-.17.34-.12.06-.63.13-.93.13-.21,0-.29-.04-.33-.18-.36-1.02-.66-3.12-.66-4.62,0-1.29.17-3.07.43-4.95.09-.62.14-1.07.14-1.38v-.16ZM224.39,244.81c-.84,0-1.08-.03-1.16-.13-.1-.13-.19-.75-.19-1.3v-.22c.6.06,1.08.09,1.84.09.58,0,.92-.02,1.51-.06-.04-1.56-.13-2.49-.31-2.97h.4c.53,0,1.17.04,1.5.12.15.03.23.12.23.24,0,.06-.02.12-.04.22-.08.21-.12.54-.12.93,0,.22.01.93.01,1.11v.15c.75-.12,1.11-.2,1.74-.4.06-.02.12-.03.18-.03.09,0,.13.04.17.13.06.17.12.75.12,1.08,0,.24-.04.34-.17.39-.2.08-1.11.26-2,.38.02.42.02.65.02.88,0,2.21-.27,3.78-.87,4.96-.54,1.07-1.71,2.31-2.19,2.31-.13,0-.19-.03-.36-.18-.5-.44-.58-.51-1.17-.78,1.05-.58,1.72-1.22,2.19-2.07.5-.92.76-2.17.76-3.55,0-.1,0-.36-.01-.72-.01-.15-.01-.38-.03-.68-.54.04-1.75.11-2.05.11Z"/>
        <path d="M234.45,243.73c-.39.09-.53.13-1.07.33-.19.08-.3.11-.39.11-.33,0-.63-.62-.9-1.91.96-.04,1.31-.09,2.97-.34,1.8-.27,4.08-.62,5.28-.77,1.35-.18,2.43-.36,3-.48.1-.03.15-.03.22-.03.2,0,.27.09.41.46.12.32.21.77.21.97,0,.18-.06.24-.27.24-.32,0-.6.03-.89.08-2.53.42-4.56,2.64-4.56,4.98,0,1.76,1.38,2.91,3.72,3.12.21.01.29.09.29.27,0,.38-.15,1.09-.29,1.42-.08.17-.19.24-.39.24s-.65-.09-1.11-.22c-2.55-.75-3.88-2.37-3.88-4.66,0-1.25.41-2.4,1.19-3.39.42-.54.78-.84,1.63-1.42-1.96.33-4.04.72-5.17,1ZM242.13,244.12c.21,0,1.48,1.42,1.48,1.65,0,.08-.09.17-.36.41-.29.24-.3.24-.42.29q-.08.03-.11.03c-.06,0-.08-.01-.34-.43-.24-.38-.5-.71-.97-1.2-.03-.03-.08-.11-.08-.12.03-.08.04-.12.06-.12.04-.06.3-.27.36-.31.15-.08.24-.13.25-.15.01-.03.04-.03.04-.03h.08ZM244.7,245.15c-.22.16-.36.25-.43.25-.06,0-.09-.03-.17-.15-.45-.67-.67-.96-1.16-1.42-.03-.04-.06-.09-.06-.12,0-.08.09-.17.3-.32.21-.15.39-.24.46-.24.11,0,.29.14.6.45.44.45.84,1,.84,1.14,0,.09-.11.2-.39.41Z"/>
        <path d="M19.1,269.87c-1.07-.21-1.88-.53-2.43-.92-.27-.18-.33-.25-.33-.39,0-.17.12-.46.54-1.3.73.46,1.56.79,2.5.99.21-1.05.3-1.92.31-2.89.77.13,1.44.36,1.82.57.17.09.22.18.21.3,0,.06-.03.12-.11.27-.22.46-.24.51-.55,1.98.15.01.34.01.46.01h.11c.36-.01.63-.01.76-.01h.04c.13,0,.18.06.18.25,0,.66-.04,1.2-.1,1.3-.04.08-.24.11-.87.11-.29,0-.51-.02-.93-.03q-.32,1.54-.45,2.35c.51.04.62.04.87.04h.84c.15-.01.22.02.27.09.06.09.11.57.11,1.11,0,.27-.02.34-.11.39-.07.03-.4.05-.97.05-.27,0-.67-.01-1.2-.05-.01.27-.01.45-.01.57,0,1.38.64,2.01,2.05,2.01,1.58,0,2.52-.76,2.52-2.05,0-.46-.1-.88-.34-1.35-.3-.57-.58-.9-1.3-1.47h.13c.24,0,.75-.07,1.2-.16.24-.04.33-.06.41-.06.22,0,.38.11.67.48.69.84,1.04,1.72,1.04,2.65,0,2.12-1.71,3.51-4.31,3.51-2.43,0-3.64-1.21-3.64-3.67,0-.21,0-.38.03-.63-1.49-.31-2.29-1.05-2.29-2.12,0-.55.17-.96.58-1.38.04-.06.1-.08.17-.08.09,0,.19.08.54.36.27.22.31.27.31.34q0,.06-.09.19c-.06.11-.12.27-.12.36,0,.19.12.36.35.46.21.1.27.12.75.23l.39-2.43Z"/>
        <path d="M31.16,269.57c-.27.02-.43.03-.61.04-.14.02-.15.02-.17.02-.12,0-.18-.04-.23-.2-.08-.24-.18-1.04-.19-1.48.17.01.6.03,1.14.03.17,0,1.35-.07,1.88-.12.25-1.21.34-1.84.34-2.66,1.54.21,2.1.39,2.1.68,0,.11-.01.13-.24.48-.12.18-.17.34-.42,1.27.7-.12,1.12-.23,1.68-.41.1-.03.15-.04.22-.04.11,0,.13.08.23.51.07.38.12.69.12.86,0,.18-.04.21-.43.3-.51.12-1.38.27-2.31.39-.56,1.68-.93,2.58-1.62,3.99-.53,1.05-.83,1.61-1.23,2.23-.12.18-.19.24-.3.24-.15,0-.57-.22-1.09-.62-.24-.16-.3-.24-.3-.34s.06-.19.25-.46c.43-.54,1-1.47,1.5-2.46.42-.82.57-1.17,1-2.36-.58.04-.63.06-1.32.11ZM36.09,278.21c-1.64,0-2.75-.9-2.75-2.24s1.15-2.41,2.7-2.41c.36,0,.53.01,1.14.11-.06-.72-.06-1.01-.12-2.4,0-.29-.03-.68-.06-1.16.77.08,1.35.17,1.64.29.12.04.18.12.18.24,0,.08-.01.14-.03.24-.08.32-.09.54-.09.95,0,.55.04,1.5.09,2.23,1.07.48,1.5.72,2.25,1.31.33.25.45.39.45.51,0,.15-.08.29-.5.96-.18.3-.31.44-.42.44q-.09,0-.51-.39c-.33-.33-.71-.58-1.23-.9,0,1.4-1.02,2.24-2.74,2.24ZM36.06,275c-.72,0-1.21.35-1.21.87,0,.5.45.81,1.12.81.79,0,1.21-.4,1.21-1.2,0-.12,0-.24-.02-.24-.3-.15-.7-.24-1.11-.24ZM41.67,270.74c-.18.26-.27.33-.38.33-.08,0-.13-.03-.24-.13-.38-.36-.9-.75-1.46-1.1q-.36-.22-1.02-.52c-.21-.09-.29-.15-.29-.27,0-.1.08-.24.3-.58.36-.53.45-.62.58-.62.28,0,1.39.57,2.19,1.11.65.44.84.62.84.78,0,.12-.24.57-.54,1Z"/>
        <path d="M44.84,268.29c0-.43-.02-1.02-.04-1.35.69.08,1.2.18,1.6.33.36.13.48.22.48.39q0,.09-.06.24c-.2.51-.25,1.08-.25,2.44,0,1.92.12,3.12.42,4.03.22.71.57,1.11.97,1.11.62,0,1.12-.72,1.68-2.38.28.76.39.99.81,1.53.08.1.12.21.12.31,0,.24-.22.75-.53,1.19-.58.85-1.33,1.32-2.13,1.32-1.15,0-2.02-.93-2.56-2.77-.34-1.2-.51-2.71-.51-4.81v-1.58ZM53.76,268.53c.09,0,.17.04.29.15.75.72,1.53,1.92,2.03,3.09.33.79.64,1.86.64,2.17,0,.15-.08.23-.39.39-.34.18-1.05.42-1.23.42-.13,0-.19-.07-.24-.34-.2-1.16-.46-2-.93-2.97-.42-.87-.45-.92-1.47-2.17.63-.46,1.12-.74,1.3-.74Z"/>
        <path d="M64.14,274.74c-.72,1.25-1.71,1.93-2.73,1.93-1.56,0-2.67-1.53-2.67-3.66,0-2.37,1.2-4.41,3.25-5.49,1-.54,2.08-.78,3.51-.78,3.14,0,5.46,2.22,5.46,5.19,0,2.62-1.29,4.51-3.78,5.58-.5.21-.89.33-1.08.33-.18,0-.25-.06-.45-.34-.25-.39-.54-.68-.95-.95,3.09-.79,4.49-2.25,4.49-4.68,0-1.25-.53-2.29-1.46-2.96-.53-.36-.95-.51-1.77-.64-.42,3.16-.92,4.89-1.83,6.46ZM61.98,269.43c-1,.88-1.58,2.14-1.58,3.55,0,1.16.38,1.83,1,1.83.75,0,1.52-1.04,2.08-2.82.36-1.12.54-1.98.77-3.64-1.07.22-1.59.48-2.28,1.08Z"/>
        <path d="M79.88,270.41c.03,1.12.06,1.71.21,3.21,1.26.41,1.86.66,2.75,1.14,1.18.68,1.79,1.12,1.79,1.34,0,.18-.2.52-.54,1.02-.22.33-.39.48-.51.48-.08,0-.14-.03-.24-.14-1.07-1.02-1.92-1.58-3.18-2.08-.03.92-.2,1.39-.63,1.85-.53.52-1.44.81-2.62.81-1.96,0-3.17-.87-3.17-2.29,0-1.51,1.32-2.48,3.38-2.48.5,0,.93.03,1.3.08-.15-2.46-.2-3.65-.21-5.85-.01-.87-.04-1.39-.13-2.1.69.01,1.38.09,1.79.19.24.08.33.15.33.32,0,.08-.01.12-.06.24-.17.39-.22.96-.25,2.62q.12,0,.58-.03c.72-.04,1.74-.22,2.88-.54.04-.01.08-.01.12-.01.09,0,.12.03.18.18.15.36.32,1.1.32,1.35,0,.12-.06.17-.2.21-1.16.27-2.78.49-3.66.49h-.21ZM76.94,274.73c-1.02,0-1.63.34-1.63.91,0,.53.51.8,1.46.8,1.15,0,1.66-.41,1.66-1.35v-.12c-.49-.18-.92-.24-1.48-.24Z"/>
        <path d="M92,276.06c0,1.41-1.14,2.55-2.54,2.55s-2.53-1.14-2.53-2.55,1.14-2.54,2.53-2.54,2.54,1.14,2.54,2.54ZM88.1,276.06c0,.76.61,1.38,1.36,1.38s1.37-.62,1.37-1.38-.62-1.37-1.37-1.37-1.36.62-1.36,1.37Z"/>
      </g>
      <path class="cls-8" d="M329.77,99.57H90.4c-4.68,0-8.47,3.79-8.47,8.47v40.63s-9.69,9.69-9.69,9.69h9.69v.5c0,4.68,3.79,8.47,8.47,8.47h239.38c4.68,0,8.47-3.79,8.47-8.47v-50.82c0-4.68-3.79-8.47-8.47-8.47Z"/>
      <g>
        <path d="M99.58,119.14c-.19-.66-.25-1.06-.43-2.91-.06-.72-.12-1.08-.27-1.59.91.02,1.5.06,1.9.17.23.06.33.17.33.33,0,.06-.01.13-.04.25-.1.36-.15.63-.15,1.02,0,.73.15,1.93.32,2.46.09.28.18.39.34.39.36,0,1.68-.69,2.4-1.25.19-.15.22-.17.3-.17.13,0,.27.11.5.39.38.51.67,1.06.67,1.27,0,.17-.11.27-.36.34-.93.25-2.46.86-3.49,1.35-1.83.9-2.66,1.72-2.66,2.65s.76,1.29,2.7,1.29c1.12,0,2.14-.1,3.52-.33.06-.01.17-.03.2-.03.12,0,.19.06.25.18.04.15.15,1.06.15,1.42,0,.21-.06.29-.26.34-.33.08-2.14.18-3.28.18-1.92,0-3.2-.25-3.99-.79-.67-.47-1.04-1.2-1.04-2.1,0-.69.2-1.3.6-1.9.52-.78,1.09-1.28,2.35-2.03-.31-.29-.43-.5-.57-.96Z"/>
        <path d="M110.5,117.3c0-.44-.02-1.02-.04-1.35.69.07,1.2.18,1.6.33.36.14.48.23.48.39q0,.09-.06.24c-.2.51-.25,1.08-.25,2.44,0,1.92.12,3.12.42,4.04.22.71.57,1.11.97,1.11.62,0,1.12-.72,1.68-2.38.28.77.39.99.81,1.53.08.1.12.21.12.31,0,.24-.22.75-.53,1.19-.58.85-1.33,1.32-2.13,1.32-1.15,0-2.02-.93-2.56-2.77-.34-1.2-.51-2.71-.51-4.81v-1.58ZM119.43,117.54c.09,0,.17.04.29.15.75.72,1.53,1.92,2.03,3.09.33.79.64,1.86.64,2.17,0,.15-.08.23-.39.39-.34.18-1.05.42-1.23.42-.13,0-.19-.08-.24-.34-.2-1.16-.46-2-.93-2.97-.42-.87-.45-.92-1.47-2.17.63-.46,1.12-.73,1.3-.73Z"/>
        <path d="M128.73,118.23c.97-.25,1.62-.34,2.33-.34,2.13,0,3.36,1.26,3.36,3.42,0,1.88-.81,3.39-2.45,4.59-.87.64-2.19,1.29-2.62,1.29-.2,0-.24-.04-.56-.5-.22-.34-.45-.55-.82-.83,1.72-.58,2.44-.96,3.22-1.63.9-.79,1.35-1.75,1.35-2.89,0-1.22-.57-1.91-1.58-1.91-.81,0-1.86.31-3.22.97-.2.09-.3.17-.55.35-.06.03-.12.06-.18.06-.29,0-.77-.84-1.1-1.96.56-.04.84-.12,2.82-.62ZM129.73,114.57c.54.17,1.35.32,2.08.41.3.03.41.04,1.17.08.22,0,.29.06.29.22,0,.5-.11,1.31-.2,1.46-.03.09-.1.12-.21.12-.34,0-1.56-.17-2.26-.31-1.19-.24-2.22-.54-2.43-.71-.05-.04-.08-.11-.08-.17,0-.12.31-.93.46-1.21.08-.12.12-.15.21-.15q.08,0,.96.27Z"/>
        <path d="M145.56,124.47c1.23,0,2.59-.18,3.94-.53.08-.03.12-.03.17-.03.09,0,.13.06.17.2.04.33.08.81.08,1.3,0,.3-.03.39-.17.45-.45.24-2.47.46-4.21.46-2.26,0-3.55-.38-4.59-1.35-.5-.46-.99-1.28-.99-1.61,0-.22.13-.31,1.37-1.02.54,1.49,1.79,2.12,4.25,2.12ZM145.69,115.84c.87,0,1.38-.03,2.4-.18h.11c.12,0,.17.04.2.13.03.18.06.63.06,1.17,0,.34-.03.46-.12.53-.12.07-1.42.17-2.43.17-1.33,0-2.45-.11-3.69-.35-.85-.17-.9-.21-.9-.73,0-.35.03-.92.08-1.33,1.3.4,2.73.6,4.3.6Z"/>
        <path d="M157.42,119.14c-.19-.66-.25-1.06-.43-2.91-.06-.72-.12-1.08-.27-1.59.91.02,1.5.06,1.9.17.23.06.33.17.33.33,0,.06-.01.13-.04.25-.1.36-.15.63-.15,1.02,0,.73.15,1.93.32,2.46.09.28.18.39.34.39.36,0,1.68-.69,2.4-1.25.19-.15.22-.17.3-.17.13,0,.27.11.5.39.38.51.67,1.06.67,1.27,0,.17-.11.27-.36.34-.93.25-2.46.86-3.49,1.35-1.83.9-2.66,1.72-2.66,2.65s.76,1.29,2.7,1.29c1.12,0,2.14-.1,3.52-.33.06-.01.17-.03.2-.03.12,0,.19.06.25.18.04.15.15,1.06.15,1.42,0,.21-.06.29-.26.34-.33.08-2.14.18-3.28.18-1.92,0-3.2-.25-3.99-.79-.67-.47-1.04-1.2-1.04-2.1,0-.69.2-1.3.6-1.9.52-.78,1.09-1.28,2.35-2.03-.31-.29-.43-.5-.57-.96Z"/>
        <path d="M171.37,123.31c.04.06.06.11.06.17q0,.09-.25.78c-.32.92-.51,1.67-.57,2.25-.01.19-.08.27-.27.31-.21.06-.61.09-1,.09-.15,0-.22-.03-.27-.12-.13-.28-.38-1.32-.5-2.16-.1-.71-.15-1.44-.15-2.21,0-1.73.2-3.36.74-6.3.09-.48.12-.71.17-1.17.69.09,1.17.22,1.6.43.23.12.32.23.32.36,0,.09-.03.17-.11.29-.61,1.05-1.18,4.29-1.18,6.69,0,.36.01.93.06,1.65.36-.93.52-1.35.85-2.07.11.41.21.6.51,1ZM173.89,119.36c-.72,0-.87-.03-.92-.19-.04-.13-.09-.62-.09-.96,0-.12,0-.24.01-.51.41.03.64.04,1.14.04.81,0,1.32-.02,2.1-.08-.02-1.91-.03-2.15-.18-2.85.74.01,1.29.07,1.77.19.22.06.31.14.31.29,0,.06-.01.11-.06.22-.15.35-.23.93-.25,1.98.55-.08,1.03-.18,1.93-.39.08-.03.1-.03.15-.03.09,0,.13.04.17.15.03.14.07.71.07,1.02,0,.38-.01.43-.17.5-.24.12-.9.22-2.17.39,0,1.04.09,2.75.2,3.72.95.41,1.59.75,2.25,1.21.42.3.51.41.51.51,0,.17-.27.67-.58,1.11-.18.25-.27.33-.38.33s-.1,0-.45-.33c-.33-.33-.67-.58-1.33-1.02v.12c0,1.32-1.09,2.19-2.76,2.19s-2.8-.9-2.8-2.25,1.14-2.35,2.66-2.35c.55,0,.84.01,1.24.08q-.06-1.17-.1-3.18c-.65.04-1.67.09-2.26.09ZM175.12,123.78c-.75,0-1.25.34-1.25.87,0,.48.46.78,1.19.78.79,0,1.21-.36,1.21-1.05,0-.21-.02-.38-.02-.38-.39-.15-.73-.23-1.14-.23Z"/>
        <path d="M182.19,123.57c.27-.24.34-.3.45-.3.19,0,1.09.66,1.75,1.29.75.69,1.59,1.69,1.59,1.9,0,.14-.03.17-.46.56-.57.52-.69.62-.79.62-.09,0-.18-.06-.25-.21-.53-.93-1.73-2.16-2.79-2.85-.12-.09-.18-.15-.18-.24,0-.1.03-.15.69-.76Z"/>
        <path d="M189.15,123.57c.27-.24.34-.3.45-.3.19,0,1.09.66,1.75,1.29.75.69,1.59,1.69,1.59,1.9,0,.14-.03.17-.46.56-.57.52-.69.62-.79.62-.09,0-.18-.06-.25-.21-.53-.93-1.73-2.16-2.79-2.85-.12-.09-.18-.15-.18-.24,0-.1.03-.15.69-.76Z"/>
        <path d="M206.97,114.99v11.49h-1.8v-11.49h1.8Z"/>
        <path d="M215.43,116.49h-3.73l-.12,1.86c-.01.3-.04.65-.09,1,.58-.54,1.06-.75,1.71-.75,1.88,0,3.01,1.44,3.01,3.84,0,2.64-1.28,4.23-3.38,4.23-.93,0-1.74-.33-2.34-.95-.39-.41-.58-.76-.84-1.53l1.67-.64c.13.58.24.83.45,1.11.25.33.63.53,1.06.53,1.02,0,1.58-.95,1.58-2.71,0-1.54-.53-2.37-1.5-2.37-.72,0-1.14.39-1.56,1.4l-1.37-.24.36-6.27h5.08v1.5Z"/>
        <path d="M228.01,119.41c.03,1.12.06,1.71.21,3.21,1.26.41,1.86.66,2.75,1.14,1.18.67,1.79,1.12,1.79,1.33,0,.18-.2.52-.54,1.02-.23.33-.39.48-.51.48-.08,0-.14-.03-.24-.14-1.07-1.02-1.92-1.57-3.18-2.08-.03.91-.2,1.39-.63,1.84-.53.52-1.44.81-2.62.81-1.96,0-3.17-.87-3.17-2.29,0-1.51,1.32-2.47,3.38-2.47.5,0,.93.03,1.3.08-.15-2.46-.2-3.65-.21-5.85-.01-.87-.04-1.39-.13-2.1.69.02,1.38.09,1.79.2.24.08.33.15.33.31,0,.08-.01.12-.06.24-.17.39-.22.96-.25,2.62q.12,0,.58-.03c.72-.04,1.74-.22,2.88-.54.04-.01.08-.01.12-.01.09,0,.12.03.18.18.15.36.32,1.1.32,1.35,0,.12-.06.17-.2.21-1.16.27-2.77.5-3.66.5h-.21ZM225.07,123.73c-1.02,0-1.63.34-1.63.92,0,.53.51.79,1.46.79,1.15,0,1.66-.41,1.66-1.35v-.12c-.49-.18-.92-.24-1.48-.24Z"/>
        <path d="M239.98,119.76q.07-.12.73-1.23c.09.25.18.42.36.66.1.17.15.25.15.34s-.03.17-.39.75c-.25.45-.69,1.38-.87,1.83-.15.42-.21.45-.71.45s-.88-.06-.94-.15c-.09-.12-.15-.93-.15-2.04,0-1.47.11-2.5.5-5.12.04-.3.06-.45.06-.78,1.17.21,1.94.56,1.94.84,0,.08-.02.12-.12.26-.2.28-.32.67-.46,1.47-.18,1-.32,2.32-.32,3.12q.13-.24.23-.41ZM245.43,115.38v.25c.01.06.01.18.03.34q.01.24.04.62,0,.17.03.72c.04.72.07,1.44.07,1.8,0,2.82-.73,5.01-2.29,6.86-.6.71-1.12,1.11-1.42,1.11-.18,0-.19,0-.51-.24-.29-.22-.67-.42-1.06-.52,1.05-.75,1.62-1.28,2.17-2.07.93-1.33,1.38-2.92,1.38-4.86,0-2.05-.14-3.32-.48-4.23.63-.08,1.09-.11,1.53-.11s.51.03.51.29v.04Z"/>
        <path d="M256.06,116.79c.42,0,.77-.02.92-.04v1.32c-.22-.03-.48-.04-.93-.04h-.96c.27.32.57.53,1.28.93-.38.41-.44.5-.83,1.19-.74-.62-.92-.83-1.28-1.38.02.24.03.48.03.58v.54c0,.18.01.36.06.52h-1.54c.03-.15.05-.33.05-.48v-.54c0-.15.01-.32.04-.63-.77,1.05-1.25,1.51-2.36,2.26-.3-.53-.46-.74-.93-1.18,1.16-.6,1.83-1.12,2.31-1.82h-.78c-.51,0-.9.02-1.2.06v-1.35c.34.04.67.06,1.21.06h1.71v-1.7c0-.43-.01-.69-.06-.97h1.56c-.04.29-.06.52-.06.94v1.73h1.75ZM255.33,126.57c-.53-.42-.74-.55-1.33-.87-.9.79-1.79,1.25-3.45,1.71-.21-.51-.43-.9-.75-1.33,1.29-.27,2.08-.55,2.87-1.05-.67-.32-1.07-.46-2.13-.86.45-.63.58-.82.93-1.42h-.42c-.53,0-.81.02-1.14.08v-1.46c.33.06.6.08,1.14.08h1.08c.13-.3.21-.48.39-1.02l1.49.28c-.13.36-.18.47-.3.74h2.28c.51,0,.78-.01,1.07-.06v1.42c-.3-.04-.54-.06-1.17-.06-.29.92-.42,1.21-.87,1.85.55.25.67.33,1.17.64l-.84,1.33ZM251.53,114.25c.54.79.72,1.12,1,1.91l-1.26.46c-.29-.79-.53-1.26-.98-1.91l1.23-.46ZM253,122.74c-.2.33-.24.41-.51.81.63.22.85.3,1.23.46.32-.42.5-.76.66-1.28h-1.38ZM256.89,114.76c-.57,1.14-.63,1.28-1.08,1.94l-1.23-.56c.46-.63.78-1.21,1.02-1.92l1.29.54ZM263.17,118.02c-.25-.04-.44-.04-1.02-.06-.09,2.32-.54,4.06-1.46,5.64.81,1.02,1.61,1.68,2.75,2.25-.34.45-.58.88-.84,1.53-1.09-.64-2.02-1.47-2.82-2.47-.9,1.04-2.01,1.92-3.27,2.58-.27-.75-.4-.99-.76-1.44.63-.31.81-.42,1.14-.63.83-.54,1.49-1.11,2.04-1.8-.66-1.18-.96-2.02-1.21-3.38-.25.41-.36.56-.66.95-.31-.41-.63-.74-1.04-1.04.9-1.14,1.5-2.4,1.95-4.15.18-.68.32-1.53.33-1.95l1.6.31c-.06.17-.1.3-.21.8-.1.4-.25.97-.39,1.42h2.52c.68,0,1-.02,1.35-.08v1.51ZM258.84,117.96q-.12.3-.18.43c.24,1.63.52,2.58,1.14,3.79.58-1.25.83-2.4.9-4.23h-1.86Z"/>
        <path d="M270.18,121.54c0-.33-.01-.56-.06-.93h.76c.71-.38,1.26-.75,1.77-1.21h-4.5c-.66,0-1.05.02-1.5.08v-1.56c.43.06.81.07,1.5.07h5.25c.57,0,.79-.01,1.11-.06l.76.96q-.4.34-.57.5c-1.1.94-1.91,1.53-2.96,2.16v.09h3.79c.69,0,1.3-.03,1.75-.09v1.63c-.45-.06-1.11-.09-1.75-.09h-3.79v2.53c0,1.23-.48,1.62-2.05,1.62-.5,0-1.02-.03-1.74-.08-.08-.55-.13-.75-.45-1.53.72.1,1.5.17,2.01.17s.66-.09.66-.38v-2.34h-3.96c-.64,0-1.27.03-1.75.09v-1.63c.5.06,1.09.09,1.75.09h3.96v-.09ZM269.94,115.17c0-.45-.01-.74-.07-1.09h1.77c-.06.33-.08.64-.08,1.08v.33h3.95c.73,0,1.06-.01,1.63-.06-.04.34-.06.66-.06,1.14v1.17c0,.41.03.75.08,1.1h-1.57v-1.92h-9.38v1.92h-1.59c.06-.33.08-.66.08-1.1v-1.17c0-.45-.02-.79-.06-1.14.55.04.92.06,1.65.06h3.66v-.31Z"/>
        <path d="M280.17,120.03c-.12.03-.18.06-.27.11-.08.04-.12.06-.18.06-.33,0-.57-.57-.75-1.68h.29c.63,0,2.24-.2,3.2-.39.31-1.31.48-2.31.48-3.02,0-.06,0-.15-.01-.25.64.06,1.26.2,1.68.38.24.09.36.21.36.36,0,.08-.02.13-.09.25q-.23.39-.69,2.04c.36-.04.76-.08,1.02-.08.62,0,1.1.12,1.44.36.6.43.9,1.32.9,2.68,0,2.24-.41,4.16-1.1,5.1-.48.66-1.11.98-2,.98-.54,0-1.05-.08-1.2-.17q-.12-.08-.17-.63c-.04-.41-.13-.77-.32-1.19.78.27.98.32,1.46.32.72,0,1.02-.35,1.35-1.56.23-.79.35-1.81.35-2.92,0-1.17-.29-1.59-1.08-1.59-.27,0-.71.04-1.05.09-.04.18-.06.2-.12.39-.42,1.54-1.19,3.55-1.95,5.17-.79,1.63-.99,1.96-1.18,1.96-.12,0-.53-.21-.96-.5-.35-.21-.44-.3-.44-.42q0-.08.62-1.05c.83-1.28,1.91-3.77,2.28-5.25-1.11.25-1.73.39-1.86.43ZM289.59,116.95c-.24.18-.41.25-.48.25-.04,0-.09-.03-.13-.11-.32-.51-.84-1.09-1.28-1.47-.03-.03-.04-.06-.04-.09,0-.06.11-.17.36-.36.25-.18.33-.22.43-.22.24,0,1.56,1.33,1.56,1.58,0,.09-.12.19-.42.42ZM288,118.54c0-.11.13-.24.57-.58.3-.23.45-.32.57-.32.2,0,.87.72,1.5,1.61.52.75,1.09,1.81,1.09,2.07,0,.15-.04.2-.52.58-.3.24-.65.44-.77.44-.1,0-.15-.04-.25-.3-.29-.72-.54-1.21-.95-1.86-.4-.65-.43-.67-1.15-1.46-.06-.08-.09-.12-.09-.18ZM289.96,113.94c.25,0,1.53,1.28,1.53,1.53,0,.08-.09.17-.39.38-.27.21-.41.29-.46.29q-.08,0-.38-.42c-.25-.34-.74-.86-1-1.08-.04-.04-.08-.08-.08-.12,0-.12.62-.57.78-.57Z"/>
        <path d="M297.15,117.76c-.01.06-.03.12-.04.17-.03.11-.1.38-.19.81-.63,2.69-1.23,4.19-2.49,6.17-.6-.5-1.02-.78-1.53-1.04,1.38-1.89,2.36-4.41,2.52-6.57l1.74.46ZM300.76,114.28c-.06.43-.09.99-.09,1.75v9.51c0,.7-.18,1.14-.58,1.38-.29.17-.74.24-1.47.24-.56,0-1.2-.03-1.88-.09-.08-.66-.2-1.08-.46-1.68.93.15,1.5.21,2.07.21.48,0,.62-.08.62-.36v-9.22c0-.73-.03-1.29-.09-1.74h1.89ZM303.94,117.25c.11.75.3,1.53.66,2.52.54,1.49,1.23,2.73,2.16,3.97-.57.35-1.08.72-1.46,1.12-1.21-1.72-1.93-3.27-2.57-5.44-.04-.15-.19-.72-.45-1.71l1.65-.46Z"/>
        <path d="M314.56,114.76c0,.38.18,1.08.54,2.03,1.16-.29,1.83-.53,3.41-1.2.09-.03.13-.04.18-.04.15,0,.25.27.48,1.25.01.07.01.09.03.15.02.03.02.04.02.06,0,.1-.06.17-.21.22-.77.33-1.64.6-3.24,1.02.78,1.45,1.89,2.71,2.97,3.34.08.04.12.1.12.18,0,.18-.33.88-.58,1.25-.13.19-.22.27-.36.27-.1,0-.13-.01-.33-.17-.31-.22-1.06-.57-1.6-.72-.64-.18-1.23-.25-1.92-.25-1.77,0-2.67.5-2.67,1.46,0,.54.29.92.9,1.21.71.34,1.99.54,3.51.54.45,0,.75-.01,1.2-.08-.24.46-.31.66-.6,1.59-.08.23-.2.29-.6.29-1,0-2.27-.13-3.03-.32-2-.49-3.13-1.62-3.13-3.12,0-.72.29-1.42.78-1.94.69-.67,1.8-1.05,3.22-1.05.93,0,1.53.11,2.33.42-.87-.93-1.31-1.53-1.83-2.55-.92.17-1.68.27-2.57.36-.52.04-1.68.12-1.9.12-.21,0-.27-.04-.35-.3-.09-.28-.16-.76-.24-1.42.5.02.73.03,1,.03.9,0,2.38-.12,3.36-.27-.13-.3-.39-.95-.54-1.35-.24-.66-.34-.9-.54-1.23.71-.12,1.47-.2,1.82-.2.29,0,.39.08.39.25v.17Z"/>
        <path d="M96.96,140.59v-.21c.94.17,1.42.3,1.81.5.11.04.13.1.13.21,0,.06-.03.13-.09.24-.13.24-.18.42-.41,1.41-.28,1.29-.43,2.73-.43,4.3,0,.84.03,1.31.12,2.1l.79-1.61c.09.32.21.57.39.78.12.15.14.19.14.31s0,.12-.29.75c-.32.67-.5,1.26-.66,2.03-.04.24-.09.31-.17.34-.12.06-.63.13-.93.13-.21,0-.29-.04-.33-.18-.36-1.02-.66-3.12-.66-4.62,0-1.29.17-3.07.43-4.95.09-.62.14-1.07.14-1.38v-.17ZM102.07,144.83c-.84,0-1.08-.03-1.16-.13-.1-.13-.19-.75-.19-1.3v-.22c.6.06,1.08.09,1.84.09.58,0,.92-.02,1.51-.06-.04-1.56-.13-2.49-.31-2.97h.4c.53,0,1.17.04,1.5.12.15.03.23.12.23.24,0,.06-.02.12-.04.22-.08.21-.12.54-.12.93,0,.23.01.93.01,1.11v.15c.75-.12,1.11-.2,1.74-.41.06-.01.12-.03.18-.03.09,0,.13.04.17.13.06.17.12.75.12,1.08,0,.24-.04.35-.17.39-.2.07-1.11.25-2,.38.02.42.02.64.02.88,0,2.21-.27,3.78-.87,4.96-.54,1.06-1.71,2.31-2.19,2.31-.13,0-.19-.03-.36-.18-.5-.44-.58-.51-1.17-.78,1.05-.58,1.72-1.21,2.19-2.07.5-.91.76-2.17.76-3.55,0-.1,0-.36-.01-.72-.01-.15-.01-.38-.03-.67-.54.04-1.75.1-2.05.1Z"/>
        <path d="M112.45,144.17c-.67.13-1.32.3-1.74.45-.11.04-.2.06-.27.06-.13,0-.21-.08-.3-.33-.11-.33-.21-.86-.27-1.38.22.01.33.03.46.03.57,0,1.18-.08,2.13-.26l.03-.9c.02-.21.02-.36.02-.41,0-.64-.02-1.04-.08-1.44.79.03,1.29.09,1.77.21.2.04.29.13.29.27,0,.06-.01.11-.09.27-.13.28-.15.46-.25,1.71.33.22.62.54.62.69,0,.09-.04.17-.18.33-.22.24-.3.34-.58.76q-.03.39-.03.5c.5-.43.82-.72,1.33-1.09.57-.43,1.2-.84,1.65-1.06.58-.32.99-.42,1.53-.42.79,0,1.37.3,1.68.87.18.36.25.71.25,1.29,0,.51-.03.99-.12,2.08-.12,1.29-.18,2.25-.18,2.83s.13.76.55.76c.6,0,1.33-.43,1.98-1.17.01.58.06.77.25,1.37.04.12.06.2.06.25,0,.17-.08.3-.33.5-.61.5-1.5.81-2.29.81-1.32,0-1.92-.69-1.92-2.2,0-.69.04-1.58.2-3.67.04-.5.06-.92.06-1.12,0-.62-.21-.9-.66-.9s-1.33.48-2.52,1.39c-.6.45-.94.77-1.57,1.41v.69c0,1.12.07,3.72.13,4.63v.18c0,.12-.02.17-.04.21-.08.09-.51.15-1.2.15-.43,0-.53-.06-.53-.32,0-.09,0-.24.02-.4v-.35q.01-.52.08-3.38-.86,1.11-1.37,1.94c-.13.21-.23.29-.34.29s-.39-.24-.86-.75c-.29-.33-.39-.47-.39-.56,0-.07.03-.13.13-.24.95-.98,1.74-1.91,2.87-3.32l.03-1.27Z"/>
        <path d="M127.69,148.87c.04.06.06.11.06.17q0,.09-.25.78c-.31.92-.51,1.67-.57,2.25-.02.19-.08.27-.27.31-.21.06-.61.09-1,.09-.15,0-.22-.03-.27-.12-.14-.28-.38-1.32-.5-2.16-.11-.71-.15-1.44-.15-2.21,0-1.72.2-3.36.74-6.3.09-.48.12-.71.17-1.17.69.09,1.17.22,1.6.45.23.12.32.21.32.36,0,.08-.03.15-.11.27-.61,1.05-1.18,4.29-1.18,6.69,0,.36.01.93.06,1.65.36-.93.53-1.35.86-2.07.1.41.21.6.51,1ZM130.21,144.92c-.72,0-.87-.03-.92-.2-.04-.13-.09-.62-.09-.96,0-.12,0-.24.02-.51.4.03.64.04,1.14.04.81,0,1.32-.02,2.1-.06-.01-1.9-.03-2.14-.18-2.86.74.01,1.29.07,1.77.19.23.06.32.14.32.29,0,.08-.01.11-.06.23-.15.36-.23.94-.26,1.98.56-.08,1.04-.17,1.94-.38.08-.03.1-.03.15-.03.09,0,.14.04.17.15.03.13.08.71.08,1.02,0,.36-.01.44-.17.5-.24.11-.9.23-2.17.38,0,1.04.09,2.75.2,3.72.94.41,1.59.75,2.25,1.21.42.32.51.41.51.53,0,.15-.27.66-.58,1.09-.18.25-.27.33-.38.33s-.11,0-.45-.33c-.33-.33-.67-.57-1.33-1.02v.12c0,1.33-1.09,2.19-2.76,2.19s-2.8-.9-2.8-2.25,1.14-2.35,2.65-2.35c.56,0,.84.01,1.25.08q-.06-1.17-.1-3.17c-.65.04-1.67.08-2.27.08ZM131.44,149.33c-.75,0-1.25.34-1.25.87,0,.48.46.78,1.18.78.8,0,1.22-.36,1.22-1.04,0-.22-.02-.38-.02-.39-.39-.15-.73-.23-1.14-.23ZM135.45,141.55c-.21-.45-.34-.67-.81-1.31-.03-.04-.04-.07-.04-.1,0-.12.5-.46.68-.46.09,0,.19.1.49.48.38.5.79,1.19.79,1.33,0,.09-.04.15-.27.29-.22.17-.42.25-.51.25q-.11,0-.33-.48ZM136.26,139.21c.21-.12.35-.18.44-.18.1,0,.18.06.39.33.46.6.86,1.25.86,1.41,0,.09-.06.17-.3.3-.18.12-.39.23-.46.23-.06,0-.1-.04-.15-.15-.26-.57-.66-1.25-.95-1.58-.04-.04-.06-.09-.06-.12,0-.06.06-.13.24-.24Z"/>
        <path d="M141.88,144.7c-1.19.12-1.49.13-2.16.13-.46,0-.54-.19-.65-1.53h.58c.74,0,1.4-.04,2.22-.13v-.32c0-.97-.06-1.74-.21-2.55,1.14.06,1.59.12,1.9.21.15.04.21.12.21.27,0,.09-.01.15-.09.3-.13.28-.21.82-.22,1.84.5-.09,1.29-.29,1.89-.46.04-.02.08-.02.1-.02.12,0,.2.06.23.17.08.3.17.9.17,1.12,0,.12-.08.23-.2.27-.18.07-1.27.3-2.23.46v1.93c1.48-.5,2.64-.73,3.63-.73,1.92,0,3.16,1.23,3.16,3.13,0,1.23-.49,2.22-1.38,2.74-.46.27-1.12.44-1.84.44s-1.37-.06-1.53-.17c-.16-.09-.18-.13-.21-.5-.03-.42-.12-.78-.3-1.21.62.22,1.12.31,1.71.31,1.17,0,1.83-.6,1.83-1.66s-.63-1.67-1.63-1.67c-.95,0-2.15.3-3.43.85q0,.06.01.65.01.99.01,1.2c.02.27.02.54.02.68,0,1.21-.46,1.8-1.46,1.8s-1.94-.51-2.54-1.29c-.24-.33-.36-.67-.36-1.08,0-.97.87-1.86,2.76-2.83v-2.37ZM141.88,148.72c-.87.53-1.23.87-1.23,1.19,0,.34.5.72.95.72.21,0,.29-.13.29-.48v-1.43ZM150.25,145.31c-.76-.81-1.81-1.49-2.8-1.8-.12-.04-.18-.11-.18-.18,0-.09.15-.33.57-.9.17-.22.18-.24.33-.24.15.02.72.21,1.11.39.94.43,2.17,1.36,2.17,1.65,0,.27-.75,1.21-.98,1.21-.07,0-.13-.03-.22-.13Z"/>
        <path d="M154.36,148.42c0-.57.01-.99.03-1.54-.39.48-.62.69-1.12,1.08-.2-.62-.36-.99-.67-1.51,1.05-.72,1.8-1.47,2.58-2.58.24-.36.46-.74.66-1.17l1.28.9c-.12.18-.17.24-.29.43-.33.54-.41.64-.93,1.32v5.91c0,.78.01,1.19.08,1.63h-1.7c.08-.43.09-.82.09-1.53v-2.94ZM157.02,140.39c-.77,1-.86,1.09-1.23,1.5-.66.66-1.38,1.25-2.21,1.77-.25-.58-.46-.88-.84-1.32,1.46-.83,2.45-1.77,3-2.88l1.28.93ZM157.81,148.88c-.6,0-.93.02-1.37.06v-1.46c.39.04.76.06,1.38.06h4.79v-.72h-4.63c-.56,0-.98.02-1.35.06v-1.41c.38.04.6.06,1.37.06h6.43c.67,0,1.04-.01,1.4-.07v1.42c-.38-.04-.78-.06-1.37-.06h-.32v.72h.38c.6,0,1.04-.01,1.41-.06v1.46c-.34-.04-.76-.06-1.36-.06h-.42v2.52c0,1.06-.42,1.35-1.93,1.35-.29,0-.84-.01-1.5-.04-.06-.6-.13-.9-.33-1.44l-.75.67c-.6-1.02-1-1.52-1.86-2.31l1.04-.75h-.99ZM158.97,144.91c-.58,0-1.08.02-1.33.04.03-.4.05-.78.05-1.41v-2.16c0-.6-.02-.93-.05-1.33.41.04.77.06,1.46.06h4.44c.72,0,1.11-.01,1.48-.06-.04.46-.06.81-.06,1.42v2.07c0,.63.01.99.06,1.41-.31-.03-.82-.04-1.32-.04h-4.73ZM159.13,148.88c.62.57.95.93,1.74,1.95l-.36.32c.74.1,1.23.15,1.56.15.43,0,.54-.06.54-.36v-2.06h-3.48ZM159.16,141.95h4.26v-.63h-4.26v.63ZM159.16,143.75h4.26v-.68h-4.26v.68Z"/>
        <path d="M170.97,145.18c1.89-.53,3.25-.77,4.27-.77,2.12,0,3.42,1.16,3.42,3.03,0,1.12-.46,2.12-1.35,2.87-.58.49-1.46.92-2.61,1.26-.64.18-1.33.31-1.63.31-.18,0-.27-.04-.33-.19-.21-.53-.45-.9-.76-1.21,3.3-.35,4.98-1.4,4.98-3.11,0-.87-.72-1.54-1.65-1.54-1.62,0-3.39.54-5.25,1.58-.15.08-.24.12-.3.12-.25,0-.67-.75-1.02-1.83.74-.11.99-.17,2.24-.51Z"/>
        <path d="M184.44,143.75c-.39.09-.53.13-1.07.33-.19.08-.3.11-.39.11-.33,0-.63-.62-.9-1.91.96-.04,1.31-.09,2.97-.34,1.8-.27,4.08-.62,5.28-.76,1.35-.18,2.43-.36,3-.48.1-.03.15-.03.22-.03.2,0,.27.09.41.46.12.31.21.76.21.97,0,.18-.06.24-.27.24-.32,0-.6.03-.89.08-2.53.42-4.56,2.64-4.56,4.98,0,1.75,1.38,2.91,3.72,3.12.21.01.29.09.29.27,0,.38-.15,1.09-.29,1.42-.08.17-.19.24-.39.24s-.65-.09-1.11-.22c-2.55-.75-3.88-2.37-3.88-4.67,0-1.25.41-2.4,1.19-3.39.42-.54.78-.84,1.63-1.43-1.96.33-4.04.72-5.17,1.01Z"/>
        <path d="M203.4,149.98c1.23,0,2.59-.18,3.94-.53.08-.03.12-.03.17-.03.09,0,.13.06.17.2.04.33.08.81.08,1.3,0,.3-.03.39-.17.45-.45.24-2.47.46-4.21.46-2.26,0-3.55-.38-4.59-1.35-.5-.46-.99-1.28-.99-1.61,0-.22.13-.31,1.37-1.02.54,1.49,1.79,2.12,4.25,2.12ZM203.53,141.35c.87,0,1.38-.03,2.4-.18h.11c.12,0,.17.04.2.13.03.18.06.63.06,1.17,0,.34-.03.46-.12.53-.12.07-1.42.17-2.43.17-1.33,0-2.45-.11-3.69-.35-.85-.17-.9-.21-.9-.73,0-.35.03-.92.08-1.33,1.3.4,2.73.6,4.3.6Z"/>
        <path d="M215.26,144.65c-.19-.66-.25-1.06-.43-2.91-.06-.72-.12-1.08-.27-1.59.91.02,1.5.06,1.9.17.23.06.33.17.33.33,0,.06-.01.13-.04.25-.1.36-.15.63-.15,1.02,0,.73.15,1.93.32,2.46.09.28.18.39.34.39.36,0,1.68-.69,2.4-1.25.19-.15.22-.17.3-.17.13,0,.27.11.5.39.38.51.67,1.06.67,1.27,0,.17-.11.27-.36.34-.93.25-2.46.86-3.49,1.35-1.83.9-2.66,1.72-2.66,2.65s.76,1.29,2.7,1.29c1.12,0,2.14-.1,3.52-.33.06-.01.17-.03.2-.03.12,0,.19.06.25.18.04.15.15,1.06.15,1.42,0,.21-.06.29-.26.34-.33.08-2.14.18-3.28.18-1.92,0-3.2-.25-3.99-.79-.67-.47-1.04-1.2-1.04-2.1,0-.69.2-1.3.6-1.9.52-.78,1.09-1.28,2.35-2.03-.31-.29-.43-.5-.57-.96Z"/>
        <path d="M226.83,145.21c-.12.03-.18.06-.27.11-.08.04-.12.06-.2.06-.32,0-.55-.58-.74-1.69.12.01.23.01.29.01.63,0,2.24-.2,3.2-.39.31-1.32.48-2.31.48-3.03,0-.06,0-.13-.01-.25.64.08,1.26.21,1.68.38.24.09.36.22.36.38,0,.08-.02.12-.09.24q-.23.4-.69,2.05c.36-.04.76-.08,1.02-.08.62,0,1.1.12,1.44.36.6.43.9,1.32.9,2.68,0,2.24-.41,4.14-1.1,5.08-.48.66-1.11.97-1.99.97-.54,0-1.05-.07-1.2-.17q-.12-.07-.17-.63c-.04-.4-.13-.75-.32-1.17.78.25.98.3,1.46.3.72,0,1.02-.34,1.35-1.54.23-.79.35-1.83.35-2.92,0-1.17-.29-1.59-1.08-1.59-.27,0-.71.03-1.05.09-.04.17-.06.18-.12.39-.42,1.53-1.19,3.55-1.95,5.17-.79,1.63-.99,1.96-1.18,1.96-.12,0-.53-.21-.96-.5-.35-.21-.44-.3-.44-.42q0-.08.62-1.05c.83-1.28,1.91-3.78,2.28-5.25-1.11.24-1.73.39-1.86.43ZM234.48,143.53c0-.1.14-.24.57-.58.3-.22.45-.31.55-.31.09,0,.17.04.36.24.88.86,1.71,2,2.19,2.99.15.33.24.54.24.63,0,.15-.04.2-.52.58-.3.24-.65.43-.77.43-.1,0-.15-.04-.25-.3-.3-.73-.58-1.3-.94-1.86-.39-.6-.47-.69-1.35-1.64-.06-.09-.08-.13-.08-.18Z"/>
        <path d="M241.42,144.08c-.27.02-.43.03-.61.05-.14.01-.15.01-.17.01-.12,0-.18-.04-.23-.2-.08-.24-.18-1.04-.19-1.48.17.01.6.03,1.14.03.17,0,1.35-.07,1.88-.12.25-1.21.34-1.84.34-2.65,1.54.21,2.1.39,2.1.67,0,.11-.01.13-.24.48-.12.18-.17.34-.42,1.27.7-.12,1.12-.22,1.68-.41.1-.03.15-.04.22-.04.11,0,.13.08.23.51.07.38.12.69.12.85,0,.18-.04.21-.43.3-.51.12-1.38.27-2.31.39-.56,1.68-.93,2.58-1.62,3.99-.53,1.05-.83,1.61-1.23,2.24-.12.18-.19.24-.3.24-.15,0-.57-.22-1.09-.61-.24-.17-.3-.24-.3-.35s.06-.19.25-.46c.43-.54,1-1.47,1.5-2.46.42-.82.57-1.17,1-2.35-.58.04-.63.06-1.32.1ZM246.36,152.72c-1.64,0-2.75-.9-2.75-2.23s1.15-2.42,2.7-2.42c.36,0,.53.01,1.14.11-.06-.72-.06-1.01-.12-2.4,0-.29-.03-.67-.06-1.16.77.08,1.35.17,1.64.29.12.04.18.12.18.24,0,.08-.01.13-.03.24-.08.31-.09.54-.09.94,0,.56.04,1.5.09,2.24,1.07.48,1.5.72,2.25,1.3.33.25.45.39.45.51,0,.15-.08.29-.5.96-.18.3-.31.44-.42.44q-.09,0-.51-.39c-.33-.33-.71-.58-1.23-.9,0,1.39-1.02,2.23-2.74,2.23ZM246.33,149.51c-.72,0-1.21.34-1.21.87,0,.5.45.81,1.12.81.79,0,1.21-.41,1.21-1.2,0-.12,0-.24-.02-.24-.3-.15-.7-.24-1.11-.24ZM251.94,145.25c-.18.26-.27.33-.38.33-.08,0-.13-.03-.24-.13-.38-.36-.9-.75-1.46-1.09q-.36-.22-1.02-.53c-.21-.09-.29-.15-.29-.27,0-.11.08-.24.3-.58.36-.53.45-.62.58-.62.28,0,1.39.57,2.19,1.11.65.43.84.61.84.78,0,.12-.24.57-.54,1Z"/>
        <path d="M256.87,142.63c.34-.9.67-1.38,1.25-1.86.69-.57,1.51-.84,2.56-.84,2.25,0,3.69,1.23,3.69,3.15,0,.65-.18,1.26-.53,1.75-.27.39-.39.51-1.23,1.28-1.17,1.05-1.42,1.46-1.42,2.25v.79h-1.53v-.84c0-.67.13-1.28.41-1.75.21-.38.43-.63,1.03-1.23.63-.61.83-.84.99-1.11.21-.3.33-.72.33-1.12,0-1-.67-1.63-1.74-1.63s-1.69.55-2.14,1.86l-1.67-.69ZM261.66,151.37c0,.66-.53,1.18-1.19,1.18s-1.18-.52-1.18-1.18.52-1.18,1.18-1.18,1.19.52,1.19,1.18Z"/>
      </g>
      <circle class="cls-11" cx="31.42" cy="149.9" r="30"/>
      <path class="cls-8" d="M9.89,1.42h239.38c4.68,0,8.47,3.79,8.47,8.47v43.33s9.69,9.69,9.69,9.69h-9.69s0,.5,0,.5c0,4.68-3.79,8.47-8.47,8.47H9.89c-4.68,0-8.47-3.79-8.47-8.47V9.89c0-4.68,3.79-8.47,8.47-8.47Z"/>
      <circle class="cls-9" cx="305.91" cy="55.68" r="30"/>
      <g>
        <path d="M16.52,21.17c0-.55-.03-1.06-.08-1.54.44.06.92.08,1.61.08h6.97c.69,0,1.12-.01,1.54-.08-.06.54-.08.97-.08,1.49v9.28c0,.74.01,1.21.08,1.76h-1.73v-.87h-6.69v.87h-1.72c.06-.53.09-1.07.09-1.76v-9.22ZM18.15,24.58h6.69v-3.34h-6.69v3.34ZM18.15,29.77h6.69v-3.68h-6.69v3.68Z"/>
        <path d="M31.35,22.96c-.62,0-1.16.03-1.71.09v-1.77c.58.07,1.02.11,1.71.11h3.71v-1.02c0-.57-.03-.92-.09-1.33h1.8c-.06.4-.09.78-.09,1.32v1.04h3.9c.72,0,1.23-.03,1.74-.11v1.77c-.62-.06-1.1-.09-1.74-.09h-3.09c.67,1.21,1.35,2.17,2.16,3.02.97,1.03,2.01,1.81,3.15,2.41-.45.54-.69.92-.99,1.58-.91-.63-1.59-1.17-2.41-2v1.62c-.44-.06-.84-.08-1.44-.08h-1.27v.99c0,.69.03,1.28.1,1.79h-1.83c.08-.54.11-1.11.11-1.8v-.97h-1.14c-.61,0-1,.02-1.44.08v-1.6c-.83.85-1.42,1.38-2.34,2.01-.29-.65-.5-.97-.97-1.5,2.14-1.34,3.9-3.29,5.01-5.54h-2.82ZM35.06,25.7c0-.43.04-1.04.1-1.6-.75,1.54-1.44,2.53-2.61,3.81.34.05.6.06,1.29.06h1.21v-2.26ZM38.06,27.97c.67,0,.92-.01,1.27-.06-1.14-1.14-1.75-1.99-2.79-3.82.09.6.14,1.19.14,1.61v2.28h1.38Z"/>
        <path d="M49.68,28.66c-.72,1.25-1.71,1.94-2.73,1.94-1.56,0-2.67-1.53-2.67-3.66,0-2.37,1.2-4.41,3.25-5.49,1-.54,2.08-.78,3.51-.78,3.14,0,5.46,2.22,5.46,5.19,0,2.62-1.29,4.52-3.78,5.58-.5.21-.89.33-1.08.33-.18,0-.25-.06-.45-.34-.25-.39-.54-.67-.95-.95,3.09-.79,4.49-2.25,4.49-4.68,0-1.25-.53-2.29-1.46-2.96-.53-.36-.95-.51-1.77-.64-.42,3.17-.92,4.89-1.83,6.46ZM47.52,23.35c-1,.88-1.58,2.14-1.58,3.55,0,1.15.38,1.83,1,1.83.75,0,1.52-1.04,2.08-2.82.36-1.12.54-1.98.77-3.64-1.07.22-1.59.48-2.28,1.08Z"/>
        <path d="M65.72,19.15c.62.96,1.33,1.71,2.45,2.57,1.11.84,2.31,1.51,3.63,2.05-.33.46-.54.88-.79,1.59-1.23-.55-2.54-1.35-3.54-2.18-1.14-.91-1.74-1.53-2.54-2.58-.78,1.07-1.33,1.64-2.37,2.52-1.11.94-2.29,1.73-3.58,2.35-.25-.66-.42-.97-.81-1.53,1.25-.54,2.45-1.28,3.54-2.19,1-.81,1.74-1.64,2.36-2.61h1.66ZM66.03,30.31h3.58c.79,0,1.37-.03,1.81-.09v1.71c-.46-.06-1.05-.09-1.81-.09h-9.36c-.81,0-1.4.03-1.86.09v-1.71c.39.06.93.09,1.71.09h.65v-3.45c0-.68-.02-1.12-.08-1.65h1.75c-.06.44-.09.93-.09,1.65v3.45h2.08v-5.87c0-.72-.02-1.11-.09-1.6h1.79c-.06.43-.09.84-.09,1.56v1.43h2.38c.67,0,1.17-.03,1.58-.08v1.68c-.45-.06-.88-.08-1.56-.08h-2.4v2.96Z"/>
        <path d="M74.88,24.79c-.68,0-.99.02-1.47.06v-1.37c.41.04.77.06,1.47.06h1.75c-.24-.54-.38-.79-.54-1.08h-1.54c-.69,0-1.26.03-1.71.08v-1.44c.45.06.9.09,1.63.09h.46c-.27-.5-.45-.74-.97-1.34l1.44-.54c.48.66.67.99,1.11,1.88h.81v-1.01c0-.43-.03-.84-.08-1.12h1.56c-.03.27-.04.59-.04,1.07v1.07h1.06v-1.07c0-.45-.01-.76-.06-1.07h1.57c-.04.27-.07.68-.07,1.12v1.01h.9c.5-.69.78-1.21,1.04-1.91l1.47.54c-.31.54-.58.96-.88,1.37h.41c.75,0,1.2-.03,1.63-.09v1.44c-.45-.04-1.02-.08-1.71-.08h-1.46c-.24.54-.34.76-.52,1.08h1.66c.71,0,1.07-.01,1.49-.06v1.37c-.46-.04-.79-.06-1.49-.06h-3.76v.69h3.03c.63,0,1.08-.01,1.47-.06v1.26c-.38-.04-.84-.06-1.47-.06h-3.03v.72h4.04c.81,0,1.32-.03,1.72-.09v1.44c-.52-.06-1.05-.09-1.71-.09h-2.89c.48.42,1.14.8,1.95,1.16.92.38,1.69.6,3,.82-.4.54-.58.86-.82,1.47-2.42-.66-4.05-1.53-5.33-2.87.03.51.03.69.03,1.02v.72c0,.62.03,1.05.09,1.46h-1.7c.06-.42.09-.88.09-1.47v-.69c0-.33,0-.45.03-.99-.66.71-1.18,1.11-2.07,1.59-.92.51-1.82.88-2.94,1.21-.21-.49-.5-.93-.87-1.39,2.08-.44,3.54-1.06,4.71-2.04h-2.67c-.71,0-1.21.03-1.75.09v-1.44c.45.06.95.09,1.74.09h3.81v-.72h-2.85c-.63,0-1.09.01-1.47.06v-1.26c.39.04.82.06,1.47.06h2.85v-.69h-3.61ZM80.54,23.54c.21-.39.34-.69.48-1.08h-3.29c.2.42.3.69.43,1.08h2.37Z"/>
        <path d="M91.34,27.94c.04.07.06.13.06.21,0,.11-.02.12-.15.45-.3.69-.66,1.77-.84,2.58-.04.17-.09.25-.15.29-.08.03-.58.1-.75.1h-.06c-.08,0-.18-.01-.3-.01-.2,0-.24-.04-.3-.23-.29-.97-.51-2.98-.51-4.5,0-1.65.1-2.67.52-4.92.15-.81.22-1.26.29-1.75.63.12,1.17.27,1.62.48.25.1.33.18.33.33,0,.1-.02.15-.18.39-.5.79-1.05,3.98-1.05,6.12,0,.34.02.81.06,1.56.42-.94.57-1.23.92-1.96.13.32.22.46.49.87ZM94.59,29c.48.25,1.05.34,2.06.34s1.53-.08,2.46-.34c.09-.03.17-.04.21-.04.1,0,.18.06.19.21.08.51.13,1.11.13,1.41,0,.15-.04.2-.25.26-.81.21-1.63.31-2.64.31-1.38,0-2.23-.16-2.94-.58-.66-.41-1.35-1.23-1.35-1.64,0-.21.32-.5,1.12-.99.27.54.53.81,1,1.06ZM93.54,21.35c.33.08,1.29.14,2.03.14.99,0,1.98-.08,2.91-.24q.08-.01.14-.01c.1,0,.15.04.18.16.03.15.08.81.08,1.22,0,.22-.04.3-.21.33-.62.12-1.63.19-2.71.19-1.29,0-2.45-.07-2.59-.16-.08-.04-.11-.15-.11-.42,0-.41.04-1.01.08-1.12.01-.06.06-.09.15-.09.02,0,.05,0,.08.01Z"/>
        <path d="M105.14,24.1c-1.19.12-1.49.13-2.16.13-.46,0-.54-.2-.65-1.53h.58c.74,0,1.4-.04,2.22-.13v-.32c0-.97-.06-1.74-.21-2.55,1.14.06,1.59.12,1.9.21.15.04.21.12.21.27,0,.09-.01.15-.09.3-.13.29-.21.82-.22,1.84.5-.09,1.29-.29,1.89-.46.04-.01.08-.01.1-.01.12,0,.2.06.23.16.08.3.17.9.17,1.12,0,.12-.08.23-.2.27-.18.08-1.27.3-2.23.46v1.93c1.48-.49,2.64-.73,3.63-.73,1.92,0,3.16,1.23,3.16,3.13,0,1.23-.49,2.22-1.38,2.74-.46.27-1.12.44-1.84.44s-1.37-.06-1.53-.17c-.16-.09-.18-.13-.21-.5-.03-.42-.12-.78-.3-1.21.62.22,1.12.31,1.71.31,1.17,0,1.83-.6,1.83-1.66s-.63-1.67-1.63-1.67c-.95,0-2.15.3-3.43.85q0,.06.01.65.01.99.01,1.2c.02.27.02.54.02.67,0,1.21-.46,1.8-1.46,1.8s-1.94-.51-2.54-1.29c-.24-.33-.36-.67-.36-1.08,0-.97.87-1.86,2.76-2.83v-2.37ZM105.14,28.12c-.87.53-1.23.87-1.23,1.18,0,.34.5.72.95.72.21,0,.29-.13.29-.48v-1.42ZM113.51,24.71c-.76-.81-1.81-1.49-2.8-1.8-.12-.04-.18-.11-.18-.18,0-.09.15-.33.57-.9.17-.22.18-.24.33-.24.15.02.72.21,1.11.39.94.43,2.17,1.37,2.17,1.65,0,.27-.75,1.21-.98,1.21-.07,0-.13-.03-.22-.14Z"/>
        <path d="M118.05,19.99v-.21c.94.17,1.42.3,1.81.5.11.04.13.1.13.21,0,.06-.03.13-.09.24-.13.24-.18.42-.41,1.41-.28,1.29-.43,2.73-.43,4.3,0,.84.03,1.3.12,2.1l.79-1.61c.09.32.21.57.39.78.12.15.14.19.14.32s0,.12-.29.75c-.32.67-.5,1.26-.66,2.02-.04.24-.09.32-.17.34-.12.06-.63.13-.93.13-.21,0-.29-.04-.33-.18-.36-1.02-.66-3.12-.66-4.62,0-1.29.17-3.08.43-4.95.09-.62.14-1.07.14-1.38v-.17ZM123.17,24.23c-.84,0-1.08-.03-1.16-.13-.1-.14-.19-.75-.19-1.31v-.22c.6.06,1.08.09,1.84.09.58,0,.92-.01,1.51-.06-.04-1.56-.13-2.49-.31-2.97h.4c.53,0,1.17.04,1.5.12.15.03.23.12.23.24,0,.06-.02.12-.04.23-.08.21-.12.54-.12.93,0,.22.01.93.01,1.11v.15c.75-.12,1.11-.2,1.74-.41.06-.01.12-.03.18-.03.09,0,.13.04.17.13.06.17.12.75.12,1.08,0,.24-.04.35-.17.39-.2.07-1.11.25-2,.38.02.42.02.64.02.88,0,2.21-.27,3.78-.87,4.96-.54,1.06-1.71,2.31-2.19,2.31-.13,0-.19-.03-.36-.18-.5-.43-.58-.51-1.17-.78,1.05-.58,1.72-1.21,2.19-2.07.5-.91.76-2.17.76-3.55,0-.1,0-.36-.01-.72-.01-.15-.01-.38-.03-.68-.54.04-1.75.11-2.05.11Z"/>
        <path d="M138.75,24.31c2.12,0,3.62,1.44,3.62,3.48,0,1.39-.74,2.65-1.96,3.39-.86.51-1.91.76-3.09.76-1.91,0-3.02-.76-3.02-2.07,0-1.18.99-2.02,2.4-2.02,1.27,0,2.19.64,2.8,1.96.76-.56,1.08-1.14,1.08-1.95,0-1.29-.92-2.13-2.36-2.13s-3.04.73-4.35,2.04c-.24.24-.46.5-.73.84-.11.15-.18.21-.27.21-.27,0-1.33-1.05-1.33-1.32,0-.13.06-.21.39-.45.34-.27.84-.7,1.47-1.3,1.46-1.38,2.52-2.54,4.09-4.46-1.88.24-3.13.45-3.6.62-.08.01-.12.03-.17.03-.12,0-.2-.08-.29-.3-.18-.45-.27-.94-.32-1.6.41.06.69.08,1.02.08.72,0,1.93-.11,3.51-.29.55-.06.73-.11,1.15-.27.14-.06.21-.08.3-.08.21,0,.42.18.81.78.29.39.38.58.38.71,0,.19-.04.25-.38.46-.27.16-.43.3-.78.63-.75.72-.76.72-1.69,1.67-.66.67-.74.75-1.33,1.35.97-.54,1.74-.77,2.64-.77ZM137.31,29.5c-.23-.15-.48-.23-.77-.23-.46,0-.76.23-.76.59,0,.43.46.71,1.18.71.33,0,.62-.03.99-.14-.18-.5-.33-.72-.64-.93Z"/>
        <path d="M153.11,19.7c2.67,0,3.94,1.08,3.94,3.38,0,1-.39,1.93-1.05,2.52-.69.61-1.65.91-2.89.91h-2.16v4.88h-1.93v-11.68h4.09ZM152.64,24.92c1.69,0,2.46-.57,2.46-1.84s-.72-1.77-2.46-1.77h-1.7v3.62h1.7Z"/>
        <path d="M165.41,19.7v1.59h-5.4v3.18h4.12v1.57h-4.12v3.72h5.66v1.62h-7.59v-11.68h7.33Z"/>
        <path d="M170.75,19.7c1.39,0,2.29.25,2.92.81.58.53.93,1.37.93,2.27,0,1.48-.73,2.46-2.17,2.88.76.33.96.63,1.72,2.64l1.17,3.09h-2.05l-.99-2.89c-.58-1.71-1.02-2.22-1.89-2.22h-1.9v5.12h-1.88v-11.68h4.14ZM170.21,24.7c1.71,0,2.49-.55,2.49-1.77,0-.51-.19-.96-.52-1.21-.34-.26-1.04-.41-1.98-.41h-1.71v3.39h1.72Z"/>
        <path d="M185.52,28.66c-.72,1.25-1.71,1.94-2.73,1.94-1.56,0-2.67-1.53-2.67-3.66,0-2.37,1.2-4.41,3.25-5.49,1-.54,2.08-.78,3.51-.78,3.14,0,5.46,2.22,5.46,5.19,0,2.62-1.29,4.52-3.78,5.58-.5.21-.89.33-1.08.33-.18,0-.25-.06-.45-.34-.25-.39-.54-.67-.95-.95,3.09-.79,4.49-2.25,4.49-4.68,0-1.25-.53-2.29-1.46-2.96-.53-.36-.95-.51-1.77-.64-.42,3.17-.92,4.89-1.83,6.46ZM183.36,23.35c-1,.88-1.58,2.14-1.58,3.55,0,1.15.38,1.83,1,1.83.75,0,1.52-1.04,2.08-2.82.36-1.12.54-1.98.77-3.64-1.07.22-1.59.48-2.28,1.08Z"/>
        <path d="M196.67,20.95c-.76,0-1.21.02-1.77.09v-1.65c.52.08.97.09,1.8.09h8.21c.82,0,1.29-.01,1.8-.09v1.65c-.58-.07-1-.09-1.75-.09h-3.42v4.88h4.06c.79,0,1.23-.03,1.71-.09v1.68c-.5-.08-1.06-.11-1.8-.11h-3.97v3.22c0,.57.03,1.23.1,1.86h-1.84c.08-.61.11-1.21.11-1.86v-3.22h-3.83c-.69,0-1.26.03-1.83.11v-1.68c.5.07.92.09,1.79.09h3.87v-4.88h-3.23ZM196.95,21.34c.83,1.21,1.28,2.07,1.79,3.39l-1.47.74c-.51-1.44-.93-2.31-1.71-3.46l1.39-.66ZM205.98,22.03c-.61,1.46-1.08,2.29-1.98,3.54l-1.42-.72c.93-1.19,1.39-2.03,1.92-3.5l1.48.68Z"/>
        <path d="M210.35,20.74c0-.71-.02-1.05-.09-1.53h1.73c-.08.5-.09.78-.09,1.52v2.05h.1c.53,0,.72-.02.96-.06v.72c.98-.95,1.53-1.8,1.96-3.02.11-.27.24-.75.32-1.04t.04-.27s.01-.06.01-.12l1.71.36c-.08.15-.09.2-.18.46-.15.42-.34.95-.46,1.21h3.82c.53,0,1.07-.03,1.33-.06-.04.36-.06.57-.06,1.28,0,3.33-.12,5.7-.38,7.25-.2,1.26-.46,1.95-.88,2.28-.32.25-.83.36-1.67.36-.33,0-.45,0-1.53-.08-.06-.6-.17-1-.41-1.62.77.11,1.52.18,1.95.18.53,0,.67-.11.83-.53.33-.97.51-3.48.53-7.54h-4.29c-.56.93-1.09,1.6-1.96,2.43-.3-.41-.41-.53-.69-.83v.09c-.34-.03-.54-.04-1.06-.04v3.72c.57-.24.79-.34,1.48-.71l.03,1.54c-1.07.53-2.1.97-3.31,1.41-.77.29-.8.3-1.16.45l-.38-1.62c.38-.04.67-.13,1.79-.5v-4.3h-.42c-.56,0-.86.01-1.23.08v-1.58c.33.04.69.08,1.23.08h.42v-2.04ZM219.18,27.73c-1.25.77-2.59,1.44-4.14,2.09-.38.15-.51.21-.72.31l-.55-1.61c.27-.04.51-.12.81-.22,1.44-.48,2.96-1.21,4.26-2.04l.34,1.47ZM214.56,24.17c.38.06.67.08,1.23.08h1.86c.48,0,.79-.01,1.09-.08v1.56c-.25-.03-.62-.04-1.08-.04h-1.88c-.54,0-.9.03-1.23.07v-1.59Z"/>
        <path d="M227.09,28.22c.04.06.06.11.06.17q0,.09-.25.78c-.32.92-.51,1.67-.57,2.25-.01.19-.08.27-.27.32-.21.06-.61.09-1,.09-.15,0-.22-.03-.27-.12-.13-.28-.38-1.32-.5-2.16-.1-.71-.15-1.44-.15-2.21,0-1.73.2-3.36.74-6.3.09-.48.12-.71.17-1.17.69.09,1.17.22,1.6.44.23.12.32.22.32.36,0,.09-.03.17-.11.29-.61,1.05-1.18,4.29-1.18,6.69,0,.36.01.93.06,1.65.36-.93.52-1.35.85-2.07.11.41.21.6.51,1ZM229.61,24.28c-.72,0-.87-.03-.92-.2-.04-.13-.09-.62-.09-.96,0-.12,0-.24.01-.51.41.03.64.04,1.14.04.81,0,1.32-.01,2.1-.08-.02-1.9-.03-2.14-.18-2.85.74.01,1.29.07,1.77.2.22.06.31.13.31.29,0,.06-.01.1-.06.22-.15.34-.23.93-.25,1.98.55-.08,1.03-.18,1.93-.39.08-.03.1-.03.15-.03.09,0,.13.04.17.15.03.14.07.71.07,1.02,0,.38-.01.43-.17.5-.24.12-.9.22-2.17.39,0,1.03.09,2.74.2,3.72.95.41,1.59.75,2.25,1.21.42.3.51.41.51.51,0,.17-.27.67-.58,1.11-.18.25-.27.33-.38.33s-.1,0-.45-.33c-.33-.33-.67-.59-1.33-1.02v.12c0,1.32-1.09,2.19-2.76,2.19s-2.8-.9-2.8-2.25,1.14-2.35,2.66-2.35c.55,0,.84.01,1.24.08q-.06-1.17-.1-3.18c-.65.04-1.67.09-2.26.09ZM230.84,28.69c-.75,0-1.25.34-1.25.87,0,.48.46.78,1.19.78.79,0,1.21-.36,1.21-1.05,0-.21-.02-.38-.02-.38-.39-.15-.73-.22-1.14-.22Z"/>
        <path d="M18.66,45.41v11.49h-1.8v-11.49h1.8Z"/>
        <path d="M27.12,46.91h-3.73l-.12,1.86c-.01.3-.04.64-.09,1,.58-.54,1.06-.75,1.71-.75,1.88,0,3.01,1.44,3.01,3.84,0,2.64-1.28,4.23-3.38,4.23-.93,0-1.74-.33-2.34-.95-.39-.4-.58-.76-.84-1.53l1.67-.65c.13.58.24.83.45,1.11.25.33.63.52,1.06.52,1.02,0,1.58-.94,1.58-2.71,0-1.54-.53-2.37-1.5-2.37-.72,0-1.14.39-1.56,1.4l-1.37-.24.36-6.27h5.08v1.5Z"/>
        <path d="M33.93,52.1c0-.69,0-.9.04-1.6-.38.63-.62.93-1.07,1.42-.22-.84-.34-1.12-.66-1.71.99-1.01,1.83-2.38,2.44-4.04.24-.64.42-1.33.5-1.83l1.59.46c-.03.08-.18.53-.45,1.34-.15.46-.49,1.27-.85,2.01v7.98c0,.69.01,1.12.08,1.67h-1.71c.08-.5.09-.95.09-1.71v-3.99ZM43.82,45.99c.73,0,1.18-.02,1.59-.08v1.56c-.39-.04-.63-.06-1.44-.06h-1.09l1.23.34c-.48,1.1-.62,1.33-1.05,2.08h1.29c.62,0,1.1-.03,1.47-.08v1.56c-.38-.04-.71-.06-1.46-.06h-7.07c-.52,0-.9.02-1.23.06v-1.54c.3.04.58.06,1.18.06h1.26c-.2-.67-.5-1.42-.81-2.02l1.16-.41h-.81c-.84,0-1.06.01-1.45.06v-1.56c.4.06.79.08,1.57.08h1.88v-.44c0-.36-.03-.73-.08-1h1.75c-.06.36-.07.66-.07,1v.44h2.17ZM38.64,57.71h-1.62c.06-.39.08-.81.08-1.41v-2.85c0-.48-.02-.78-.06-1.19.39.03.67.04,1.17.04h5.34c.57,0,.74-.01,1.05-.04-.04.36-.06.62-.06,1.23v2.88c0,.59.01.93.08,1.32h-1.67v-.73h-4.3v.75ZM38.64,55.55h4.32v-1.85h-4.32v1.85ZM41.46,49.85c.48-.87.71-1.35,1.05-2.43h-3.3c.39.87.47,1.02.79,2.02l-1.11.41h2.56Z"/>
        <path d="M51.59,49.56c-.19-.66-.25-1.07-.43-2.91-.06-.72-.12-1.08-.27-1.59.91.01,1.5.06,1.9.16.23.06.33.17.33.33,0,.06-.01.13-.04.26-.1.36-.15.63-.15,1.02,0,.73.15,1.94.32,2.46.09.28.18.39.34.39.36,0,1.68-.69,2.4-1.24.19-.15.22-.17.3-.17.13,0,.27.11.5.39.38.51.67,1.06.67,1.28,0,.16-.11.27-.36.34-.93.26-2.46.86-3.49,1.35-1.83.9-2.66,1.73-2.66,2.66s.76,1.29,2.7,1.29c1.12,0,2.14-.1,3.52-.33.06-.01.17-.03.2-.03.12,0,.19.06.25.18.04.15.15,1.06.15,1.43,0,.21-.06.28-.26.34-.33.08-2.14.18-3.28.18-1.92,0-3.2-.25-3.99-.79-.67-.47-1.04-1.2-1.04-2.1,0-.69.2-1.3.6-1.9.52-.78,1.09-1.28,2.35-2.03-.31-.29-.43-.49-.57-.96Z"/>
        <path d="M74.57,48.44c-.48-.04-.98-.08-1.59-.08h-9.79c-.67,0-1.11.02-1.59.08v-1.53c.43.06.88.09,1.57.09h9.83c.71,0,1.14-.03,1.58-.09v1.53ZM64.76,57.8h-1.62c.04-.45.08-.93.08-1.34v-2.04c0-.54-.02-.84-.06-1.23.34.03.6.04,1.12.04h7.58c.58,0,.82-.01,1.14-.06-.04.34-.06.65-.06,1.26v2.04c0,.58.02.92.08,1.32h-1.63v-.6h-6.61v.6ZM72.93,46.34c-.48-.06-.93-.08-1.59-.08h-6.51c-.64,0-1.09.02-1.57.08v-1.46c.46.06.94.09,1.57.09h6.51c.66,0,1.14-.03,1.59-.09v1.46ZM72.81,50.45c-.41-.04-.8-.06-1.46-.06h-6.51c-.67,0-1.07.02-1.47.06v-1.4c.38.04.78.06,1.47.06h6.51c.69,0,1.08-.01,1.46-.06v1.4ZM72.81,52.47c-.38-.04-.8-.06-1.46-.06h-6.51c-.67,0-1.1.01-1.47.06v-1.4c.42.04.75.06,1.47.06h6.51c.72,0,1.05-.02,1.46-.06v1.4ZM64.76,55.82h6.63v-1.24h-6.63v1.24Z"/>
        <path d="M79.05,55.25q0-1.63.01-2.34c-.75.83-1.26,1.49-1.51,1.95-.08.15-.18.24-.27.24-.15,0-.51-.32-.99-.85-.19-.24-.28-.38-.28-.44q0-.11.76-.86c.64-.64,1.51-1.66,2.33-2.74,0-.09,0-.44.01-1.04-.74.13-1.68.39-1.93.53-.15.07-.18.09-.25.09-.26,0-.47-.59-.66-1.76.79-.01,1.79-.12,2.88-.3,0-.54.01-1.31.01-1.73,0-.45-.03-.81-.09-1.11.95.06,1.41.12,1.83.23.22.06.31.15.31.32,0,.07-.03.15-.09.3-.15.3-.17.41-.29,1.59.36.22.71.6.71.79q0,.13-.46.7c-.04.06-.18.26-.41.54q-.01.48-.01.58c1.47-1.24,2.71-1.77,4.18-1.77,2.34,0,3.81,1.49,3.81,3.87,0,1.83-.84,3.19-2.57,4.12-.66.38-1.79.78-2.12.78-.09,0-.19-.03-.24-.09t-.23-.3c-.25-.36-.54-.64-.84-.86,2.99-.81,4.17-1.86,4.17-3.7,0-1.44-.85-2.37-2.21-2.37-.88,0-1.69.29-2.65.92q-.48.32-1.33,1.04.01.12.01.32c0,1.6,0,1.74.09,4.89.02.17.02.29.02.32,0,.29-.21.34-1.31.34-.39,0-.42-.04-.42-.46l.02-1.74Z"/>
        <path d="M93.38,49.08c-.67.13-1.32.3-1.74.45-.11.04-.2.06-.27.06-.13,0-.21-.07-.3-.33-.11-.33-.21-.86-.27-1.38.22.01.33.03.46.03.57,0,1.18-.08,2.13-.26l.03-.9c.02-.21.02-.36.02-.41,0-.64-.02-1.04-.08-1.44.79.03,1.29.09,1.77.21.2.04.29.13.29.27,0,.06-.01.1-.09.27-.13.29-.15.46-.25,1.71.33.23.62.54.62.69,0,.09-.04.16-.18.33-.22.24-.3.34-.58.76q-.03.39-.03.5c.5-.44.82-.72,1.33-1.1.57-.43,1.2-.84,1.65-1.06.58-.32.99-.42,1.53-.42.79,0,1.37.3,1.68.87.18.36.25.71.25,1.29,0,.51-.03.99-.12,2.08-.12,1.29-.18,2.25-.18,2.84s.13.76.55.76c.6,0,1.33-.43,1.98-1.17.01.59.06.77.25,1.37.04.12.06.2.06.26,0,.16-.08.3-.33.49-.61.5-1.5.81-2.29.81-1.32,0-1.92-.69-1.92-2.21,0-.69.04-1.58.2-3.67.04-.5.06-.92.06-1.12,0-.62-.21-.9-.66-.9s-1.33.48-2.52,1.39c-.6.45-.94.76-1.57,1.41v.69c0,1.12.07,3.72.13,4.63v.18c0,.12-.02.17-.04.21-.08.09-.51.15-1.2.15-.43,0-.53-.06-.53-.32,0-.09,0-.24.02-.4v-.35q.01-.52.08-3.38-.86,1.11-1.37,1.94c-.13.21-.23.29-.34.29s-.39-.24-.86-.75c-.29-.33-.39-.46-.39-.55,0-.08.03-.13.13-.24.95-.97,1.74-1.91,2.87-3.31l.03-1.28Z"/>
        <path d="M107.52,48.66c-.39.09-.53.13-1.07.33-.19.07-.3.1-.39.1-.33,0-.63-.61-.9-1.91.96-.04,1.31-.09,2.97-.34,1.8-.27,4.08-.62,5.28-.77,1.35-.18,2.43-.36,3-.48.1-.03.15-.03.22-.03.2,0,.27.09.41.46.12.31.21.76.21.97,0,.18-.06.24-.27.24-.32,0-.6.03-.89.08-2.53.42-4.56,2.64-4.56,4.98,0,1.75,1.38,2.91,3.72,3.12.21.01.29.09.29.27,0,.38-.15,1.09-.29,1.42-.08.17-.19.24-.39.24s-.65-.09-1.11-.22c-2.55-.75-3.88-2.37-3.88-4.67,0-1.25.41-2.4,1.19-3.39.42-.54.78-.84,1.63-1.43-1.96.33-4.04.72-5.17,1.01Z"/>
        <path d="M120.35,47.72c0-.44-.02-1.02-.04-1.35.69.07,1.2.18,1.6.33.36.13.48.22.48.39q0,.09-.06.24c-.2.51-.25,1.08-.25,2.44,0,1.92.12,3.12.42,4.04.22.71.57,1.11.97,1.11.62,0,1.12-.72,1.68-2.38.28.77.39.99.81,1.53.08.1.12.21.12.32,0,.24-.22.75-.53,1.18-.58.85-1.33,1.32-2.13,1.32-1.15,0-2.02-.93-2.56-2.77-.34-1.2-.51-2.71-.51-4.81v-1.58ZM129.27,47.96c.09,0,.17.04.29.15.75.72,1.53,1.92,2.03,3.09.33.79.64,1.86.64,2.17,0,.15-.08.23-.39.39-.34.18-1.05.42-1.23.42-.13,0-.19-.08-.24-.34-.2-1.16-.46-2-.93-2.97-.42-.87-.45-.92-1.47-2.18.63-.46,1.12-.73,1.3-.73Z"/>
        <path d="M141.96,49.82c2.12,0,3.62,1.44,3.62,3.48,0,1.39-.74,2.65-1.96,3.39-.86.51-1.91.76-3.09.76-1.91,0-3.02-.76-3.02-2.07,0-1.18.99-2.02,2.4-2.02,1.27,0,2.19.64,2.8,1.96.76-.56,1.08-1.14,1.08-1.95,0-1.29-.92-2.13-2.36-2.13s-3.04.73-4.35,2.04c-.24.24-.46.5-.73.84-.11.15-.18.21-.27.21-.27,0-1.33-1.05-1.33-1.32,0-.13.06-.21.39-.45.34-.27.84-.7,1.47-1.3,1.46-1.38,2.52-2.54,4.09-4.46-1.88.24-3.13.45-3.6.62-.08.01-.12.03-.17.03-.12,0-.2-.08-.29-.3-.18-.45-.27-.94-.32-1.6.41.06.69.08,1.02.08.72,0,1.93-.11,3.51-.29.55-.06.73-.11,1.16-.27.13-.06.21-.08.3-.08.21,0,.42.18.81.78.29.39.38.58.38.71,0,.19-.04.25-.38.46-.27.16-.43.3-.78.63-.75.72-.76.72-1.69,1.67-.66.67-.74.75-1.33,1.35.97-.54,1.74-.77,2.64-.77ZM140.52,55.01c-.23-.15-.48-.23-.77-.23-.46,0-.76.23-.76.59,0,.43.46.71,1.18.71.33,0,.62-.03.99-.14-.18-.5-.33-.72-.64-.93Z"/>
        <path d="M154.11,54.17c-.72,1.25-1.71,1.94-2.73,1.94-1.56,0-2.67-1.53-2.67-3.66,0-2.37,1.2-4.41,3.25-5.49,1-.54,2.08-.78,3.51-.78,3.14,0,5.46,2.22,5.46,5.19,0,2.62-1.29,4.52-3.78,5.58-.5.21-.89.33-1.08.33-.18,0-.25-.06-.45-.34-.25-.39-.54-.67-.95-.95,3.09-.79,4.49-2.25,4.49-4.68,0-1.25-.53-2.29-1.46-2.96-.53-.36-.95-.51-1.77-.64-.42,3.17-.92,4.89-1.83,6.46ZM151.95,48.86c-1,.88-1.58,2.14-1.58,3.55,0,1.15.38,1.83,1,1.83.75,0,1.52-1.04,2.08-2.82.36-1.12.54-1.98.77-3.64-1.07.22-1.59.48-2.28,1.08Z"/>
        <path d="M167.51,55.49c0,1.41-1.14,2.55-2.54,2.55s-2.53-1.14-2.53-2.55,1.14-2.54,2.53-2.54,2.54,1.14,2.54,2.54ZM163.61,55.49c0,.77.61,1.38,1.36,1.38s1.37-.62,1.37-1.38-.62-1.37-1.37-1.37-1.36.62-1.36,1.37Z"/>
      </g>
      <g>
        <path class="cls-1" d="M323.15,48c1.98.16,1.35,2.34.38,3.61-.2.27-.59.3-.85.08-1.72-1.47-1.12-3.82.47-3.69Z"/>
        <path class="cls-1" d="M323.04,48.87c-.34,0-.62-.28-.62-.62v-3.92l-.99-1.38c-.2-.28-.14-.67.14-.87.28-.2.67-.14.87.14l1.1,1.54c.08.11.12.23.12.36v4.12c0,.34-.28.62-.62.62Z"/>
        <path class="cls-6" d="M307.87,73.87c1.36-.08,2.68-.26,3.95-.54,9.96-2.2,10.33-7.28,10.2-11.51s-1.05-19.4-13.27-20.23c-12.22-.83-15.37,8.9-17.74,12.05s-10.98,13.01,5.18,18.52c1.58.54,3.14.95,4.68,1.24"/>
        <polygon class="cls-5" points="320.01 37.98 313.82 37.4 316.57 42.97 322.88 43.64 320.01 37.98"/>
        <rect class="cls-5" x="313.23" y="41.12" width="6.74" height="2.93" transform="translate(95.15 -187.66) rotate(38.45)"/>
        <path class="cls-12" d="M287.3,59.55c5.12.33,8.07,5.74,6.18,11.54-4.99-2.72-7.78-5.48-6.18-11.54Z"/>
        <path class="cls-12" d="M321.5,61.71c-5.9-.82-10.43,4.27-9.51,10.87,6.27-1.75,10.04-4.05,9.51-10.87Z"/>
        <ellipse class="cls-1" cx="299.49" cy="61.9" rx="1.86" ry="1.71" transform="translate(191.75 348.11) rotate(-81.05)"/>
        <path class="cls-1" d="M299.32,52.11c1.67-.68,3.18-.04,3.89,1.27.17.31-.14.57-.47.41-1.05-.53-2.09-.79-3.22-1.01-.38-.07-.52-.54-.2-.67Z"/>
        <path class="cls-1" d="M312.63,54.66c-1.24-1.32-2.88-1.35-4.07-.46-.28.21-.11.58.26.56,1.18-.05,2.23.15,3.35.42.37.09.69-.27.46-.52Z"/>
        <path class="cls-1" d="M307.87,74.47c-.32,0-.58-.25-.6-.57-.02-.33.24-.62.57-.64,1.31-.08,2.61-.25,3.85-.53,9.99-2.21,9.83-7.44,9.72-10.9-.13-4.35-.83-8.12-2.06-11.19-2.12-5.28-5.7-8.12-10.65-8.46-9.8-.66-13.46,5.57-15.88,9.7-.49.84-.91,1.56-1.33,2.11-.12.16-.25.33-.39.51-1.69,2.2-4.83,6.29-3.64,10.22.85,2.82,3.86,5.13,8.92,6.86,1.53.52,3.07.93,4.59,1.21.33.06.54.38.48.71-.06.33-.38.55-.71.48-1.58-.3-3.18-.72-4.76-1.26-5.46-1.86-8.72-4.43-9.69-7.65-1.37-4.52,2.15-9.1,3.84-11.3.14-.18.27-.35.38-.5.38-.5.78-1.2,1.26-2,2.42-4.12,6.46-11.01,17.01-10.29,5.45.37,9.39,3.47,11.69,9.21,1.28,3.2,2.01,7.11,2.15,11.6.15,4.69-.55,9.89-10.67,12.12-1.3.29-2.66.47-4.04.55-.01,0-.02,0-.04,0Z"/>
        <path class="cls-1" d="M298.55,61.26c-.07,0-.13-.02-.19-.07-.77-.61-1.16-1.23-1.45-2.3-.04-.16.05-.33.21-.37.16-.04.33.05.37.21.29,1.08.66,1.53,1.24,1.99.13.1.15.29.05.42-.06.08-.15.11-.24.11Z"/>
        <path class="cls-1" d="M298.35,61.86c-.81,0-1.68-.47-2.38-1.28-.11-.13-.09-.32.03-.43.13-.11.32-.09.43.03.63.74,1.4,1.13,2.08,1.06.16-.02.32.1.33.27s-.1.32-.27.33c-.08,0-.15.01-.23.01Z"/>
        <path class="cls-1" d="M318.35,46.89c-.13,0-.26-.04-.37-.13-.26-.21-.31-.59-.1-.85l2.28-2.89c.13-.16.33-.25.54-.23l1.15.12-2.22-4.37-4.78-.45.68,1.37c.1.2.08.45-.06.63l-1.83,2.43c-.2.27-.58.32-.85.12-.27-.2-.32-.58-.12-.85l1.6-2.13-1-2.01c-.1-.2-.08-.43.04-.61.12-.18.34-.28.55-.26l6.19.58c.21.02.39.14.48.33l2.88,5.66c.1.2.08.43-.04.62-.13.18-.34.28-.56.26l-1.93-.21-2.07,2.62c-.12.15-.3.23-.48.23Z"/>
        <path class="cls-3" d="M308.55,67.69c-.68-1.85-3.69-3.85-5.22-3.63-1.53.22-4.76,2.08-5.76,2.02s-1.7-.74-1.82,1.61c-.12,2.35,1.72,3.55,4.17,2.69,3.41,1.94,9.79.49,8.63-2.69Z"/>
        <path class="cls-3" d="M308.55,69.78c-.76,2.94-4.99,4.67-6.27,4.24-1.28-.43-3.94-1.64-2.54-4.21,2.53.42,8.05.42,8.16-.8s.64.77.64.77Z"/>
        <path class="cls-1" d="M303.57,71.85c-1.07,0-2.22-.33-3.41-1-2.32.66-3.62.04-4.3-.61-.86-.82-1.18-2.14-.84-3.43.35-1.31.93-1.42,1.84-1.44.65-.02,1.64-.04,3.25-.88,3.58-1.88,5.67-.8,7.71,1.4.2.21.19.55-.03.75s-.55.19-.75-.03c-1.8-1.94-3.44-2.76-6.44-1.18-1.83.96-3.01.99-3.72,1q-.67.02-.84.65c-.24.91-.02,1.85.55,2.4.71.68,1.92.79,3.47.3.14-.04.3-.03.43.05,1.94,1.14,4.71,1.83,6.92-1.39.14-.21.4-.28.64-.19,0,0,.73.29,1.37.44.29.06.47.35.4.63-.06.29-.35.47-.63.4-.42-.09-.85-.23-1.14-.34-1.24,1.64-2.77,2.48-4.47,2.48Z"/>
        <path class="cls-1" d="M302.82,74.56c-.57,0-1.12-.1-1.63-.29-2.62-1.02-2.61-3.62-2.61-3.73,0-.29.24-.52.53-.52h0c.29,0,.53.24.52.54,0,.08.02,1.98,1.94,2.73,1.12.44,2.58.22,3.89-.58,1.45-.88,2.41-2.28,2.56-3.74.03-.29.29-.5.58-.47.29.03.5.29.47.58-.19,1.78-1.33,3.48-3.06,4.54-1.03.63-2.15.95-3.19.95Z"/>
        <path class="cls-1" d="M307.72,64.01c-.15,0-.29-.05-.41-.15-.27-.23-.3-.63-.08-.9.73-.86,1.61-1.32,2.49-1.27.79.04,1.53.49,2.06,1.26.2.29.13.69-.16.89-.29.2-.69.13-.89-.16-.21-.31-.57-.68-1.07-.71-.47-.02-.99.27-1.45.82-.13.15-.31.23-.49.23Z"/>
        <path class="cls-1" d="M310.79,62.9c-.15,0-.28-.11-.3-.26-.02-.17.09-.32.26-.34.71-.1,1.53-.71,1.99-1.49.09-.14.27-.19.41-.11.14.09.19.27.11.41-.56.94-1.53,1.66-2.43,1.78-.01,0-.03,0-.04,0Z"/>
        <path class="cls-1" d="M312.22,63.48c-.39,0-.8-.07-1.19-.25-.15-.07-.22-.25-.15-.4.07-.15.25-.22.4-.15.91.42,1.95.09,2.65-.26.15-.07.33-.01.4.14.07.15.01.33-.14.41-.54.26-1.24.52-1.98.52Z"/>
      </g>
      <g>
        <path class="cls-1" d="M323.48,267.09c1.79.14,1.22,2.12.34,3.27-.18.24-.54.27-.77.08-1.56-1.33-1.01-3.46.43-3.34Z"/>
        <path class="cls-1" d="M323.39,267.88c-.31,0-.56-.25-.56-.56v-3.55l-.89-1.24c-.18-.25-.12-.61.13-.79.25-.18.61-.12.79.13l1,1.39c.07.1.11.21.11.33v3.73c0,.31-.25.56-.56.56Z"/>
        <path class="cls-6" d="M308.62,293.47c1.34-.08,2.63-.26,3.88-.53,9.79-2.16,10.15-7.15,10.02-11.31s-1.03-19.07-13.04-19.88c-12.01-.81-15.11,8.74-17.43,11.84s-10.78,12.79,5.09,18.2c1.55.53,3.09.93,4.6,1.21"/>
        <polygon class="cls-5" points="320.56 258.21 314.47 257.64 317.18 263.12 323.38 263.78 320.56 258.21"/>
        <rect class="cls-5" x="313.89" y="261.29" width="6.62" height="2.88" transform="translate(232.2 -140.28) rotate(38.45)"/>
        <path class="cls-12" d="M288.41,279.41c5.03.33,7.93,5.64,6.07,11.34-4.9-2.67-7.64-5.38-6.07-11.34Z"/>
        <path class="cls-12" d="M322.02,281.53c-5.8-.8-10.25,4.19-9.34,10.68,6.16-1.72,9.86-3.98,9.34-10.68Z"/>
        <ellipse class="cls-1" cx="300.39" cy="281.71" rx="1.82" ry="1.68" transform="translate(-24.62 534.62) rotate(-81.05)"/>
        <ellipse class="cls-1" cx="310.47" cy="282.75" rx="1.68" ry="1.82" transform="translate(-13.89 16.05) rotate(-2.9)"/>
        <path class="cls-1" d="M300.23,272.1c1.65-.67,3.13-.04,3.82,1.25.16.3-.14.56-.46.4-1.03-.52-2.05-.78-3.16-.99-.37-.07-.51-.53-.2-.66Z"/>
        <path class="cls-1" d="M313.31,274.6c-1.22-1.29-2.83-1.33-4-.45-.27.21-.11.57.26.56,1.16-.05,2.19.14,3.29.41.37.09.68-.27.45-.52Z"/>
        <path class="cls-1" d="M308.62,294.04c-.3,0-.55-.23-.56-.53-.02-.31.22-.58.53-.6,1.29-.08,2.57-.25,3.79-.52,9.84-2.17,9.68-7.33,9.58-10.74-.13-4.28-.81-7.98-2.03-11-2.08-5.2-5.61-8-10.49-8.33-9.65-.65-13.25,5.48-15.63,9.54-.48.82-.9,1.53-1.31,2.07-.11.15-.24.32-.38.51-1.66,2.17-4.75,6.2-3.58,10.07.84,2.78,3.8,5.06,8.79,6.76,1.5.51,3.02.91,4.52,1.19.31.06.51.35.45.66s-.35.51-.66.45c-1.55-.29-3.12-.71-4.67-1.23-5.35-1.82-8.55-4.35-9.5-7.5-1.34-4.42,2.11-8.92,3.77-11.08.14-.18.26-.35.38-.5.37-.49.77-1.18,1.24-1.97,2.37-4.04,6.34-10.8,16.68-10.1,5.35.36,9.2,3.4,11.46,9.03,1.26,3.14,1.97,6.98,2.11,11.39.14,4.6-.54,9.69-10.46,11.88-1.28.28-2.61.47-3.97.54-.01,0-.02,0-.03,0Z"/>
        <path class="cls-1" d="M299.47,281.07c-.06,0-.12-.02-.17-.06-.75-.59-1.13-1.2-1.42-2.25-.04-.15.05-.31.2-.35.15-.04.31.05.35.2.29,1.06.65,1.51,1.23,1.96.12.1.14.27.05.4-.06.07-.14.11-.22.11Z"/>
        <path class="cls-1" d="M299.28,281.66c-.79,0-1.64-.46-2.32-1.25-.1-.12-.09-.3.03-.4.12-.1.3-.09.4.03.62.73,1.39,1.12,2.05,1.05.15-.02.29.09.31.25.02.15-.09.29-.25.31-.07,0-.15.01-.22.01Z"/>
        <path class="cls-1" d="M311.65,282.24c-.14,0-.26-.1-.28-.24-.02-.15.09-.3.24-.32.66-.09,1.42-.66,1.85-1.39.08-.13.25-.18.39-.1.13.08.18.25.1.39-.52.88-1.43,1.54-2.26,1.66-.01,0-.03,0-.04,0Z"/>
        <path class="cls-1" d="M312.72,283.49c-.37,0-.75-.07-1.11-.24-.14-.06-.2-.23-.14-.37.06-.14.23-.2.37-.14.85.39,1.82.09,2.47-.24.14-.07.31-.01.38.13.07.14.01.31-.13.38-.5.25-1.16.48-1.85.48Z"/>
        <g>
          <path class="cls-3" d="M310.26,287.36c-.67-1.82-3.62-3.78-5.13-3.57s-4.67,2.04-5.66,1.99c-.99-.06-1.67-.72-1.79,1.58s1.69,3.49,4.1,2.64c3.35,1.91,9.62.49,8.48-2.64Z"/>
          <path class="cls-3" d="M310.26,289.72c-.74,3.66-4.9,5.8-6.16,5.26s-2.84-1.41-1.46-4.59c2.49.53,6.87-.11,6.98-1.62s.63.95.63.95Z"/>
          <path class="cls-10" d="M303.87,290.72c-.72,1.34-.37,3.05,1.82,1.98,2.19-1.07,2.19-2.27,2.19-2.27,0,0,1.44-.72-.48,0-1.92.72-3.53.29-3.53.29Z"/>
          <path class="cls-1" d="M305.37,291.43c-1.05,0-2.18-.32-3.35-.98-2.28.65-3.54.04-4.21-.59-.84-.8-1.15-2.08-.82-3.34.33-1.27.9-1.38,1.78-1.4.64-.01,1.62-.04,3.2-.87,3.5-1.84,5.55-.78,7.54,1.37.19.2.17.51-.03.7s-.51.17-.7-.03c-1.78-1.92-3.39-2.73-6.36-1.17-1.79.94-2.9.97-3.64.98-.68.02-.69.03-.85.66-.24.9-.02,1.84.55,2.38.71.68,1.9.78,3.44.3.13-.04.28-.02.4.05,1.91,1.13,4.66,1.8,6.84-1.37.13-.19.38-.27.59-.18,0,0,.71.29,1.35.43.27.06.43.32.37.59s-.32.44-.59.37c-.42-.09-.85-.23-1.14-.34-1.22,1.62-2.71,2.44-4.39,2.44Z"/>
          <path class="cls-1" d="M304.68,295.54c-.6,0-1.17-.14-1.69-.42-.84-.45-1.38-1.1-1.59-1.91-.43-1.61.6-3.27.64-3.34.14-.23.45-.3.68-.16.23.14.3.45.16.68,0,.01-.84,1.38-.52,2.57.15.55.51.97,1.11,1.29.85.46,1.91.39,2.98-.19,1.5-.82,3.12-2.78,3.33-5.32.02-.27.26-.47.53-.45.27.02.47.26.45.53-.21,2.56-1.72,4.96-3.84,6.11-.75.41-1.51.61-2.23.61Z"/>
        </g>
        <path class="cls-1" d="M318.93,266.94c-.12,0-.25-.04-.35-.12-.24-.19-.29-.55-.09-.79l2.24-2.84c.12-.15.31-.23.5-.21l1.19.13-2.21-4.36-4.77-.45.69,1.4c.09.19.07.42-.05.59l-1.8,2.39c-.19.25-.54.3-.79.11-.25-.19-.3-.54-.11-.79l1.59-2.11-.99-1.99c-.09-.18-.08-.4.04-.57.12-.17.31-.26.52-.24l6.09.57c.19.02.36.13.45.31l2.82,5.57c.09.18.08.41-.04.58-.12.17-.32.26-.52.24l-1.91-.2-2.04,2.59c-.11.14-.28.21-.44.21Z"/>
      </g>
      <g>
        <path class="cls-7" d="M40.58,140.43c5.99-4.81,10.66-4.4,11.63-2.77.89,1.5-.2,9.39-9.11,4.98"/>
        <path class="cls-4" d="M44.82,143.01c2.15-3.69,6.52-2.97,7.64-2.44-1.95,3.62-3.96,4.96-7.64,2.44Z"/>
        <path class="cls-1" d="M47.81,144.58c-1.31,0-2.94-.38-4.99-1.39-.3-.15-.42-.51-.28-.82.15-.3.52-.42.82-.28,3.32,1.64,5.84,1.68,7.29.12,1.3-1.4,1.35-3.69,1.02-4.24-.21-.35-.72-.62-1.4-.75-.91-.16-4.27-.39-9.33,3.68-.26.21-.65.17-.86-.09-.21-.26-.17-.65.09-.86,3.68-2.96,7.53-4.43,10.31-3.92,1.04.19,1.83.66,2.23,1.32.64,1.09.43,3.95-1.18,5.69-.75.81-1.93,1.54-3.74,1.54Z"/>
        <path class="cls-7" d="M46.06,154.65c1.64-16.82-17.11-22.8-25.64-13.47-2.97,3.25-5.19,9.02-4.06,15.77-3.29,3.25-2.73,7.92,2.42,10.46,3.1,1.53,6.19,2.19,13.34,2.19,6.63,0,14.3-2.8,16.45-6.93,1.2-2.31.78-5.72-2.5-8.03Z"/>
        <path class="cls-2" d="M35.84,137.02c-.6-4.19-4.15-6.52-4.34-.47"/>
        <path class="cls-2" d="M24.16,138.09c-.51-4.2,2.31-7.38,4.07-1.58"/>
        <path class="cls-7" d="M19.7,141.15c-6.66-3.82-11.21-2.69-11.91-.92-.65,1.62,2.36,9.82,10.47,4.08"/>
        <ellipse class="cls-1" cx="35.32" cy="156.6" rx="1.44" ry="1.56" transform="translate(-23.93 7.4) rotate(-8.95)"/>
        <path class="cls-4" d="M16.43,144.96c-2.15-3.69-7.03-2.78-8.16-2.25,1.95,3.62,4.47,4.77,8.16,2.25Z"/>
        <path class="cls-4" d="M29.26,136.54c1.23,7.46-2.33,14.45-12.53,14.45,0-11.42,12.53-14.45,12.53-14.45Z"/>
        <path class="cls-4" d="M31.5,136.56c0,8.41,6.81,12.72,13.84,13.25,0-11.42-13.84-13.25-13.84-13.25Z"/>
        <path class="cls-4" d="M15.28,163.42c13.81-6.39,25.45-3.61,33.28-.74-3.13,7.57-29.25,10.15-33.28.74Z"/>
        <path class="cls-1" d="M32.12,170.22c-7.59,0-10.64-.79-13.61-2.26-2.68-1.33-4.37-3.31-4.74-5.59-.32-1.98.37-3.96,1.94-5.63-1.1-7.13,1.47-12.92,4.26-15.97,4.25-4.65,11.25-5.93,17.42-3.18,3.01,1.34,5.47,3.51,7.11,6.28,1.79,3.02,2.53,6.54,2.2,10.49,3.38,2.56,3.63,6.22,2.4,8.6-2.36,4.54-10.49,7.26-16.99,7.26ZM30.74,137.38c-3.76,0-7.35,1.46-9.87,4.22-2.64,2.89-5.06,8.42-3.91,15.26.03.2-.03.39-.17.53-1.44,1.42-2.08,3.13-1.81,4.79.3,1.88,1.75,3.54,4.07,4.69,2.8,1.38,5.71,2.13,13.07,2.13,6.88,0,14.01-2.96,15.91-6.6,1.03-1.98.75-5.1-2.31-7.25-.18-.13-.28-.34-.26-.56.71-7.25-2.49-13.19-8.56-15.89-2.01-.89-4.11-1.33-6.15-1.33Z"/>
        <path class="cls-1" d="M31.75,166.71c-1.88,0-3.48-.99-4.4-2.72l-.45.09c-.33.07-.65-.14-.72-.47-.07-.33.14-.65.47-.72l.91-.19c.28-.06.57.09.68.35.73,1.67,2.12,2.55,3.82,2.43,1.72-.13,3.25-1.27,3.64-2.72.07-.28.34-.46.62-.45l.77.04c.34.02.59.3.58.64-.02.34-.31.59-.64.58l-.31-.02c-.69,1.72-2.5,2.99-4.57,3.14-.14.01-.27.02-.41.02Z"/>
        <ellipse class="cls-1" cx="35.32" cy="156.6" rx="1.44" ry="1.56" transform="translate(-23.93 7.4) rotate(-8.95)"/>
        <ellipse class="cls-1" cx="27.65" cy="156.96" rx="1.56" ry="1.44" transform="translate(-130.5 176.64) rotate(-87.1)"/>
        <path class="cls-1" d="M13.05,146.93c-1.46,0-2.58-.54-3.4-1.18-2.09-1.64-2.9-4.58-2.43-5.75.29-.72.99-1.3,1.99-1.65,2.66-.93,6.69-.08,10.79,2.27.29.17.39.54.22.83-.17.29-.54.39-.83.22-5.62-3.23-8.91-2.48-9.78-2.18-.65.23-1.11.57-1.26.95-.21.53.31,2.97,2.06,4.35,1.89,1.49,4.48,1.14,7.49-.99.27-.19.65-.13.85.15.19.27.13.65-.15.85-2.23,1.58-4.07,2.14-5.55,2.14Z"/>
        <path class="cls-1" d="M35.84,137.63c-.3,0-.56-.22-.6-.52-.32-2.23-1.48-3.66-2.12-3.62-.31.02-.93.69-1,3.09-.01.34-.3.59-.63.59-.34-.01-.6-.29-.59-.63.11-3.61,1.4-4.22,2.15-4.27.03,0,.06,0,.09,0,1.46,0,2.94,2.06,3.31,4.67.05.33-.18.64-.52.69-.03,0-.06,0-.09,0Z"/>
        <path class="cls-1" d="M24.16,138.7c-.3,0-.57-.23-.6-.54-.32-2.66.61-5.08,2.07-5.39.74-.15,2.14.1,3.19,3.56.1.32-.08.66-.41.76-.32.1-.66-.08-.76-.41-.7-2.3-1.46-2.78-1.77-2.72-.62.13-1.38,1.81-1.11,4.05.04.33-.2.64-.53.68-.02,0-.05,0-.07,0Z"/>
        <path class="cls-1" d="M36.59,148.13c-.65-1.09-1.64-1.26-2.41-.7-.18.13-.11.42.12.44.71.07,1.33.3,1.98.61.22.1.44-.14.31-.35Z"/>
        <path class="cls-1" d="M25.69,148.53c.65-1.09,1.64-1.26,2.41-.7.18.13.11.42-.12.44-.71.07-1.33.3-1.98.61-.22.1-.44-.14-.31-.35Z"/>
        <circle class="cls-1" cx="32.97" cy="162.54" r=".57"/>
        <circle class="cls-1" cx="31.18" cy="162.54" r=".57"/>
      </g>
    </g>
  </g>
</svg>