<?xml version="1.0" encoding="UTF-8"?>
<svg id="_レイヤー_2" data-name="レイヤー 2" xmlns="http://www.w3.org/2000/svg" width="339.66" height="249.24" viewBox="0 0 339.66 249.24">
  <defs>
    <style>
      .cls-1 {
        fill: #211815;
      }

      .cls-2 {
        fill: #f5f19b;
      }

      .cls-3 {
        fill: #e0a99c;
      }

      .cls-4 {
        fill: #ecbb6e;
      }

      .cls-5 {
        fill: #93c9ce;
      }

      .cls-6 {
        fill: #5c948d;
      }

      .cls-7 {
        fill: #fffba1;
      }

      .cls-8, .cls-9 {
        fill: #fff;
      }

      .cls-10 {
        fill: #def7c8;
      }

      .cls-11 {
        fill: #de8a4c;
      }

      .cls-12 {
        fill: #ceeaeb;
      }

      .cls-13 {
        fill: #f2d496;
      }

      .cls-9 {
        stroke: #ceeaeb;
        stroke-miterlimit: 10;
        stroke-width: 2.83px;
      }
    </style>
  </defs>
  <g id="_レイヤー_1-2" data-name="レイヤー 1">
    <g>
      <path class="cls-9" d="M9.89,109.49h239.38c4.68,0,8.47,3.79,8.47,8.47v97.21s9.69,9.69,9.69,9.69h-9.69s0,.5,0,.5c0,4.68-3.79,8.47-8.47,8.47H9.89c-4.68,0-8.47-3.79-8.47-8.47v-107.4c0-4.68,3.79-8.47,8.47-8.47Z"/>
      <g>
        <path d="M18,132.98c-.71,0-1.15.03-1.56.08v-1.04c-.65.38-.98.56-1.58.84q-.42-.82-.95-1.53c1.35-.53,2.52-1.17,3.46-1.91.5-.38,1.16-1,1.61-1.5.29-.34.45-.55.76-1.05h1.84c.8,1.09,1.49,1.79,2.55,2.54,1.2.87,2.13,1.35,3.54,1.84-.51.73-.69,1.06-.93,1.65-.66-.3-1.05-.51-1.71-.92v1.07c-.43-.06-.85-.08-1.53-.08h-2.02v1.63h2.33c.75,0,1.21-.03,1.59-.07v1.62c-.39-.04-.9-.07-1.59-.07h-2.33v1.93h3.73c.78,0,1.4-.03,1.85-.09v1.68c-.48-.06-1.1-.09-1.83-.09h-8.98c-.74,0-1.31.03-1.79.09v-1.68c.4.06,1.02.09,1.83.09h3.57v-1.93h-2.13c-.69,0-1.2.03-1.58.07v-1.62c.45.06.87.07,1.58.07h2.13v-1.63h-1.88ZM23.59,131.52c.27,0,.39,0,.67-.01-1.6-1.07-2.5-1.91-3.54-3.27-.84,1.24-1.88,2.22-3.48,3.27.3.01.44.01.65.01h5.7Z"/>
        <path d="M34.84,132.02c.62,0,.98-.01,1.25-.06v1.56c-.33-.04-.69-.06-1.17-.06h-4.83c-.72,0-1,.01-1.44.08v-1.59c.39.06.72.08,1.46.08h2.83c.36-.81.57-1.47.75-2.35l1.5.38c-.21.71-.42,1.26-.77,1.98h.42ZM34.63,128.13c.63,0,.99-.01,1.31-.06v1.53c-.3-.04-.58-.06-1.2-.06h-4.6c-.53,0-.86.01-1.17.06v-1.54c.33.06.68.08,1.35.08h1.47v-.41c0-.42-.03-.73-.08-1.02h1.71c-.04.29-.08.6-.08,1v.42h1.29ZM31.02,139.95h-1.56c.04-.4.06-.75.06-1.35v-3.12c0-.6-.02-.87-.04-1.18.36.03.61.04,1.15.04h3.71c.58,0,.81-.01,1.05-.04-.03.24-.04.46-.04,1.06v3.51c0,.5.02.77.06,1.08h-1.58v-.82h-2.8v.82ZM31.24,129.54c.33.69.53,1.21.75,2.02l-1.42.42c-.2-.84-.38-1.33-.67-2.01l1.35-.43ZM31.02,137.75h2.8v-2.02h-2.8v2.02ZM41.98,128.06c-.1.21-.17.33-.28.65-.45,1.18-.96,2.28-1.54,3.42.78.9,1.09,1.36,1.38,2.08.24.61.39,1.35.39,1.98,0,.92-.38,1.59-1.02,1.82-.38.13-.74.18-1.46.18-.29,0-.42,0-.74-.03-.03-.73-.1-1.08-.33-1.56.38.06.67.08,1.07.08.72,0,.96-.15.96-.62,0-.6-.15-1.23-.45-1.84-.33-.66-.66-1.08-1.5-1.88.83-1.53,1.26-2.57,1.59-3.76h-2.01v9.79c0,.79.03,1.26.09,1.68h-1.68c.04-.46.08-1.02.08-1.63v-10.11c0-.45-.02-.84-.04-1.2.39.03.69.04,1.17.04h2.49c.55,0,.87-.01,1.14-.06l.7.97Z"/>
        <path d="M49.54,135.36c-1.48.87-1.91,1.31-1.91,1.96,0,.27.11.45.33.58.33.2,1.07.3,2.01.3.81,0,1.93-.08,2.7-.18.32-.04.5-.09,1.09-.24h.08c.11,0,.18.07.23.18.09.31.15.76.15,1.3,0,.23-.08.32-.27.36-.36.08-2.03.17-3.12.17-1.83,0-2.8-.12-3.52-.42-.87-.36-1.31-1.04-1.31-1.98,0-.87.41-1.63,1.21-2.28.65-.51.79-.62,2.18-1.4-.12-.5-.35-.71-.81-.71-.62,0-1.26.24-1.96.71-.43.3-.95.72-1.26,1.04-.45.46-.5.5-.62.5-.15,0-.46-.34-.78-.87-.15-.25-.24-.45-.24-.55,0-.14.03-.17.39-.39,1.23-.82,2.25-1.88,2.87-2.95-1.07.07-1.62.09-2.21.09-.23,0-.27-.04-.34-.3-.05-.2-.12-.99-.14-1.4.51.08.81.09,1.53.09.58,0,1.23-.01,1.91-.04.31-.85.42-1.39.43-2.1,1.33.22,1.95.45,1.95.71,0,.06-.02.09-.06.18-.1.2-.22.43-.42.9q-.03.06-.04.1c.86-.12,1.61-.27,2.13-.39.33-.09.41-.11.48-.11.12,0,.18.04.21.14.06.27.15.96.15,1.17,0,.17-.06.24-.25.28-.48.14-2.13.39-3.51.53-.45.83-.76,1.3-1.23,1.81.67-.31,1.18-.43,1.78-.43.68,0,1.12.39,1.43,1.23,1.48-.81,2.28-1.24,2.37-1.3.69-.4.98-.63,1.31-1,.61.63,1.27,1.58,1.27,1.83,0,.09-.06.15-.25.2-.74.19-2.1.78-4.38,1.89.01.27.04.96.04,1.44v.72c0,.18-.03.27-.1.31-.08.08-.48.12-.93.12-.51,0-.6-.04-.6-.29v-.06c.03-.44.04-1,.04-1.37v-.08Z"/>
        <path d="M58.56,129.92c0-.44-.02-1.02-.04-1.35.69.07,1.2.18,1.6.33.36.14.48.23.48.39q0,.09-.06.24c-.2.51-.25,1.08-.25,2.44,0,1.92.12,3.12.42,4.04.22.71.57,1.11.97,1.11.62,0,1.12-.72,1.68-2.38.28.77.39.99.81,1.53.08.1.12.21.12.31,0,.24-.22.75-.53,1.19-.58.85-1.33,1.32-2.13,1.32-1.15,0-2.02-.93-2.56-2.77-.34-1.2-.51-2.71-.51-4.81v-1.58ZM67.48,130.16c.09,0,.17.04.29.15.75.72,1.53,1.92,2.03,3.09.33.79.64,1.86.64,2.17,0,.15-.08.23-.39.39-.34.18-1.05.42-1.23.42-.13,0-.19-.08-.24-.34-.2-1.16-.46-2-.93-2.97-.42-.87-.45-.92-1.47-2.17.63-.46,1.12-.73,1.3-.73Z"/>
        <path d="M77.8,130.28c-1.29.22-2.62.38-3.43.38-.24,0-.34-.05-.38-.18-.06-.22-.12-.67-.15-1.23,1.22,0,2.15-.08,3.48-.29q-.08-.22-.27-.78c-.13-.36-.25-.66-.42-.97.65-.13,1.23-.21,1.77-.21.13,0,.21.09.21.24v.21c0,.27.06.63.21,1.21,1.12-.25,2.08-.57,2.85-.9.12-.04.15-.06.2-.06.07,0,.12.08.25.39.13.34.27.74.27.81s-.03.11-.12.15c-.88.38-1.29.51-3.03.95.21.52.27.66.52,1.2.83-.22,1.23-.36,1.53-.51l1.41-.71s.04-.03.04-.03c.01,0,.04.01.06.01.06,0,.12.09.25.38.18.36.33.76.33.85q0,.11-.31.27c-.83.45-1.47.71-2.55,1,.6.88,1.46,1.84,1.96,2.21.51.36.52.39.52.54,0,.13-.15.45-.43.94-.25.44-.38.56-.54.56-.09,0-.11,0-.33-.17-.76-.58-2.31-.99-3.79-.99-1.29,0-2.1.45-2.1,1.2,0,.46.36.84,1,1.08.58.21,1.88.34,3.27.34.33,0,.62-.01,1.2-.04-.27.39-.41.66-.58,1.29-.09.31-.2.38-.66.38-1.6,0-3.03-.18-3.99-.53-1.28-.45-1.95-1.29-1.95-2.42,0-1.6,1.32-2.58,3.51-2.58,1.35,0,2.21.15,3.15.57-.84-.79-1.29-1.33-1.72-2.04-.72.15-1.08.21-1.56.29-.86.12-2.42.24-3.04.24-.48,0-.5-.02-.63-1.42.33.01.58.01.73.01.96,0,2.79-.2,3.79-.41-.18-.38-.38-.81-.54-1.24Z"/>
        <path d="M88.26,131.19c-.27.02-.43.03-.61.05-.14.01-.15.01-.17.01-.12,0-.18-.04-.23-.2-.08-.24-.18-1.04-.19-1.48.17.01.6.03,1.14.03.17,0,1.35-.07,1.88-.12.25-1.21.34-1.84.34-2.65,1.54.21,2.1.39,2.1.67,0,.11-.01.13-.24.48-.12.18-.17.34-.42,1.27.7-.12,1.12-.22,1.68-.41.1-.03.15-.04.22-.04.11,0,.13.08.23.51.07.38.12.69.12.85,0,.18-.04.21-.43.3-.51.12-1.38.27-2.31.39-.56,1.68-.93,2.58-1.62,3.99-.53,1.05-.83,1.61-1.23,2.24-.12.18-.19.24-.3.24-.15,0-.57-.22-1.09-.61-.24-.17-.3-.24-.3-.35s.06-.19.25-.46c.43-.54,1-1.47,1.5-2.46.42-.82.57-1.17,1-2.35-.58.04-.63.06-1.32.1ZM93.19,139.83c-1.64,0-2.75-.9-2.75-2.23s1.15-2.42,2.7-2.42c.36,0,.53.01,1.14.11-.06-.72-.06-1.01-.12-2.4,0-.29-.03-.67-.06-1.16.77.08,1.35.17,1.64.29.12.04.18.12.18.24,0,.08-.01.13-.03.24-.08.31-.09.54-.09.94,0,.56.04,1.5.09,2.24,1.07.48,1.5.72,2.25,1.3.33.25.45.39.45.51,0,.15-.08.29-.5.96-.18.3-.31.44-.42.44q-.09,0-.51-.39c-.33-.33-.71-.58-1.23-.9,0,1.39-1.02,2.23-2.74,2.23ZM93.16,136.62c-.72,0-1.21.34-1.21.87,0,.5.45.81,1.12.81.79,0,1.21-.41,1.21-1.2,0-.12,0-.24-.02-.24-.3-.15-.7-.24-1.11-.24ZM98.77,132.36c-.18.26-.27.33-.38.33-.08,0-.13-.03-.24-.13-.38-.36-.9-.75-1.46-1.09q-.36-.22-1.02-.53c-.21-.09-.29-.15-.29-.27,0-.11.08-.24.3-.58.36-.53.45-.62.58-.62.28,0,1.39.57,2.19,1.11.65.43.84.61.84.78,0,.12-.24.57-.54,1Z"/>
        <path d="M105.57,132.38q.07-.12.73-1.23c.09.25.18.42.36.66.1.17.15.25.15.34s-.03.17-.39.75c-.25.45-.69,1.38-.87,1.83-.15.42-.21.45-.71.45s-.88-.06-.94-.15c-.09-.12-.15-.93-.15-2.04,0-1.47.11-2.5.5-5.12.04-.3.06-.45.06-.78,1.17.21,1.94.56,1.94.84,0,.08-.02.12-.12.26-.2.28-.32.67-.46,1.47-.18,1-.32,2.32-.32,3.12q.13-.24.23-.41ZM111.01,128v.25c.01.06.01.18.03.34q.01.24.04.62,0,.17.03.72c.04.72.07,1.44.07,1.8,0,2.82-.73,5.01-2.29,6.86-.6.71-1.12,1.11-1.42,1.11-.18,0-.19,0-.51-.24-.29-.22-.67-.42-1.06-.52,1.05-.75,1.62-1.28,2.17-2.07.93-1.33,1.38-2.92,1.38-4.86,0-2.05-.14-3.32-.48-4.23.63-.08,1.09-.11,1.53-.11s.51.03.51.29v.04Z"/>
        <path d="M116.47,128.82c-.46,0-.72.01-1.08.06v-1.53c.34.05.73.08,1.32.08h2.04c.55,0,.9-.01,1.26-.08v1.53c-.36-.04-.64-.06-1.05-.06h-.43v2.82h.33c.38,0,.6-.01.91-.06v1.46c-.3-.03-.57-.04-.91-.04h-.33v2.83c.67-.28.81-.36,1.41-.64l.03,1.51c-1.21.6-1.84.89-4.04,1.77-.07.03-.15.06-.28.12l-.39-1.64c.53-.1.83-.19,1.77-.54v-3.42h-.46c-.42,0-.68.01-.99.06v-1.47c.34.04.55.06,1.02.06h.44v-2.82h-.56ZM123.45,136.65h-1.61c-.81,0-1.12.02-1.5.06v-1.47c.36.05.65.06,1.49.06h1.62v-1.16h-1.37c-.95,0-1.35.02-1.74.04.04-.34.06-.9.06-1.78v-3.25c0-1.01-.02-1.44-.08-1.94.54.06,1.04.08,1.95.08h3.96c1.07,0,1.5-.01,1.86-.08-.03.42-.06,1.11-.06,1.96v3.08c0,.99.01,1.51.06,1.93-.53-.04-.69-.04-1.56-.04h-1.65v1.16h1.83c.79,0,1.11-.01,1.53-.08v1.5c-.42-.06-.8-.08-1.52-.08h-1.84v1.5h2.31c.75,0,1.14-.01,1.52-.08v1.54c-.5-.06-.84-.07-1.62-.07h-6.04c-.79,0-1.11.01-1.65.07v-1.54c.39.06.72.08,1.47.08h2.58v-1.5ZM121.84,128.69v1.44h1.61v-1.44h-1.61ZM121.84,131.33v1.47h1.61v-1.47h-1.61ZM124.89,130.13h1.65v-1.44h-1.65v1.44ZM124.89,132.8h1.65v-1.47h-1.65v1.47Z"/>
        <path d="M135.72,128.3c-.13.21-.18.29-.43.81-.14.24-.41.74-.6,1.05.65,0,.98-.02,1.37-.06-.03.21-.03.36-.04.74.72-.34,1.02-.55,1.38-.95.34-.36.5-.69.63-1.32h-.41c-.58,0-.97.03-1.29.07v-1.5c.44.06.81.08,1.52.08h3.54c.55,0,.93-.01,1.29-.06-.03.31-.07.72-.13,1.54-.09,1.2-.29,2.08-.52,2.44-.24.38-.58.48-1.47.48-.25,0-.28,0-1.05-.03-.06-.67-.1-.92-.33-1.44.5.1.86.17,1.1.17.38,0,.51-.08.58-.3.1-.3.17-.76.22-1.45h-1.53c-.21,1.02-.38,1.44-.81,2.04-.41.56-.93,1.01-1.59,1.37l1.35.3-.18.81h.78v-.12c0-.41-.03-.72-.08-1.05h1.6c-.03.36-.04.69-.04,1.05v.12h.92c.63,0,.99-.03,1.28-.08v1.5c-.36-.04-.74-.06-1.28-.06h-.92v1.29h1.12c.65,0,.95-.01,1.38-.07v1.53c-.39-.04-.69-.06-1.35-.06h-1.16v1.44c0,.63.02.99.09,1.41h-1.67c.08-.43.09-.79.09-1.41v-1.44h-1.44c-.58,0-.88.01-1.3.08v-1.54c.42.06.72.07,1.32.07h1.43v-1.29h-1.17c-.12.38-.21.58-.47,1.11-.63-.39-.88-.53-1.27-.66.42-.75.58-1.17.76-1.9.08-.33.15-.81.15-.95v-.04l-.18.09c-.19-.41-.45-.75-.9-1.18v7.6c0,1.02-.41,1.29-1.86,1.29-.13,0-.38,0-.88-.02-.06-.55-.13-.92-.33-1.42.65.08.95.09,1.28.09.4,0,.52-.07.52-.3v-1.74h-2.95c-.2,1.8-.33,2.37-.87,3.51-.57-.65-.74-.79-1.19-1.11.69-1.26.86-2.55.86-6.71v-.79c-.23-.31-.44-.54-.95-.99.67-.57,1.16-1.23,1.62-2.22.3-.63.45-1.05.54-1.56l1.54.29q-.09.15-.32.78h1.31c.39,0,.55-.02.73-.05l.66.74ZM133.23,130.16c.32-.54.45-.79.68-1.28h-1.43c-.25.48-.48.86-.76,1.28h1.51ZM132.73,135.17v-1.31h-.86c-.01.24-.01.44-.01.56,0,.42,0,.51-.02.75h.89ZM131.91,131.45l-.02.85v.36h.84v-1.21h-.83ZM134.73,131.45h-.82v1.21h.82v-1.21ZM134.73,133.86h-.82v1.31h.82v-1.31Z"/>
        <path d="M150.79,130.65c-3.29.21-4.56.34-5.5.6-.06.01-.12.03-.17.03-.11,0-.2-.08-.24-.2-.13-.38-.21-.87-.25-1.62h.36c.48,0,.93-.01,2.37-.1,1.11-.06,2.05-.11,3.4-.15-.01-1.35-.03-1.56-.17-2.24,1.16.03,1.74.08,1.95.17.09.04.13.12.13.27,0,.03-.01.09-.04.17-.13.33-.18.66-.21,1.59,2.19-.06,2.52-.06,4.02-.06.41,0,.46,0,.51.05.06.06.09.28.09.79,0,.69-.02.76-.21.76h-.06c-.64-.06-2.25-.12-3.3-.12q-.34,0-1.09.01l-.03,2.46c.23.5.3.92.3,1.64,0,1.87-.69,3.31-2.14,4.38-.6.45-1.37.84-1.63.84-.13,0-.21-.04-.33-.17-.42-.48-.74-.72-1.28-1.02.9-.25,1.37-.46,1.95-.83.44-.28.83-.6,1.11-.91.19-.24.34-.47.57-.95-.43.45-.79.62-1.35.62-1.26,0-2.08-.96-2.08-2.42,0-1.53.97-2.64,2.33-2.64.43,0,.71.06,1,.19v-1.15ZM148.98,134.16c0,.63.36,1.06.9,1.06.57,0,.92-.41.92-1.09s-.33-1.11-.9-1.11c-.54,0-.92.46-.92,1.14Z"/>
        <path d="M166.93,132.02c2.12,0,3.62,1.44,3.62,3.48,0,1.39-.74,2.65-1.96,3.39-.86.51-1.91.76-3.09.76-1.91,0-3.02-.76-3.02-2.07,0-1.19.99-2.03,2.4-2.03,1.27,0,2.19.64,2.8,1.96.76-.55,1.08-1.14,1.08-1.95,0-1.29-.92-2.13-2.36-2.13s-3.04.74-4.35,2.04c-.24.24-.46.5-.73.84-.11.15-.18.21-.27.21-.27,0-1.33-1.05-1.33-1.32,0-.13.06-.21.39-.45.34-.27.84-.71,1.47-1.3,1.46-1.38,2.52-2.54,4.09-4.46-1.88.24-3.13.45-3.6.62-.08.01-.12.03-.17.03-.12,0-.2-.07-.29-.3-.18-.45-.27-.94-.32-1.6.41.06.69.08,1.02.08.72,0,1.93-.11,3.51-.29.55-.06.73-.11,1.16-.27.13-.06.21-.08.3-.08.21,0,.42.18.81.78.29.39.38.58.38.71,0,.2-.04.25-.38.46-.27.17-.43.3-.78.63-.75.72-.76.72-1.69,1.67-.66.67-.74.75-1.33,1.35.97-.54,1.74-.77,2.64-.77ZM165.49,137.21c-.23-.15-.48-.23-.77-.23-.46,0-.76.23-.76.58,0,.44.46.71,1.18.71.33,0,.62-.03.99-.13-.18-.5-.33-.72-.64-.93Z"/>
        <path d="M175.95,131.43c-.36,2.42-.63,3.43-1.41,5.46l-1.5-.76c.78-1.77,1.06-2.82,1.38-4.98l1.53.29ZM176.74,138.08c-1.02.72-1.5,1-2.6,1.59-.36-.6-.6-.91-1.09-1.36,1.4-.63,2.45-1.23,3.69-2.16v-4.83c0-.57-.02-.85-.09-1.47h1.74c-.06.44-.09.9-.09,1.42v3.55c1.07-.99,2.22-2.4,3.08-3.76.76-1.21,1.42-2.62,1.62-3.51l1.65.66q-.17.31-.55,1.12c-1.02,2.07-2.17,3.81-3.62,5.46-.66.76-1.25,1.32-2.17,2.08v1c0,.34.38.45,1.74.45,1.27,0,1.77-.11,1.93-.41.21-.36.33-1.26.36-2.71.61.3.94.42,1.51.55-.3,3.76-.53,4-3.9,4-2.62,0-3.21-.29-3.21-1.53v-.17ZM177.58,126.62c1.9.75,2.67,1.12,4.2,2.05l-.96,1.38c-1.09-.81-2.31-1.46-4.21-2.21l.98-1.23ZM184.42,131.3c.94,1.8,1.5,3.12,2.23,5.42l-1.53.81c-.68-2.54-1.08-3.58-2.1-5.54l1.4-.69Z"/>
        <path d="M192.16,134.19c.24-.38.31-.5.52-.92h-2.17c-.73,0-1.26.02-1.67.06.04-.42.06-.76.06-1.4v-.99c0-.65-.02-1.04-.06-1.46.5.04.9.06,1.61.06h1.54v-.92h-2.37c-.67,0-1.21.03-1.67.08v-1.53c.42.06.97.09,1.79.09h9.13c.84,0,1.39-.03,1.78-.09v1.53c-.46-.04-.99-.08-1.66-.08h-2.57v.92h1.67c.75,0,1.17-.01,1.62-.06-.04.38-.06.75-.06,1.44v.99c0,.72,0,1.05.04,1.41-.33-.04-.82-.06-1.63-.06h-3.64c-.3.56-.32.57-.53.92h5.08c.86,0,1.26-.01,1.67-.07v1.5c-.46-.04-.97-.07-1.67-.07h-1.29c-.38.76-.75,1.3-1.3,1.86,1.79.56,2.35.77,3.95,1.41l-1.01,1.32c-.36-.15-.66-.29-.84-.38q-1.21-.56-3.43-1.35c-1.67.96-3.64,1.44-6.48,1.58-.18-.58-.29-.84-.66-1.47h.32c1.99,0,3.52-.23,4.83-.71-1.53-.42-1.72-.46-3.34-.84.66-.58.93-.86,1.41-1.42h-1.53c-.69,0-1.2.03-1.67.07v-1.5c.41.06.86.07,1.67.07h2.57ZM190.44,130.71v1.38h1.56v-1.38h-1.56ZM192.93,135.54c-.21.24-.33.38-.71.75q.51.13,1.65.39c.17.04.36.1.85.24.54-.39.93-.81,1.26-1.38h-3.06ZM193.42,129.56h1.59v-.92h-1.59v.92ZM193.42,132.09h1.59v-1.38h-1.59v1.38ZM196.44,132.09h1.68v-1.38h-1.68v1.38Z"/>
        <path d="M206.19,135.93c.04.06.06.11.06.17q0,.09-.25.78c-.32.92-.51,1.67-.57,2.25-.01.19-.08.27-.27.31-.21.06-.61.09-1,.09-.15,0-.22-.03-.27-.12-.13-.28-.38-1.32-.5-2.16-.1-.71-.15-1.44-.15-2.21,0-1.73.2-3.36.74-6.3.09-.48.12-.71.17-1.17.69.09,1.17.22,1.6.43.23.12.32.23.32.36,0,.09-.03.17-.11.29-.61,1.05-1.18,4.29-1.18,6.69,0,.36.01.93.06,1.65.36-.93.52-1.35.85-2.07.11.41.21.6.51,1ZM208.71,131.99c-.72,0-.87-.03-.92-.19-.04-.13-.09-.62-.09-.96,0-.12,0-.24.01-.51.41.03.64.04,1.14.04.81,0,1.32-.02,2.1-.08-.02-1.91-.03-2.15-.18-2.85.74.01,1.29.07,1.77.19.22.06.31.14.31.29,0,.06-.01.11-.06.22-.15.35-.23.93-.25,1.98.55-.08,1.03-.18,1.93-.39.08-.03.1-.03.15-.03.09,0,.13.04.17.15.03.14.07.71.07,1.02,0,.38-.01.43-.17.5-.24.12-.9.22-2.17.39,0,1.04.09,2.75.2,3.72.95.41,1.59.75,2.25,1.21.42.3.51.41.51.51,0,.17-.27.67-.58,1.11-.18.25-.27.33-.38.33s-.1,0-.45-.33c-.33-.33-.67-.58-1.33-1.02v.12c0,1.32-1.09,2.19-2.76,2.19s-2.8-.9-2.8-2.25,1.14-2.35,2.66-2.35c.55,0,.84.01,1.24.08q-.06-1.17-.1-3.18c-.65.04-1.67.09-2.26.09ZM209.94,136.4c-.75,0-1.25.34-1.25.87,0,.48.46.78,1.19.78.79,0,1.21-.36,1.21-1.05,0-.21-.02-.38-.02-.38-.39-.15-.73-.23-1.14-.23Z"/>
        <path d="M218.4,131.19c-.27.02-.43.03-.61.05-.14.01-.15.01-.17.01-.12,0-.18-.04-.23-.2-.08-.24-.18-1.04-.19-1.48.17.01.6.03,1.14.03.17,0,1.35-.07,1.88-.12.25-1.21.34-1.84.34-2.65,1.54.21,2.1.39,2.1.67,0,.11-.01.13-.24.48-.12.18-.17.34-.42,1.27.7-.12,1.12-.22,1.68-.41.1-.03.15-.04.22-.04.11,0,.13.08.23.51.07.38.12.69.12.85,0,.18-.04.21-.43.3-.51.12-1.38.27-2.31.39-.56,1.68-.93,2.58-1.62,3.99-.53,1.05-.83,1.61-1.23,2.24-.12.18-.19.24-.3.24-.15,0-.57-.22-1.09-.61-.24-.17-.3-.24-.3-.35s.06-.19.25-.46c.43-.54,1-1.47,1.5-2.46.42-.82.57-1.17,1-2.35-.58.04-.63.06-1.32.1ZM223.34,139.83c-1.64,0-2.75-.9-2.75-2.23s1.15-2.42,2.7-2.42c.36,0,.53.01,1.14.11-.06-.72-.06-1.01-.12-2.4,0-.29-.03-.67-.06-1.16.77.08,1.35.17,1.64.29.12.04.18.12.18.24,0,.08-.01.13-.03.24-.08.31-.09.54-.09.94,0,.56.04,1.5.09,2.24,1.07.48,1.5.72,2.25,1.3.33.25.45.39.45.51,0,.15-.08.29-.5.96-.18.3-.31.44-.42.44q-.09,0-.51-.39c-.33-.33-.71-.58-1.23-.9,0,1.39-1.02,2.23-2.74,2.23ZM223.31,136.62c-.72,0-1.21.34-1.21.87,0,.5.45.81,1.12.81.79,0,1.21-.41,1.21-1.2,0-.12,0-.24-.02-.24-.3-.15-.7-.24-1.11-.24ZM228.91,132.36c-.18.26-.27.33-.38.33-.08,0-.13-.03-.24-.13-.38-.36-.9-.75-1.46-1.09q-.36-.22-1.02-.53c-.21-.09-.29-.15-.29-.27,0-.11.08-.24.3-.58.36-.53.45-.62.58-.62.28,0,1.39.57,2.19,1.11.65.43.84.61.84.78,0,.12-.24.57-.54,1Z"/>
        <path d="M232.08,129.92c0-.44-.02-1.02-.04-1.35.69.07,1.2.18,1.6.33.36.14.48.23.48.39q0,.09-.06.24c-.2.51-.25,1.08-.25,2.44,0,1.92.12,3.12.42,4.04.22.71.57,1.11.97,1.11.62,0,1.12-.72,1.68-2.38.28.77.39.99.81,1.53.08.1.12.21.12.31,0,.24-.22.75-.53,1.19-.58.85-1.33,1.32-2.13,1.32-1.15,0-2.02-.93-2.56-2.77-.34-1.2-.51-2.71-.51-4.81v-1.58ZM241,130.16c.09,0,.17.04.29.15.75.72,1.53,1.92,2.03,3.09.33.79.64,1.86.64,2.17,0,.15-.08.23-.39.39-.34.18-1.05.42-1.23.42-.13,0-.19-.08-.24-.34-.2-1.16-.46-2-.93-2.97-.42-.87-.45-.92-1.47-2.17.63-.46,1.12-.73,1.3-.73Z"/>
        <path d="M17.27,162.96q0-1.63.01-2.34c-.75.83-1.26,1.49-1.51,1.95-.08.15-.18.24-.27.24-.15,0-.51-.32-.99-.86-.19-.24-.28-.38-.28-.43q0-.11.76-.86c.64-.64,1.51-1.67,2.33-2.74,0-.09,0-.44.01-1.04-.74.13-1.68.39-1.93.52-.15.08-.18.09-.25.09-.26,0-.47-.58-.66-1.75.79-.01,1.79-.12,2.88-.3,0-.54.01-1.3.01-1.72,0-.45-.03-.81-.09-1.11.95.06,1.41.12,1.83.23.22.06.31.15.31.31,0,.08-.03.15-.09.3-.15.3-.17.41-.29,1.59.36.22.71.6.71.79q0,.13-.46.7c-.04.06-.18.26-.41.54q-.01.48-.01.58c1.47-1.24,2.71-1.77,4.18-1.77,2.34,0,3.81,1.49,3.81,3.87,0,1.83-.84,3.19-2.57,4.12-.66.38-1.79.78-2.12.78-.09,0-.19-.03-.24-.09t-.23-.3c-.25-.36-.54-.65-.84-.86,2.99-.81,4.17-1.86,4.17-3.7,0-1.44-.85-2.37-2.21-2.37-.88,0-1.69.29-2.65.92q-.48.31-1.33,1.04.01.12.01.31c0,1.61,0,1.74.09,4.89.02.17.02.29.02.32,0,.29-.21.34-1.31.34-.39,0-.42-.04-.42-.46l.02-1.74Z"/>
        <path d="M33.42,163.2c0,1.41-1.14,2.55-2.54,2.55s-2.53-1.14-2.53-2.55,1.14-2.54,2.53-2.54,2.54,1.14,2.54,2.54ZM29.52,163.2c0,.76.62,1.38,1.36,1.38s1.37-.62,1.37-1.38-.62-1.37-1.37-1.37-1.36.62-1.36,1.37Z"/>
        <path d="M45.66,154c1.6,0,2.5-.12,3.25-.42.08-.03.12-.04.17-.04.12,0,.22.07.39.3.33.41.54.81.54.99,0,.13-.09.21-.43.39-2.26,1.11-3.71,3.25-3.71,5.47,0,1.72,1,2.8,2.59,2.8,1.41,0,2.49-.76,3.04-2.16.41-.99.58-2.19.58-3.75,0-1.16-.22-2.36-.64-3.5-.02-.06-.03-.11-.03-.15,0-.15.11-.22.53-.34.4-.1.88-.21,1.02-.21.12,0,.21.06.25.15t.06.28c.09.79.69,2.28,1.33,3.3.46.75,1.14,1.6,1.78,2.26.08.09.11.15.11.22-.02.32-.9,1.3-1.16,1.3-.13,0-.17-.03-.71-.75-.4-.52-1.02-1.9-1.53-3.36.25,1.38.28,1.7.28,2.67,0,1.74-.46,3.22-1.35,4.25-.84.99-2.02,1.48-3.5,1.48-1.32,0-2.35-.38-3.12-1.12-.78-.78-1.2-1.92-1.2-3.25,0-1.02.22-1.95.71-2.92.51-1.06,1-1.68,2.1-2.65-.78.13-.79.13-1.71.27-.09.01-.17.03-.22.04-.09.01-.17.03-.21.03-.27,0-.44-.55-.51-1.68.33.06.83.09,1.28.09Z"/>
        <path d="M62.1,157.27c-.19-.66-.25-1.06-.43-2.91-.06-.72-.12-1.08-.27-1.59.91.02,1.5.06,1.9.17.23.06.33.17.33.33,0,.06-.01.13-.04.25-.1.36-.15.63-.15,1.02,0,.73.15,1.93.32,2.46.09.28.18.39.34.39.36,0,1.68-.69,2.4-1.25.19-.15.22-.17.3-.17.13,0,.27.11.5.39.38.51.67,1.06.67,1.27,0,.17-.11.27-.36.34-.93.25-2.46.86-3.49,1.35-1.83.9-2.66,1.72-2.66,2.65s.76,1.29,2.7,1.29c1.12,0,2.14-.1,3.52-.33.06-.01.17-.03.2-.03.12,0,.19.06.25.18.04.15.15,1.06.15,1.42,0,.21-.06.29-.26.34-.33.08-2.14.18-3.28.18-1.92,0-3.2-.25-3.99-.79-.67-.47-1.04-1.2-1.04-2.1,0-.69.2-1.3.6-1.9.52-.78,1.09-1.28,2.35-2.03-.31-.29-.43-.5-.57-.96Z"/>
        <path d="M75.03,155.55c2.49-.71,3.78-.93,5.19-.93,1.51,0,2.7.41,3.5,1.19.66.67,1.02,1.6,1.02,2.7,0,1.92-1.03,3.54-2.83,4.47-.96.48-1.93.81-3.27,1.06-.58.12-.88.17-1.11.17-.18,0-.27-.06-.36-.22-.34-.69-.48-.9-.93-1.37,2.23-.27,3.45-.57,4.62-1.16,1.28-.63,1.98-1.67,1.98-2.92,0-1.41-.96-2.32-2.43-2.32-1.78,0-3.76.51-6.04,1.56-.41.18-.62.29-.77.38-.27.15-.34.18-.43.18-.29,0-.79-.92-1.14-2.07.69-.09,1.38-.25,3.01-.71Z"/>
        <path d="M89.04,154c1.6,0,2.5-.12,3.25-.42.08-.03.12-.04.17-.04.12,0,.22.07.39.3.33.41.54.81.54.99,0,.13-.09.21-.43.39-2.26,1.11-3.71,3.25-3.71,5.47,0,1.72,1,2.8,2.59,2.8,1.41,0,2.49-.76,3.04-2.16.41-.99.58-2.19.58-3.75,0-1.16-.22-2.36-.64-3.5-.02-.06-.03-.11-.03-.15,0-.15.11-.22.53-.34.4-.1.88-.21,1.02-.21.12,0,.21.06.25.15t.06.28c.09.79.69,2.28,1.33,3.3.46.75,1.14,1.6,1.78,2.26.08.09.11.15.11.22-.02.32-.9,1.3-1.16,1.3-.13,0-.17-.03-.71-.75-.4-.52-1.02-1.9-1.53-3.36.25,1.38.28,1.7.28,2.67,0,1.74-.46,3.22-1.35,4.25-.84.99-2.02,1.48-3.5,1.48-1.32,0-2.35-.38-3.12-1.12-.78-.78-1.2-1.92-1.2-3.25,0-1.02.22-1.95.71-2.92.51-1.06,1-1.68,2.1-2.65-.78.13-.79.13-1.71.27-.09.01-.17.03-.22.04-.09.01-.17.03-.21.03-.27,0-.44-.55-.51-1.68.33.06.83.09,1.28.09Z"/>
        <path d="M105.48,157.27c-.19-.66-.25-1.06-.43-2.91-.06-.72-.12-1.08-.27-1.59.91.02,1.5.06,1.9.17.23.06.33.17.33.33,0,.06-.01.13-.04.25-.1.36-.15.63-.15,1.02,0,.73.15,1.93.32,2.46.09.28.18.39.34.39.36,0,1.68-.69,2.4-1.25.19-.15.22-.17.3-.17.13,0,.27.11.5.39.38.51.67,1.06.67,1.27,0,.17-.11.27-.36.34-.93.25-2.46.86-3.49,1.35-1.83.9-2.66,1.72-2.66,2.65s.76,1.29,2.7,1.29c1.12,0,2.14-.1,3.52-.33.06-.01.17-.03.2-.03.12,0,.19.06.25.18.04.15.15,1.06.15,1.42,0,.21-.06.29-.26.34-.33.08-2.14.18-3.28.18-1.92,0-3.2-.25-3.99-.79-.67-.47-1.04-1.2-1.04-2.1,0-.69.2-1.3.6-1.9.52-.78,1.09-1.28,2.35-2.03-.31-.29-.43-.5-.57-.96Z"/>
        <path d="M118.41,155.55c2.49-.71,3.78-.93,5.19-.93,1.51,0,2.7.41,3.5,1.19.66.67,1.02,1.6,1.02,2.7,0,1.92-1.03,3.54-2.83,4.47-.96.48-1.93.81-3.27,1.06-.58.12-.88.17-1.11.17-.18,0-.27-.06-.36-.22-.34-.69-.48-.9-.93-1.37,2.23-.27,3.45-.57,4.62-1.16,1.28-.63,1.98-1.67,1.98-2.92,0-1.41-.96-2.32-2.43-2.32-1.78,0-3.76.51-6.04,1.56-.41.18-.62.29-.77.38-.27.15-.34.18-.43.18-.29,0-.79-.92-1.14-2.07.69-.09,1.38-.25,3.01-.71Z"/>
        <path d="M129.93,154.65c.33.06.62.08,1.16.08h2.88c.6,0,.83-.01,1.16-.06v1.47c-.29-.03-.48-.04-1.1-.04h-2.94c-.51,0-.81.01-1.16.06v-1.5ZM136.59,159.63c-.39,0-.6.01-1.07.06.03-.32.04-.64.04-1.04v-2.5c0-.39-.01-.79-.04-1.12.39.04.65.06,1.2.06h2.64c.51-.96.81-1.7,1.16-2.9l1.62.53c-.66,1.5-.79,1.77-1.16,2.37h.42c.51,0,.78-.02,1.16-.06-.03.38-.04.65-.04,1.07v2.61c0,.42.01.66.04.99-.5-.04-.71-.06-1.08-.06h-.81v3.97c0,.27.09.33.58.33.21,0,.4-.06.48-.14.12-.15.18-.61.18-1.41v-.48c.54.32.93.5,1.35.6-.11,1.54-.2,2.01-.45,2.37-.25.36-.72.48-1.86.48-1.41,0-1.75-.24-1.75-1.23v-4.5h-.91c-.12,3.31-.65,4.51-2.64,5.98-.29-.41-.48-.63-.82-.96.01.24.01.39.03.55h-1.38v-.43h-1.58v.72h-1.48c.04-.43.08-.96.08-1.39v-2.15c0-.43-.02-.72-.06-1.12.27.03.51.04.98.04h2.59c.5,0,.6,0,.85-.04-.01.25-.03.56-.03,1.05v2.37c.96-.63,1.51-1.36,1.75-2.37.17-.61.21-1.18.24-2.25h-.22ZM130.5,152.62c.39.04.6.06,1.17.06h2c.57,0,.76-.01,1.17-.06v1.41c-.39-.03-.67-.04-1.17-.04h-2c-.5,0-.83.02-1.17.04v-1.41ZM130.5,156.82c.24.03.46.04.92.04h2.49c.48,0,.66-.01.88-.04v1.35c-.29-.03-.46-.04-.88-.04h-2.49c-.45,0-.63.01-.92.04v-1.35ZM130.5,158.83c.27.03.46.05.92.05h2.49c.46,0,.63-.02.88-.05v1.35c-.25-.03-.45-.04-.92-.04h-2.47c-.45,0-.65.01-.9.04v-1.35ZM131.86,163.47h1.6v-1.35h-1.6v1.35ZM137.1,155.05c-.31-.83-.62-1.37-1.17-2.17l1.41-.66c.57.85.76,1.21,1.16,2.12l-1.4.72ZM137.01,158.22h3.96v-1.71h-3.96v1.71Z"/>
        <path d="M144.87,154.62c0-.69-.02-1.03-.06-1.48.42.03.74.04,1.58.04h2.26c.57,0,.87-.01,1.25-.04-.04.34-.04.64-.04,1.32v6.51c0,.76,0,1.18.03,1.48h-1.49v-.54h-2.02v1.07h-1.59c.06-.46.09-.99.09-1.71v-6.65ZM146.35,156.76h2.04v-2.17h-2.04v2.17ZM146.35,160.53h2.04v-2.42h-2.04v2.42ZM152.13,160.93c-.13.76-.41,1.6-.74,2.32-.43.92-.92,1.53-1.79,2.34-.38-.48-.66-.75-1.27-1.17,1.12-.87,1.63-1.58,2.05-2.87.41-1.23.54-2.55.54-5.17,0-1.92-.03-3-.09-3.6.46.04.83.06,1.59.06h3.1c.79,0,1.16-.01,1.56-.06-.04.39-.06.81-.06,1.59v9.36c0,.71-.15,1.11-.51,1.33-.31.21-.69.27-1.58.27-.4,0-.64,0-1.17-.03-.07-.69-.17-1.08-.39-1.61.66.09,1.16.14,1.49.14.49,0,.6-.08.6-.44v-2.47h-3.34ZM152.44,157.53c-.03.71-.06,1.25-.12,2h3.15v-2h-3.03ZM155.47,154.29h-3v1.89h3v-1.89Z"/>
        <path d="M163.74,152.92c.37.1.48.18.48.34,0,.11-.01.15-.09.36-.17.43-.29,1.2-.34,2.25-.12,2.42-.18,4.29-.18,5.77,0,.48.04.84.12,1.08.17.5.69.75,1.53.75,1.35,0,2.62-.55,3.79-1.65.54-.51.87-.92,1.42-1.74.09.48.21.79.54,1.47.04.12.08.21.08.34,0,.27-.29.63-1.04,1.3-1.49,1.33-3.13,2.03-4.86,2.03-1.14,0-1.98-.29-2.52-.83-.57-.6-.79-1.38-.79-2.86,0-1.17.01-2.07.13-5.57.02-.52.03-.84.03-.97,0-1.28-.01-1.65-.11-2.29.77.03,1.35.09,1.8.21Z"/>
        <path d="M175.87,156.37c-.39.09-.53.13-1.07.33-.19.08-.3.11-.39.11-.33,0-.63-.62-.9-1.91.96-.04,1.31-.09,2.97-.34,1.8-.27,4.08-.62,5.28-.76,1.35-.18,2.43-.36,3-.48.1-.03.15-.03.22-.03.2,0,.27.09.41.46.12.31.21.76.21.97,0,.18-.06.24-.27.24-.32,0-.6.03-.89.08-2.53.42-4.56,2.64-4.56,4.98,0,1.75,1.38,2.91,3.72,3.12.21.01.29.09.29.27,0,.38-.15,1.09-.29,1.42-.08.17-.19.24-.39.24s-.65-.09-1.11-.22c-2.55-.75-3.88-2.37-3.88-4.67,0-1.25.41-2.4,1.19-3.39.42-.54.78-.84,1.63-1.43-1.96.33-4.04.72-5.17,1.01Z"/>
        <path d="M188.7,155.43c0-.44-.02-1.02-.04-1.35.69.07,1.2.18,1.6.33.36.14.48.23.48.39q0,.09-.06.24c-.2.51-.25,1.08-.25,2.44,0,1.92.12,3.12.42,4.04.22.71.57,1.11.97,1.11.62,0,1.12-.72,1.68-2.38.28.77.39.99.81,1.53.08.1.12.21.12.31,0,.24-.22.75-.53,1.19-.58.85-1.33,1.32-2.13,1.32-1.15,0-2.02-.93-2.56-2.77-.34-1.2-.51-2.71-.51-4.81v-1.58ZM197.62,155.67c.09,0,.17.04.29.15.75.72,1.53,1.92,2.03,3.09.33.79.64,1.86.64,2.17,0,.15-.08.23-.39.39-.34.18-1.05.42-1.23.42-.13,0-.19-.08-.24-.34-.2-1.16-.46-2-.93-2.97-.42-.87-.45-.92-1.47-2.17.63-.46,1.12-.73,1.3-.73Z"/>
        <path d="M211.43,153.73c0,.14-.06.18-.32.33-.1.06-.24.18-.38.34-.93,1.08-2.26,2.54-3.45,3.74-.25.25-.36.45-.36.63,0,.17.12.34.41.6.88.81,2.32,2.28,3.39,3.5.75.84.94,1.11.94,1.26,0,.17-.25.42-.87.9-.29.22-.47.33-.56.33-.13,0-.19-.06-.34-.3-.64-1.02-2.22-2.92-3.42-4.14-.67-.67-.81-.82-1.02-1.12-.25-.36-.36-.66-.36-1,0-.3.09-.61.27-.92q.17-.27,1.08-1.24c.87-.9,1.8-2.04,2.38-2.88.39-.56.58-.92.78-1.42,1.17.64,1.82,1.14,1.82,1.41Z"/>
        <path d="M218.27,157.83c-.12.03-.18.06-.27.11-.08.04-.12.06-.2.06-.32,0-.55-.58-.74-1.69.12.01.23.01.29.01.63,0,2.24-.2,3.2-.39.31-1.32.48-2.31.48-3.03,0-.06,0-.13-.01-.25.64.08,1.26.21,1.68.38.24.09.36.22.36.38,0,.08-.02.12-.09.24q-.23.4-.69,2.05c.36-.04.76-.08,1.02-.08.62,0,1.1.12,1.44.36.6.43.9,1.32.9,2.68,0,2.24-.41,4.14-1.1,5.08-.48.66-1.11.97-1.99.97-.54,0-1.05-.07-1.2-.17q-.12-.07-.17-.63c-.04-.4-.13-.75-.32-1.17.78.25.98.3,1.46.3.72,0,1.02-.34,1.35-1.54.23-.79.35-1.83.35-2.92,0-1.17-.29-1.59-1.08-1.59-.27,0-.71.03-1.05.09-.04.17-.06.18-.12.39-.42,1.53-1.19,3.55-1.95,5.17-.79,1.63-.99,1.96-1.18,1.96-.12,0-.53-.21-.96-.5-.35-.21-.44-.3-.44-.42q0-.08.62-1.05c.83-1.28,1.91-3.78,2.28-5.25-1.11.24-1.73.39-1.86.43ZM225.91,156.15c0-.1.14-.24.57-.58.3-.22.45-.31.55-.31.09,0,.17.04.36.24.88.86,1.71,2,2.19,2.99.15.33.24.54.24.63,0,.15-.04.2-.52.58-.3.24-.65.43-.77.43-.1,0-.15-.04-.25-.3-.3-.73-.58-1.3-.94-1.86-.39-.6-.47-.69-1.35-1.64-.06-.09-.08-.13-.08-.18Z"/>
        <path d="M239.53,157.86c2.05,0,3.39,1.21,3.39,3.06s-1.12,3.02-3.37,3.74c-.81.25-2.15.5-2.75.5-.32,0-.39-.08-.6-.51-.16-.35-.34-.56-.79-.87,3.77-.3,5.62-1.26,5.62-2.9,0-.92-.64-1.46-1.72-1.46-1.37,0-2.78.71-3.93,1.95-.21.21-.41.46-.54.69-.13.22-.23.3-.36.3-.22,0-.75-.22-1.11-.5-.18-.13-.24-.24-.24-.48q0-.12.04-.48s0-.15.01-.31c.08-.96.12-1.37.3-2.72q.03-.16.14-.87s.04-.33.12-.89c.01-.13.03-.25.03-.49.72.1,1.4.27,1.68.43.12.06.18.13.16.22,0,.06-.03.11-.07.2-.17.25-.21.39-.35.96-.13.57-.34,1.89-.38,2.38,1.53-1.41,2.87-1.96,4.71-1.96ZM239.27,153.58c.58.34.76.51.76.67,0,.13-.24.58-.5.96-.24.34-.33.42-.45.42-.07,0-.12-.03-.3-.17-1-.76-1.8-1.2-2.92-1.59-.22-.09-.27-.12-.27-.24,0-.15.12-.41.39-.79.24-.36.34-.45.51-.45.36,0,1.83.63,2.78,1.19Z"/>
        <path d="M21.58,182.75c.34,1.29,1.11,2.69,2.07,3.77,1.06,1.23,2.26,2.04,3.97,2.74-.5.57-.69.89-1.05,1.65-2.85-1.46-4.65-3.38-5.73-6.12-.43,1.47-1.2,2.73-2.35,3.86-.97.97-2.01,1.65-3.43,2.28-.24-.55-.54-1-1-1.51,1.75-.71,3-1.56,3.93-2.68.9-1.1,1.38-2.25,1.63-3.98h-3.39c-.92,0-1.33.02-1.82.09v-1.8c.45.06.98.09,1.82.09h3.54c.03-.66.04-1.01.04-1.58,0-.72-.03-1.16-.11-1.58h1.91c-.08.51-.09.71-.11,1.7,0,.61-.01.94-.03,1.46h3.81c.81,0,1.33-.03,1.81-.09v1.8c-.55-.06-1-.09-1.8-.09h-3.72Z"/>
        <path d="M39.69,180.19c1,0,1.65-.03,2.06-.09v1.72c-.48-.06-1.2-.09-2.06-.09h-3.04c-.15,2.38-.48,3.69-1.29,5.14,1.69,1.32,3.7,2.03,6.66,2.33-.41.6-.57.92-.9,1.77-1.43-.27-2.34-.51-3.33-.88-1.26-.5-2.45-1.17-3.34-1.92-1.21,1.3-2.66,2.13-5.01,2.87-.27-.66-.48-1.02-.93-1.58,2.37-.62,3.66-1.28,4.75-2.42-.93-1.06-1.51-1.96-2.1-3.29q-.15-.36-.41-.79l1.65-.6c.24,1.14.87,2.38,1.74,3.38.5-1.11.68-2,.81-4h-4.18c-.92,0-1.47.03-2,.09v-1.72c.4.06,1.04.09,2,.09h4.24v-1.16c0-.54-.01-.84-.08-1.23h1.83q-.06.42-.07,2.38h3Z"/>
        <path d="M50.73,185.05c.53,1.02,1.01,1.64,1.89,2.37,1.17.98,2.1,1.46,3.76,1.94-.43.58-.54.76-.92,1.6-1.58-.55-2.56-1.16-3.73-2.22-.96-.9-1.52-1.63-2.04-2.71-.41,1.05-1.04,1.95-1.95,2.77-1.02.93-2,1.5-3.75,2.19-.29-.65-.5-.98-.9-1.52,2.95-.96,4.6-2.34,5.29-4.42h-3.27c-.67,0-1.18.03-1.74.09v-1.68c.5.06.99.09,1.73.09h3.58c.07-.61.12-1.33.13-2.16h-2.91c-.76,0-1.25.01-1.74.07v-1.63c.51.06,1.02.09,1.74.09h2.91q0-1.54-.08-2.08h1.79q-.08.48-.08,2.08h3.08c.82,0,1.35-.03,1.75-.09v1.63c-.45-.04-.95-.07-1.74-.07h-3.1c-.03.93-.06,1.51-.14,2.16h3.96c.84,0,1.38-.03,1.79-.09v1.68c-.48-.06-1.02-.09-1.77-.09h-3.56Z"/>
        <path d="M65.34,189.5c0,.66-.52,1.18-1.18,1.18s-1.19-.52-1.19-1.18.53-1.18,1.19-1.18,1.18.52,1.18,1.18ZM64.82,187.28h-1.33l-.41-8.98h2.16l-.42,8.98Z"/>
        <path d="M81.91,183.4c-.41-.04-.87-.06-1.41-.06h-3.87c-.55,0-.94.02-1.33.06v-1.17c-.9.58-1.59.97-2.73,1.48-.25-.63-.46-1-.84-1.45,1.51-.62,2.68-1.29,3.7-2.13,1.11-.91,1.82-1.68,2.19-2.38h1.79c.63.93,1.46,1.75,2.49,2.52,1.17.87,2.22,1.42,3.63,1.9-.42.56-.54.77-.85,1.59-1.14-.52-1.79-.87-2.76-1.51v1.16ZM84.15,185.68c-.13.15-.45.51-.63.74l-2.77,3.51c-.38.48-.62.83-.92,1.28l-1.65-.92c.38-.34.72-.72,1.09-1.19l2.37-2.91h-6.48c-.57,0-1.16.03-1.79.09v-1.63c.57.06,1.16.09,1.8.09h6.57c.83,0,1.2-.02,1.48-.08l.92,1.02ZM80.61,181.96c.36,0,.54,0,.84-.01-1.29-.93-1.98-1.58-2.9-2.76-.9,1.16-1.57,1.81-2.83,2.76.32.01.48.01.84.01h4.05Z"/>
        <path d="M97.59,191.03v-.78h-8.97v.78h-1.68c.06-.46.09-1.07.09-1.86v-9.1c0-.71-.03-1.16-.09-1.74.52.06.99.08,1.69.08h8.92c.71,0,1.17-.01,1.7-.08-.06.53-.08,1-.08,1.74v9.12c0,.78.03,1.48.08,1.84h-1.67ZM88.62,188.83h8.97v-8.98h-8.97v8.98ZM94.62,181.48c.63,0,1-.02,1.38-.04-.03.34-.04.69-.04,1.14v3.43c0,.48.01.78.04,1.14-.44-.03-.78-.04-1.38-.04h-3.08c-.72,0-.95.01-1.39.04.04-.39.06-.71.06-1.14v-3.43c0-.42-.01-.75-.06-1.14.38.03.76.04,1.39.04h3.08ZM91.72,185.75h2.71v-2.92h-2.71v2.92Z"/>
        <path d="M104.97,186.95c.04.06.06.11.06.17q0,.09-.25.78c-.32.92-.51,1.67-.57,2.25-.01.19-.08.27-.27.31-.21.06-.61.09-1,.09-.15,0-.22-.03-.27-.12-.13-.28-.38-1.32-.5-2.16-.1-.71-.15-1.44-.15-2.21,0-1.73.2-3.36.74-6.3.09-.48.12-.71.17-1.17.69.09,1.17.22,1.6.43.23.12.32.23.32.36,0,.09-.03.17-.11.29-.61,1.05-1.18,4.29-1.18,6.69,0,.36.01.93.06,1.65.36-.93.52-1.35.85-2.07.11.41.21.6.51,1ZM107.49,183.01c-.72,0-.87-.03-.92-.19-.04-.13-.09-.62-.09-.96,0-.12,0-.24.01-.51.41.03.64.04,1.14.04.81,0,1.32-.02,2.1-.08-.02-1.91-.03-2.15-.18-2.85.74.01,1.29.07,1.77.19.22.06.31.14.31.29,0,.06-.01.11-.06.22-.15.35-.23.93-.25,1.98.55-.08,1.03-.18,1.93-.39.08-.03.1-.03.15-.03.09,0,.13.04.17.15.03.14.07.71.07,1.02,0,.38-.01.43-.17.5-.24.12-.9.22-2.17.39,0,1.04.09,2.75.2,3.72.95.41,1.59.75,2.25,1.21.42.3.51.41.51.51,0,.17-.27.67-.58,1.11-.18.25-.27.33-.38.33s-.1,0-.45-.33c-.33-.33-.67-.58-1.33-1.02v.12c0,1.32-1.09,2.19-2.76,2.19s-2.8-.9-2.8-2.25,1.14-2.35,2.66-2.35c.55,0,.84.01,1.24.08q-.06-1.17-.1-3.18c-.65.04-1.67.09-2.26.09ZM108.72,187.42c-.75,0-1.25.34-1.25.87,0,.48.46.78,1.19.78.79,0,1.21-.36,1.21-1.05,0-.21-.02-.38-.02-.38-.39-.15-.73-.23-1.14-.23Z"/>
        <path d="M115.78,187.21c.27-.24.34-.3.45-.3.19,0,1.09.66,1.75,1.29.75.69,1.59,1.69,1.59,1.9,0,.14-.03.17-.46.56-.57.52-.69.62-.79.62-.09,0-.18-.06-.25-.21-.53-.93-1.73-2.16-2.79-2.85-.12-.09-.18-.15-.18-.24,0-.1.03-.15.69-.76Z"/>
        <path d="M134.16,178.44c2.67,0,3.94,1.08,3.94,3.38,0,1-.39,1.93-1.05,2.52-.69.62-1.65.92-2.89.92h-2.16v4.88h-1.93v-11.68h4.09ZM133.69,183.66c1.69,0,2.46-.57,2.46-1.84s-.72-1.77-2.46-1.77h-1.7v3.62h1.7Z"/>
        <path d="M146.46,178.44v1.59h-5.4v3.18h4.12v1.58h-4.12v3.72h5.66v1.62h-7.59v-11.68h7.33Z"/>
        <path d="M151.8,178.44c1.39,0,2.29.25,2.92.81.58.53.93,1.37.93,2.27,0,1.48-.73,2.46-2.17,2.88.76.33.96.63,1.72,2.64l1.17,3.09h-2.05l-.99-2.9c-.58-1.71-1.02-2.22-1.89-2.22h-1.9v5.12h-1.88v-11.68h4.14ZM151.26,183.43c1.71,0,2.49-.56,2.49-1.77,0-.51-.19-.96-.52-1.21-.34-.25-1.04-.41-1.98-.41h-1.71v3.39h1.72Z"/>
        <path d="M164.85,186.67c.04.08.06.13.06.21,0,.11-.02.12-.15.45-.3.69-.66,1.77-.84,2.58-.04.17-.09.25-.15.29-.08.03-.58.1-.75.1h-.06c-.08,0-.18-.01-.3-.01-.2,0-.24-.04-.3-.23-.29-.97-.51-2.98-.51-4.5,0-1.65.1-2.67.52-4.92.15-.81.22-1.26.29-1.75.63.12,1.17.27,1.62.48.25.11.33.18.33.33,0,.11-.02.15-.18.39-.5.79-1.05,3.98-1.05,6.12,0,.34.02.81.06,1.56.42-.94.57-1.23.92-1.96.13.32.22.46.49.87ZM168.1,187.74c.48.25,1.05.34,2.06.34s1.53-.08,2.46-.34c.09-.03.17-.04.21-.04.1,0,.18.06.19.21.08.51.13,1.11.13,1.41,0,.15-.04.2-.25.26-.81.21-1.63.31-2.64.31-1.38,0-2.23-.17-2.94-.58-.66-.41-1.35-1.23-1.35-1.63,0-.21.32-.5,1.12-.99.27.54.53.81,1,1.07ZM167.05,180.08c.33.08,1.29.14,2.03.14.99,0,1.98-.08,2.91-.24q.08-.01.14-.01c.1,0,.15.04.18.16.03.15.08.81.08,1.22,0,.22-.04.3-.21.33-.62.12-1.63.19-2.71.19-1.29,0-2.45-.08-2.59-.17-.08-.04-.11-.15-.11-.42,0-.41.04-1,.08-1.12.01-.06.06-.09.15-.09.02,0,.05,0,.08.01Z"/>
        <path d="M178.2,181.06c2.49-.71,3.78-.93,5.19-.93,1.51,0,2.7.41,3.5,1.19.66.67,1.02,1.6,1.02,2.7,0,1.92-1.03,3.54-2.83,4.47-.96.48-1.93.81-3.27,1.06-.58.12-.88.17-1.11.17-.18,0-.27-.06-.36-.22-.34-.69-.48-.9-.93-1.37,2.23-.27,3.45-.57,4.62-1.16,1.28-.63,1.98-1.67,1.98-2.92,0-1.41-.96-2.32-2.43-2.32-1.78,0-3.76.51-6.04,1.56-.41.18-.62.29-.77.38-.27.15-.34.18-.43.18-.29,0-.79-.92-1.14-2.07.69-.09,1.38-.25,3.01-.71Z"/>
        <path d="M190.65,180.94c0-.44-.02-1.02-.04-1.35.69.07,1.2.18,1.6.33.36.14.48.23.48.39q0,.09-.06.24c-.2.51-.25,1.08-.25,2.44,0,1.92.12,3.12.42,4.04.22.71.57,1.11.97,1.11.62,0,1.12-.72,1.68-2.38.28.77.39.99.81,1.53.08.1.12.21.12.31,0,.24-.22.75-.53,1.19-.58.85-1.33,1.32-2.13,1.32-1.15,0-2.02-.93-2.56-2.77-.34-1.2-.51-2.71-.51-4.81v-1.58ZM199.57,181.18c.09,0,.17.04.29.15.75.72,1.53,1.92,2.03,3.09.33.79.64,1.86.64,2.17,0,.15-.08.23-.39.39-.34.18-1.05.42-1.23.42-.13,0-.19-.08-.24-.34-.2-1.16-.46-2-.93-2.97-.42-.87-.45-.92-1.47-2.17.63-.46,1.12-.73,1.3-.73Z"/>
        <path d="M206.74,181.89c-.39.09-.53.13-1.07.33-.19.08-.3.11-.39.11-.33,0-.63-.62-.9-1.91.96-.04,1.31-.09,2.97-.34,1.8-.27,4.08-.62,5.28-.76,1.35-.18,2.43-.36,3-.48.1-.03.15-.03.22-.03.2,0,.27.09.41.46.12.31.21.76.21.97,0,.18-.06.24-.27.24-.32,0-.6.03-.89.08-2.53.42-4.56,2.64-4.56,4.98,0,1.75,1.38,2.91,3.72,3.12.21.01.29.09.29.27,0,.38-.15,1.09-.29,1.42-.08.17-.19.24-.39.24s-.65-.09-1.11-.22c-2.55-.75-3.88-2.37-3.88-4.67,0-1.25.41-2.4,1.19-3.39.42-.54.78-.84,1.63-1.43-1.96.33-4.04.72-5.17,1.01Z"/>
        <path d="M220.53,187.06c-.75,0-1.31.03-1.75.09v-1.59c.51.06,1.08.09,1.74.09h3.93v-.11c0-.29-.01-.52-.04-.78h.63c.62-.32,1.08-.65,1.7-1.17h-3.96c-.6,0-1.04.01-1.46.06v-1.42c.42.04.86.06,1.47.06h4.75c.56,0,.86-.01,1.1-.06l.79.87q-.21.18-.53.43c-1.02.87-1.75,1.42-2.86,2.1v.02h3.73c.69,0,1.35-.03,1.77-.09v1.59c-.4-.06-1.02-.09-1.78-.09h-3.72v2.52c0,.74-.15,1.05-.56,1.2-.36.13-.81.18-1.67.18-.18,0-.64-.01-1.42-.04-.15-.78-.22-1.02-.48-1.53.71.09,1.35.13,1.78.13.65,0,.75-.04.75-.33v-2.13h-3.91ZM221.28,179.95c-.35-.64-.53-.93-1.08-1.62l1.44-.43c.53.63.81,1.08,1.32,2.05h1.51c-.25-.73-.46-1.17-.87-1.81l1.5-.42c.58,1.09.67,1.3.99,2.23h1.21c.44-.55.93-1.48,1.18-2.16l1.56.44c-.33.6-.76,1.29-1.09,1.72h.66c.99,0,1.25-.01,1.77-.06-.04.38-.06.66-.06,1.2v1.33c0,.39.03.75.08,1.1h-1.58v-2.24h-9.37v2.24h-1.58c.06-.33.08-.66.08-1.11v-1.32c0-.51-.01-.85-.06-1.2.66.06.74.06,1.71.06h.68Z"/>
        <path d="M240.1,178.75c.18.12.25.21.25.32s-.01.12-.24.38c-.08.09-.3.42-.54.83q-.75,1.25-1.16,1.96c-.42.71-.69,1.18-.84,1.41q-.04.07-.25.45c-.2.35-.32.53-.53.81.97-.86,1.5-1.08,2.49-1.08.66,0,1.25.29,1.62.78.31.42.4.81.54,2.28.07.88.15,1.28.25,1.5.1.21.31.33.58.33,1.03,0,2.26-1.25,2.86-2.88.15.63.27.93.58,1.49.11.18.14.3.14.45,0,.17-.08.38-.26.66-.78,1.26-2.05,2.01-3.42,2.01-.85,0-1.57-.3-1.95-.79-.3-.42-.44-.97-.56-2.44-.07-.96-.15-1.29-.36-1.53-.17-.18-.41-.27-.74-.27-.99,0-2.29,1.33-3.06,3.1-.22.51-.38.97-.54,1.54-.06.22-.13.32-.24.32-.31,0-1.04-.3-1.42-.58-.1-.09-.15-.15-.15-.24,0-.08.03-.15.22-.57.12-.27.17-.34.27-.62q1.11-2.59,4.19-8.82c.34-.69.51-1.12.61-1.58.78.29,1.14.47,1.62.79Z"/>
        <path d="M16.82,207.4c-.39.09-.53.13-1.07.33-.19.08-.3.11-.39.11-.33,0-.63-.62-.9-1.91.96-.04,1.31-.09,2.97-.34,1.8-.27,4.08-.62,5.28-.76,1.35-.18,2.43-.36,3-.48.1-.03.15-.03.22-.03.2,0,.27.09.41.46.12.31.21.76.21.97,0,.18-.06.24-.27.24-.32,0-.6.03-.89.08-2.53.42-4.56,2.64-4.56,4.98,0,1.75,1.38,2.91,3.72,3.12.21.01.29.09.29.27,0,.38-.15,1.09-.29,1.42-.08.17-.19.24-.39.24s-.65-.09-1.11-.22c-2.55-.75-3.88-2.37-3.88-4.67,0-1.25.41-2.4,1.19-3.39.42-.54.78-.84,1.63-1.43-1.96.33-4.04.72-5.17,1.01ZM24.49,207.79c.21,0,1.48,1.42,1.48,1.65,0,.08-.09.17-.36.41-.29.24-.3.24-.42.29q-.08.03-.11.03c-.06,0-.08-.02-.34-.44-.24-.38-.5-.71-.97-1.2-.03-.03-.08-.1-.08-.12.03-.08.04-.12.06-.12.04-.06.3-.27.36-.32.15-.08.24-.13.25-.15.01-.03.04-.03.04-.03h.08ZM27.06,208.82c-.22.17-.36.25-.43.25-.06,0-.09-.03-.17-.15-.45-.67-.67-.96-1.16-1.42-.03-.04-.06-.09-.06-.12,0-.08.09-.17.3-.31.21-.15.39-.24.46-.24.11,0,.29.13.6.45.44.45.84,1,.84,1.14,0,.09-.11.2-.39.41Z"/>
        <path d="M34.48,210.65c-.54,1-1.16,1.99-1.71,2.8-.62.88-1.32,1.33-2.05,1.33-1.08,0-1.82-.88-1.82-2.21,0-1.14.57-2.12,1.63-2.75.71-.41,1.77-.69,2.62-.69h.15c.76-1.56.96-1.98,1.47-3.15-1.38.06-2.22.18-2.83.39-.03.02-.08.02-.11.02-.25,0-.49-.78-.57-1.91.33.06.64.09,1.05.09.51,0,1.38-.04,2.29-.13q.85-.08,1.05-.2c.12-.06.2-.09.27-.09.19,0,.49.24.82.65.24.31.39.57.39.67,0,.12-.06.22-.24.41-.22.24-.92,1.53-1.79,3.36,1.42.29,1.96.45,3,.9.08-.53.13-1.14.13-1.56,0-.19-.01-.42-.04-.67.65.09,1.19.2,1.62.3.27.08.36.15.36.27,0,.1-.03.21-.12.39-.13.29-.18.48-.29,1.09-.04.32-.09.53-.18.96.76.48,1.42.95,1.72,1.23.08.08.12.15.12.22,0,.42-.65,1.4-.92,1.4-.08,0-.15-.04-.27-.14-.4-.36-.9-.78-1.2-1-.51,1.08-1.04,1.77-1.86,2.48-.71.58-1.68,1.12-2.04,1.12-.12,0-.25-.06-.36-.15-.04-.04-.04-.06-.24-.33-.23-.34-.42-.51-.78-.67,1.2-.42,1.79-.72,2.43-1.28.65-.57,1.14-1.26,1.47-2.07-1.02-.56-2.03-.9-3.21-1.09ZM30.44,212.45c0,.36.13.58.38.58.33,0,.92-.74,1.86-2.36-1.42.15-2.23.79-2.23,1.77Z"/>
        <path d="M48.93,208.87q-.03-.74-.04-1.67c-.13.01-.27.01-.33.01-.99,0-2.26-.1-2.79-.24-.15-.04-.18-.07-.18-.22,0-.33.04-.74.15-1.32.84.17,1.88.27,2.77.27.08,0,.21,0,.38-.01v-.99c0-.53-.01-.76-.04-1.29.75.04,1.26.09,1.62.18.3.06.39.13.39.3,0,.08-.01.11-.12.35-.1.25-.12.31-.18,1.35.9-.1,1.62-.25,2.33-.46.04-.01.06-.01.08-.01.1,0,.1.01.27.49.11.32.21.71.21.83,0,.11-.04.17-.19.21-.5.17-1.79.39-2.73.5,0,1.07,0,1.11.01,1.63,1.05-.13,1.62-.29,2.81-.72.07-.03.1-.04.15-.04.09,0,.12.04.27.41.15.38.29.79.29.94,0,.08-.06.13-.17.18-.83.3-2.33.66-3.27.76.03.57.06.88.15,2.05.84.25,1.18.39,1.83.74.72.36,1.11.61,1.75,1.12.12.09.17.17.17.29,0,.1-.14.36-.42.81-.33.5-.5.69-.6.69-.04,0-.09-.01-.13-.06-.9-.85-1.49-1.28-2.49-1.77-.06.72-.22,1.12-.63,1.5-.51.49-1.36.76-2.43.76-1.84,0-2.98-.81-2.98-2.12,0-.57.24-1.12.64-1.5.58-.54,1.47-.82,2.59-.82.36,0,.67.03,1.05.07-.07-.97-.1-1.32-.12-1.63-.34.01-.54.01-.72.01-1.04,0-2.29-.16-3-.37-.15-.05-.21-.12-.21-.24,0-.23.09-.71.23-1.32.93.23,2.11.36,3.22.36h.43ZM47.9,213.44c-.96,0-1.49.29-1.49.79,0,.45.43.69,1.28.69.97,0,1.42-.34,1.42-1.09v-.25c-.39-.11-.69-.14-1.21-.14Z"/>
        <path d="M62.52,203.95c.38.1.48.18.48.34,0,.11-.01.15-.09.36-.17.43-.29,1.2-.34,2.25-.12,2.42-.18,4.29-.18,5.77,0,.48.04.84.12,1.08.17.5.69.75,1.53.75,1.35,0,2.62-.55,3.79-1.65.54-.51.87-.92,1.42-1.74.09.48.21.79.54,1.47.04.12.08.21.08.34,0,.27-.29.63-1.04,1.3-1.49,1.33-3.13,2.03-4.86,2.03-1.14,0-1.98-.29-2.52-.83-.57-.6-.79-1.38-.79-2.86,0-1.17.01-2.07.13-5.57.02-.52.03-.84.03-.97,0-1.28-.01-1.65-.11-2.29.77.03,1.35.09,1.8.21Z"/>
        <path d="M79.26,212.66c1.08.36,1.54.55,2.31.99.99.57,1.16.72,1.16,1,0,.14-.2.45-.51.86-.22.29-.32.36-.43.36q-.09,0-.59-.45c-.54-.5-1.12-.86-1.89-1.16,0,1.23-.93,1.91-2.64,1.91-1.53,0-2.45-.67-2.45-1.79s1.05-1.98,2.52-1.98c.27,0,.48.01,1.04.06-.11-1.8-.15-3.04-.17-4.51,0-.88-.03-1.16-.14-1.63.63.01,1.31.07,1.61.13.21.06.27.12.27.27,0,.08,0,.09-.09.27-.1.25-.17.85-.18,1.86.94-.04,1.46-.13,2.61-.45.03-.02.06-.02.08-.02.04,0,.09.02.11.04.1.14.3.99.3,1.32,0,.13-.04.17-.58.29-.9.18-1.61.27-2.49.29.02.73.04,1.15.17,2.34ZM76.66,213.68c-.72,0-1.09.21-1.09.63,0,.36.33.53,1,.53s1.02-.17,1.15-.54c.05-.12.06-.2.06-.46-.32-.11-.62-.15-1.12-.15Z"/>
        <path d="M91.24,207.38c.97-.25,1.62-.34,2.33-.34,2.13,0,3.36,1.26,3.36,3.42,0,1.88-.81,3.39-2.45,4.59-.87.64-2.19,1.29-2.62,1.29-.2,0-.24-.04-.56-.5-.22-.34-.45-.55-.82-.83,1.72-.58,2.44-.96,3.22-1.63.9-.79,1.35-1.75,1.35-2.89,0-1.22-.57-1.91-1.58-1.91-.81,0-1.86.31-3.22.97-.2.09-.3.17-.55.35-.06.03-.12.06-.18.06-.29,0-.77-.84-1.1-1.96.56-.04.84-.12,2.82-.62ZM92.25,203.72c.54.17,1.35.32,2.08.41.3.03.41.04,1.17.08.22,0,.29.06.29.22,0,.5-.11,1.31-.2,1.46-.03.09-.1.12-.21.12-.34,0-1.56-.17-2.26-.31-1.19-.24-2.22-.54-2.43-.71-.05-.04-.08-.11-.08-.17,0-.12.31-.93.46-1.21.08-.12.12-.15.21-.15q.08,0,.96.27Z"/>
        <path d="M108.72,215.02c0,.66-.53,1.18-1.18,1.18s-1.19-.52-1.19-1.18.53-1.18,1.19-1.18,1.18.52,1.18,1.18ZM108.19,212.8h-1.33l-.41-8.98h2.16l-.42,8.98Z"/>
      </g>
      <circle class="cls-10" cx="308.24" cy="219.24" r="30"/>
      <path class="cls-9" d="M329.77,1.42H90.4c-4.68,0-8.47,3.79-8.47,8.47v43.9s-9.69,9.69-9.69,9.69h9.69s0,.5,0,.5c0,4.68,3.79,8.47,8.47,8.47h239.38c4.68,0,8.47-3.79,8.47-8.47V9.89c0-4.68-3.79-8.47-8.47-8.47Z"/>
      <g>
        <path d="M99.34,18.65c2.67,0,3.94,1.08,3.94,3.38,0,1-.39,1.93-1.05,2.52-.69.62-1.65.92-2.89.92h-2.16v4.88h-1.93v-11.68h4.09ZM98.88,23.87c1.69,0,2.46-.57,2.46-1.84s-.72-1.77-2.46-1.77h-1.7v3.62h1.7Z"/>
        <path d="M111.64,18.65v1.59h-5.4v3.18h4.12v1.58h-4.12v3.72h5.66v1.62h-7.59v-11.68h7.33Z"/>
        <path d="M116.98,18.65c1.39,0,2.29.25,2.92.81.58.53.93,1.37.93,2.27,0,1.48-.73,2.46-2.17,2.88.76.33.96.63,1.72,2.64l1.17,3.09h-2.05l-.99-2.9c-.58-1.71-1.02-2.22-1.89-2.22h-1.9v5.12h-1.88v-11.68h4.14ZM116.44,23.65c1.71,0,2.49-.56,2.49-1.77,0-.51-.2-.96-.53-1.21-.34-.25-1.04-.41-1.98-.41h-1.71v3.39h1.72Z"/>
        <path d="M122.55,27.42c.27-.24.34-.3.45-.3.19,0,1.09.66,1.75,1.29.75.69,1.59,1.69,1.59,1.9,0,.14-.03.17-.46.56-.57.52-.69.62-.79.62-.09,0-.18-.06-.25-.21-.53-.93-1.73-2.16-2.79-2.85-.12-.09-.18-.15-.18-.24,0-.1.03-.15.69-.76Z"/>
        <path d="M140.97,18.65c1.39,0,2.29.25,2.92.81.58.53.93,1.37.93,2.27,0,1.48-.73,2.46-2.17,2.88.76.33.96.63,1.72,2.64l1.17,3.09h-2.05l-.99-2.9c-.58-1.71-1.02-2.22-1.89-2.22h-1.9v5.12h-1.88v-11.68h4.14ZM140.43,23.65c1.71,0,2.49-.56,2.49-1.77,0-.51-.2-.96-.53-1.21-.34-.25-1.04-.41-1.98-.41h-1.71v3.39h1.72Z"/>
        <path d="M154.24,28.77c-.86,1.16-2.07,1.76-3.58,1.76-2.96,0-4.83-2.34-4.83-6.03,0-1.74.43-3.25,1.25-4.33.85-1.12,2.05-1.71,3.57-1.71s2.82.65,3.69,1.88c.72,1.04,1.14,2.54,1.14,4.16,0,1.71-.42,3.21-1.23,4.29ZM150.64,20.16c-.93,0-1.67.42-2.13,1.21-.45.75-.69,1.88-.69,3.15,0,1.17.24,2.23.67,3.01.45.83,1.21,1.28,2.14,1.28,1.79,0,2.83-1.61,2.83-4.32s-1.04-4.33-2.83-4.33Z"/>
        <path d="M163.89,18.65v1.59h-5.4v3.18h4.12v1.58h-4.12v3.72h5.66v1.62h-7.59v-11.68h7.33Z"/>
        <path d="M167.79,24.59c0,.72-.58,1.3-1.3,1.3s-1.3-.58-1.3-1.3.58-1.3,1.3-1.3,1.3.58,1.3,1.3ZM172.78,24.59c0,.72-.58,1.3-1.3,1.3s-1.31-.58-1.31-1.3.58-1.3,1.31-1.3,1.3.58,1.3,1.3ZM177.79,24.59c0,.72-.58,1.3-1.3,1.3s-1.31-.58-1.31-1.3.58-1.3,1.31-1.3,1.3.58,1.3,1.3Z"/>
        <path d="M179.73,27.42c.27-.24.34-.3.45-.3.19,0,1.09.66,1.75,1.29.75.69,1.59,1.69,1.59,1.9,0,.14-.03.17-.46.56-.57.52-.69.62-.79.62-.09,0-.18-.06-.25-.21-.53-.93-1.73-2.16-2.79-2.85-.12-.09-.18-.15-.18-.24,0-.1.03-.15.69-.76Z"/>
        <path d="M198.34,23c-.19-.66-.25-1.06-.43-2.91-.06-.72-.12-1.08-.27-1.59.91.02,1.5.06,1.9.17.23.06.33.17.33.33,0,.06-.01.13-.04.25-.1.36-.15.63-.15,1.02,0,.73.15,1.93.32,2.46.09.28.18.39.34.39.36,0,1.68-.69,2.4-1.25.19-.15.22-.17.3-.17.13,0,.27.11.5.39.38.51.67,1.06.67,1.27,0,.17-.11.27-.36.34-.93.25-2.46.86-3.49,1.35-1.83.9-2.66,1.72-2.66,2.65s.76,1.29,2.7,1.29c1.12,0,2.14-.1,3.52-.33.06-.01.17-.03.2-.03.12,0,.19.06.25.18.04.15.15,1.06.15,1.42,0,.21-.06.29-.26.34-.33.08-2.14.18-3.28.18-1.92,0-3.2-.25-3.99-.79-.67-.47-1.04-1.2-1.04-2.1,0-.69.2-1.3.6-1.9.52-.78,1.09-1.28,2.35-2.03-.31-.29-.43-.5-.57-.96ZM203.79,19.64c.12-.09.2-.12.29-.12.21,0,1.51,1.38,1.51,1.6,0,.09-.12.23-.41.46-.3.25-.33.27-.4.27-.09,0-.11,0-.39-.42-.3-.42-.72-.9-1.04-1.17-.04-.04-.07-.09-.07-.14,0-.07.13-.21.51-.49ZM207.04,20.04c0,.09-.04.15-.22.3-.21.18-.5.38-.56.38-.09,0-.12-.04-.3-.28-.34-.5-.55-.74-1.09-1.23-.06-.06-.08-.09-.08-.13,0-.13.57-.57.75-.57.25,0,1.5,1.28,1.5,1.54Z"/>
        <path d="M213.03,22.08c.97-.25,1.62-.34,2.33-.34,2.13,0,3.36,1.26,3.36,3.42,0,1.88-.81,3.39-2.45,4.59-.87.64-2.19,1.29-2.62,1.29-.2,0-.24-.04-.56-.5-.22-.34-.45-.55-.82-.83,1.72-.58,2.44-.96,3.22-1.63.9-.79,1.35-1.75,1.35-2.89,0-1.22-.57-1.91-1.58-1.91-.81,0-1.86.31-3.22.97-.2.09-.3.17-.55.35-.06.03-.12.06-.18.06-.29,0-.77-.84-1.1-1.96.56-.04.84-.12,2.82-.62ZM214.03,18.42c.54.17,1.35.32,2.08.41.3.03.41.04,1.17.08.22,0,.29.06.29.22,0,.5-.11,1.31-.2,1.46-.03.09-.1.12-.21.12-.34,0-1.56-.17-2.26-.31-1.19-.24-2.22-.54-2.43-.71-.05-.04-.08-.11-.08-.17,0-.12.31-.93.46-1.21.08-.12.12-.15.21-.15q.08,0,.96.27Z"/>
        <path d="M223.72,21.16c0-.44-.02-1.02-.04-1.35.69.07,1.2.18,1.6.33.36.14.48.23.48.39q0,.09-.06.24c-.2.51-.25,1.08-.25,2.44,0,1.92.12,3.12.42,4.04.22.71.57,1.11.97,1.11.62,0,1.12-.72,1.68-2.38.28.77.39.99.81,1.53.08.1.12.21.12.31,0,.24-.22.75-.53,1.19-.58.85-1.33,1.32-2.13,1.32-1.15,0-2.02-.93-2.56-2.77-.34-1.2-.51-2.71-.51-4.81v-1.58ZM232.65,21.4c.09,0,.17.04.29.15.75.72,1.53,1.92,2.03,3.09.33.79.64,1.86.64,2.17,0,.15-.08.23-.39.39-.34.18-1.05.42-1.23.42-.13,0-.19-.08-.24-.34-.2-1.16-.46-2-.93-2.97-.42-.87-.45-.92-1.47-2.17.63-.46,1.12-.73,1.3-.73Z"/>
        <path d="M241.95,22.08c.97-.25,1.62-.34,2.33-.34,2.13,0,3.36,1.26,3.36,3.42,0,1.88-.81,3.39-2.45,4.59-.87.64-2.19,1.29-2.62,1.29-.2,0-.24-.04-.56-.5-.22-.34-.45-.55-.82-.83,1.72-.58,2.44-.96,3.22-1.63.9-.79,1.35-1.75,1.35-2.89,0-1.22-.57-1.91-1.58-1.91-.81,0-1.86.31-3.22.97-.2.09-.3.17-.55.35-.06.03-.12.06-.18.06-.29,0-.77-.84-1.1-1.96.56-.04.84-.12,2.82-.62ZM242.95,18.42c.54.17,1.35.32,2.08.41.3.03.41.04,1.17.08.22,0,.29.06.29.22,0,.5-.11,1.31-.2,1.46-.03.09-.1.12-.21.12-.34,0-1.56-.17-2.26-.31-1.19-.24-2.22-.54-2.43-.71-.05-.04-.08-.11-.08-.17,0-.12.31-.93.46-1.21.08-.12.12-.15.21-.15q.08,0,.96.27Z"/>
        <path d="M251.55,30.16c.86-.93,1.22-1.5,1.59-2.54l1.4.58c-.46,1.17-.83,1.8-1.67,2.86l-1.32-.91ZM257.34,18.73c0-.32-.01-.58-.08-.92h1.77c-.04.3-.08.57-.08.92v.13h3.39c.71,0,1.08-.01,1.53-.09v1.39c-.44-.04-.78-.06-1.53-.06h-.81c-.13.31-.25.52-.42.85h1.95c.86,0,1.25-.01,1.67-.08v1.4c-.42-.06-.84-.08-1.68-.08h-9.6c-.81,0-1.23.01-1.65.08v-1.4c.4.06.85.08,1.71.08h1.79c-.12-.33-.18-.48-.38-.85h-.79c-.72,0-1.08.01-1.47.06v-1.39c.39.06.83.09,1.53.09h3.15v-.13ZM254.73,27.33c-.62,0-.96.01-1.4.03.03-.29.04-.53.04-1.07v-2.28c0-.58-.01-.92-.06-1.29.38.03.76.04,1.56.04h6.69c.87,0,1.2-.02,1.58-.04-.04.33-.06.67-.06,1.29v2.16c0,.46.01.75.06,1.19-.19,0-.22,0-.48-.02h-.39c-.18-.01-.31-.01-.39-.01h-3.29c.44.29.65.45,1.42,1.12l-1.18.95c-.66-.75-.72-.79-1.63-1.53l.72-.54h-3.19ZM254.88,24.53h6.71v-.6h-6.71v.6ZM254.88,26.18h6.71v-.58h-6.71v.58ZM260.5,28.52v-.15c.51.22.79.3,1.47.39-.04,1.08-.15,1.53-.42,1.83-.39.43-1,.53-3.48.53s-2.99-.17-2.99-1.02v-1.26c0-.48-.01-.78-.08-1.07h1.65c-.04.36-.06.56-.06,1.07v.63c0,.17.04.22.22.27.17.05.76.09,1.29.09,1.29,0,1.84-.04,2.08-.15.13-.06.19-.17.24-.39.03-.15.06-.46.06-.62v-.15ZM259.5,20.96c.18-.34.25-.51.41-.85h-3.39c.15.31.2.42.38.85h2.61ZM263.61,30.89c-.71-1.17-1.14-1.77-1.96-2.7l1.26-.72c.9.96,1.4,1.58,2.01,2.52l-1.31.9Z"/>
        <path d="M269.22,28.59v-.71h-1.3v1.49h-1.51c.04-.44.08-.96.08-1.74v-7.14c0-.63-.02-1.11-.06-1.48.38.04.67.06,1.29.06h1.7c.54,0,.88-.01,1.24-.06-.01.25-.03.69-.03,1.44v6.57c0,.6.01.98.04,1.44,1.23-1.04,2.23-2.31,2.91-3.71h-1.46c-.51,0-.86.02-1.2.06v-1.59c.46.05.62.06,1.21.06h1.95v-1.89h-1.2c-.64,0-1.14.01-1.58.06v-1.56c.44.04.93.08,1.58.08h1.2v-.86c0-.51-.02-.79-.06-1.14h1.65c-.06.34-.08.61-.08,1.14v.86h1.58c.72,0,1.18-.03,1.6-.09v1.59c-.46-.04-.99-.07-1.63-.07h-1.54v1.89h1.98c.75,0,1.26-.03,1.71-.08v1.62c-.4-.04-1-.08-1.71-.08h-1.6c.79,1.67,1.95,2.91,3.75,4.05-.38.55-.6.98-.86,1.56-1.75-1.37-2.73-2.55-3.31-4.07.03.62.04.87.04,1.42v2.07c0,.58.01.99.08,1.46h-1.67c.04-.45.08-.88.08-1.46v-2.1c0-.51.01-.87.03-1.47-.43.99-.81,1.58-1.51,2.42-.66.79-1.26,1.33-2.04,1.88-.33-.5-.61-.81-1.09-1.23.54-.33.74-.46,1.02-.69h-1.26ZM267.91,26.49h1.3v-5.94h-1.3v5.94Z"/>
        <path d="M282.34,22.43c-.27.02-.43.03-.61.05-.14.01-.15.01-.17.01-.12,0-.18-.04-.23-.2-.08-.24-.18-1.04-.19-1.48.17.01.6.03,1.14.03.17,0,1.35-.07,1.88-.12.25-1.21.34-1.84.34-2.65,1.54.21,2.1.39,2.1.67,0,.11-.01.13-.24.48-.12.18-.17.34-.42,1.27.7-.12,1.12-.22,1.68-.41.1-.03.15-.04.22-.04.11,0,.13.08.23.51.07.38.12.69.12.85,0,.18-.04.21-.43.3-.51.12-1.38.27-2.31.39-.56,1.68-.93,2.58-1.62,3.99-.53,1.05-.83,1.61-1.23,2.24-.12.18-.19.24-.3.24-.15,0-.57-.22-1.09-.61-.24-.17-.3-.24-.3-.35s.06-.19.25-.46c.43-.54,1-1.47,1.5-2.46.42-.82.57-1.17,1-2.35-.58.04-.63.06-1.32.1ZM287.28,31.07c-1.64,0-2.75-.9-2.75-2.23s1.15-2.42,2.7-2.42c.36,0,.53.01,1.14.11-.06-.72-.06-1.01-.12-2.4,0-.29-.03-.67-.06-1.16.77.08,1.35.17,1.64.29.12.04.18.12.18.24,0,.08-.01.13-.03.24-.08.31-.09.54-.09.94,0,.56.04,1.5.09,2.24,1.07.48,1.5.72,2.25,1.3.33.25.45.39.45.51,0,.15-.08.29-.5.96-.18.3-.31.44-.42.44q-.09,0-.51-.39c-.33-.33-.71-.58-1.23-.9,0,1.39-1.02,2.23-2.74,2.23ZM287.25,27.86c-.72,0-1.21.34-1.21.87,0,.5.45.81,1.12.81.79,0,1.21-.41,1.21-1.2,0-.12,0-.24-.02-.24-.3-.15-.7-.24-1.11-.24ZM292.86,23.6c-.18.26-.27.33-.38.33-.08,0-.13-.03-.24-.13-.38-.36-.9-.75-1.46-1.09q-.36-.22-1.02-.53c-.21-.09-.29-.15-.29-.27,0-.11.08-.24.3-.58.36-.53.45-.62.58-.62.28,0,1.39.57,2.19,1.11.65.43.84.61.84.78,0,.12-.24.57-.54,1Z"/>
        <path d="M300.87,27.6c-.72,1.25-1.71,1.94-2.73,1.94-1.56,0-2.67-1.53-2.67-3.66,0-2.37,1.2-4.41,3.25-5.49,1-.54,2.08-.78,3.51-.78,3.14,0,5.46,2.22,5.46,5.19,0,2.62-1.29,4.51-3.78,5.58-.5.21-.89.33-1.08.33-.18,0-.25-.06-.45-.34-.25-.39-.54-.68-.95-.95,3.09-.79,4.49-2.25,4.49-4.68,0-1.25-.53-2.29-1.46-2.96-.53-.36-.95-.51-1.77-.64-.42,3.16-.92,4.89-1.83,6.46ZM298.71,22.29c-1,.88-1.58,2.15-1.58,3.55,0,1.16.38,1.83,1,1.83.75,0,1.52-1.04,2.08-2.82.36-1.12.54-1.98.77-3.65-1.07.23-1.59.48-2.28,1.08Z"/>
        <path d="M311.13,23.55c-.12.03-.18.06-.27.11-.08.04-.12.06-.2.06-.32,0-.55-.58-.74-1.69.12.01.23.01.29.01.63,0,2.24-.2,3.2-.39.31-1.32.48-2.31.48-3.03,0-.06,0-.13-.01-.25.64.08,1.26.21,1.68.38.24.09.36.22.36.38,0,.08-.02.12-.09.24q-.23.4-.69,2.05c.36-.04.76-.08,1.02-.08.62,0,1.1.12,1.44.36.6.43.9,1.32.9,2.68,0,2.24-.41,4.14-1.1,5.08-.48.66-1.11.97-1.99.97-.54,0-1.05-.07-1.2-.17q-.12-.07-.17-.63c-.04-.4-.13-.75-.32-1.17.78.25.98.3,1.46.3.72,0,1.02-.34,1.35-1.54.23-.79.35-1.83.35-2.92,0-1.17-.29-1.59-1.08-1.59-.27,0-.71.03-1.05.09-.04.17-.06.18-.12.39-.42,1.53-1.19,3.55-1.95,5.17-.79,1.63-.99,1.96-1.18,1.96-.12,0-.53-.21-.96-.5-.35-.21-.44-.3-.44-.42q0-.08.62-1.05c.83-1.28,1.91-3.78,2.28-5.25-1.11.24-1.73.39-1.86.43ZM318.78,21.87c0-.1.14-.24.57-.58.3-.22.45-.31.55-.31.09,0,.17.04.36.24.88.86,1.71,2,2.19,2.99.15.33.24.54.24.63,0,.15-.04.2-.52.58-.3.24-.65.43-.77.43-.1,0-.15-.04-.25-.3-.3-.73-.58-1.3-.94-1.86-.39-.6-.47-.69-1.35-1.64-.06-.09-.08-.13-.08-.18Z"/>
        <path d="M98.86,49.73c-.71,0-1.15.03-1.56.08v-1.04c-.65.38-.98.56-1.58.84q-.42-.82-.95-1.53c1.35-.53,2.52-1.17,3.46-1.91.5-.38,1.16-1,1.61-1.5.29-.34.45-.55.76-1.05h1.84c.79,1.09,1.49,1.79,2.55,2.54,1.2.87,2.13,1.35,3.54,1.84-.51.73-.69,1.06-.93,1.65-.66-.3-1.05-.51-1.71-.92v1.07c-.43-.06-.85-.08-1.53-.08h-2.02v1.63h2.33c.75,0,1.21-.03,1.59-.07v1.62c-.39-.04-.9-.07-1.59-.07h-2.33v1.93h3.73c.78,0,1.4-.03,1.85-.09v1.68c-.48-.06-1.1-.09-1.83-.09h-8.98c-.74,0-1.31.03-1.79.09v-1.68c.4.06,1.02.09,1.83.09h3.57v-1.93h-2.13c-.69,0-1.2.03-1.58.07v-1.62c.45.06.87.07,1.58.07h2.13v-1.63h-1.88ZM104.46,48.27c.27,0,.39,0,.67-.01-1.6-1.07-2.5-1.91-3.54-3.27-.84,1.24-1.88,2.22-3.48,3.27.3.01.44.01.65.01h5.7Z"/>
        <path d="M111.82,48.12c.41.3.81.66,1.19,1.04.27-.3.39-.47.64-.83-.36-.34-.69-.62-1.25-1l.71-.96c.46.3.75.51,1.17.88.23-.48.33-.75.54-1.46h-1.89c-.66,1.25-1.62,2.42-2.64,3.22-.33-.48-.58-.76-1.02-1.11,1.11-.78,1.89-1.7,2.5-2.97.29-.6.42-.99.5-1.52l1.58.2c-.06.12-.08.15-.12.29q-.04.12-.13.33s0,.03-.09.27h1.14c.46,0,.76-.01,1.04-.06l.78.79q-.07.24-.17.54c-.04.13-.15.46-.22.69.36.03.66.04,1.16.04h.45c.05-.51.06-.92.06-1.48,0-.79-.01-1.04-.08-1.44h1.65c-.04.34-.06.51-.06,1.28,0,.5-.01.76-.08,1.65h1.71c.63,0,1.1-.03,1.52-.09v1.58c-.45-.06-.89-.09-1.52-.09h-1.57c.36.93.81,1.57,1.57,2.31.65.6,1.08.88,1.94,1.29-.38.5-.54.78-.81,1.51-1.68-.99-2.86-2.25-3.48-3.73-.29.75-.74,1.51-1.18,2.02-.5.57-1.16,1.07-2.13,1.62-.24-.48-.48-.79-.96-1.27,1.08-.5,1.65-.93,2.24-1.65.43-.54.76-1.25.97-2.1h-.24c-.69,0-.9.01-1.4.08v-.86c-.57,1.49-1.23,2.54-2.31,3.64-.42.44-1.07.96-1.71,1.4-.38.24-.67.42-1.5.85-.22-.52-.45-.87-.93-1.33,1.29-.57,1.83-.9,2.7-1.62-.31-.39-.76-.82-1.12-1.08l.87-.87ZM109.48,55.86c.93-.97,1.44-1.79,1.95-3.07l1.33.61c-.62,1.62-1.02,2.33-1.96,3.51l-1.32-1.05ZM113.88,56.72c-.03-1.44-.11-2.33-.32-3.44l1.42-.17c.27,1.26.34,1.91.45,3.44l-1.56.17ZM117.25,56.6c-.18-1.29-.4-2.16-.84-3.29l1.38-.3c.48,1.18.74,1.96,1.02,3.27l-1.56.32ZM121.24,56.75c-.72-1.53-1.14-2.2-2.04-3.33l1.18-.74c1.12,1.37,1.58,2.03,2.25,3.27l-1.39.79ZM120.69,43.7c.52.58.99,1.2,1.32,1.79l-1.18.75c-.42-.84-.66-1.18-1.26-1.89l1.12-.64Z"/>
        <path d="M127.05,54.2q0-1.63.01-2.34c-.75.83-1.26,1.49-1.51,1.95-.08.15-.18.24-.27.24-.15,0-.51-.32-.99-.86-.19-.24-.28-.38-.28-.43q0-.11.76-.86c.64-.64,1.51-1.67,2.33-2.74,0-.09,0-.44.01-1.04-.74.13-1.68.39-1.93.52-.15.08-.18.09-.25.09-.26,0-.47-.58-.66-1.75.79-.01,1.79-.12,2.88-.3,0-.54.01-1.3.01-1.72,0-.45-.03-.81-.09-1.11.95.06,1.41.12,1.83.23.22.06.31.15.31.31,0,.08-.03.15-.09.3-.15.3-.17.41-.29,1.59.36.22.71.6.71.79q0,.13-.46.7c-.04.06-.18.26-.41.54q-.01.48-.01.58c1.47-1.24,2.71-1.77,4.18-1.77,2.34,0,3.81,1.49,3.81,3.87,0,1.83-.84,3.19-2.57,4.12-.66.38-1.79.78-2.12.78-.09,0-.19-.03-.24-.09t-.23-.3c-.25-.36-.54-.65-.84-.86,2.99-.81,4.17-1.86,4.17-3.7,0-1.44-.85-2.37-2.21-2.37-.88,0-1.69.29-2.65.92q-.48.31-1.33,1.04.01.12.01.31c0,1.61,0,1.74.09,4.89.02.17.02.29.02.32,0,.29-.21.34-1.31.34-.39,0-.42-.04-.42-.46l.02-1.74Z"/>
        <path d="M140.07,49.07c-.12.03-.18.06-.27.11-.08.04-.12.06-.2.06-.32,0-.55-.58-.74-1.69.12.01.23.01.29.01.63,0,2.24-.2,3.2-.39.31-1.32.48-2.31.48-3.03,0-.06,0-.13-.01-.25.64.08,1.26.21,1.68.38.24.09.36.22.36.38,0,.08-.02.12-.09.24q-.23.4-.69,2.05c.36-.04.76-.08,1.02-.08.62,0,1.1.12,1.44.36.6.43.9,1.32.9,2.68,0,2.24-.41,4.14-1.1,5.08-.48.66-1.11.97-1.99.97-.54,0-1.05-.07-1.2-.17q-.12-.07-.17-.63c-.04-.4-.13-.75-.32-1.17.78.25.98.3,1.46.3.72,0,1.02-.34,1.35-1.54.23-.79.35-1.83.35-2.92,0-1.17-.29-1.59-1.08-1.59-.27,0-.71.03-1.05.09-.04.17-.06.18-.12.39-.42,1.53-1.19,3.55-1.95,5.17-.79,1.63-.99,1.96-1.18,1.96-.12,0-.53-.21-.96-.5-.35-.21-.44-.3-.44-.42q0-.08.62-1.05c.83-1.28,1.91-3.78,2.28-5.25-1.11.24-1.73.39-1.86.43ZM147.72,47.39c0-.1.14-.24.57-.58.3-.22.45-.31.55-.31.09,0,.17.04.36.24.88.86,1.71,2,2.19,2.99.15.33.24.54.24.63,0,.15-.04.2-.52.58-.3.24-.65.43-.77.43-.1,0-.15-.04-.25-.3-.3-.73-.58-1.3-.94-1.86-.39-.6-.47-.69-1.35-1.64-.06-.09-.08-.13-.08-.18Z"/>
        <path d="M159.96,44.48c.18.12.25.21.25.32s-.01.12-.24.38c-.08.09-.3.42-.54.83q-.75,1.25-1.16,1.96c-.42.71-.69,1.18-.84,1.41q-.04.07-.25.45c-.2.35-.32.53-.53.81.97-.86,1.5-1.08,2.49-1.08.66,0,1.25.29,1.62.78.31.42.4.81.54,2.28.07.88.15,1.28.25,1.5.1.21.31.33.58.33,1.03,0,2.26-1.25,2.86-2.88.15.63.27.93.58,1.49.11.18.14.3.14.45,0,.17-.08.38-.26.66-.78,1.26-2.05,2.01-3.42,2.01-.86,0-1.58-.3-1.95-.79-.3-.42-.44-.97-.56-2.44-.07-.96-.15-1.29-.36-1.53-.17-.18-.41-.27-.74-.27-.99,0-2.29,1.33-3.06,3.1-.22.51-.38.97-.54,1.54-.06.22-.13.32-.24.32-.31,0-1.04-.3-1.42-.58-.1-.09-.15-.15-.15-.24,0-.08.03-.15.22-.57.12-.27.17-.34.27-.62q1.11-2.59,4.19-8.82c.34-.69.51-1.12.61-1.58.78.29,1.14.47,1.62.79Z"/>
        <path d="M169.12,47.94c-.27.02-.43.03-.61.05-.14.01-.15.01-.17.01-.12,0-.18-.04-.23-.2-.08-.24-.18-1.04-.19-1.48.17.01.6.03,1.14.03.17,0,1.35-.07,1.88-.12.25-1.21.34-1.84.34-2.65,1.54.21,2.1.39,2.1.67,0,.11-.01.13-.24.48-.12.18-.17.34-.42,1.27.7-.12,1.12-.22,1.68-.41.1-.03.15-.04.22-.04.11,0,.13.08.23.51.07.38.12.69.12.85,0,.18-.04.21-.43.3-.51.12-1.38.27-2.31.39-.56,1.68-.93,2.58-1.62,3.99-.53,1.05-.83,1.61-1.23,2.24-.12.18-.19.24-.3.24-.15,0-.57-.22-1.09-.61-.24-.17-.3-.24-.3-.35s.06-.19.25-.46c.43-.54,1-1.47,1.5-2.46.42-.82.57-1.17,1-2.35-.58.04-.63.06-1.32.1ZM174.06,56.58c-1.64,0-2.75-.9-2.75-2.23s1.15-2.42,2.7-2.42c.36,0,.53.01,1.14.11-.06-.72-.06-1.01-.12-2.4,0-.29-.03-.67-.06-1.16.77.08,1.35.17,1.64.29.12.04.18.12.18.24,0,.08-.01.13-.03.24-.08.31-.09.54-.09.94,0,.56.04,1.5.09,2.24,1.07.48,1.5.72,2.25,1.3.33.25.45.39.45.51,0,.15-.08.29-.5.96-.18.3-.31.44-.42.44q-.09,0-.51-.39c-.33-.33-.71-.58-1.23-.9,0,1.39-1.02,2.23-2.74,2.23ZM174.03,53.37c-.72,0-1.21.34-1.21.87,0,.5.45.81,1.12.81.79,0,1.21-.41,1.21-1.2,0-.12,0-.24-.02-.24-.3-.15-.7-.24-1.11-.24ZM179.64,49.11c-.18.26-.27.33-.38.33-.08,0-.13-.03-.24-.13-.38-.36-.9-.75-1.46-1.09q-.36-.22-1.02-.53c-.21-.09-.29-.15-.29-.27,0-.11.08-.24.3-.58.36-.53.45-.62.58-.62.28,0,1.39.57,2.19,1.11.65.43.84.61.84.78,0,.12-.24.57-.54,1Z"/>
        <path d="M182.8,46.67c0-.44-.02-1.02-.04-1.35.69.07,1.2.18,1.6.33.36.14.48.23.48.39q0,.09-.06.24c-.2.51-.25,1.08-.25,2.44,0,1.92.12,3.12.42,4.04.22.71.57,1.11.97,1.11.62,0,1.12-.72,1.68-2.38.28.77.39.99.81,1.53.08.1.12.21.12.31,0,.24-.22.75-.53,1.19-.58.85-1.33,1.32-2.13,1.32-1.15,0-2.02-.93-2.56-2.77-.34-1.2-.51-2.71-.51-4.81v-1.58ZM191.73,46.91c.09,0,.17.04.29.15.75.72,1.53,1.92,2.03,3.09.33.79.64,1.86.64,2.17,0,.15-.08.23-.39.39-.34.18-1.05.42-1.23.42-.13,0-.19-.08-.24-.34-.2-1.16-.46-2-.93-2.97-.42-.87-.45-.92-1.47-2.17.63-.46,1.12-.73,1.3-.73Z"/>
        <path d="M203.38,48.78c.03,1.12.06,1.71.21,3.21,1.26.41,1.86.66,2.75,1.14,1.18.67,1.79,1.12,1.79,1.33,0,.18-.2.52-.54,1.02-.23.33-.39.48-.51.48-.08,0-.14-.03-.24-.14-1.07-1.02-1.92-1.57-3.18-2.08-.03.91-.2,1.39-.63,1.84-.53.52-1.44.81-2.62.81-1.96,0-3.17-.87-3.17-2.29,0-1.51,1.32-2.47,3.38-2.47.5,0,.93.03,1.3.08-.15-2.46-.2-3.65-.21-5.85-.01-.87-.04-1.39-.13-2.1.69.02,1.38.09,1.79.2.24.08.33.15.33.31,0,.08-.01.12-.06.24-.17.39-.22.96-.25,2.62q.12,0,.58-.03c.72-.04,1.74-.22,2.88-.54.04-.01.08-.01.12-.01.09,0,.12.03.18.18.15.36.32,1.1.32,1.35,0,.12-.06.17-.2.21-1.16.27-2.77.5-3.66.5h-.21ZM200.44,53.1c-1.02,0-1.63.34-1.63.92,0,.53.51.79,1.46.79,1.15,0,1.66-.41,1.66-1.35v-.12c-.49-.18-.92-.24-1.48-.24Z"/>
        <path d="M215.49,47.6c.97-.25,1.62-.34,2.33-.34,2.13,0,3.36,1.26,3.36,3.42,0,1.88-.81,3.39-2.45,4.59-.87.64-2.19,1.29-2.62,1.29-.2,0-.24-.04-.56-.5-.22-.34-.45-.55-.82-.83,1.72-.58,2.44-.96,3.22-1.63.9-.79,1.35-1.75,1.35-2.89,0-1.22-.57-1.91-1.58-1.91-.81,0-1.86.31-3.22.97-.2.09-.3.17-.55.35-.06.03-.12.06-.18.06-.29,0-.77-.84-1.1-1.96.56-.04.84-.12,2.82-.62ZM216.49,43.94c.54.17,1.35.32,2.08.41.3.03.41.04,1.17.08.22,0,.29.06.29.22,0,.5-.11,1.31-.2,1.46-.03.09-.1.12-.21.12-.34,0-1.56-.17-2.26-.31-1.19-.24-2.22-.54-2.43-.71-.05-.04-.08-.11-.08-.17,0-.12.31-.93.46-1.21.08-.12.12-.15.21-.15q.08,0,.96.27Z"/>
        <path d="M224.89,50.13c.55-.67.83-.92,1.48-1.33.92-.57,1.59-.78,2.46-.78.69,0,1.29.13,1.94.45q.39.2,1.36.83c1.14.73,1.94,1.05,2.66,1.05.31,0,.75-.12,1.11-.29.64-.33,1.03-.66,1.56-1.37l1.2,1.2c-.62.78-.93,1.09-1.42,1.46-.77.57-1.62.86-2.6.86-.45,0-.92-.08-1.32-.21-.58-.19-.89-.34-2.06-1.11-1.32-.84-1.78-1.02-2.58-1.02-.98,0-1.67.36-2.61,1.38l-1.18-1.11Z"/>
      </g>
      <circle class="cls-12" cx="31.42" cy="60.58" r="30"/>
      <g>
        <path class="cls-1" d="M325.81,212.67c1.81.14,1.23,2.13.34,3.29-.19.24-.54.27-.77.08-1.57-1.34-1.02-3.48.43-3.36Z"/>
        <path class="cls-1" d="M325.71,213.46c-.31,0-.57-.25-.57-.57v-3.57l-.9-1.25c-.18-.25-.12-.61.13-.79.25-.18.61-.12.79.13l1,1.4c.07.1.11.21.11.33v3.75c0,.31-.25.57-.57.57Z"/>
        <polygon class="cls-6" points="322.87 203.74 316.74 203.17 319.47 208.67 325.71 209.34 322.87 203.74"/>
        <rect class="cls-6" x="316.16" y="206.84" width="6.67" height="2.9" transform="translate(198.83 -153.52) rotate(38.45)"/>
        <path class="cls-1" d="M321.23,212.52c-.12,0-.25-.04-.35-.12-.25-.19-.29-.55-.09-.8l2.25-2.85c.12-.15.31-.23.51-.21l1.19.13-2.23-4.39-4.8-.45.7,1.41c.1.19.07.42-.06.59l-1.81,2.4c-.19.25-.54.3-.79.11-.25-.19-.3-.54-.11-.79l1.6-2.12-.99-2.01c-.09-.18-.08-.4.04-.57.12-.17.31-.27.52-.24l6.12.57c.19.02.37.13.45.31l2.84,5.6c.09.19.08.41-.04.58-.12.17-.32.26-.53.24l-1.92-.2-2.06,2.61c-.11.14-.28.22-.45.22Z"/>
        <path class="cls-7" d="M317.19,235.48l4.18-1.62,2.02-5.47-.29-8.15-2.24-7.54-3.74-4.67-5.59-1.9-5.52-.3-7.14,3.84-3.23,5.74-3.98,4.71-1.8,4.98,1.36,4.52,9.81,4.92c2.84,1.15,12.97,1.45,16.17.94Z"/>
        <path class="cls-13" d="M290.28,221.83c4.88.32,7.71,5.48,5.9,11.02-4.77-2.59-7.43-5.23-5.9-11.02Z"/>
        <path class="cls-13" d="M323.46,225.58c-5.64-.78-9.96,4.07-9.08,10.38,5.99-1.67,9.58-3.87,9.08-10.38Z"/>
        <path class="cls-1" d="M301.77,214.72c1.6-.65,3.04-.03,3.72,1.21.16.29-.14.55-.45.39-1.01-.51-1.99-.76-3.07-.96-.36-.07-.49-.51-.19-.64Z"/>
        <path class="cls-1" d="M314.47,217.16c-1.18-1.26-2.75-1.29-3.88-.44-.27.2-.1.55.25.54,1.13-.04,2.13.14,3.2.4.36.09.66-.26.44-.5Z"/>
        <path class="cls-1" d="M310.47,226.2c-.14,0-.27-.05-.39-.14-.25-.21-.29-.59-.07-.85.68-.81,1.51-1.23,2.34-1.19.75.04,1.43.46,1.93,1.18.19.27.12.65-.15.84-.27.19-.65.12-.84-.15-.2-.29-.53-.64-1-.66-.44-.02-.92.25-1.36.77-.12.14-.29.21-.46.21Z"/>
        <path class="cls-1" d="M303.02,224.94c-.19,0-.37-.09-.49-.25-.37-.52-.72-.8-1-.81,0,0,0,0-.02,0-.33,0-.68.34-.92.64-.21.26-.59.29-.85.08-.26-.21-.29-.59-.08-.85.6-.74,1.23-1.1,1.9-1.08.7.02,1.33.45,1.94,1.31.19.27.13.65-.14.84-.11.08-.23.11-.35.11Z"/>
        <path class="cls-1" d="M313.25,236.53c-.31,0-.56-.25-.57-.56,0-.31.24-.57.56-.58,3.72-.08,6.39-.95,7.93-2.58,1.98-2.1,1.87-5.19,1.79-7.45l-.02-.46c-.13-4.27-1.4-18.26-12.21-18.99-9.16-.62-12.59,5.21-14.85,9.07-.46.78-.86,1.46-1.24,1.98-.11.15-.23.31-.37.48-1.58,2.06-4.51,5.88-3.4,9.55.8,2.64,3.61,4.79,8.34,6.41,1.43.49,2.87.87,4.3,1.14.31.06.51.35.45.66s-.36.51-.66.45c-1.48-.28-2.97-.67-4.45-1.18-5.1-1.74-8.15-4.15-9.07-7.16-1.28-4.23,2.01-8.51,3.59-10.57.13-.17.25-.33.36-.47.35-.47.73-1.12,1.17-1.87,2.26-3.85,6.04-10.29,15.91-9.63,5.1.34,8.83,3.35,11.1,8.93,1.72,4.24,2.1,8.81,2.17,11.16l.02.46c.09,2.46.21,5.83-2.1,8.27-1.78,1.89-4.64,2.85-8.73,2.94,0,0,0,0-.01,0Z"/>
        <path class="cls-1" d="M301.36,223.63c-.06,0-.12-.02-.18-.06-.75-.6-1.14-1.21-1.43-2.27-.04-.15.05-.31.2-.35.15-.04.31.05.35.2.29,1.07.66,1.52,1.23,1.97.12.1.14.28.05.4-.06.07-.14.11-.22.11Z"/>
        <path class="cls-1" d="M313.35,225.16c-.14,0-.26-.1-.28-.25-.02-.16.09-.3.24-.32.67-.09,1.43-.66,1.87-1.39.08-.13.25-.18.39-.1.13.08.18.25.1.39-.52.88-1.44,1.55-2.28,1.67-.01,0-.03,0-.04,0Z"/>
        <path class="cls-1" d="M314.7,225.7c-.37,0-.75-.07-1.12-.24-.14-.07-.21-.23-.14-.38.07-.14.23-.2.38-.14.86.39,1.83.09,2.49-.24.14-.07.31-.01.38.13.07.14.01.31-.13.38-.5.25-1.16.48-1.86.48Z"/>
        <path class="cls-1" d="M300.49,223.63c-.8,0-1.66-.46-2.34-1.26-.1-.12-.09-.3.03-.4.12-.1.3-.09.4.03.62.73,1.4,1.13,2.07,1.05.16-.02.3.09.31.25.02.16-.09.3-.25.31-.07,0-.15.01-.22.01Z"/>
        <g>
          <path class="cls-4" d="M310.66,229.36c-.67-1.83-3.64-3.8-5.16-3.59-1.51.21-4.7,2.06-5.7,2s-1.68-.73-1.8,1.59,1.7,3.51,4.13,2.66c3.37,1.92,9.68.49,8.53-2.66Z"/>
          <path class="cls-4" d="M310.66,231.74c-.75,3.68-4.93,5.84-6.2,5.3-1.26-.54-2.85-1.42-1.47-4.62,2.5.53,6.91-.12,7.03-1.63s.63.96.63.96Z"/>
          <path class="cls-11" d="M304.24,232.74c-.73,1.35-.38,3.07,1.83,1.99,2.21-1.08,2.21-2.29,2.21-2.29,0,0,1.45-.73-.48,0-1.94.73-3.55.3-3.55.3Z"/>
          <path class="cls-1" d="M305.74,233.45c-1.06,0-2.19-.33-3.37-.99-2.29.66-3.56.04-4.23-.6-.84-.81-1.16-2.1-.83-3.37.34-1.28.9-1.38,1.8-1.41.65-.02,1.63-.04,3.22-.88,3.52-1.85,5.58-.79,7.59,1.38.19.2.18.52-.03.7-.2.19-.52.18-.7-.03-1.79-1.93-3.42-2.74-6.4-1.17-1.8.95-2.92.97-3.66.99-.69.02-.69.03-.86.67-.24.91-.02,1.85.55,2.4.71.68,1.91.79,3.46.3.13-.04.28-.02.4.05,1.93,1.13,4.69,1.81,6.88-1.38.13-.19.38-.27.6-.18,0,0,.72.29,1.36.43.27.06.44.32.38.59-.06.27-.33.44-.59.38-.42-.09-.85-.24-1.15-.34-1.22,1.63-2.73,2.45-4.41,2.45Z"/>
          <path class="cls-1" d="M305.05,237.59c-.6,0-1.18-.14-1.7-.42-.85-.46-1.39-1.1-1.6-1.92-.43-1.62.6-3.29.65-3.36.15-.23.45-.3.68-.16.23.15.3.45.16.68,0,.01-.85,1.39-.53,2.59.15.55.51.97,1.11,1.3.86.46,1.92.39,3-.19,1.51-.82,3.14-2.8,3.35-5.36.02-.27.26-.48.54-.45.27.02.48.26.45.54-.21,2.58-1.73,4.99-3.86,6.15-.76.41-1.52.62-2.25.62Z"/>
        </g>
      </g>
      <g>
        <path class="cls-8" d="M40.61,50.39c5.99-4.81,10.66-4.4,11.63-2.77.89,1.5-.2,9.39-9.11,4.98"/>
        <path class="cls-5" d="M44.85,52.97c2.15-3.69,6.52-2.97,7.64-2.44-1.95,3.62-3.96,4.96-7.64,2.44Z"/>
        <path class="cls-1" d="M47.84,54.54c-1.31,0-2.94-.38-4.99-1.39-.3-.15-.42-.51-.28-.82.15-.3.52-.42.82-.28,3.32,1.64,5.84,1.68,7.29.12,1.3-1.4,1.35-3.69,1.02-4.24-.21-.35-.72-.62-1.4-.75-.91-.16-4.27-.39-9.33,3.68-.26.21-.65.17-.86-.09-.21-.26-.17-.65.09-.86,3.68-2.96,7.53-4.43,10.31-3.92,1.04.19,1.83.66,2.23,1.32.64,1.09.43,3.95-1.18,5.69-.75.81-1.93,1.54-3.74,1.54Z"/>
        <path class="cls-8" d="M46.09,64.62c1.64-16.82-17.11-22.8-25.64-13.47-2.97,3.25-5.19,9.02-4.06,15.77-3.29,3.25-2.73,7.92,2.42,10.46,3.1,1.53,6.19,2.19,13.34,2.19,6.63,0,14.3-2.8,16.45-6.93,1.2-2.31.78-5.72-2.5-8.03Z"/>
        <path class="cls-2" d="M35.87,46.99c-.6-4.19-4.15-6.52-4.34-.47"/>
        <path class="cls-2" d="M24.19,48.05c-.51-4.2,2.31-7.38,4.07-1.58"/>
        <path class="cls-8" d="M19.73,51.11c-6.66-3.82-11.21-2.69-11.91-.92-.65,1.62,2.36,9.82,10.47,4.08"/>
        <ellipse class="cls-1" cx="35.35" cy="66.56" rx="1.44" ry="1.56" transform="translate(-9.92 6.31) rotate(-8.95)"/>
        <path class="cls-5" d="M16.46,54.93c-2.15-3.69-7.03-2.78-8.16-2.25,1.95,3.62,4.47,4.77,8.16,2.25Z"/>
        <path class="cls-5" d="M29.29,46.5c1.23,7.46-2.33,14.45-12.53,14.45,0-11.42,12.53-14.45,12.53-14.45Z"/>
        <path class="cls-5" d="M31.53,46.52c0,8.41,6.81,12.72,13.84,13.25,0-11.42-13.84-13.25-13.84-13.25Z"/>
        <path class="cls-5" d="M15.31,73.38c13.81-6.39,25.45-3.61,33.28-.74-3.13,7.57-29.25,10.15-33.28.74Z"/>
        <path class="cls-1" d="M32.15,80.18c-7.59,0-10.64-.79-13.61-2.26-2.68-1.33-4.37-3.31-4.74-5.59-.32-1.98.37-3.96,1.94-5.63-1.1-7.13,1.47-12.92,4.26-15.97,4.25-4.65,11.25-5.93,17.42-3.18,3.01,1.34,5.47,3.51,7.11,6.28,1.79,3.02,2.53,6.54,2.2,10.49,3.38,2.56,3.63,6.22,2.4,8.6-2.36,4.54-10.49,7.26-16.99,7.26ZM30.77,47.34c-3.76,0-7.35,1.46-9.87,4.22-2.64,2.89-5.06,8.42-3.91,15.26.03.2-.03.39-.17.53-1.44,1.42-2.08,3.13-1.81,4.79.3,1.88,1.75,3.54,4.07,4.69,2.8,1.38,5.71,2.13,13.07,2.13,6.88,0,14.01-2.96,15.91-6.6,1.03-1.98.75-5.1-2.31-7.25-.18-.13-.28-.34-.26-.56.71-7.25-2.49-13.19-8.56-15.89-2.01-.89-4.11-1.33-6.15-1.33Z"/>
        <ellipse cx="35.35" cy="66.56" rx="1.44" ry="1.56" transform="translate(-9.92 6.31) rotate(-8.95)"/>
        <ellipse class="cls-1" cx="27.68" cy="66.92" rx="1.56" ry="1.44" transform="translate(-40.55 91.19) rotate(-87.1)"/>
        <path class="cls-1" d="M13.08,56.9c-1.46,0-2.58-.54-3.4-1.18-2.09-1.64-2.9-4.58-2.43-5.75.29-.72.99-1.3,1.99-1.65,2.66-.93,6.69-.08,10.79,2.27.29.17.39.54.22.83-.17.29-.54.39-.83.22-5.62-3.23-8.91-2.48-9.78-2.18-.65.23-1.11.57-1.26.95-.21.53.31,2.97,2.06,4.35,1.89,1.49,4.48,1.14,7.49-.99.27-.19.65-.13.85.15.19.27.13.65-.15.85-2.23,1.58-4.07,2.14-5.55,2.14Z"/>
        <path class="cls-1" d="M35.87,47.59c-.3,0-.56-.22-.6-.52-.32-2.23-1.48-3.66-2.12-3.62-.31.02-.93.69-1,3.09-.01.34-.3.59-.63.59-.34-.01-.6-.29-.59-.63.11-3.61,1.4-4.22,2.15-4.27.03,0,.06,0,.09,0,1.46,0,2.94,2.06,3.31,4.67.05.33-.18.64-.52.69-.03,0-.06,0-.09,0Z"/>
        <path class="cls-1" d="M24.19,48.66c-.3,0-.57-.23-.6-.54-.32-2.66.61-5.08,2.07-5.39.74-.15,2.14.1,3.19,3.56.1.32-.08.66-.41.76-.32.1-.66-.08-.76-.41-.7-2.3-1.46-2.78-1.77-2.72-.62.13-1.38,1.81-1.11,4.05.04.33-.2.64-.53.68-.02,0-.05,0-.07,0Z"/>
        <path class="cls-1" d="M36.62,58.09c-.65-1.09-1.64-1.26-2.41-.7-.18.13-.11.42.12.44.71.07,1.33.3,1.98.61.22.1.44-.14.31-.35Z"/>
        <path class="cls-1" d="M25.72,58.5c.65-1.09,1.64-1.26,2.41-.7.18.13.11.42-.12.44-.71.07-1.33.3-1.98.61-.22.1-.44-.14-.31-.35Z"/>
        <circle class="cls-1" cx="33" cy="72.5" r=".57"/>
        <circle class="cls-1" cx="31.21" cy="72.5" r=".57"/>
        <g>
          <path class="cls-3" d="M27.76,75.57c.26-1.62,1.74-1.61,4.44-1.25,2.71.36,2.2,2.71.36,2.65s-5.11.51-4.8-1.4Z"/>
          <path class="cls-1" d="M30.31,77.46c-1.12,0-2.14-.12-2.67-.72-.29-.32-.39-.74-.31-1.24h0c.36-2.23,2.69-1.92,4.94-1.62,1.77.23,2.33,1.23,2.27,2.01-.06.77-.78,1.57-1.98,1.53-.34,0-.74,0-1.17.02-.36.01-.72.02-1.08.02ZM28.2,75.64c-.05.3.03.44.1.51.42.48,1.94.43,3.05.39.44-.01.85-.03,1.22-.02.66.02,1.04-.34,1.07-.71.03-.42-.42-.91-1.49-1.05-2.96-.39-3.77-.21-3.94.88h0Z"/>
        </g>
      </g>
    </g>
  </g>
</svg>