<?xml version="1.0" encoding="UTF-8"?>
<svg id="_レイヤー_2" data-name="レイヤー 2" xmlns="http://www.w3.org/2000/svg" width="339.66" height="271.16" viewBox="0 0 339.66 271.16">
  <defs>
    <style>
      .cls-1 {
        fill: #211815;
      }

      .cls-2 {
        fill: #f5f19b;
      }

      .cls-3 {
        fill: #ecbb6e;
      }

      .cls-4 {
        fill: #93c9ce;
      }

      .cls-5 {
        fill: #5c948d;
      }

      .cls-6 {
        fill: #fffba1;
      }

      .cls-7, .cls-8 {
        fill: #fff;
      }

      .cls-9 {
        fill: #d3f2c9;
      }

      .cls-10 {
        fill: #de8a4c;
      }

      .cls-11 {
        fill: #ceeaeb;
      }

      .cls-12 {
        fill: #f2d496;
      }

      .cls-8 {
        stroke: #ceeaeb;
        stroke-miterlimit: 10;
        stroke-width: 2.83px;
      }
    </style>
  </defs>
  <g id="_レイヤー_1-2" data-name="レイヤー 1">
    <g>
      <path class="cls-8" d="M9.89,133.82h239.38c4.68,0,8.47,3.79,8.47,8.47v92.05s9.69,9.69,9.69,9.69h-9.69s0,.5,0,.5c0,4.68-3.79,8.47-8.47,8.47H9.89c-4.68,0-8.47-3.79-8.47-8.47v-102.24c0-4.68,3.79-8.47,8.47-8.47Z"/>
      <g>
        <path d="M14.13,150.36c.33.06.62.08,1.16.08h3c.58,0,.79-.01,1.16-.06v1.47c-.29-.03-.48-.04-1.1-.04h-3.06c-.51,0-.81.01-1.16.06v-1.5ZM14.55,161.3c.04-.42.07-.9.07-1.38v-2.14c0-.46-.01-.77-.06-1.14.31.03.66.05,1.09.05h2.4c.58,0,.71,0,.96-.05-.03.32-.03.53-.03,1.05v2.31c0,.58.01.84.03,1.11h-1.4v-.48h-1.63v.67h-1.44ZM14.6,148.35c.36.04.6.06,1.2.06h2.1c.58,0,.84-.02,1.2-.06v1.38c-.36-.03-.67-.04-1.2-.04h-2.1c-.52,0-.87.01-1.2.04v-1.38ZM14.64,152.57c.25.03.48.04.94.04h2.54c.46,0,.67-.01.92-.04v1.35c-.32-.03-.51-.04-.92-.04h-2.54c-.46,0-.64.02-.94.04v-1.35ZM14.64,154.56c.29.03.48.04.94.04h2.52c.48,0,.66-.01.93-.04v1.35c-.32-.04-.46-.04-.95-.04h-2.52c-.45,0-.67.02-.93.04v-1.35ZM15.99,159.36h1.63v-1.44h-1.63v1.44ZM23.02,150.06h-1.62c-.69,0-1.19.03-1.65.09v-1.63c.44.06.93.09,1.65.09h4.27c.71,0,1.2-.03,1.65-.09v1.63c-.44-.06-.95-.09-1.65-.09h-1.15v3.51h1.18c.69,0,.96-.01,1.41-.08v1.61c-.45-.06-.75-.08-1.41-.08h-1.18v4.23h1.38c.63,0,1.12-.03,1.6-.09v1.67c-.48-.06-.97-.09-1.63-.09h-4.88c-.71,0-1.2.03-1.6.08v-1.62c.27.04.48.06.88.06v-5.52c0-.73-.02-1.06-.08-1.59h1.62c-.06.42-.08.81-.08,1.59v5.52h1.28v-9.19Z"/>
        <path d="M32.58,152.99c.32-.48.5-.79.72-1.26h-2.04c-.69,0-1.12.01-1.59.06v-1.53c.42.08.81.09,1.59.09h.2c-.24-.51-.55-.99-1.02-1.62l1.5-.45c.45.66.81,1.31,1.15,2.07h.75c.24-.74.45-1.88.45-2.36,0-.01,0-.06-.01-.1l1.74.2c-.06.19-.1.42-.19.81-.09.41-.25,1.02-.41,1.46h1.44c.62-.78.92-1.28,1.29-2.12l1.64.45c-.77,1.16-.81,1.23-1.17,1.67h.69c.81,0,1.18-.01,1.62-.09v1.53c-.46-.04-.92-.06-1.62-.06h-2.08c.29.58.42.83.69,1.26h2.25c.84,0,1.18-.01,1.6-.09v1.54c-.45-.04-.92-.08-1.6-.08h-1.14c.92.92,1.74,1.44,3.15,1.96-.45.54-.6.78-.9,1.53-1-.54-1.41-.81-2.22-1.47-.11,2.04-.24,3.17-.48,3.76-.27.71-.76.92-2.13.92-.34,0-.63-.02-1.24-.04-.09-.77-.15-1.02-.36-1.54.71.1,1.25.15,1.68.15.38,0,.57-.09.63-.3.14-.41.21-.99.29-2.38h-2.33c-.27,1.18-.57,1.83-1.23,2.55-.81.88-1.88,1.47-3.42,1.88-.25-.64-.48-1-.87-1.42.88-.2,1.29-.33,1.82-.57,1.21-.6,1.8-1.29,2.08-2.43h-.44c-.67,0-1.11.01-1.53.08v-.72c-.74.6-1.19.91-2.12,1.44-.21-.54-.45-.85-.99-1.32,1.47-.69,2.16-1.15,3.04-2.05h-1.09c-.74,0-1.14.02-1.59.08v-1.54c.4.08.79.09,1.59.09h2.22ZM33.39,154.37c-.39.5-.66.81-1.08,1.23h5.85c-.41-.42-.67-.75-1.02-1.23h-3.75ZM36.28,152.99c-.25-.48-.32-.63-.57-1.26h-.79c-.2.46-.36.78-.62,1.26h1.98Z"/>
        <path d="M46.07,152.73c-.96.6-1.29.78-2.31,1.25-.25-.58-.48-.97-.84-1.49,1.53-.6,2.54-1.15,3.62-2,.96-.73,1.68-1.51,2.28-2.43h1.7c.76,1.07,1.35,1.63,2.45,2.4,1.21.87,2.4,1.48,3.7,1.95-.4.62-.6,1.02-.81,1.62-.9-.39-1.46-.69-2.45-1.32v1.12c-.39-.04-.75-.06-1.29-.06h-4.82c-.41,0-.84.02-1.23.06v-1.11ZM45.27,156.44c-.75,0-1.23.03-1.7.09v-1.67c.45.04,1.02.08,1.7.08h8.95c.72,0,1.21-.03,1.7-.08v1.67c-.48-.06-.96-.09-1.7-.09h-4.93c-.48,1.09-.93,1.93-1.5,2.79q2.49-.14,4.56-.36c-.46-.51-.72-.78-1.51-1.59l1.42-.63c1.54,1.56,2.17,2.29,3.33,3.82l-1.4.92c-.4-.61-.52-.79-.85-1.24-1.2.15-2.05.25-2.59.3-1.5.15-4.23.4-4.84.45-.81.04-1.53.12-1.86.19l-.22-1.75c.43.03.62.04.81.04.12,0,.56-.01,1.29-.06.71-1.08,1.16-1.94,1.53-2.88h-2.17ZM52.09,152.28c.2,0,.33,0,.63-.01-1.3-.87-2.14-1.65-3.01-2.8-.75,1.02-1.62,1.84-2.98,2.8.24.01.36.01.58.01h4.78Z"/>
        <path d="M61.26,159.84c0,.68.02,1.05.09,1.47h-1.74c.06-.44.09-.83.09-1.5v-3.62c-.58.53-.88.75-1.61,1.23-.18-.56-.43-1.08-.73-1.5,1-.58,1.7-1.12,2.47-1.95.67-.71,1.09-1.3,1.56-2.22h-2.34c-.51,0-.86.01-1.2.06v-1.6c.38.04.66.06,1.12.06h.73v-1.2c0-.39-.03-.76-.09-1.09h1.72c-.06.32-.07.66-.07,1.11v1.18h.6c.43,0,.6-.01.83-.04l.69.75c-.12.2-.21.38-.31.62-.48,1.05-.74,1.48-1.44,2.46.67.76,1.33,1.29,2.28,1.81-.33.46-.54.86-.78,1.42-.76-.48-1.21-.88-1.88-1.62v4.17ZM67.38,159.15h1.72c.72,0,1.21-.03,1.65-.08v1.72c-.51-.06-1.07-.09-1.65-.09h-4.92c-.6,0-1.12.03-1.62.09v-1.72c.45.04.96.08,1.63.08h1.57v-5.62h-1.08c-.48,0-.96.03-1.41.08v-1.63c.41.06.81.08,1.41.08h1.08v-2.54c0-.6-.03-.95-.09-1.5h1.79c-.08.57-.09.85-.09,1.5v2.54h1.51c.66,0,1.04-.02,1.42-.08v1.63c-.46-.04-.92-.08-1.42-.08h-1.51v5.62Z"/>
        <path d="M77.86,157.65c-.72,1.25-1.71,1.93-2.73,1.93-1.56,0-2.67-1.53-2.67-3.66,0-2.37,1.2-4.41,3.25-5.49,1-.54,2.08-.78,3.51-.78,3.14,0,5.46,2.22,5.46,5.19,0,2.62-1.29,4.51-3.78,5.58-.5.21-.89.33-1.08.33-.18,0-.25-.06-.45-.34-.25-.39-.54-.67-.95-.95,3.09-.79,4.49-2.25,4.49-4.68,0-1.25-.53-2.29-1.46-2.96-.53-.36-.95-.51-1.77-.64-.42,3.17-.92,4.89-1.83,6.46ZM75.7,152.34c-1,.88-1.58,2.14-1.58,3.55,0,1.16.38,1.83,1,1.83.75,0,1.52-1.04,2.08-2.82.36-1.12.54-1.98.77-3.64-1.07.22-1.59.48-2.28,1.08Z"/>
        <path d="M95.94,153.6h2.13c.68,0,1.1-.03,1.54-.09v1.63c-.48-.04-.93-.08-1.56-.08h-1.62c.86,1.5,2.1,2.75,3.58,3.58-.48.48-.69.78-.99,1.5-.61-.43-1.05-.86-1.62-1.5-.74-.85-1.05-1.32-1.53-2.22.03.54.04,1,.04,1.44v1.82c0,.67.03,1.2.09,1.67h-1.67c.06-.46.09-1,.09-1.68v-1.71c0-.4.02-.88.04-1.48-.91,1.65-1.93,2.76-3.39,3.73-.38-.71-.58-1-.9-1.36,1.54-.89,2.8-2.17,3.67-3.78h-.95c-.64,0-1.11.03-1.58.09v-.6c-.25.36-.43.69-.61,1.21-.38-.58-.6-1.05-.89-1.8.03.46.06,1.27.06,1.91v3.69c0,.76.03,1.32.09,1.77h-1.67c.06-.46.09-1.02.09-1.77v-3.1c0-.57.02-.93.11-1.86-.44,1.46-.87,2.43-1.52,3.41-.18-.68-.37-1.11-.67-1.61.72-.92,1.47-2.61,1.92-4.35h-.57c-.44,0-.69.01-.96.06v-1.53c.24.04.51.06.96.06h.72v-1.16c0-.76-.01-1.14-.08-1.5h1.65c-.06.39-.08.8-.08,1.5v1.16h.43c.36,0,.54-.01.78-.06v1.42c.57-1.02,1.05-2.52,1.09-3.5l1.46.38c-.06.17-.1.34-.21.79-.08.27-.1.41-.18.69h1.15v-.99c0-.62-.03-.99-.09-1.37h1.68c-.06.36-.09.77-.09,1.37v.99h1.7c.72,0,1.14-.03,1.54-.09v1.58c-.42-.04-.9-.08-1.54-.08h-1.7v1.82ZM92.8,151.79c-.25.62-.39.9-.81,1.61q-.36-.38-1.17-.95c.12-.17.17-.24.24-.34-.2-.03-.44-.04-.71-.04h-.38c.34.79.71,1.39,1.36,2.28v-.82c.45.06.87.09,1.56.09h1.53v-1.82h-1.63Z"/>
        <path d="M106.78,157.65c-.72,1.25-1.71,1.93-2.73,1.93-1.56,0-2.67-1.53-2.67-3.66,0-2.37,1.2-4.41,3.25-5.49,1-.54,2.08-.78,3.51-.78,3.14,0,5.46,2.22,5.46,5.19,0,2.62-1.29,4.51-3.78,5.58-.5.21-.89.33-1.08.33-.18,0-.25-.06-.45-.34-.25-.39-.54-.67-.95-.95,3.09-.79,4.49-2.25,4.49-4.68,0-1.25-.53-2.29-1.46-2.96-.53-.36-.95-.51-1.77-.64-.42,3.17-.92,4.89-1.83,6.46ZM104.62,152.34c-1,.88-1.58,2.14-1.58,3.55,0,1.16.38,1.83,1,1.83.75,0,1.52-1.04,2.08-2.82.36-1.12.54-1.98.77-3.64-1.07.22-1.59.48-2.28,1.08Z"/>
        <path d="M118.33,152.69c.75-.86.87-.99,1.16-1.17.31-.2.55-.27.94-.27.44,0,.71.09,1.05.33q.26.17,1.2,1.12c.98,1,2.34,2.24,3.44,3.09.73.58,1.17.89,2.19,1.53.15.09.21.15.21.25s-.12.36-.42.87c-.34.6-.53.81-.71.81-.08,0-.15-.03-.24-.09-1.88-1.33-3.66-2.92-5.68-5.07-.75-.79-.79-.84-1.05-.84-.17,0-.27.06-.43.22-.14.15-1.08,1.37-1.56,2-.38.5-.39.52-.72.9-.22.24-.29.32-.36.45-.1.18-.18.24-.29.24-.16,0-.46-.22-.82-.62-.24-.27-.38-.45-.72-.97.71-.44,1.26-.99,2.82-2.79ZM127.15,151.25c0,.9-.71,1.61-1.6,1.61s-1.61-.71-1.61-1.61.71-1.6,1.61-1.6,1.6.71,1.6,1.6ZM124.75,151.25c0,.44.36.8.79.8s.79-.36.79-.8-.36-.79-.79-.79-.79.36-.79.79Z"/>
        <path d="M135.88,153.77c2.75,0,4.32-.03,5.83-.13h.2c.45,0,.45.01.45,1.21,0,.61-.04.72-.3.72h-.06c-.99-.04-1.54-.04-5.88-.04-1.59,0-2.38.01-3.76.06h-.44c-.48,0-.55.02-.84.06-.08,0-.13.01-.17.01-.17,0-.27-.08-.3-.21-.09-.38-.15-1.14-.15-1.83,1.21.12,2.28.15,5.42.15Z"/>
        <path d="M149.07,155.03c-.21.33-.27.39-.39.39q-.1,0-.75-.43c-.52-.34-1.18-.66-2.26-1.04-.24-.09-.32-.15-.32-.25,0-.08.12-.33.36-.74.06-.12.12-.21.15-.28.17-.3.24-.39.36-.39.25,0,1.38.42,2.19.81.45.22,1.02.55,1.14.64.04.06.08.11.08.18,0,.15-.21.56-.56,1.11ZM156.79,153.32c.06.15.07.24.07.33,0,.2-.07.32-.36.63-1.25,1.38-2.52,2.5-4.05,3.54-1.31.88-2.8,1.68-4.26,2.29-.44.18-.57.25-.74.41-.13.1-.18.13-.25.13-.29,0-.79-.83-1.25-2.01,1.46-.25,3.17-.96,4.91-2.01,1.08-.64,2.37-1.62,3.3-2.49.82-.77,1.29-1.33,2.16-2.55.09.71.15.9.47,1.72ZM150.51,152.09c-.2.24-.27.3-.38.3-.06,0-.13-.03-.22-.12-.93-.81-1.82-1.38-2.78-1.75-.15-.06-.21-.12-.21-.21,0-.06.01-.11.09-.23.72-1.09.75-1.14.92-1.14.3,0,1.54.6,2.4,1.17.72.48.88.62.88.76,0,.17-.34.77-.71,1.22ZM155.47,151.1c-.34-.62-.65-1.04-1.11-1.51-.07-.08-.09-.11-.09-.14,0-.09.09-.19.34-.38.24-.17.33-.22.42-.22.12,0,.27.12.64.53.46.52.83,1,.83,1.14,0,.17-.67.71-.88.71-.06,0-.09-.03-.15-.12ZM157.57,149.97c-.19.13-.33.21-.4.21-.05,0-.08-.01-.15-.13-.41-.66-.67-1-1.12-1.47-.06-.04-.08-.09-.08-.1,0-.13.6-.56.78-.56.12,0,.33.17.63.5.43.48.79.99.79,1.11,0,.11-.12.21-.45.45Z"/>
        <path d="M165.22,156.65c-1.48.87-1.91,1.3-1.91,1.96,0,.27.11.45.33.58.33.2,1.07.3,2.01.3.81,0,1.93-.08,2.7-.18.32-.04.5-.09,1.09-.24h.08c.11,0,.18.08.23.18.09.32.15.77.15,1.31,0,.22-.08.31-.27.36-.36.08-2.03.17-3.12.17-1.83,0-2.8-.12-3.52-.42-.87-.36-1.31-1.04-1.31-1.98,0-.87.41-1.63,1.21-2.28.65-.51.79-.62,2.18-1.39-.12-.5-.35-.71-.81-.71-.62,0-1.26.24-1.96.71-.43.3-.95.72-1.26,1.03-.45.47-.5.5-.62.5-.15,0-.46-.34-.78-.87-.15-.25-.24-.45-.24-.55,0-.13.03-.17.39-.39,1.23-.83,2.25-1.88,2.87-2.96-1.07.08-1.62.09-2.21.09-.23,0-.27-.04-.34-.3-.05-.2-.12-.99-.14-1.39.51.07.81.09,1.53.09.58,0,1.23-.02,1.91-.04.31-.86.42-1.4.43-2.1,1.33.23,1.95.45,1.95.71,0,.06-.02.09-.06.18-.1.19-.22.43-.42.9q-.03.06-.04.11c.86-.12,1.61-.27,2.13-.39.33-.09.41-.1.48-.1.12,0,.18.04.21.13.06.27.15.96.15,1.17,0,.17-.06.24-.25.29-.48.13-2.13.39-3.51.52-.45.83-.76,1.31-1.23,1.82.67-.32,1.18-.43,1.78-.43.68,0,1.12.39,1.43,1.23,1.48-.81,2.28-1.25,2.37-1.3.69-.41.98-.63,1.31-1,.61.63,1.27,1.57,1.27,1.83,0,.09-.06.15-.25.2-.74.2-2.1.78-4.38,1.89.01.27.04.96.04,1.44v.72c0,.18-.03.27-.1.32-.08.08-.48.12-.93.12-.51,0-.6-.04-.6-.29v-.06c.03-.43.04-1,.04-1.36v-.08Z"/>
        <path d="M175.3,159.48c0,.85.02,1.33.08,1.75h-1.67c.06-.42.09-.88.09-1.79v-9.49c0-.77-.01-1.16-.06-1.62.39.04.76.06,1.47.06h2.61c.76,0,1.09-.01,1.48-.06-.03.43-.04.83-.04,1.33v2.21c0,.66,0,.9.03,1.29-.46-.01-.78-.03-1.32-.03h-2.67v6.34ZM175.3,150.23h2.55v-.75h-2.55v.75ZM175.3,152.03h2.55v-.78h-2.55v.78ZM177.7,156.32c.03-.51.03-.69.03-1.33-.67,0-1.05.01-1.44.06v-1.29c.39.05.78.06,1.46.06h4.18c.71,0,1.09-.01,1.5-.06v1.29c-.41-.04-.76-.06-1.5-.06v1.33h.21c.72,0,1.08-.01,1.49-.06v1.31c-.45-.04-.77-.06-1.49-.06h-.21v2.13c0,.66.01.95.06,1.23h-1.5c.06-.36.07-.6.07-1.23v-2.13h-1.62c-.15,1.52-.63,2.48-1.75,3.55-.38-.4-.64-.64-1.15-.99.97-.75,1.36-1.4,1.56-2.57-.78,0-1.16.02-1.53.06v-1.31c.39.05.75.06,1.49.06h.15ZM179.08,154.98q0,.62-.04,1.33h1.53v-1.33h-1.48ZM185.91,159.47c0,1.28-.43,1.61-2.05,1.61-.24,0-.43,0-.95-.03-.07-.64-.15-.95-.39-1.51.55.08.99.1,1.33.1.46,0,.55-.06.55-.38v-6.12h-2.83c-.48,0-.99.01-1.32.03.04-.49.04-.6.04-1.29v-2.21c0-.57-.02-.95-.04-1.33.39.04.73.06,1.47.06h2.76c.72,0,1.08-.01,1.49-.06-.04.52-.06.88-.06,1.6v9.52ZM181.72,150.23h2.68v-.75h-2.68v.75ZM181.72,152.03h2.68v-.78h-2.68v.78Z"/>
        <path d="M196.96,149.51c0,.13-.06.18-.32.33-.1.06-.24.18-.38.34-.93,1.08-2.26,2.54-3.45,3.73-.25.26-.36.45-.36.63,0,.16.12.34.41.6.88.81,2.32,2.28,3.39,3.5.75.84.94,1.11.94,1.26,0,.17-.25.42-.87.9-.29.23-.47.33-.56.33-.13,0-.19-.06-.34-.3-.64-1.02-2.22-2.92-3.42-4.14-.67-.67-.81-.83-1.02-1.12-.25-.36-.36-.66-.36-1,0-.3.09-.62.27-.92q.17-.27,1.08-1.25c.87-.9,1.8-2.04,2.38-2.88.39-.55.58-.92.78-1.42,1.17.64,1.82,1.14,1.82,1.41Z"/>
        <path d="M206.7,153.05c-.19-.66-.25-1.07-.43-2.91-.06-.72-.12-1.08-.27-1.59.91.01,1.5.06,1.9.17.23.06.33.17.33.33,0,.06-.01.13-.04.25-.1.36-.15.63-.15,1.02,0,.74.15,1.94.32,2.46.09.29.18.39.34.39.36,0,1.68-.69,2.4-1.24.19-.15.22-.17.3-.17.13,0,.27.1.5.39.38.51.67,1.07.67,1.28,0,.17-.11.27-.36.34-.93.25-2.46.85-3.49,1.35-1.83.9-2.66,1.73-2.66,2.66s.76,1.29,2.7,1.29c1.12,0,2.14-.11,3.52-.33.06-.02.17-.03.2-.03.12,0,.19.06.25.18.04.15.15,1.07.15,1.43,0,.21-.06.28-.26.34-.33.08-2.14.18-3.28.18-1.92,0-3.2-.25-3.99-.79-.67-.46-1.04-1.2-1.04-2.1,0-.69.2-1.31.6-1.91.52-.78,1.09-1.27,2.35-2.02-.31-.29-.43-.5-.57-.96Z"/>
        <path d="M217.01,157.47c.27-.24.34-.3.45-.3.19,0,1.09.66,1.75,1.29.75.69,1.59,1.7,1.59,1.91,0,.13-.03.17-.46.55-.57.53-.69.62-.79.62-.09,0-.18-.06-.25-.21-.53-.93-1.73-2.16-2.79-2.85-.12-.09-.18-.15-.18-.24,0-.11.03-.15.69-.76Z"/>
        <path d="M240.54,153.6h2.13c.68,0,1.1-.03,1.54-.09v1.63c-.48-.04-.93-.08-1.56-.08h-1.62c.86,1.5,2.1,2.75,3.58,3.58-.48.48-.69.78-.99,1.5-.61-.43-1.05-.86-1.62-1.5-.74-.85-1.05-1.32-1.53-2.22.03.54.04,1,.04,1.44v1.82c0,.67.03,1.2.09,1.67h-1.67c.06-.46.09-1,.09-1.68v-1.71c0-.4.02-.88.04-1.48-.91,1.65-1.93,2.76-3.39,3.73-.38-.71-.58-1-.9-1.36,1.54-.89,2.8-2.17,3.67-3.78h-.95c-.64,0-1.11.03-1.58.09v-.6c-.25.36-.43.69-.61,1.21-.38-.58-.6-1.05-.89-1.8.03.46.06,1.27.06,1.91v3.69c0,.76.03,1.32.09,1.77h-1.67c.06-.46.09-1.02.09-1.77v-3.1c0-.57.02-.93.11-1.86-.44,1.46-.87,2.43-1.51,3.41-.18-.68-.38-1.11-.68-1.61.72-.92,1.47-2.61,1.92-4.35h-.57c-.44,0-.69.01-.96.06v-1.53c.24.04.51.06.96.06h.72v-1.16c0-.76-.01-1.14-.08-1.5h1.65c-.06.39-.08.8-.08,1.5v1.16h.43c.36,0,.54-.01.78-.06v1.42c.57-1.02,1.05-2.52,1.09-3.5l1.46.38c-.06.17-.1.34-.21.79-.08.27-.1.41-.18.69h1.15v-.99c0-.62-.03-.99-.09-1.37h1.68c-.06.36-.09.77-.09,1.37v.99h1.7c.72,0,1.14-.03,1.54-.09v1.58c-.42-.04-.9-.08-1.54-.08h-1.7v1.82ZM237.4,151.79c-.25.62-.39.9-.81,1.61q-.36-.38-1.17-.95c.12-.17.17-.24.24-.34-.2-.03-.44-.04-.71-.04h-.38c.34.79.71,1.39,1.36,2.28v-.82c.45.06.87.09,1.56.09h1.53v-1.82h-1.63Z"/>
        <path d="M15.33,181.62c0-.57.02-.99.03-1.57-.25.51-.57.99-.95,1.48-.19-.71-.34-1.11-.63-1.72.92-1,1.59-2.16,2.16-3.74.32-.87.45-1.35.54-1.98l1.54.63c-.11.32-.15.43-.27.79q-.28.88-.93,2.37v8.04c0,.79.02,1.23.06,1.67h-1.65c.08-.57.09-.99.09-1.68v-4.29ZM25.77,178.43c.54,0,.98-.02,1.31-.06-.04.38-.06.77-.06,1.35v5.98c0,.72.03,1.21.09,1.8h-1.65v-.79h-6.1v.78h-1.59c.05-.48.08-1.05.08-1.58v-6.17c0-.51-.03-.99-.06-1.38.41.04.72.06,1.3.06h1.37v-1.94h-.72c-.69,0-1.23.03-1.7.08v-1.6c.42.06.92.09,1.7.09h6.03c.79,0,1.32-.03,1.75-.09v1.6c-.42-.04-1.02-.08-1.71-.08h-1.48v1.94h1.45ZM19.29,179.81v5.5h1.16v-5.5h-1.16ZM22.93,176.49h-1.11v1.94h1.11v-1.94ZM21.82,185.31h1.11v-5.5h-1.11v5.5ZM24.32,185.31h1.2v-5.5h-1.2v5.5Z"/>
        <path d="M34.69,179.82c.01-.34.01-.55.01-1.11,0-.14,0-.54-.01-1.23-1.08.22-2.96.51-3.32.51-.15,0-.25-.07-.33-.25-.09-.22-.31-.62-.46-.84,0-.01-.12-.15-.36-.43,1.99-.02,3.93-.32,5.8-.9.85-.27,1.36-.51,2.07-.93.66.58,1.2,1.27,1.2,1.53,0,.14-.09.2-.29.23-.29.03-.46.08-.84.2-.78.25-.92.3-1.68.49.01.58.01.68.01,1.47v1.26c2.24-.03,3.88-.08,4.37-.12.06-.01.1-.01.15-.01.2,0,.24.15.24.79,0,.96-.01.99-.24.99-.03,0-.51-.03-.67-.04-.63-.04-1.51-.06-3.94-.06-.18,1.5-.62,2.76-1.31,3.81-.43.66-1.17,1.47-1.74,1.92-.09.06-.15.09-.23.09q-.13,0-.63-.3c-.3-.2-.67-.34-1.23-.54,1.09-.64,1.81-1.33,2.4-2.33.44-.75.78-1.72.9-2.62-2.79.03-3.93.07-4.63.19-.17.02-.23.03-.27.03-.13,0-.19-.04-.22-.15-.11-.34-.18-1-.21-1.72.64.08,1.6.11,3.54.11h.42l1.5-.02Z"/>
        <path d="M52.68,178.86c.15-.09.21-.1.32-.1.36,0,1.33.99,1.33,1.35,0,.11-.04.17-.15.25-.21.18-.29.25-.48.58-.39.65-.95,1.37-1.53,1.98-.24.25-.38.34-.5.34-.09,0-.18-.04-.29-.12-.4-.32-.61-.42-1.26-.65.84-.55,1.41-1.09,2.07-2.01q-1.95.46-3.12.77c.63,2.49.85,3.3,1.41,5.16.03.14.04.2.04.25,0,.14-.15.23-.55.33-.26.08-.77.17-.9.17-.18,0-.21-.06-.29-.5-.13-.79-.67-2.97-1.23-5.02-1.11.32-1.29.36-1.86.63-.17.08-.25.11-.33.11-.29,0-.62-.68-.87-1.73.75-.03,1.11-.09,2.67-.43-.31-1.17-.46-1.59-.82-2.25.81-.13,1.41-.2,1.8-.2.25,0,.36.08.36.24,0,.04,0,.08-.01.17-.03.09-.03.15-.03.22,0,.3.06.6.27,1.49,2.88-.64,3.58-.83,3.94-1.04Z"/>
        <path d="M63.58,180.02c2.75,0,4.32-.03,5.83-.13h.19c.45,0,.45.01.45,1.21,0,.61-.04.72-.3.72h-.06c-.99-.04-1.54-.04-5.88-.04-1.59,0-2.38.01-3.76.06h-.44c-.48,0-.55.02-.84.06-.08,0-.13.01-.17.01-.17,0-.27-.08-.3-.21-.09-.38-.15-1.14-.15-1.83,1.21.12,2.28.15,5.42.15Z"/>
        <path d="M78.09,182.42c0,.92.04,3.36.08,4.07v.08c0,.13-.03.24-.11.28-.1.09-.71.17-1.26.17-.48,0-.57-.04-.57-.34v-.06c.03-.39.07-4.71.07-6.5,0-3.45-.03-4.42-.17-5.29,1.08.08,1.56.12,2,.21.15.04.23.12.23.24q0,.08-.06.33c-.06.18-.09.39-.1.63,0,.03-.03.93-.08,2.7q1.06.3,1.68.52c1.5.53,2.36.92,3.69,1.62.12.09.18.17.18.25,0,.15-.27.87-.51,1.32-.12.25-.2.33-.29.33-.06,0-.13-.03-.24-.11-1.47-.97-3.01-1.69-4.54-2.14v1.69Z"/>
        <path d="M92.32,183.9c-.72,1.25-1.71,1.93-2.73,1.93-1.56,0-2.67-1.53-2.67-3.66,0-2.37,1.2-4.41,3.25-5.49,1-.54,2.08-.78,3.51-.78,3.14,0,5.46,2.22,5.46,5.19,0,2.62-1.29,4.51-3.78,5.58-.5.21-.89.33-1.08.33-.18,0-.25-.06-.45-.34-.25-.39-.54-.67-.95-.95,3.09-.79,4.49-2.25,4.49-4.68,0-1.25-.53-2.29-1.46-2.96-.53-.36-.95-.51-1.77-.64-.42,3.17-.92,4.89-1.83,6.46ZM90.16,178.59c-1,.88-1.58,2.14-1.58,3.55,0,1.16.38,1.83,1,1.83.75,0,1.52-1.04,2.08-2.82.36-1.12.54-1.98.77-3.64-1.07.22-1.59.48-2.28,1.08Z"/>
        <path d="M102.46,181.67c0-.36,0-.51.03-1.59-.34.6-.67,1.05-1.2,1.65-.19-.6-.36-.98-.75-1.7,1.05-1.05,1.94-2.42,2.55-3.97.3-.74.5-1.42.57-1.95l1.62.5c-.12.36-.17.48-.29.81-.33.99-.53,1.45-1,2.38v8.02c0,.66.03,1.2.08,1.74h-1.7c.08-.51.09-.98.09-1.75v-4.14ZM107.28,180.08v5.04c0,.29.07.38.39.45.36.08.79.1,1.77.1,1.68,0,2.29-.06,2.61-.27.17-.11.29-.36.34-.66.04-.29.06-.45.11-1.14.63.25.87.33,1.57.45-.18,1.65-.38,2.22-.82,2.55-.53.4-1.52.52-4.09.52-2.73,0-3.41-.29-3.41-1.44v-5.12l-.29.11c-.42.13-.58.19-.84.31l-.12-1.63c.33-.04.75-.15,1.25-.29v-1.69c0-.69-.01-1.08-.08-1.53h1.68c-.06.46-.07.76-.07,1.47v1.28l1.48-.48v-2.34c0-.57-.03-.96-.09-1.44h1.68c-.06.45-.09.81-.09,1.41v1.91l2.1-.67c.57-.18.89-.3,1.17-.44-.01.23-.01.45-.01.78-.03,1.72-.13,3.69-.25,4.63-.13,1.09-.5,1.4-1.62,1.4-.25,0-.42,0-.78-.03-.06-.57-.15-.88-.4-1.47.38.07.76.12.99.12.32,0,.38-.09.47-.78.06-.55.1-1.47.12-2.66l-1.77.57v3.75c0,.58.01.96.08,1.44h-1.65c.06-.43.08-.83.08-1.48v-3.21l-1.48.48Z"/>
        <path d="M119.52,183.18c.04.07.06.13.06.21,0,.1-.02.12-.15.45-.3.69-.66,1.77-.84,2.58-.04.17-.09.25-.15.29-.08.03-.59.11-.75.11h-.06c-.08,0-.18-.02-.3-.02-.2,0-.24-.04-.3-.22-.29-.97-.51-2.99-.51-4.5,0-1.65.1-2.67.52-4.92.15-.81.22-1.26.29-1.75.63.12,1.17.27,1.62.48.25.1.33.18.33.33,0,.1-.02.15-.18.39-.5.79-1.05,3.97-1.05,6.12,0,.34.02.81.06,1.56.42-.95.57-1.23.92-1.96.13.31.22.46.49.87ZM122.77,184.25c.48.25,1.05.34,2.06.34s1.53-.07,2.46-.34c.09-.03.16-.04.21-.04.1,0,.18.06.19.21.08.51.13,1.11.13,1.41,0,.15-.04.2-.25.25-.81.21-1.63.32-2.64.32-1.38,0-2.23-.17-2.94-.58-.66-.41-1.35-1.23-1.35-1.64,0-.21.32-.49,1.12-.99.27.54.53.81,1,1.06ZM121.72,176.6c.33.08,1.29.13,2.03.13.99,0,1.98-.08,2.91-.24q.08-.01.14-.01c.1,0,.15.04.18.17.03.15.08.81.08,1.21,0,.22-.04.3-.21.33-.62.12-1.63.2-2.71.2-1.29,0-2.45-.08-2.59-.17-.08-.04-.11-.15-.11-.42,0-.41.04-1,.08-1.12.01-.06.06-.09.15-.09.02,0,.04,0,.08.01Z"/>
        <path d="M134.04,179.03c-1.07-.21-1.88-.52-2.43-.92-.27-.18-.33-.25-.33-.39,0-.17.12-.46.54-1.3.73.46,1.56.79,2.5.99.21-1.05.3-1.92.31-2.89.77.13,1.44.36,1.82.57.17.09.22.18.21.3,0,.06-.03.12-.11.27-.22.46-.24.51-.55,1.98.15.01.34.01.46.01h.11c.36-.01.63-.01.76-.01h.04c.13,0,.18.06.18.25,0,.66-.04,1.2-.1,1.3-.04.08-.24.11-.87.11-.29,0-.51-.02-.93-.03q-.32,1.54-.45,2.35c.51.04.62.04.87.04h.84c.15-.01.22.02.27.09.06.09.11.57.11,1.11,0,.27-.02.34-.11.39-.08.03-.4.05-.97.05-.27,0-.67-.02-1.2-.05-.01.27-.01.45-.01.57,0,1.38.64,2.01,2.05,2.01,1.58,0,2.52-.76,2.52-2.05,0-.46-.1-.88-.34-1.35-.3-.57-.58-.9-1.3-1.47h.13c.24,0,.75-.07,1.2-.16.24-.05.33-.06.41-.06.22,0,.38.11.67.48.69.84,1.04,1.72,1.04,2.65,0,2.12-1.71,3.51-4.31,3.51-2.43,0-3.64-1.21-3.64-3.67,0-.21,0-.38.03-.63-1.49-.31-2.29-1.05-2.29-2.12,0-.55.17-.96.58-1.38.04-.06.1-.07.17-.07.09,0,.19.07.54.36.27.23.31.27.31.35q0,.06-.09.19c-.06.11-.12.27-.12.36,0,.19.12.36.35.46.21.1.27.12.75.22l.39-2.43Z"/>
        <path d="M150.57,176.94c.42,0,.77-.01.92-.04v1.32c-.22-.03-.48-.04-.93-.04h-.96c.27.31.57.52,1.28.93-.38.41-.44.5-.83,1.18-.74-.61-.92-.82-1.28-1.38.02.24.03.48.03.58v.54c0,.18.01.36.06.53h-1.54c.03-.15.05-.33.05-.48v-.54c0-.15.01-.31.04-.63-.77,1.05-1.25,1.52-2.36,2.27-.3-.53-.46-.74-.93-1.19,1.16-.6,1.83-1.12,2.31-1.81h-.78c-.51,0-.9.01-1.2.06v-1.35c.34.04.67.06,1.21.06h1.71v-1.69c0-.44-.01-.69-.06-.98h1.56c-.04.29-.06.53-.06.95v1.72h1.75ZM149.83,186.72c-.53-.42-.74-.55-1.33-.87-.9.79-1.79,1.24-3.45,1.71-.21-.51-.43-.9-.75-1.33,1.29-.27,2.08-.56,2.87-1.05-.67-.31-1.07-.46-2.13-.85.45-.63.58-.83.93-1.42h-.42c-.53,0-.81.01-1.14.08v-1.46c.33.06.6.08,1.14.08h1.08c.13-.3.21-.48.39-1.02l1.49.29c-.13.36-.18.46-.3.74h2.28c.51,0,.78-.02,1.07-.06v1.42c-.3-.04-.54-.06-1.17-.06-.29.92-.42,1.21-.87,1.84.55.25.67.33,1.17.64l-.84,1.33ZM146.04,174.41c.54.79.72,1.12,1,1.91l-1.26.46c-.29-.79-.53-1.26-.98-1.9l1.23-.47ZM147.51,182.9c-.2.33-.24.41-.51.81.63.23.85.3,1.23.46.32-.42.5-.76.66-1.27h-1.38ZM151.39,174.92c-.57,1.14-.63,1.27-1.08,1.93l-1.23-.55c.46-.63.78-1.21,1.02-1.92l1.29.54ZM157.68,178.17c-.25-.04-.44-.04-1.02-.06-.09,2.33-.54,4.07-1.46,5.64.81,1.02,1.61,1.68,2.75,2.25-.34.45-.58.88-.84,1.53-1.09-.65-2.02-1.47-2.82-2.47-.9,1.03-2.01,1.92-3.27,2.58-.27-.75-.41-.99-.76-1.44.63-.32.81-.42,1.14-.63.83-.54,1.49-1.11,2.04-1.8-.66-1.19-.96-2.03-1.21-3.38-.25.41-.36.55-.66.94-.31-.4-.63-.73-1.04-1.03.9-1.14,1.5-2.4,1.95-4.16.18-.67.32-1.53.33-1.95l1.6.32c-.06.17-.1.3-.21.79-.1.41-.25.97-.39,1.42h2.52c.68,0,1.01-.01,1.35-.08v1.52ZM153.34,178.11q-.12.3-.18.44c.24,1.63.52,2.58,1.14,3.79.58-1.25.83-2.4.9-4.23h-1.86Z"/>
        <path d="M164.68,181.7c0-.33-.01-.55-.06-.93h.76c.71-.38,1.26-.75,1.77-1.21h-4.5c-.66,0-1.05.01-1.5.07v-1.56c.43.06.81.08,1.5.08h5.25c.57,0,.79-.01,1.11-.06l.76.96q-.4.35-.57.5c-1.1.95-1.91,1.53-2.96,2.16v.09h3.79c.69,0,1.3-.03,1.75-.09v1.63c-.45-.06-1.11-.09-1.75-.09h-3.79v2.54c0,1.23-.48,1.62-2.05,1.62-.5,0-1.02-.03-1.74-.08-.08-.55-.13-.75-.45-1.53.72.11,1.5.17,2.01.17s.66-.09.66-.38v-2.34h-3.96c-.64,0-1.27.03-1.75.09v-1.63c.5.06,1.09.09,1.75.09h3.96v-.09ZM164.44,175.32c0-.45-.01-.73-.07-1.09h1.77c-.06.33-.08.65-.08,1.08v.33h3.95c.73,0,1.06-.01,1.63-.06-.04.35-.06.66-.06,1.14v1.17c0,.41.03.75.08,1.09h-1.57v-1.92h-9.38v1.92h-1.59c.06-.33.08-.66.08-1.09v-1.17c0-.45-.02-.79-.06-1.14.55.05.92.06,1.65.06h3.66v-.32Z"/>
        <path d="M182.91,176.61c2.03,0,3.3,1.21,3.3,3.17s-1.41,3.09-3.75,3.09c-.51,0-1.04-.06-1.23-.13-.12-.04-.18-.12-.21-.25-.1-.5-.3-.98-.66-1.58.93.22,1.5.32,2.13.32,1.21,0,1.94-.56,1.94-1.52,0-.38-.11-.75-.25-.96-.27-.38-.86-.61-1.53-.61-.86,0-2.04.38-4.51,1.44q.94,2.35,1.47,3.79c.63,1.7,1.16,3.22,1.16,3.36,0,.12-.09.2-.39.33-.43.2-.99.38-1.18.38-.15,0-.17-.03-.32-.58-.69-2.52-1.3-4.35-2.22-6.58-1.14.52-1.68.82-2,1.12-.09.07-.18.12-.28.12-.2,0-.38-.15-.66-.55-.3-.42-.42-.64-.67-1.12.96-.27,1.57-.48,2.98-1.06-.78-1.79-.88-2-1.47-2.75.96-.38,1.5-.54,1.84-.54.32,0,.39.09.43.5.05.42.08.57.26.99.01.03.15.34.46,1.15,1.32-.54,1.78-.72,2.77-1.04-.06-.03-.08-.04-.12-.1-.51-.66-.82-.99-1.48-1.54-.03-.06-.04-.09-.04-.13q0-.09.51-.54c.2-.18.5-.36.58-.36.08,0,.15.03.24.09.92.69,1.54,1.32,1.54,1.58,0,.12-.45.62-.81.88.83-.22,1.54-.33,2.17-.33Z"/>
        <path d="M192.96,178.4c-1.04,1.38-2.8,3.03-3.24,3.03-.13,0-.2-.03-.5-.29-.22-.2-.62-.46-1.11-.75,1.06-.57,2.16-1.47,2.98-2.45.88-1.05,1.41-1.92,1.93-3.24.74.24,1.12.42,1.62.69.21.12.29.21.29.34,0,.11-.04.2-.18.29-.15.12-.3.3-.69.84l2.24.02c.81,0,.96-.02,1.41-.18.06-.01.1-.03.17-.03.24,0,.49.22.93.78.29.36.36.51.36.68s-.04.24-.25.45c-.12.12-.31.41-.46.68-1.62,2.92-3.18,4.77-5.56,6.54-1.04.78-2.4,1.58-2.68,1.58-.12,0-.23-.06-.36-.21-.25-.27-.66-.55-1.25-.87,2.19-1.05,3.72-2.1,5.22-3.62,1.07-1.06,1.82-2.08,2.47-3.34.14-.25.23-.45.47-.94h-3.79ZM200.1,176.78c-.33.29-.53.42-.62.42s-.09,0-.36-.45c-.24-.4-.6-.87-.94-1.21-.06-.06-.08-.09-.08-.13,0-.12.57-.54.74-.54.12,0,.3.15.75.66.4.46.69.87.69.97s-.04.17-.18.29ZM200.77,176.01c-.36-.62-.71-1.05-1.11-1.44-.06-.06-.07-.09-.07-.12,0-.08.07-.15.33-.33.2-.15.29-.18.39-.18.17.02.55.39,1.06,1.05.21.27.35.5.35.57s-.04.15-.23.29c-.24.18-.46.31-.55.31-.06,0-.11-.03-.17-.15Z"/>
        <path d="M203.96,180.48s-.11.01-.12.01c-.33,0-.46-.51-.57-2.05.74.12,1.77.17,4.56.17,3,0,3.81,0,4.1-.03.22-.01.27-.03.57-.12.11-.04.2-.06.29-.06.22,0,.41.11.64.36.41.46.68.88.68,1.06,0,.17-.08.29-.25.48-.12.1-.2.24-.48.88-1,2.21-2.13,3.55-3.9,4.68-.81.53-2.12,1.12-2.42,1.12-.21,0-.33-.09-.58-.39-.39-.47-.57-.63-.99-.84,1.71-.51,3.27-1.36,4.38-2.43.84-.81,1.47-1.86,1.91-3.17-5.69.08-6.74.12-7.8.32ZM208.86,175.16q1.56,0,3.29-.12h.18c.2,0,.27.15.29.6,0,.18,0,.34.01.5v.06c0,.54-.06.69-.25.69-.06,0-.18-.02-.31-.02-.29-.03-1.41-.06-1.88-.06-2.25,0-3.86.03-4.74.1h-.12c-.39,0-.45-.22-.54-1.9.98.12,1.92.15,4.08.15Z"/>
        <path d="M223.5,177.59c-2.69,0-4.58.09-5.06.22-.01.01-.03.01-.04.01-.28,0-.38-.49-.42-2.04.74.12,1.7.15,3.92.15,2.01,0,4.37-.04,4.74-.09.27-.03.36-.04.63-.15.08-.03.1-.03.17-.03.25,0,.57.24,1.05.81.29.36.34.45.34.62,0,.1-.04.19-.15.33-.15.18-.16.22-.49,1.27-.84,2.64-2.5,5.01-4.75,6.75-.9.69-1.75,1.21-1.98,1.21-.17,0-.19-.01-.54-.36-.4-.4-.72-.63-1.12-.85,2.21-1.09,3.41-2.03,4.56-3.48,1.03-1.32,1.68-2.73,2.02-4.41q-1.17.01-2.86.03Z"/>
        <path d="M232.52,180.18c-.12.03-.18.06-.27.1-.08.04-.12.06-.18.06-.33,0-.57-.57-.75-1.68h.29c.63,0,2.24-.19,3.2-.39.31-1.3.48-2.31.48-3.01,0-.06,0-.15-.01-.25.64.06,1.26.19,1.68.38.24.09.36.21.36.36,0,.08-.02.14-.09.26q-.23.39-.69,2.04c.36-.04.76-.07,1.02-.07.62,0,1.1.12,1.44.36.6.44.9,1.32.9,2.69,0,2.23-.41,4.15-1.1,5.1-.48.66-1.11.97-2,.97-.54,0-1.05-.08-1.2-.17q-.12-.08-.17-.63c-.04-.41-.13-.76-.32-1.18.78.27.98.31,1.46.31.72,0,1.02-.34,1.35-1.56.23-.79.35-1.82.35-2.92,0-1.17-.29-1.59-1.08-1.59-.27,0-.71.04-1.05.09-.04.18-.06.19-.12.39-.42,1.54-1.19,3.55-1.95,5.17-.79,1.63-.99,1.96-1.18,1.96-.12,0-.53-.21-.96-.5-.35-.21-.44-.3-.44-.42q0-.07.62-1.05c.83-1.27,1.91-3.76,2.28-5.25-1.11.25-1.73.39-1.86.44ZM241.94,177.11c-.24.18-.41.25-.48.25-.04,0-.09-.03-.13-.1-.32-.51-.84-1.1-1.28-1.47-.03-.03-.04-.06-.04-.09,0-.06.11-.17.36-.36.25-.18.33-.23.43-.23.24,0,1.56,1.33,1.56,1.58,0,.09-.12.2-.42.42ZM240.35,178.7c0-.1.13-.24.57-.58.3-.22.45-.31.57-.31.2,0,.87.72,1.5,1.6.52.75,1.09,1.82,1.09,2.07,0,.15-.04.19-.52.58-.3.24-.65.43-.77.43-.1,0-.15-.04-.25-.3-.29-.72-.54-1.21-.95-1.86-.4-.64-.43-.67-1.15-1.45-.06-.08-.09-.12-.09-.18ZM242.31,174.09c.25,0,1.53,1.27,1.53,1.53,0,.07-.09.16-.39.38-.27.21-.41.28-.46.28q-.08,0-.38-.42c-.25-.34-.74-.85-1-1.08-.04-.04-.08-.07-.08-.12,0-.12.62-.57.78-.57Z"/>
        <path d="M20.62,207.59c-.33.41-.5.56-1.06,1.08v2.97c1.02-.18,1.77-.36,3-.69v1.53c-1.06.28-1.44.38-3.03.69-.96.2-1.02.21-1.82.33-.24.04-.46.08-.67.12-.3.04-.55.09-.69.13l-.36-1.68c.55-.01,1.07-.06,2-.18v-1.98c-.99.66-1.7,1.04-3.06,1.61-.27-.62-.48-1-.9-1.56,1.91-.51,3.42-1.29,4.63-2.37h-2.73c-.65,0-1.2.03-1.68.09v-1.54c.42.06.84.07,1.67.07h3.96v-.92h-2.82c-.84,0-1.14.02-1.58.06v-1.44c.42.04.75.06,1.58.06h2.82v-.88h-3.46c-.76,0-1.21.01-1.6.07v-1.51c.45.06.94.09,1.69.09h3.38c0-.61-.03-.9-.09-1.25h1.79c-.08.35-.09.58-.09,1.25h3.61c.78,0,1.28-.03,1.71-.09v1.51c-.39-.06-.85-.07-1.62-.07h-3.7v.88h3.03c.87,0,1.2-.02,1.61-.06v1.44c-.45-.04-.74-.06-1.61-.06h-3.03v.92h4.15c.81,0,1.26-.01,1.65-.07v1.54c-.48-.06-1.02-.09-1.65-.09h-3.34c.27.6.6,1.12,1.12,1.79.72-.57,1.35-1.2,1.68-1.67l1.44.9q-.11.09-.33.31c-.42.44-1.02.96-1.71,1.5.99.75,1.84,1.19,3.15,1.64-.46.55-.71.96-.94,1.54-1.95-.84-3.27-1.79-4.29-3.04-.66-.83-1.21-1.82-1.7-2.97h-.09Z"/>
        <path d="M33.01,207.5c-.67,2.06-1.57,3.62-2.95,5.16-.42-.48-.75-.74-1.38-1.08,1.24-1.12,2.26-2.83,2.76-4.63l1.57.55ZM30.66,206.09c-.72,0-1.18.03-1.72.09v-1.73c.51.08.88.09,1.75.09h9.13c.78,0,1.24-.03,1.75-.09v1.73c-.54-.06-1-.09-1.73-.09h-3.63v5.8c0,.82-.1,1.15-.48,1.39-.32.21-.74.27-1.71.27-.6,0-1.14-.01-1.63-.06-.06-.69-.15-1.04-.41-1.6.69.1,1.29.17,1.82.17.67,0,.73-.03.73-.36v-5.61h-3.88ZM40.17,202.79c-.51-.06-1.09-.09-1.75-.09h-6.43c-.54,0-1.16.03-1.71.09v-1.63c.52.06,1,.09,1.74.09h6.44c.64,0,1.21-.03,1.72-.09v1.63ZM39.07,206.94c.48,1.23.87,1.95,1.59,2.94.46.62.75.95,1.36,1.53-.51.39-.85.72-1.32,1.23-1.58-1.88-2.17-2.87-3.11-5.15l1.47-.55Z"/>
        <path d="M50.01,201.17c0,.38.18,1.08.54,2.02,1.16-.29,1.83-.52,3.41-1.2.09-.03.13-.04.18-.04.15,0,.25.27.48,1.25.01.08.01.09.03.15.02.03.02.04.02.06,0,.11-.06.17-.21.23-.77.33-1.64.6-3.24,1.02.78,1.46,1.89,2.71,2.97,3.34.08.04.12.11.12.18,0,.18-.33.89-.58,1.25-.13.2-.22.27-.36.27-.1,0-.13-.02-.33-.17-.31-.23-1.06-.57-1.6-.72-.64-.18-1.23-.26-1.92-.26-1.77,0-2.67.5-2.67,1.46,0,.54.29.92.9,1.21.7.35,1.99.54,3.51.54.45,0,.75-.01,1.2-.07-.24.46-.31.66-.6,1.59-.08.22-.2.28-.6.28-1,0-2.27-.13-3.03-.31-2-.5-3.13-1.62-3.13-3.12,0-.72.29-1.42.78-1.93.69-.67,1.8-1.05,3.22-1.05.93,0,1.53.1,2.33.42-.87-.93-1.31-1.53-1.83-2.55-.92.17-1.68.27-2.57.36-.52.04-1.68.12-1.9.12-.21,0-.27-.04-.35-.3-.09-.29-.17-.76-.24-1.42.5.01.73.03,1,.03.9,0,2.38-.12,3.36-.27-.13-.3-.39-.95-.54-1.35-.24-.66-.34-.9-.54-1.23.71-.12,1.47-.19,1.82-.19.29,0,.39.07.39.25v.17Z"/>
        <path d="M60.51,205.07c-.67.13-1.32.3-1.74.45-.11.04-.2.06-.27.06-.13,0-.21-.07-.3-.33-.11-.33-.21-.85-.27-1.38.22.02.33.03.46.03.57,0,1.18-.08,2.13-.25l.03-.9c.02-.21.02-.36.02-.4,0-.65-.02-1.04-.08-1.44.79.03,1.29.09,1.77.21.2.04.29.13.29.27,0,.06-.01.1-.09.27-.13.29-.15.46-.25,1.71.33.23.62.54.62.69,0,.09-.04.17-.18.33-.22.24-.3.34-.58.76q-.03.39-.03.5c.5-.44.82-.72,1.33-1.09.57-.44,1.2-.84,1.65-1.07.58-.32.99-.42,1.53-.42.79,0,1.37.3,1.68.87.18.36.25.71.25,1.29,0,.51-.03.99-.12,2.08-.12,1.29-.18,2.25-.18,2.83s.13.76.55.76c.6,0,1.33-.44,1.98-1.17.01.58.06.76.25,1.37.04.12.06.19.06.25,0,.17-.08.3-.33.5-.61.49-1.5.81-2.29.81-1.32,0-1.92-.69-1.92-2.21,0-.69.04-1.58.2-3.67.04-.5.06-.92.06-1.12,0-.62-.21-.9-.66-.9s-1.33.48-2.52,1.39c-.6.45-.94.76-1.57,1.41v.69c0,1.12.07,3.72.13,4.63v.18c0,.12-.02.17-.04.21-.08.09-.51.15-1.2.15-.43,0-.53-.06-.53-.31,0-.09,0-.24.02-.41v-.34q.01-.53.08-3.38-.86,1.11-1.37,1.93c-.13.21-.23.29-.34.29s-.39-.24-.86-.75c-.29-.33-.39-.46-.39-.55,0-.08.03-.13.13-.24.95-.97,1.74-1.91,2.87-3.31l.03-1.28Z"/>
        <path d="M80.17,205.8c2.12,0,3.62,1.44,3.62,3.48,0,1.39-.74,2.66-1.96,3.39-.86.51-1.91.77-3.09.77-1.91,0-3.02-.77-3.02-2.07,0-1.18.99-2.02,2.4-2.02,1.27,0,2.19.64,2.8,1.96.76-.56,1.08-1.14,1.08-1.95,0-1.29-.92-2.13-2.36-2.13s-3.04.73-4.35,2.04c-.24.24-.46.5-.73.84-.11.15-.18.21-.27.21-.27,0-1.33-1.05-1.33-1.32,0-.13.06-.21.39-.45.34-.27.84-.7,1.47-1.3,1.46-1.38,2.52-2.54,4.09-4.46-1.88.24-3.13.45-3.6.62-.08.02-.12.03-.17.03-.12,0-.2-.08-.29-.3-.18-.45-.27-.95-.32-1.61.41.06.69.08,1.02.08.72,0,1.93-.1,3.51-.29.55-.06.73-.1,1.16-.27.13-.06.21-.08.3-.08.21,0,.42.18.81.78.29.39.38.58.38.71,0,.19-.04.25-.38.46-.27.17-.43.3-.78.63-.75.72-.76.72-1.69,1.67-.66.67-.74.75-1.33,1.35.97-.54,1.74-.76,2.64-.76ZM78.73,210.99c-.23-.15-.48-.22-.77-.22-.46,0-.76.22-.76.58,0,.43.46.71,1.18.71.33,0,.62-.03.99-.14-.18-.5-.33-.72-.64-.93Z"/>
        <path d="M92.32,210.15c-.72,1.25-1.71,1.93-2.73,1.93-1.56,0-2.67-1.53-2.67-3.66,0-2.37,1.2-4.41,3.25-5.49,1-.54,2.08-.78,3.51-.78,3.14,0,5.46,2.22,5.46,5.19,0,2.62-1.29,4.51-3.78,5.58-.5.21-.89.33-1.08.33-.18,0-.25-.06-.45-.34-.25-.39-.54-.67-.95-.95,3.09-.79,4.49-2.25,4.49-4.68,0-1.25-.53-2.29-1.46-2.96-.53-.36-.95-.51-1.77-.64-.42,3.17-.92,4.89-1.83,6.46ZM90.16,204.84c-1,.88-1.58,2.14-1.58,3.55,0,1.16.38,1.83,1,1.83.75,0,1.52-1.04,2.08-2.82.36-1.12.54-1.98.77-3.64-1.07.22-1.59.48-2.28,1.08Z"/>
        <path d="M105.72,211.47c0,1.41-1.14,2.55-2.54,2.55s-2.53-1.14-2.53-2.55,1.14-2.54,2.53-2.54,2.54,1.14,2.54,2.54ZM101.82,211.47c0,.76.61,1.38,1.36,1.38s1.37-.62,1.37-1.38-.62-1.37-1.37-1.37-1.36.62-1.36,1.37Z"/>
        <path d="M124.86,206.1h2.13c.68,0,1.1-.03,1.54-.09v1.63c-.48-.04-.93-.08-1.56-.08h-1.62c.86,1.5,2.1,2.75,3.58,3.58-.48.48-.69.78-.99,1.5-.61-.43-1.05-.86-1.62-1.5-.74-.85-1.05-1.32-1.53-2.22.03.54.04,1,.04,1.44v1.82c0,.67.03,1.2.09,1.67h-1.67c.06-.46.09-1,.09-1.68v-1.71c0-.4.02-.88.04-1.48-.91,1.65-1.93,2.76-3.39,3.73-.38-.71-.58-1-.9-1.36,1.54-.89,2.8-2.17,3.67-3.78h-.95c-.64,0-1.11.03-1.58.09v-.6c-.25.36-.43.69-.61,1.21-.38-.58-.6-1.05-.89-1.8.03.46.06,1.27.06,1.91v3.69c0,.76.03,1.32.09,1.77h-1.67c.06-.46.09-1.02.09-1.77v-3.1c0-.57.02-.93.11-1.86-.44,1.46-.87,2.43-1.52,3.41-.18-.68-.37-1.11-.67-1.61.72-.92,1.47-2.61,1.92-4.35h-.57c-.44,0-.69.01-.96.06v-1.53c.24.04.51.06.96.06h.72v-1.16c0-.76-.01-1.14-.08-1.5h1.65c-.06.39-.08.8-.08,1.5v1.16h.43c.36,0,.54-.01.78-.06v1.42c.57-1.02,1.05-2.52,1.09-3.5l1.46.38c-.06.17-.1.34-.21.79-.08.27-.1.41-.18.69h1.15v-.99c0-.62-.03-.99-.09-1.37h1.68c-.06.36-.09.77-.09,1.37v.99h1.7c.72,0,1.14-.03,1.54-.09v1.58c-.42-.04-.9-.08-1.54-.08h-1.7v1.82ZM121.72,204.29c-.25.62-.39.9-.81,1.61q-.36-.38-1.17-.95c.12-.17.17-.24.24-.34-.2-.03-.44-.04-.71-.04h-.38c.34.79.71,1.39,1.36,2.28v-.82c.45.06.87.09,1.56.09h1.53v-1.82h-1.63Z"/>
        <path d="M136.3,209.15c-1.48.87-1.91,1.3-1.91,1.96,0,.27.11.45.33.58.33.2,1.07.3,2.01.3.81,0,1.93-.08,2.7-.18.32-.04.5-.09,1.09-.24h.08c.11,0,.18.08.23.18.09.32.15.77.15,1.31,0,.22-.08.31-.27.36-.36.08-2.03.17-3.12.17-1.83,0-2.8-.12-3.52-.42-.87-.36-1.31-1.04-1.31-1.98,0-.87.41-1.63,1.21-2.28.65-.51.79-.62,2.18-1.39-.12-.5-.35-.71-.81-.71-.62,0-1.26.24-1.96.71-.43.3-.95.72-1.26,1.03-.45.47-.5.5-.62.5-.15,0-.46-.34-.78-.87-.15-.25-.24-.45-.24-.55,0-.13.03-.17.39-.39,1.23-.83,2.25-1.88,2.87-2.96-1.07.08-1.62.09-2.21.09-.23,0-.27-.04-.34-.3-.05-.2-.12-.99-.14-1.39.51.07.81.09,1.53.09.58,0,1.23-.02,1.91-.04.31-.86.42-1.4.43-2.1,1.33.23,1.95.45,1.95.71,0,.06-.02.09-.06.18-.1.19-.22.43-.42.9q-.03.06-.04.11c.86-.12,1.61-.27,2.13-.39.33-.09.41-.1.48-.1.12,0,.18.04.21.13.06.27.15.96.15,1.17,0,.17-.06.24-.25.29-.48.13-2.13.39-3.51.52-.45.83-.76,1.31-1.23,1.82.67-.32,1.18-.43,1.78-.43.68,0,1.12.39,1.43,1.23,1.48-.81,2.28-1.25,2.37-1.3.69-.41.98-.63,1.31-1,.61.63,1.27,1.57,1.27,1.83,0,.09-.06.15-.25.2-.74.2-2.1.78-4.38,1.89.01.27.04.96.04,1.44v.72c0,.18-.03.27-.1.32-.08.08-.48.12-.93.12-.51,0-.6-.04-.6-.29v-.06c.03-.43.04-1,.04-1.36v-.08Z"/>
        <path d="M147.48,211.25c1.28-.36,2.08-.63,3.36-1.08v1.53c-1.11.43-1.84.69-3.62,1.25q-.46.15-1.51.43c-.13.03-.22.06-.32.08-.38.12-.6.2-.78.27l-.35-1.78c.5-.03.9-.11,1.58-.27v-9.25c0-.75-.01-1.12-.09-1.62h1.82c-.08.48-.09.85-.09,1.62v2.4h2c.69,0,.99-.01,1.38-.08v1.68c-.36-.06-.71-.07-1.38-.07h-2v4.9ZM152.97,211.67c0,.32.2.38,1.27.38.95,0,1.32-.06,1.46-.25.2-.29.29-1.09.29-2.91.58.32.93.47,1.54.65-.1,2.14-.27,2.97-.69,3.43-.39.44-1.02.57-2.75.57-1.32,0-1.82-.06-2.19-.25-.38-.21-.52-.56-.52-1.2v-9.64c0-.81-.02-1.19-.09-1.62h1.77c-.08.51-.09.83-.09,1.62v3.15c1.68-.97,2.79-1.83,3.39-2.64l1.12,1.32q-.24.18-.52.4c-1.12.93-2.33,1.7-3.99,2.6v4.41Z"/>
        <path d="M169.92,203.49c.72,1.32,1.24,1.95,2.35,2.9-.08.09-.13.17-.18.21-.39.46-.48.57-.78,1.05-.38-.36-.51-.5-.76-.76-.3,1.09-.83,2.32-1.4,3.25.92,1.02,1.71,1.57,3.13,2.19-.4.57-.54.81-.82,1.51-1.61-.93-2.33-1.48-3.2-2.49-.97,1.09-1.89,1.8-3.22,2.49-.38-.67-.51-.87-.98-1.33,1.44-.61,2.34-1.26,3.3-2.34-.33-.52-.63-1.08-1-1.92-.03-.08-.18-.42-.42-1.04-.17.2-.24.27-.46.51-.29-.36-.39-.48-.73-.79v1.02c0,.71.01,1.17.04,1.53-.38-.03-.53-.03-1.26-.03h-.75v.92h1.08c.56,0,.79-.01,1.19-.08v1.5c-.45-.06-.66-.08-1.19-.08h-1.08v.84c0,.47.03.81.09,1.28h-1.58c.06-.46.09-.81.09-1.33v-.78h-1.18c-.63,0-.92.02-1.32.08v-1.5c.38.06.65.08,1.32.08h1.18v-.92h-.64c-.66,0-1,.01-1.47.04.05-.46.06-.96.06-1.6v-2.49c0-.66-.01-1.04-.06-1.5.45.03.77.04,1.44.04h.67v-.78h-1.11c-.6,0-.91.02-1.32.06v-1.46c.42.06.63.08,1.32.08h1.11v-.18c0-.42-.03-.78-.09-1.16h1.58c-.06.34-.09.72-.09,1.16v.18h.78c.67,0,.88-.02,1.3-.08v1.46c-.4-.04-.61-.06-1.3-.06h-.78v.78h.81c.69,0,.93-.01,1.2-.04-.03.29-.04.62-.04,1.41v1.04c.93-.9,1.42-1.65,1.9-2.85l1.3.62c-.52,1.14-.91,1.77-1.63,2.67l.93-.39c.13.76.49,1.71,1.02,2.53.42-.81.72-1.66.88-2.62l1.32.51c-.74-.83-1.17-1.49-1.79-2.69l1.23-.63ZM160.54,205.11v1h.88v-1h-.88ZM160.54,207.26v1.03h.88v-1.03h-.88ZM163.6,206.12v-1h-.88v1h.88ZM163.6,208.29v-1.03h-.88v1.03h.88ZM167.55,201.56c0-.46-.02-.74-.08-1.08h1.71c-.06.29-.08.6-.08,1.05v.5h1.46c.63,0,1.02-.01,1.46-.08v1.56c-.45-.04-.93-.08-1.46-.08h-3.96c-.6,0-1.04.01-1.44.08v-1.56c.39.06.79.08,1.44.08h.95v-.46Z"/>
        <path d="M179.71,204.44c-3.29.21-4.56.34-5.5.6-.06.02-.12.03-.17.03-.11,0-.2-.08-.24-.2-.13-.38-.21-.87-.25-1.62h.36c.48,0,.93-.02,2.37-.11,1.11-.06,2.05-.1,3.4-.15-.01-1.35-.03-1.56-.17-2.23,1.16.03,1.74.08,1.95.17.09.04.13.12.13.27,0,.03-.01.09-.04.17-.13.33-.18.66-.21,1.59,2.19-.06,2.52-.06,4.02-.06.41,0,.46,0,.51.04.06.06.09.29.09.79,0,.69-.02.76-.21.76h-.06c-.64-.06-2.25-.12-3.3-.12q-.34,0-1.09.01l-.03,2.46c.23.5.3.92.3,1.63,0,1.88-.69,3.31-2.14,4.38-.6.45-1.37.84-1.63.84-.13,0-.21-.04-.33-.17-.42-.48-.74-.72-1.28-1.02.9-.25,1.37-.46,1.95-.83.44-.29.83-.6,1.11-.92.19-.24.34-.46.57-.95-.43.45-.79.62-1.35.62-1.26,0-2.08-.96-2.08-2.42,0-1.53.97-2.64,2.33-2.64.43,0,.71.06,1,.2v-1.16ZM177.9,207.95c0,.63.36,1.07.9,1.07.57,0,.92-.41.92-1.1s-.33-1.11-.9-1.11c-.54,0-.92.46-.92,1.14Z"/>
        <path d="M195.85,205.8c2.12,0,3.62,1.44,3.62,3.48,0,1.39-.74,2.66-1.96,3.39-.86.51-1.91.77-3.09.77-1.91,0-3.02-.77-3.02-2.07,0-1.18.99-2.02,2.4-2.02,1.27,0,2.19.64,2.8,1.96.76-.56,1.08-1.14,1.08-1.95,0-1.29-.92-2.13-2.36-2.13s-3.04.73-4.35,2.04c-.24.24-.46.5-.73.84-.11.15-.18.21-.27.21-.27,0-1.33-1.05-1.33-1.32,0-.13.06-.21.39-.45.34-.27.84-.7,1.47-1.3,1.46-1.38,2.52-2.54,4.09-4.46-1.88.24-3.13.45-3.6.62-.08.02-.12.03-.17.03-.12,0-.2-.08-.29-.3-.18-.45-.27-.95-.32-1.61.41.06.69.08,1.02.08.72,0,1.93-.1,3.51-.29.55-.06.73-.1,1.16-.27.13-.06.21-.08.3-.08.21,0,.42.18.81.78.29.39.38.58.38.71,0,.19-.04.25-.38.46-.27.17-.43.3-.78.63-.75.72-.76.72-1.69,1.67-.66.67-.74.75-1.33,1.35.97-.54,1.74-.76,2.64-.76ZM194.41,210.99c-.23-.15-.48-.22-.77-.22-.46,0-.76.22-.76.58,0,.43.46.71,1.18.71.33,0,.62-.03.99-.14-.18-.5-.33-.72-.64-.93Z"/>
        <path d="M204.96,201.65c0-.57-.02-.75-.08-1.05h1.67c-.04.3-.08.58-.08,1.05h4.51c-.01-.57-.03-.78-.08-1.05h1.67c-.06.3-.07.54-.07,1.05h.96c.67,0,1.15-.03,1.57-.09v1.46c-.51-.04-.99-.08-1.57-.08h-.96v4.05h1.15c.57,0,1.14-.03,1.59-.09v1.46c-.42-.06-.9-.09-1.54-.09h-1.47c.88.75,1.93,1.23,3.42,1.59-.32.52-.5.92-.69,1.51-1.02-.39-1.72-.74-2.58-1.3v.97c-.42-.04-.69-.06-1.32-.06h-1.67v1h3.51c.67,0,1.16-.03,1.61-.09v1.57c-.46-.06-.99-.09-1.73-.09h-8.01c-.7,0-1.24.03-1.72.09v-1.56c.41.04.9.08,1.63.08h3.21v-1h-1.44c-.6,0-.95.01-1.32.06v-.99c-.84.6-1.47.93-2.56,1.35-.17-.56-.32-.88-.71-1.5,1.41-.33,2.46-.84,3.33-1.63h-1.4c-.64,0-1.09.03-1.56.09v-1.46c.42.06.92.09,1.54.09h1.17v-4.05h-.78c-.6,0-1.09.03-1.59.08v-1.46c.43.06.93.09,1.59.09h.78ZM207.06,208.26c-.43.55-.75.87-1.37,1.36.24.02.41.02.77.02h1.44c0-.46-.01-.71-.08-.99h1.65c-.06.32-.08.53-.08.99h1.67c.38,0,.53,0,.72-.02-.66-.5-.99-.82-1.44-1.36h-3.29ZM210.99,203.54v-.6h-4.51v.6h4.51ZM210.99,205.25v-.57h-4.51v.57h4.51ZM210.99,206.99v-.62h-4.51v.62h4.51Z"/>
        <path d="M228.28,207.78c.57,0,.96-.01,1.37-.06v1.39c-.39-.04-.75-.06-1.44-.06h-4.29v.9h4.15c.75,0,1.16-.01,1.62-.08v1.61c-.53-.08-.97-.09-1.79-.09h-3.99v.81c0,.74.01,1.17.09,1.68h-1.84c.07-.57.1-.97.1-1.66v-.83h-3.83c-.79,0-1.26.03-1.75.09v-1.62c.42.06.86.09,1.54.09h4.04v-.9c-.5,0-.85.01-1.2.04.04-.41.06-.71.06-1.37v-1.89c0-.42,0-.88.01-1.21-.3.42-.45.58-.85.94-.21-.38-.3-.5-.54-.81l-.86,1.16c-.79-.66-1.42-1.07-2.37-1.52l1.02-1.17c.78.39,1.2.63,1.84,1.05,1.46-1.15,2.35-2.38,2.94-3.96l1.59.42c-.06.12-.11.19-.14.25q-.24.42-.61.99h1.83q.03-.06.14-.21c.29-.43.51-.88.67-1.39l1.47.39q-.45.79-.75,1.21h1.47c.54,0,1.08-.03,1.47-.07v1.41c-.35-.04-.77-.06-1.26-.06h-1.9v.72h1.5c.71,0,1-.01,1.27-.04v1.26c-.38-.03-.63-.04-1.27-.04h-1.5v.72h1.48c.71,0,.9-.01,1.29-.04v1.26c-.38-.03-.66-.04-1.27-.04h-1.5v.73h1.98ZM220.65,207.11c-1,1.02-1.65,1.53-3.13,2.52l-.95-1.42c.2-.08.45-.21.74-.38,1.05-.63,1.53-1,2.59-2.02l.75,1.3ZM218.23,200.46c1.04.51,1.5.81,2.33,1.5l-.96,1.27c-.85-.79-1.35-1.14-2.37-1.6l1-1.17ZM224.85,203.99v-.72h-2.22v.72h2.22ZM222.63,205.88h2.22v-.72h-2.22v.72ZM222.63,207.78h2.22v-.73h-2.22v.73Z"/>
        <path d="M235.2,209.43c.04.07.06.13.06.21,0,.1-.02.12-.15.45-.3.69-.66,1.77-.84,2.58-.04.17-.09.25-.15.29-.08.03-.58.11-.75.11h-.06c-.08,0-.18-.02-.3-.02-.2,0-.24-.04-.3-.22-.29-.97-.51-2.99-.51-4.5,0-1.65.1-2.67.52-4.92.15-.81.22-1.26.29-1.75.63.12,1.17.27,1.62.48.25.1.33.18.33.33,0,.1-.02.15-.18.39-.5.79-1.05,3.97-1.05,6.12,0,.34.02.81.06,1.56.42-.95.57-1.23.92-1.96.13.31.22.46.49.87ZM238.45,210.5c.48.25,1.05.34,2.06.34s1.53-.07,2.46-.34c.09-.03.17-.04.21-.04.1,0,.18.06.19.21.08.51.13,1.11.13,1.41,0,.15-.04.2-.25.25-.81.21-1.63.32-2.64.32-1.38,0-2.23-.17-2.94-.58-.66-.41-1.35-1.23-1.35-1.64,0-.21.32-.49,1.12-.99.27.54.53.81,1,1.06ZM237.4,202.85c.33.08,1.29.13,2.03.13.99,0,1.98-.08,2.91-.24q.08-.01.14-.01c.1,0,.15.04.18.17.03.15.08.81.08,1.21,0,.22-.04.3-.21.33-.62.12-1.63.2-2.71.2-1.29,0-2.45-.08-2.59-.17-.08-.04-.11-.15-.11-.42,0-.41.04-1,.08-1.12.01-.06.06-.09.15-.09.02,0,.05,0,.08.01Z"/>
        <path d="M15.96,231.23c-.27.01-.43.03-.61.04-.14.01-.15.01-.17.01-.12,0-.18-.04-.23-.19-.08-.24-.18-1.04-.19-1.49.17.01.6.03,1.14.03.17,0,1.35-.08,1.88-.12.25-1.21.34-1.84.34-2.66,1.54.21,2.1.39,2.1.68,0,.1-.01.13-.24.48-.12.18-.17.34-.42,1.28.7-.12,1.12-.23,1.68-.41.1-.03.15-.04.22-.04.11,0,.13.08.23.51.07.38.12.69.12.85,0,.18-.04.21-.43.3-.51.12-1.38.27-2.31.39-.56,1.68-.93,2.58-1.62,3.99-.53,1.05-.83,1.6-1.23,2.23-.12.18-.19.24-.3.24-.15,0-.57-.22-1.09-.62-.24-.17-.3-.24-.3-.34s.06-.2.25-.46c.43-.54,1-1.47,1.5-2.46.42-.83.57-1.17,1-2.36-.58.04-.63.06-1.32.11ZM20.9,239.87c-1.64,0-2.75-.9-2.75-2.24s1.15-2.41,2.7-2.41c.36,0,.53.01,1.14.1-.06-.72-.06-1-.12-2.4,0-.29-.03-.68-.06-1.16.77.08,1.35.17,1.64.29.12.04.18.12.18.24,0,.08-.01.14-.03.24-.08.32-.09.54-.09.95,0,.55.04,1.5.09,2.23,1.07.48,1.5.72,2.25,1.31.33.25.45.39.45.51,0,.15-.08.29-.5.96-.18.3-.31.43-.42.43q-.09,0-.51-.39c-.33-.33-.71-.58-1.23-.9,0,1.4-1.02,2.24-2.74,2.24ZM20.86,236.66c-.72,0-1.21.34-1.21.87,0,.5.45.81,1.12.81.79,0,1.21-.4,1.21-1.2,0-.12,0-.24-.02-.24-.3-.15-.7-.24-1.11-.24ZM26.47,232.4c-.18.25-.27.33-.38.33-.08,0-.13-.03-.24-.13-.38-.36-.9-.75-1.46-1.1q-.36-.22-1.02-.52c-.21-.09-.29-.15-.29-.27,0-.1.08-.24.3-.58.36-.52.45-.61.58-.61.28,0,1.39.57,2.19,1.11.65.44.84.62.84.78,0,.12-.24.57-.54,1Z"/>
        <path d="M36.79,232.05c2.12,0,3.62,1.44,3.62,3.48,0,1.39-.74,2.66-1.96,3.39-.86.51-1.91.77-3.09.77-1.91,0-3.02-.77-3.02-2.07,0-1.18.99-2.02,2.4-2.02,1.27,0,2.19.64,2.8,1.96.76-.56,1.08-1.14,1.08-1.95,0-1.29-.92-2.13-2.36-2.13s-3.04.73-4.35,2.04c-.24.24-.46.5-.73.84-.11.15-.18.21-.27.21-.27,0-1.33-1.05-1.33-1.32,0-.13.06-.21.39-.45.34-.27.84-.7,1.47-1.3,1.46-1.38,2.52-2.54,4.09-4.46-1.88.24-3.13.45-3.6.62-.08.02-.12.03-.17.03-.12,0-.2-.08-.29-.3-.18-.45-.27-.95-.32-1.61.41.06.69.08,1.02.08.72,0,1.93-.1,3.51-.29.55-.06.73-.1,1.15-.27.14-.06.21-.08.3-.08.21,0,.42.18.81.78.29.39.38.58.38.71,0,.19-.04.25-.38.46-.27.17-.43.3-.78.63-.75.72-.76.72-1.69,1.67-.66.67-.74.75-1.33,1.35.97-.54,1.74-.76,2.64-.76ZM35.36,237.24c-.23-.15-.48-.22-.77-.22-.46,0-.76.22-.76.58,0,.43.46.71,1.18.71.33,0,.62-.03.99-.14-.18-.5-.33-.72-.64-.93Z"/>
        <path d="M49.35,229.44c.42,0,.77-.01.92-.04v1.32c-.22-.03-.48-.04-.93-.04h-.96c.27.31.57.52,1.28.93-.38.41-.44.5-.83,1.18-.74-.61-.92-.82-1.28-1.38.02.24.03.48.03.58v.54c0,.18.01.36.06.53h-1.54c.03-.15.05-.33.05-.48v-.54c0-.15.01-.31.04-.63-.77,1.05-1.25,1.52-2.36,2.27-.3-.53-.46-.74-.93-1.19,1.16-.6,1.83-1.12,2.31-1.81h-.78c-.51,0-.9.01-1.2.06v-1.35c.34.04.67.06,1.21.06h1.71v-1.69c0-.44-.01-.69-.06-.98h1.56c-.04.29-.06.53-.06.95v1.72h1.75ZM48.61,239.22c-.53-.42-.74-.55-1.33-.87-.9.79-1.79,1.24-3.45,1.71-.21-.51-.43-.9-.75-1.33,1.29-.27,2.08-.56,2.87-1.05-.67-.31-1.07-.46-2.13-.85.45-.63.58-.83.93-1.42h-.42c-.53,0-.81.01-1.14.08v-1.46c.33.06.6.08,1.14.08h1.08c.13-.3.21-.48.39-1.02l1.49.29c-.13.36-.18.46-.3.74h2.28c.51,0,.78-.02,1.07-.06v1.42c-.3-.04-.54-.06-1.17-.06-.29.92-.42,1.21-.87,1.84.55.25.67.33,1.17.64l-.84,1.33ZM44.82,226.91c.54.79.72,1.12,1,1.91l-1.26.46c-.29-.79-.53-1.26-.98-1.9l1.23-.47ZM46.29,235.4c-.2.33-.24.41-.51.81.63.23.85.3,1.23.46.32-.42.5-.76.66-1.27h-1.38ZM50.17,227.42c-.57,1.14-.63,1.27-1.08,1.93l-1.23-.55c.46-.63.78-1.21,1.02-1.92l1.29.54ZM56.46,230.67c-.25-.04-.44-.04-1.02-.06-.09,2.33-.54,4.07-1.46,5.64.81,1.02,1.61,1.68,2.75,2.25-.34.45-.58.88-.84,1.53-1.09-.65-2.02-1.47-2.82-2.47-.9,1.03-2.01,1.92-3.27,2.58-.27-.75-.4-.99-.76-1.44.63-.32.81-.42,1.14-.63.83-.54,1.49-1.11,2.04-1.8-.66-1.19-.96-2.03-1.21-3.38-.25.41-.36.55-.66.94-.31-.4-.63-.73-1.04-1.03.9-1.14,1.5-2.4,1.95-4.16.18-.67.32-1.53.33-1.95l1.6.32c-.06.17-.1.3-.21.79-.1.41-.25.97-.39,1.42h2.52c.68,0,1-.01,1.35-.08v1.52ZM52.12,230.61q-.12.3-.18.44c.24,1.63.52,2.58,1.14,3.79.58-1.25.83-2.4.9-4.23h-1.86Z"/>
        <path d="M63.46,234.2c0-.33-.01-.55-.06-.93h.76c.71-.38,1.26-.75,1.77-1.21h-4.5c-.66,0-1.05.01-1.5.07v-1.56c.43.06.81.08,1.5.08h5.25c.57,0,.79-.01,1.11-.06l.76.96q-.4.35-.57.5c-1.1.95-1.91,1.53-2.96,2.16v.09h3.79c.69,0,1.3-.03,1.75-.09v1.63c-.45-.06-1.11-.09-1.75-.09h-3.79v2.54c0,1.23-.48,1.62-2.05,1.62-.5,0-1.02-.03-1.74-.08-.08-.55-.13-.75-.45-1.53.72.11,1.5.17,2.01.17s.66-.09.66-.38v-2.34h-3.96c-.64,0-1.27.03-1.75.09v-1.63c.5.06,1.09.09,1.75.09h3.96v-.09ZM63.22,227.82c0-.45-.01-.73-.07-1.09h1.77c-.06.33-.08.65-.08,1.08v.33h3.95c.73,0,1.06-.01,1.63-.06-.04.35-.06.66-.06,1.14v1.17c0,.41.03.75.08,1.09h-1.57v-1.92h-9.38v1.92h-1.59c.06-.33.08-.66.08-1.09v-1.17c0-.45-.02-.79-.06-1.14.55.05.92.06,1.65.06h3.66v-.32Z"/>
        <path d="M73.05,231.78h-.09c-.08.02-.13.02-.17.02-.13,0-.21-.06-.25-.26-.09-.38-.15-.82-.18-1.41.21.01.38.01.48.01.81,0,1.75-.06,2.55-.17.15-.99.23-1.74.23-2.37v-.34c1.74.24,2.07.33,2.05.6,0,.08-.03.12-.09.26-.18.34-.2.39-.44,1.57.58-.1,1.33-.3,1.64-.4.06-.03.07-.03.12-.03.13,0,.16.06.28.58.06.3.12.72.12.84,0,.11-.04.17-.18.2q-.27.09-2.33.45c-.69,3.06-1.41,5.29-2.56,8-.08.2-.15.27-.24.27-.2,0-.72-.21-1.23-.49-.26-.14-.33-.2-.33-.29,0-.06.04-.17.12-.32,1.14-2.16,1.96-4.46,2.53-6.91-.66.07-1.12.12-2.04.19ZM79.45,237.48c.43.29,1.06.42,1.95.42.97,0,1.81-.09,2.29-.24.12-.03.15-.04.21-.04.13,0,.19.04.24.18.11.32.18.93.18,1.4,0,.19-.06.27-.25.31-.5.11-1.33.17-2.22.17-1.88,0-2.92-.3-3.61-1.02-.25-.27-.46-.6-.58-.98-.09-.22-.15-.48-.15-.57,0-.25.45-.53,1.23-.78.17.63.34.92.72,1.16ZM83.67,233.12c-.3-.04-.93-.08-1.46-.08-1.11,0-1.58.04-2.89.27-.03.01-.08.01-.11.01-.09,0-.13-.03-.17-.12-.04-.1-.1-.84-.1-1.15,0-.2.03-.29.15-.33.06-.03.15-.04.46-.11,1.02-.18,1.88-.25,2.92-.25.87,0,1.32.03,1.43.11.07.06.09.18.09.67,0,.43-.03.83-.06.92-.01.04-.08.08-.15.08-.03,0-.08,0-.12-.02ZM82.02,227.84c.2,0,1.47,1.42,1.47,1.65,0,.06-.1.2-.22.29-.06.04-.15.12-.25.21-.13.12-.18.15-.33.21t-.08.03c-.06,0-.06-.02-.34-.45-.25-.39-.74-.99-.99-1.21-.03-.03-.08-.09-.08-.11.03-.06.05-.09.05-.09.07-.09.33-.3.39-.34.15-.08.24-.13.25-.15.01-.03.03-.03.04-.03h.09ZM84.55,228.89c-.21.15-.36.24-.43.24-.06,0-.09-.03-.17-.15-.33-.54-.65-.93-1.14-1.42-.04-.04-.06-.08-.06-.12,0-.13.57-.55.76-.55.11,0,.29.15.62.5.48.49.83.94.83,1.09,0,.09-.11.19-.41.42Z"/>
        <path d="M88.12,232.35c-.12.03-.18.06-.27.1-.08.04-.12.06-.2.06-.32,0-.55-.58-.74-1.7.12.02.23.02.29.02.63,0,2.24-.2,3.2-.39.31-1.32.48-2.31.48-3.03,0-.06,0-.14-.01-.25.64.07,1.26.21,1.68.38.24.09.36.22.36.38,0,.07-.02.12-.09.24q-.23.41-.69,2.05c.36-.04.76-.07,1.02-.07.62,0,1.1.12,1.44.36.6.44.9,1.32.9,2.69,0,2.23-.41,4.14-1.1,5.08-.48.66-1.11.98-1.99.98-.54,0-1.05-.08-1.2-.17q-.12-.08-.17-.63c-.04-.41-.13-.75-.32-1.17.78.25.98.3,1.46.3.72,0,1.02-.34,1.35-1.54.23-.79.35-1.83.35-2.92,0-1.17-.29-1.59-1.08-1.59-.27,0-.71.03-1.05.09-.04.17-.06.18-.12.39-.42,1.53-1.19,3.55-1.95,5.17-.79,1.63-.99,1.96-1.18,1.96-.12,0-.53-.21-.96-.5-.35-.21-.44-.3-.44-.42q0-.07.62-1.05c.83-1.27,1.91-3.78,2.28-5.25-1.11.24-1.73.39-1.86.44ZM95.77,230.67c0-.11.14-.24.57-.58.3-.23.45-.32.55-.32.09,0,.17.04.36.24.88.85,1.71,2,2.19,2.98.15.33.24.54.24.63,0,.15-.04.2-.52.58-.3.24-.65.44-.77.44-.1,0-.15-.04-.25-.3-.3-.74-.58-1.31-.94-1.86-.39-.6-.47-.69-1.35-1.63-.06-.09-.08-.13-.08-.18Z"/>
        <path d="M109.39,232.38c2.05,0,3.39,1.21,3.39,3.06s-1.12,3.01-3.37,3.73c-.81.26-2.15.5-2.75.5-.32,0-.39-.08-.6-.51-.16-.34-.34-.55-.79-.87,3.77-.3,5.62-1.26,5.62-2.89,0-.92-.64-1.46-1.72-1.46-1.37,0-2.78.71-3.93,1.95-.21.21-.41.46-.54.69-.13.23-.23.3-.36.3-.22,0-.75-.22-1.11-.49-.18-.14-.24-.24-.24-.48q0-.12.04-.48s0-.15.01-.32c.08-.96.12-1.37.3-2.71q.03-.17.14-.87s.04-.33.12-.88c.01-.13.03-.25.03-.5.72.11,1.4.27,1.68.43.12.06.18.14.16.23,0,.06-.03.1-.07.2-.17.25-.21.39-.35.96-.13.57-.34,1.89-.38,2.38,1.53-1.41,2.87-1.96,4.71-1.96ZM109.12,228.11c.58.34.76.51.76.67,0,.14-.24.58-.5.96-.24.35-.33.42-.45.42-.07,0-.12-.03-.3-.17-1-.76-1.8-1.2-2.92-1.59-.22-.09-.27-.12-.27-.24,0-.15.12-.41.39-.79.24-.36.34-.45.51-.45.36,0,1.83.63,2.78,1.18Z"/>
        <path d="M115.78,236.22c.27-.24.34-.3.45-.3.19,0,1.09.66,1.75,1.29.75.69,1.59,1.7,1.59,1.91,0,.13-.03.17-.46.55-.57.53-.69.62-.79.62-.09,0-.18-.06-.25-.21-.53-.93-1.73-2.16-2.79-2.85-.12-.09-.18-.15-.18-.24,0-.11.03-.15.69-.76Z"/>
        <path d="M132.21,230.03c-.42.83-.69,1.25-1.26,1.95-.36-.45-.69-.74-1.23-1.08.92-.99,1.44-1.95,1.85-3.38.1-.38.16-.64.18-.9l1.62.33c-.08.16-.14.31-.25.75-.08.29-.17.53-.3.9h2.17c.68,0,1.04-.01,1.43-.08v1.56c-.44-.04-.89-.06-1.43-.06h-.54v.98c-.02.4-.03.7-.08,1.27h.85c.65,0,.96-.01,1.37-.08v1.59c-.39-.06-.76-.07-1.4-.07h-.97c-.03.21-.04.27-.09.49.34.58.45.75.75,1.12.57.74,1,1.16,1.89,1.83-.38.46-.61.88-.9,1.56-1.04-.95-1.75-1.83-2.22-2.71-.55,1.45-1.23,2.34-2.77,3.63-.33-.57-.62-.87-1.2-1.29,1.14-.71,1.89-1.53,2.42-2.61.27-.57.46-1.2.6-2.02h-1.11c-.78,0-1.16.01-1.58.09v-1.62c.42.08.76.09,1.61.09h1.23q.04-.67.08-2.25h-.71ZM138.46,239.58h-1.62c.06-.45.09-1.08.09-1.65v-8.49c0-.6-.03-1.02-.08-1.53.41.06.71.07,1.32.07h3.04c.57,0,.92-.01,1.32-.07-.04.46-.06.85-.06,1.53v8.34c0,.66.03,1.26.09,1.8h-1.63v-.97h-2.47v.97ZM138.48,237.17h2.46v-7.74h-2.46v7.74Z"/>
        <path d="M147.94,232.32c1.89-.52,3.25-.76,4.27-.76,2.12,0,3.42,1.16,3.42,3.03,0,1.12-.46,2.12-1.35,2.87-.58.5-1.46.92-2.61,1.26-.64.18-1.33.32-1.63.32-.18,0-.27-.04-.33-.2-.21-.52-.45-.9-.76-1.21,3.3-.34,4.98-1.39,4.98-3.1,0-.87-.72-1.54-1.65-1.54-1.62,0-3.39.54-5.25,1.57-.15.08-.24.12-.3.12-.25,0-.67-.75-1.02-1.83.74-.1.99-.17,2.24-.51Z"/>
        <path d="M161.41,230.9c-.39.09-.53.13-1.07.33-.19.08-.3.1-.39.1-.33,0-.63-.61-.9-1.9.96-.04,1.31-.09,2.97-.34,1.8-.27,4.08-.62,5.28-.77,1.35-.18,2.43-.36,3-.48.1-.03.15-.03.22-.03.2,0,.27.09.41.46.12.32.21.76.21.97,0,.18-.06.24-.27.24-.32,0-.6.03-.89.08-2.53.42-4.56,2.64-4.56,4.98,0,1.75,1.38,2.91,3.72,3.12.21.01.29.09.29.27,0,.38-.15,1.09-.29,1.42-.08.17-.19.24-.39.24s-.65-.09-1.11-.22c-2.55-.75-3.88-2.37-3.88-4.67,0-1.25.41-2.4,1.19-3.39.42-.54.78-.84,1.63-1.42-1.96.33-4.04.72-5.17,1Z"/>
        <path d="M176.7,231.84c-1.19.12-1.49.13-2.16.13-.46,0-.54-.2-.65-1.53h.58c.74,0,1.4-.04,2.22-.13v-.32c0-.97-.06-1.74-.21-2.55,1.14.06,1.59.12,1.9.21.15.04.21.12.21.27,0,.09-.01.15-.09.3-.13.29-.21.83-.22,1.84.5-.09,1.29-.29,1.89-.46.04-.01.08-.01.1-.01.12,0,.2.06.23.17.08.3.17.9.17,1.12,0,.12-.08.22-.2.27-.18.08-1.27.3-2.23.46v1.94c1.48-.5,2.64-.74,3.63-.74,1.92,0,3.16,1.23,3.16,3.13,0,1.23-.49,2.22-1.38,2.75-.46.27-1.12.43-1.84.43s-1.37-.06-1.53-.17c-.16-.09-.18-.13-.21-.49-.03-.42-.12-.78-.3-1.22.62.23,1.12.32,1.71.32,1.17,0,1.83-.6,1.83-1.67s-.63-1.67-1.63-1.67c-.95,0-2.15.3-3.43.86q0,.06.01.64.01.99.01,1.2c.02.27.02.54.02.67,0,1.21-.46,1.8-1.46,1.8s-1.94-.51-2.54-1.29c-.24-.33-.36-.67-.36-1.08,0-.97.87-1.86,2.76-2.83v-2.37ZM176.7,235.86c-.87.53-1.23.87-1.23,1.18,0,.35.5.72.95.72.21,0,.29-.14.29-.48v-1.42ZM185.07,232.46c-.76-.81-1.81-1.48-2.8-1.8-.12-.04-.18-.1-.18-.18,0-.09.15-.33.57-.9.17-.22.18-.24.33-.24.15.01.72.21,1.11.39.94.43,2.17,1.37,2.17,1.65,0,.27-.75,1.21-.98,1.21-.07,0-.13-.03-.22-.14Z"/>
        <path d="M196.96,228.26c0,.13-.06.18-.32.33-.1.06-.24.18-.38.34-.93,1.08-2.26,2.54-3.45,3.73-.25.26-.36.45-.36.63,0,.16.12.34.41.6.88.81,2.32,2.28,3.39,3.5.75.84.94,1.11.94,1.26,0,.17-.25.42-.87.9-.29.23-.47.33-.56.33-.13,0-.19-.06-.34-.3-.64-1.02-2.22-2.92-3.42-4.14-.67-.67-.81-.83-1.02-1.12-.25-.36-.36-.66-.36-1,0-.3.09-.62.27-.92q.17-.27,1.08-1.25c.87-.9,1.8-2.04,2.38-2.88.39-.55.58-.92.78-1.42,1.17.64,1.82,1.14,1.82,1.41Z"/>
        <path d="M206.7,231.8c-.19-.66-.25-1.07-.43-2.91-.06-.72-.12-1.08-.27-1.59.91.01,1.5.06,1.9.17.23.06.33.17.33.33,0,.06-.01.13-.04.25-.1.36-.15.63-.15,1.02,0,.74.15,1.94.32,2.46.09.29.18.39.34.39.36,0,1.68-.69,2.4-1.24.19-.15.22-.17.3-.17.13,0,.27.1.5.39.38.51.67,1.07.67,1.28,0,.17-.11.27-.36.34-.93.25-2.46.85-3.49,1.35-1.83.9-2.66,1.73-2.66,2.66s.76,1.29,2.7,1.29c1.12,0,2.14-.11,3.52-.33.06-.02.17-.03.2-.03.12,0,.19.06.25.18.04.15.15,1.07.15,1.43,0,.21-.06.28-.26.34-.33.08-2.14.18-3.28.18-1.92,0-3.2-.25-3.99-.79-.67-.46-1.04-1.2-1.04-2.1,0-.69.2-1.31.6-1.91.52-.78,1.09-1.27,2.35-2.02-.31-.29-.43-.5-.57-.96Z"/>
        <path d="M223.73,228.65c-.08,1.23-.27,1.89-.76,2.62-.32.48-.63.79-1.32,1.32-.3-.48-.51-.72-.93-1.08-.23.33-.5.71-.65.88-.22.29-.24.3-.34.46v5.37c0,.71.03,1.3.09,1.81h-1.72c.06-.43.09-1.04.09-1.81v-3.08s0-.2.01-.41v-.36c-.27.33-.67.72-1.14,1.08-.17-.65-.36-1.11-.69-1.59,1.05-.71,1.82-1.49,2.81-2.85.33-.45.48-.69.64-1.05l1.25.95c.85-.79,1.16-1.59,1.16-3.11,0-.22-.02-.36-.04-.64.36.03.6.04,1.12.04h2.79c.53,0,.74-.01,1.07-.04-.03.29-.04.51-.04,1.04v2.04c0,.24.1.3.54.3.75,0,.78-.04.82-1.7.65.34.92.44,1.4.54-.08,1.18-.17,1.71-.34,2.01-.24.38-.83.54-2.03.54-1.63,0-1.95-.17-1.95-1.04v-2.26h-1.81ZM221.04,227.61q-.14.15-.39.44c-1.12,1.29-1.89,1.95-3.19,2.75-.32-.65-.5-.93-.9-1.35,1.05-.55,1.8-1.14,2.61-2.02.34-.38.43-.51.57-.74l1.31.93ZM228.84,233.63q-.22.29-.67,1.01c-.6.94-1.35,1.84-2.07,2.49,1.06.62,2.16.98,3.73,1.25-.38.64-.45.83-.69,1.67-1.86-.45-2.99-.92-4.37-1.86-1.14.78-2.28,1.31-4,1.85-.18-.58-.36-.93-.79-1.53,1.51-.38,2.45-.75,3.5-1.38-.74-.75-1.25-1.51-1.95-2.9-.58.02-.66.02-.99.06v-1.56c.32.06.68.07,1.19.07h5.32c.51,0,.81-.01,1-.06l.79.9ZM223.13,234.21c.64,1.02.97,1.43,1.63,2,.71-.57,1.11-1.04,1.81-2h-3.45Z"/>
        <path d="M235.2,235.68c.04.07.06.13.06.21,0,.1-.02.12-.15.45-.3.69-.66,1.77-.84,2.58-.04.17-.09.25-.15.29-.08.03-.58.11-.75.11h-.06c-.08,0-.18-.02-.3-.02-.2,0-.24-.04-.3-.22-.29-.97-.51-2.99-.51-4.5,0-1.65.1-2.67.52-4.92.15-.81.22-1.26.29-1.75.63.12,1.17.27,1.62.48.25.1.33.18.33.33,0,.1-.02.15-.18.39-.5.79-1.05,3.97-1.05,6.12,0,.34.02.81.06,1.56.42-.95.57-1.23.92-1.96.13.31.22.46.49.87ZM238.45,236.75c.48.25,1.05.34,2.06.34s1.53-.07,2.46-.34c.09-.03.17-.04.21-.04.1,0,.18.06.19.21.08.51.13,1.11.13,1.41,0,.15-.04.2-.25.25-.81.21-1.63.32-2.64.32-1.38,0-2.23-.17-2.94-.58-.66-.41-1.35-1.23-1.35-1.64,0-.21.32-.49,1.12-.99.27.54.53.81,1,1.06ZM237.4,229.1c.33.08,1.29.13,2.03.13.99,0,1.98-.08,2.91-.24q.08-.01.14-.01c.1,0,.15.04.18.17.03.15.08.81.08,1.21,0,.22-.04.3-.21.33-.62.12-1.63.2-2.71.2-1.29,0-2.45-.08-2.59-.17-.08-.04-.11-.15-.11-.42,0-.41.04-1,.08-1.12.01-.06.06-.09.15-.09.02,0,.05,0,.08.01Z"/>
      </g>
      <circle class="cls-9" cx="308.24" cy="241.16" r="30"/>
      <path class="cls-8" d="M329.77,1.42H90.4c-4.68,0-8.47,3.79-8.47,8.47v70.25s-9.69,9.69-9.69,9.69h9.69s0,.5,0,.5c0,4.68,3.79,8.47,8.47,8.47h239.38c4.68,0,8.47-3.79,8.47-8.47V9.89c0-4.68-3.79-8.47-8.47-8.47Z"/>
      <g>
        <path d="M106.77,24.18c-.69,0-1.79.22-2.54.51-1.59.61-2.64,1.74-2.64,2.83,0,.69.45,1.15,1.35,1.38.41.1,1.11.18,1.6.17h.15c.25,0,.34.09.34.28,0,.5-.09,1.19-.17,1.38-.06.12-.13.17-.29.17-.91,0-2.07-.24-2.85-.6-1.15-.51-1.79-1.4-1.79-2.5,0-.71.27-1.43.78-2.07.29-.35.51-.56,1.05-.93-2.73.82-4.09,1.35-5.01,1.95-.12.08-.19.1-.27.1-.17,0-.3-.13-.51-.51-.21-.35-.36-.77-.36-.99,0-.14.06-.18.42-.29.34-.1.58-.25,1.16-.66.69-.51,1.77-1.44,2.7-2.32.77-.73,1.2-1.19,2.1-2.23-.87.1-3.23.51-3.57.6-.21.06-.22.06-.27.06-.14,0-.2-.06-.25-.21-.12-.33-.23-.88-.3-1.51.21.01.32.01.45.01.67,0,2.13-.12,3.93-.34.67-.08,1.07-.17,1.33-.3.18-.09.21-.1.32-.1.18,0,.42.19.84.7.3.35.39.51.39.68s-.06.24-.25.38q-.27.17-1.53,1.33c-1.04.96-2.27,2.01-3.65,3.1,2.12-.63,3.22-.93,5.52-1.44.51-.1,1.01-.24,1.58-.42.08-.03.13-.04.18-.04.12,0,.18.06.25.19.17.35.36,1.08.36,1.35,0,.21-.06.3-.22.3h-.34Z"/>
        <path d="M115.99,23.46c.58-.24,1.37-.39,1.91-.39,2.29,0,3.79,1.32,3.79,3.31,0,1.37-.71,2.6-1.91,3.36-.97.6-2.77,1.06-4.2,1.06q-.45,0-.58-.4c-.12-.36-.36-.73-.66-1.04,2.05-.12,2.7-.23,3.64-.65,1.25-.52,1.89-1.35,1.89-2.37,0-1.14-.83-1.92-2.05-1.92-1.62,0-3.51.9-5.13,2.44-.22.23-.34.34-.85.96-.14.18-.24.24-.33.24-.27,0-1.23-1.08-1.23-1.39,0-.09.03-.14.25-.33,1.08-.95,3.78-3.81,5.7-6.06-1.49.18-2.76.41-3.33.6-.27.1-.34.12-.41.12-.13,0-.19-.08-.28-.35-.15-.4-.27-1-.33-1.59.19.03.34.04.58.04,1.46,0,4.56-.36,5.08-.6.18-.08.24-.09.33-.09.26,0,.54.23.96.75.27.31.38.5.38.6,0,.15-.09.25-.31.38-.2.12-.34.23-.55.4-.33.25-.45.38-1.5,1.4q-1.37,1.33-2.38,2.29c.81-.48,1.15-.66,1.53-.79Z"/>
        <path d="M135.69,24.18c-.69,0-1.79.22-2.54.51-1.59.61-2.64,1.74-2.64,2.83,0,.69.45,1.15,1.35,1.38.41.1,1.11.18,1.6.17h.15c.25,0,.34.09.34.28,0,.5-.09,1.19-.17,1.38-.06.12-.13.17-.29.17-.91,0-2.07-.24-2.85-.6-1.15-.51-1.79-1.4-1.79-2.5,0-.71.27-1.43.78-2.07.29-.35.51-.56,1.05-.93-2.73.82-4.09,1.35-5.01,1.95-.12.08-.19.1-.27.1-.17,0-.3-.13-.51-.51-.21-.35-.36-.77-.36-.99,0-.14.06-.18.42-.29.34-.1.58-.25,1.16-.66.69-.51,1.77-1.44,2.7-2.32.77-.73,1.2-1.19,2.1-2.23-.87.1-3.23.51-3.57.6-.21.06-.22.06-.27.06-.14,0-.2-.06-.25-.21-.12-.33-.23-.88-.3-1.51.21.01.32.01.45.01.67,0,2.13-.12,3.93-.34.67-.08,1.07-.17,1.33-.3.18-.09.21-.1.32-.1.18,0,.42.19.84.7.3.35.39.51.39.68s-.06.24-.25.38q-.27.17-1.53,1.33c-1.04.96-2.27,2.01-3.65,3.1,2.12-.63,3.22-.93,5.52-1.44.51-.1,1.01-.24,1.58-.42.08-.03.13-.04.18-.04.12,0,.18.06.25.19.17.35.36,1.08.36,1.35,0,.21-.06.3-.22.3h-.34Z"/>
        <path d="M144.91,23.46c.58-.24,1.37-.39,1.91-.39,2.29,0,3.79,1.32,3.79,3.31,0,1.37-.71,2.6-1.91,3.36-.97.6-2.77,1.06-4.2,1.06q-.45,0-.58-.4c-.12-.36-.36-.73-.66-1.04,2.05-.12,2.7-.23,3.64-.65,1.25-.52,1.89-1.35,1.89-2.37,0-1.14-.83-1.92-2.05-1.92-1.62,0-3.51.9-5.13,2.44-.22.23-.34.34-.85.96-.14.18-.24.24-.33.24-.27,0-1.23-1.08-1.23-1.39,0-.09.03-.14.25-.33,1.08-.95,3.78-3.81,5.7-6.06-1.49.18-2.76.41-3.33.6-.27.1-.34.12-.41.12-.13,0-.19-.08-.28-.35-.15-.4-.27-1-.33-1.59.19.03.34.04.58.04,1.46,0,4.56-.36,5.08-.6.18-.08.24-.09.33-.09.26,0,.54.23.96.75.27.31.38.5.38.6,0,.15-.09.25-.31.38-.2.12-.34.23-.55.4-.33.25-.45.38-1.5,1.4q-1.37,1.33-2.38,2.29c.81-.48,1.15-.66,1.53-.79Z"/>
        <path d="M162.34,23.44h2.13c.68,0,1.1-.03,1.54-.09v1.63c-.48-.04-.93-.07-1.56-.07h-1.62c.86,1.5,2.1,2.74,3.58,3.58-.48.48-.69.78-.99,1.5-.61-.43-1.05-.85-1.62-1.5-.74-.85-1.05-1.32-1.53-2.22.03.54.04,1,.04,1.44v1.81c0,.67.03,1.2.09,1.67h-1.67c.06-.46.09-1,.09-1.68v-1.71c0-.4.02-.88.04-1.48-.91,1.65-1.93,2.76-3.39,3.73-.38-.71-.58-1-.9-1.36,1.54-.89,2.8-2.17,3.67-3.78h-.95c-.64,0-1.11.03-1.58.09v-.6c-.25.36-.43.69-.61,1.21-.38-.58-.6-1.05-.89-1.8.03.47.06,1.27.06,1.91v3.69c0,.77.03,1.32.09,1.77h-1.67c.06-.46.09-1.02.09-1.77v-3.1c0-.57.02-.93.11-1.86-.44,1.46-.87,2.43-1.51,3.41-.18-.68-.38-1.11-.68-1.6.72-.92,1.47-2.61,1.92-4.35h-.57c-.44,0-.69.02-.96.06v-1.53c.24.04.51.06.96.06h.72v-1.16c0-.76-.01-1.14-.08-1.5h1.65c-.06.39-.08.8-.08,1.5v1.16h.43c.36,0,.54-.02.78-.06v1.42c.57-1.02,1.05-2.52,1.09-3.49l1.46.38c-.06.16-.1.34-.21.79-.08.27-.1.4-.18.69h1.15v-.99c0-.61-.03-.99-.09-1.36h1.68c-.06.36-.09.77-.09,1.36v.99h1.7c.72,0,1.14-.03,1.54-.09v1.58c-.42-.04-.9-.08-1.54-.08h-1.7v1.81ZM159.21,21.63c-.25.62-.39.9-.81,1.6q-.36-.38-1.17-.94c.12-.17.17-.24.24-.35-.2-.03-.44-.04-.71-.04h-.38c.34.79.71,1.4,1.36,2.28v-.83c.45.06.87.09,1.56.09h1.53v-1.81h-1.63Z"/>
        <path d="M173.79,26.49c-1.48.87-1.91,1.31-1.91,1.96,0,.27.11.45.33.58.33.2,1.07.3,2.01.3.81,0,1.93-.08,2.7-.18.32-.04.5-.09,1.09-.24h.08c.11,0,.18.07.23.18.09.31.15.77.15,1.31,0,.23-.08.31-.27.36-.36.08-2.03.17-3.12.17-1.83,0-2.8-.12-3.52-.42-.87-.36-1.31-1.04-1.31-1.98,0-.87.41-1.63,1.21-2.28.65-.51.79-.62,2.17-1.4-.12-.5-.34-.71-.81-.71-.62,0-1.26.24-1.96.71-.43.3-.95.72-1.26,1.03-.45.47-.5.5-.62.5-.15,0-.46-.34-.78-.87-.15-.25-.24-.45-.24-.55,0-.14.03-.17.39-.39,1.23-.82,2.25-1.88,2.87-2.95-1.07.07-1.62.09-2.21.09-.23,0-.27-.04-.34-.3-.05-.2-.12-.99-.14-1.4.51.07.81.09,1.53.09.58,0,1.23-.02,1.91-.04.31-.85.42-1.4.43-2.1,1.33.23,1.95.45,1.95.71,0,.06-.02.09-.06.18-.1.19-.22.43-.42.9q-.03.06-.04.1c.86-.12,1.61-.27,2.13-.39.33-.09.41-.1.48-.1.12,0,.18.04.21.14.06.27.15.96.15,1.17,0,.16-.06.24-.25.28-.48.14-2.13.39-3.51.52-.45.83-.76,1.31-1.23,1.81.67-.31,1.18-.43,1.78-.43.68,0,1.12.39,1.43,1.23,1.48-.81,2.28-1.24,2.37-1.3.69-.4.98-.63,1.31-1,.61.63,1.27,1.57,1.27,1.83,0,.09-.06.15-.25.2-.74.19-2.1.78-4.38,1.89.01.27.04.96.04,1.44v.72c0,.18-.03.27-.1.31-.08.08-.48.12-.93.12-.51,0-.6-.04-.6-.29v-.06c.03-.44.04-1,.04-1.36v-.08Z"/>
        <path d="M184.75,28.75c-.6,0-1.05.01-1.54.06.04-.41.06-.9.06-1.7v-3.31c0-.71-.02-1.19-.06-1.62.45.03.77.04,1.5.04h7.3c.84,0,1.17-.02,1.59-.04-.04.46-.06.87-.06,1.63v3.35c0,.79.01,1.32.06,1.65-.46-.05-.92-.06-1.53-.06h-1.07c1.02.57,2.37.93,4.12,1.12-.33.43-.51.75-.78,1.41-1.29-.19-1.92-.36-2.83-.72-.87-.36-1.35-.6-2.11-1.11l.85-.7h-4.03l.9.7c-.71.53-1.16.78-1.96,1.11-.92.38-1.54.55-2.64.76-.18-.51-.41-.84-.87-1.32,1.84-.29,3.13-.71,3.94-1.26h-.84ZM194.41,20.56c0,.54.01.81.06,1.16-.36-.03-.72-.05-1.48-.05h-9.2c-.72,0-1.18.02-1.5.05.05-.36.06-.62.06-1.16v-1.12c0-.55-.01-.81-.06-1.21.41.04.81.06,1.62.06h8.94c.81,0,1.22-.02,1.62-.06-.04.39-.06.66-.06,1.21v1.12ZM185.83,19.51h-2v.93h2v-.93ZM184.83,24.06h7.16v-.63h-7.16v.63ZM184.83,25.77h7.16v-.62h-7.16v.62ZM184.83,27.54h7.16v-.67h-7.16v.67ZM189.28,19.51h-2v.93h2v-.93ZM192.88,20.44v-.93h-2.14v.93h2.14Z"/>
        <path d="M199.89,23.41c1.89-.52,3.25-.77,4.27-.77,2.12,0,3.42,1.16,3.42,3.03,0,1.12-.46,2.12-1.35,2.87-.58.49-1.46.91-2.61,1.26-.64.18-1.33.31-1.63.31-.18,0-.27-.04-.33-.19-.21-.52-.45-.9-.76-1.21,3.3-.35,4.98-1.4,4.98-3.1,0-.87-.72-1.54-1.65-1.54-1.62,0-3.39.54-5.25,1.57-.15.08-.24.12-.3.12-.25,0-.67-.75-1.02-1.83.74-.1.99-.17,2.24-.51Z"/>
        <path d="M213.36,21.99c-.39.09-.53.13-1.07.33-.19.08-.3.1-.39.1-.33,0-.63-.61-.9-1.9.96-.04,1.31-.09,2.97-.34,1.8-.27,4.08-.62,5.28-.77,1.35-.18,2.43-.36,3-.48.1-.03.15-.03.22-.03.2,0,.27.09.41.47.12.31.21.76.21.98,0,.18-.06.24-.27.24-.32,0-.6.03-.89.08-2.53.42-4.56,2.64-4.56,4.98,0,1.75,1.38,2.91,3.72,3.12.21.01.29.09.29.27,0,.38-.15,1.09-.29,1.42-.08.17-.19.24-.39.24s-.65-.09-1.11-.22c-2.55-.75-3.88-2.37-3.88-4.67,0-1.25.41-2.4,1.19-3.39.42-.54.78-.84,1.63-1.43-1.96.33-4.04.72-5.17,1.01Z"/>
        <path d="M231.03,25.24c-.54,1-1.16,1.99-1.71,2.8-.62.88-1.32,1.33-2.05,1.33-1.08,0-1.82-.89-1.82-2.21,0-1.14.57-2.11,1.63-2.74.71-.41,1.77-.69,2.62-.69h.15c.76-1.56.96-1.98,1.47-3.15-1.38.06-2.22.18-2.83.39-.03.02-.08.02-.11.02-.25,0-.49-.78-.57-1.9.33.06.64.09,1.05.09.51,0,1.38-.04,2.29-.13q.85-.08,1.05-.2c.12-.06.2-.09.27-.09.19,0,.49.24.82.65.24.31.39.57.39.67,0,.12-.06.23-.24.41-.22.24-.92,1.53-1.79,3.36,1.42.28,1.96.45,3,.9.08-.52.13-1.14.13-1.56,0-.19-.01-.42-.04-.67.65.09,1.19.19,1.62.3.27.08.36.15.36.27,0,.1-.03.21-.12.39-.13.28-.18.48-.29,1.09-.04.31-.09.52-.18.96.76.48,1.42.94,1.72,1.23.08.08.12.15.12.23,0,.42-.65,1.4-.92,1.4-.08,0-.15-.04-.27-.14-.4-.36-.9-.78-1.2-1-.51,1.08-1.04,1.77-1.86,2.48-.71.58-1.68,1.12-2.04,1.12-.12,0-.25-.06-.36-.15-.04-.04-.04-.06-.24-.33-.23-.35-.42-.51-.78-.68,1.2-.42,1.79-.72,2.43-1.27.65-.57,1.14-1.26,1.47-2.07-1.02-.56-2.03-.9-3.21-1.09ZM226.98,27.04c0,.36.13.58.38.58.33,0,.92-.73,1.86-2.35-1.42.15-2.23.79-2.23,1.77Z"/>
        <path d="M240.78,22.69h-.09c-.08.02-.14.02-.17.02-.13,0-.21-.06-.25-.25-.09-.38-.15-.84-.18-1.41.21.02.38.02.48.02.81,0,1.75-.06,2.55-.17.15-.99.22-1.75.22-2.37v-.35c1.74.23,2.07.33,2.06.6,0,.07-.03.12-.09.25-.18.35-.19.39-.43,1.57.58-.1,1.33-.3,1.63-.4.06-.03.08-.03.12-.03.13,0,.17.06.29.58.06.3.12.72.12.84,0,.1-.04.17-.18.19q-.27.09-2.32.45c-.69,3.04-1.41,5.29-2.57,7.99-.08.19-.15.27-.24.27-.2,0-.72-.21-1.23-.5-.25-.13-.33-.21-.33-.29,0-.06.04-.16.12-.31,1.14-2.16,1.96-4.45,2.54-6.93-.66.09-1.12.14-2.04.21ZM247.18,28.39c.44.29,1.07.42,1.95.42.97,0,1.82-.09,2.29-.24.12-.03.15-.04.21-.04.13,0,.2.04.24.18.1.31.18.93.18,1.39,0,.2-.06.27-.25.31-.5.11-1.33.17-2.22.17-1.88,0-2.92-.3-3.62-1.02-.25-.27-.46-.62-.58-.99-.09-.21-.15-.46-.15-.55,0-.26.45-.53,1.23-.78.17.63.34.9.72,1.15ZM251.4,24.03c-.3-.04-.93-.07-1.46-.07-1.11,0-1.57.04-2.89.27-.03.01-.08.01-.1.01-.09,0-.14-.03-.17-.12-.04-.1-.11-.84-.11-1.16,0-.19.03-.28.15-.33.06-.03.15-.04.46-.1,1.02-.18,1.88-.25,2.92-.25.87,0,1.32.03,1.42.1.08.06.09.18.09.68,0,.43-.03.82-.06.91-.02.05-.08.08-.15.08-.03,0-.08,0-.12-.02Z"/>
        <path d="M255.1,21.04c0-.44-.02-1.02-.04-1.35.69.07,1.2.18,1.6.33.36.14.48.23.48.39q0,.09-.06.24c-.2.51-.25,1.08-.25,2.44,0,1.92.12,3.12.42,4.03.22.71.57,1.11.97,1.11.62,0,1.12-.72,1.68-2.38.28.77.39.99.81,1.53.08.1.12.21.12.31,0,.24-.22.75-.53,1.19-.58.85-1.33,1.32-2.13,1.32-1.15,0-2.02-.93-2.56-2.77-.34-1.2-.51-2.71-.51-4.81v-1.58ZM264.03,21.28c.09,0,.17.04.29.15.75.72,1.53,1.92,2.03,3.09.33.79.64,1.86.64,2.17,0,.15-.08.23-.39.39-.34.18-1.05.42-1.23.42-.13,0-.19-.08-.24-.34-.2-1.16-.46-2-.93-2.97-.42-.87-.45-.92-1.47-2.17.63-.46,1.12-.73,1.3-.73Z"/>
        <path d="M270.48,18.82v-.21c.94.17,1.42.3,1.81.5.11.04.13.1.13.21,0,.06-.03.13-.09.24-.13.24-.18.42-.41,1.41-.28,1.29-.43,2.73-.43,4.3,0,.84.03,1.3.12,2.1l.79-1.6c.09.31.21.57.39.78.12.15.14.19.14.31s0,.12-.29.75c-.32.67-.5,1.26-.66,2.02-.04.24-.09.31-.17.35-.12.06-.63.13-.93.13-.21,0-.29-.04-.33-.18-.36-1.02-.66-3.12-.66-4.62,0-1.29.17-3.07.43-4.95.09-.62.14-1.06.14-1.38v-.17ZM275.59,23.07c-.84,0-1.08-.03-1.16-.13-.1-.14-.19-.75-.19-1.31v-.22c.6.06,1.08.09,1.84.09.58,0,.92-.02,1.51-.06-.04-1.56-.13-2.49-.31-2.97h.4c.53,0,1.17.04,1.5.12.15.03.23.12.23.24,0,.06-.02.12-.04.23-.08.21-.12.54-.12.93,0,.23.01.93.01,1.11v.15c.75-.12,1.11-.2,1.74-.41.06-.02.12-.03.18-.03.09,0,.13.04.17.13.06.17.12.75.12,1.08,0,.24-.04.35-.17.39-.2.07-1.11.25-2,.38.02.42.02.65.02.88,0,2.21-.27,3.78-.87,4.96-.54,1.06-1.71,2.31-2.19,2.31-.13,0-.19-.03-.36-.18-.5-.44-.58-.51-1.17-.78,1.05-.58,1.72-1.22,2.19-2.07.5-.91.76-2.17.76-3.55,0-.1,0-.36-.01-.72-.01-.15-.01-.38-.03-.68-.54.04-1.75.1-2.05.1Z"/>
        <path d="M287.56,22.89c-.19-.66-.25-1.06-.43-2.91-.06-.72-.12-1.08-.27-1.59.91.02,1.5.06,1.9.17.23.06.33.17.33.33,0,.06-.01.13-.04.25-.1.36-.15.63-.15,1.02,0,.73.15,1.94.32,2.46.09.28.18.39.34.39.36,0,1.68-.69,2.4-1.24.19-.15.22-.17.3-.17.13,0,.27.1.5.39.38.51.67,1.06.67,1.27,0,.17-.11.27-.36.34-.93.25-2.46.85-3.49,1.35-1.83.9-2.66,1.73-2.66,2.65s.76,1.29,2.7,1.29c1.12,0,2.14-.1,3.52-.33.06-.02.17-.03.2-.03.12,0,.19.06.25.18.04.15.15,1.06.15,1.43,0,.21-.06.28-.26.34-.33.08-2.14.18-3.28.18-1.92,0-3.2-.26-3.99-.79-.67-.47-1.04-1.2-1.04-2.1,0-.69.2-1.31.6-1.9.52-.78,1.09-1.27,2.35-2.02-.31-.29-.43-.5-.57-.96ZM293.01,19.53c.12-.09.2-.12.29-.12.21,0,1.51,1.38,1.51,1.6,0,.09-.12.23-.41.46-.3.25-.33.27-.4.27-.09,0-.11,0-.39-.42-.3-.42-.72-.9-1.04-1.17-.04-.04-.07-.09-.07-.14,0-.07.13-.21.51-.49ZM296.26,19.93c0,.09-.04.15-.23.3-.21.18-.49.38-.55.38-.09,0-.12-.04-.3-.28-.34-.5-.55-.73-1.09-1.23-.06-.06-.08-.09-.08-.14,0-.13.57-.57.75-.57.25,0,1.5,1.27,1.5,1.54Z"/>
        <path d="M297.87,27.31c.27-.24.34-.3.45-.3.19,0,1.09.66,1.75,1.29.75.69,1.59,1.69,1.59,1.9,0,.14-.03.17-.46.56-.57.52-.69.61-.79.61-.09,0-.18-.06-.25-.21-.53-.93-1.73-2.16-2.79-2.85-.12-.09-.18-.15-.18-.24,0-.1.03-.15.69-.76Z"/>
        <path d="M316.48,22.89c-.19-.66-.25-1.06-.43-2.91-.06-.72-.12-1.08-.27-1.59.91.02,1.5.06,1.9.17.23.06.33.17.33.33,0,.06-.01.13-.04.25-.1.36-.15.63-.15,1.02,0,.73.15,1.94.32,2.46.09.28.18.39.34.39.36,0,1.68-.69,2.4-1.24.19-.15.22-.17.3-.17.13,0,.27.1.5.39.38.51.67,1.06.67,1.27,0,.17-.11.27-.36.34-.93.25-2.46.85-3.49,1.35-1.83.9-2.66,1.73-2.66,2.65s.76,1.29,2.7,1.29c1.12,0,2.14-.1,3.52-.33.06-.02.17-.03.2-.03.12,0,.19.06.25.18.04.15.15,1.06.15,1.43,0,.21-.06.28-.26.34-.33.08-2.14.18-3.28.18-1.92,0-3.2-.26-3.99-.79-.67-.47-1.04-1.2-1.04-2.1,0-.69.2-1.31.6-1.9.52-.78,1.09-1.27,2.35-2.02-.31-.29-.43-.5-.57-.96ZM321.93,19.53c.12-.09.2-.12.29-.12.21,0,1.51,1.38,1.51,1.6,0,.09-.12.23-.41.46-.3.25-.33.27-.4.27-.09,0-.11,0-.39-.42-.3-.42-.72-.9-1.04-1.17-.04-.04-.07-.09-.07-.14,0-.07.13-.21.51-.49ZM325.18,19.93c0,.09-.04.15-.23.3-.21.18-.49.38-.55.38-.09,0-.12-.04-.3-.28-.34-.5-.55-.73-1.09-1.23-.06-.06-.08-.09-.08-.14,0-.13.57-.57.75-.57.25,0,1.5,1.27,1.5,1.54Z"/>
        <path d="M99.81,48.22c.97-.25,1.62-.35,2.33-.35,2.13,0,3.36,1.26,3.36,3.42,0,1.88-.81,3.39-2.45,4.59-.87.65-2.19,1.29-2.62,1.29-.2,0-.24-.04-.56-.5-.22-.34-.45-.55-.82-.82,1.72-.58,2.44-.96,3.22-1.64.9-.79,1.35-1.75,1.35-2.89,0-1.22-.57-1.91-1.58-1.91-.81,0-1.86.31-3.22.98-.2.09-.3.17-.55.35-.06.03-.12.06-.18.06-.29,0-.77-.84-1.1-1.96.56-.04.84-.12,2.82-.61ZM100.81,44.56c.54.17,1.35.32,2.08.41.3.03.41.04,1.17.07.22,0,.29.06.29.23,0,.5-.11,1.31-.2,1.46-.03.09-.1.12-.21.12-.34,0-1.56-.17-2.26-.31-1.19-.24-2.22-.54-2.43-.71-.05-.04-.08-.1-.08-.17,0-.12.31-.93.46-1.21.08-.12.12-.15.21-.15q.08,0,.96.27Z"/>
        <path d="M119.17,46.45c2.03,0,3.3,1.21,3.3,3.17s-1.41,3.09-3.75,3.09c-.51,0-1.04-.06-1.23-.14-.12-.04-.18-.12-.21-.25-.1-.5-.3-.98-.66-1.57.93.22,1.5.31,2.13.31,1.21,0,1.94-.56,1.94-1.52,0-.38-.11-.75-.25-.96-.27-.38-.86-.61-1.53-.61-.86,0-2.04.38-4.51,1.44q.94,2.35,1.47,3.79c.63,1.7,1.16,3.23,1.16,3.36,0,.12-.09.2-.39.33-.43.2-.99.38-1.18.38-.15,0-.17-.03-.32-.58-.69-2.52-1.3-4.35-2.22-6.58-1.14.52-1.68.82-2,1.12-.09.07-.18.12-.28.12-.2,0-.38-.15-.66-.55-.3-.42-.42-.65-.67-1.12.96-.27,1.57-.48,2.98-1.06-.78-1.79-.88-2-1.47-2.75.96-.38,1.5-.54,1.84-.54.32,0,.39.09.43.5.05.42.08.57.26.99.01.03.15.34.46,1.15,1.32-.54,1.78-.72,2.77-1.04-.06-.03-.08-.04-.12-.1-.51-.66-.82-.99-1.48-1.54-.03-.06-.04-.09-.04-.13q0-.09.51-.54c.2-.18.5-.36.58-.36.08,0,.15.03.24.09.92.69,1.54,1.32,1.54,1.57,0,.12-.45.62-.81.89.83-.23,1.54-.33,2.17-.33Z"/>
        <path d="M127.59,49.66c1.89-.52,3.25-.77,4.27-.77,2.12,0,3.42,1.16,3.42,3.03,0,1.12-.46,2.12-1.35,2.87-.58.49-1.46.91-2.61,1.26-.64.18-1.33.31-1.63.31-.18,0-.27-.04-.33-.19-.21-.52-.45-.9-.76-1.21,3.3-.35,4.98-1.4,4.98-3.1,0-.87-.72-1.54-1.65-1.54-1.62,0-3.39.54-5.25,1.57-.15.08-.24.12-.3.12-.25,0-.67-.75-1.02-1.83.74-.1.99-.17,2.24-.51Z"/>
        <path d="M141.06,48.24c-.39.09-.53.13-1.07.33-.19.08-.3.1-.39.1-.33,0-.63-.61-.9-1.9.96-.04,1.31-.09,2.97-.34,1.8-.27,4.08-.62,5.28-.77,1.35-.18,2.43-.36,3-.48.1-.03.15-.03.22-.03.2,0,.27.09.41.47.12.31.21.76.21.98,0,.18-.06.24-.27.24-.32,0-.6.03-.89.08-2.53.42-4.56,2.64-4.56,4.98,0,1.75,1.38,2.91,3.72,3.12.21.01.29.09.29.27,0,.38-.15,1.09-.29,1.42-.08.17-.19.24-.39.24s-.65-.09-1.11-.22c-2.55-.75-3.88-2.37-3.88-4.67,0-1.25.41-2.4,1.19-3.39.42-.54.78-.84,1.63-1.43-1.96.33-4.04.72-5.17,1.01Z"/>
        <path d="M153.88,47.29c0-.44-.02-1.02-.04-1.35.69.07,1.2.18,1.6.33.36.14.48.23.48.39q0,.09-.06.24c-.2.51-.25,1.08-.25,2.44,0,1.92.12,3.12.42,4.03.22.71.57,1.11.97,1.11.62,0,1.12-.72,1.68-2.38.28.77.39.99.81,1.53.08.1.12.21.12.31,0,.24-.22.75-.53,1.19-.58.85-1.33,1.32-2.13,1.32-1.15,0-2.02-.93-2.56-2.77-.34-1.2-.51-2.71-.51-4.81v-1.58ZM162.81,47.53c.09,0,.17.04.29.15.75.72,1.53,1.92,2.03,3.09.33.79.64,1.86.64,2.17,0,.15-.08.23-.39.39-.34.18-1.05.42-1.23.42-.13,0-.19-.08-.24-.34-.2-1.16-.46-2-.93-2.97-.42-.87-.45-.92-1.47-2.17.63-.46,1.12-.73,1.3-.73Z"/>
        <path d="M173.83,49.71c.58-.24,1.37-.39,1.91-.39,2.29,0,3.79,1.32,3.79,3.31,0,1.37-.71,2.6-1.91,3.36-.97.6-2.77,1.06-4.2,1.06q-.45,0-.58-.4c-.12-.36-.36-.73-.66-1.04,2.05-.12,2.7-.23,3.64-.65,1.25-.52,1.89-1.35,1.89-2.37,0-1.14-.83-1.92-2.05-1.92-1.62,0-3.51.9-5.13,2.44-.22.23-.34.34-.85.96-.14.18-.24.24-.33.24-.27,0-1.23-1.08-1.23-1.39,0-.09.03-.14.25-.33,1.08-.95,3.78-3.81,5.7-6.06-1.49.18-2.76.41-3.33.6-.27.1-.34.12-.41.12-.13,0-.19-.08-.28-.35-.15-.4-.27-1-.33-1.59.19.03.34.04.58.04,1.46,0,4.56-.36,5.08-.6.18-.08.24-.09.33-.09.26,0,.54.23.96.75.27.31.38.5.38.6,0,.15-.09.25-.31.38-.2.12-.34.23-.55.4-.33.25-.45.38-1.5,1.4q-1.37,1.33-2.38,2.29c.81-.48,1.15-.66,1.53-.79Z"/>
        <path d="M188.88,45.1c.18.12.25.21.25.31s-.01.12-.24.38c-.08.09-.3.42-.54.83q-.75,1.25-1.16,1.96c-.42.71-.69,1.19-.84,1.41q-.04.07-.25.45c-.2.35-.32.52-.53.81.97-.85,1.5-1.08,2.49-1.08.66,0,1.25.29,1.62.78.31.42.4.81.54,2.28.07.88.15,1.27.25,1.5.1.21.31.33.58.33,1.03,0,2.26-1.25,2.86-2.88.15.63.27.93.58,1.48.11.18.14.3.14.45,0,.17-.08.38-.26.66-.78,1.26-2.05,2.01-3.42,2.01-.85,0-1.57-.3-1.95-.79-.3-.42-.44-.98-.56-2.44-.07-.96-.15-1.29-.36-1.53-.17-.18-.41-.27-.74-.27-.99,0-2.29,1.33-3.06,3.1-.22.51-.38.97-.54,1.54-.06.22-.13.31-.24.31-.31,0-1.04-.3-1.42-.58-.1-.09-.15-.15-.15-.24,0-.07.03-.15.22-.57.12-.27.17-.35.27-.62q1.11-2.59,4.19-8.82c.34-.69.51-1.12.61-1.58.78.29,1.14.47,1.62.79Z"/>
        <path d="M198.04,48.57c-.27.02-.43.03-.61.05-.14.01-.15.01-.17.01-.12,0-.18-.04-.23-.19-.08-.24-.18-1.04-.19-1.48.17.01.6.03,1.14.03.17,0,1.35-.07,1.88-.12.25-1.21.34-1.84.34-2.65,1.54.21,2.1.39,2.1.68,0,.1-.01.13-.24.48-.12.18-.17.34-.42,1.27.7-.12,1.12-.23,1.68-.41.1-.03.15-.04.22-.04.11,0,.13.08.23.51.07.37.12.69.12.85,0,.18-.04.21-.43.3-.51.12-1.38.27-2.31.39-.56,1.68-.93,2.58-1.62,3.99-.53,1.05-.83,1.6-1.23,2.23-.12.18-.19.24-.3.24-.15,0-.57-.22-1.09-.61-.24-.17-.3-.24-.3-.35s.06-.19.25-.46c.43-.54,1-1.47,1.5-2.46.42-.82.57-1.17,1-2.35-.58.05-.63.06-1.32.1ZM202.98,57.21c-1.64,0-2.75-.9-2.75-2.23s1.15-2.41,2.7-2.41c.36,0,.53.01,1.14.1-.06-.72-.06-1.01-.12-2.4,0-.29-.03-.68-.06-1.16.77.08,1.35.17,1.64.29.12.04.18.12.18.24,0,.08-.01.14-.03.24-.08.31-.09.54-.09.94,0,.56.04,1.5.09,2.23,1.07.48,1.5.72,2.25,1.31.33.25.45.39.45.51,0,.15-.08.29-.5.96-.18.3-.31.44-.42.44q-.09,0-.51-.39c-.33-.33-.71-.58-1.23-.9,0,1.4-1.02,2.23-2.74,2.23ZM202.95,54c-.72,0-1.21.34-1.21.87,0,.5.45.81,1.12.81.79,0,1.21-.4,1.21-1.2,0-.12,0-.24-.02-.24-.3-.15-.7-.24-1.11-.24ZM208.56,49.74c-.18.26-.27.33-.38.33-.08,0-.13-.03-.24-.13-.38-.36-.9-.75-1.46-1.1q-.36-.22-1.02-.52c-.21-.09-.29-.15-.29-.27,0-.1.08-.24.3-.58.36-.52.45-.61.58-.61.28,0,1.39.57,2.19,1.11.65.44.84.61.84.78,0,.12-.24.57-.54,1Z"/>
        <path d="M213.69,48.82c-.96.6-1.29.78-2.31,1.24-.25-.58-.48-.97-.84-1.48,1.53-.6,2.54-1.15,3.62-1.99.96-.74,1.68-1.52,2.28-2.43h1.7c.76,1.06,1.35,1.63,2.45,2.4,1.21.87,2.4,1.48,3.7,1.95-.4.61-.6,1.02-.81,1.62-.9-.39-1.46-.69-2.45-1.32v1.12c-.39-.04-.75-.06-1.29-.06h-4.82c-.41,0-.84.02-1.23.06v-1.11ZM212.89,52.53c-.75,0-1.23.03-1.7.09v-1.66c.45.04,1.02.07,1.7.07h8.95c.72,0,1.21-.03,1.7-.07v1.66c-.48-.06-.96-.09-1.7-.09h-4.93c-.48,1.1-.93,1.94-1.5,2.79q2.49-.14,4.56-.36c-.46-.51-.72-.78-1.51-1.59l1.42-.63c1.54,1.56,2.17,2.29,3.33,3.82l-1.4.92c-.4-.61-.52-.79-.85-1.24-1.2.15-2.05.25-2.59.3-1.5.15-4.23.4-4.84.45-.81.04-1.53.12-1.86.19l-.22-1.75c.43.03.62.04.81.04.12,0,.56-.02,1.29-.06.71-1.08,1.16-1.94,1.53-2.88h-2.17ZM219.72,48.37c.2,0,.33,0,.63-.02-1.3-.87-2.14-1.65-3.01-2.8-.75,1.02-1.62,1.84-2.98,2.8.24.02.36.02.58.02h4.78Z"/>
        <path d="M228.88,55.93c0,.68.02,1.05.09,1.47h-1.74c.06-.44.09-.83.09-1.5v-3.61c-.58.52-.88.75-1.61,1.23-.18-.56-.43-1.08-.73-1.5,1-.58,1.7-1.12,2.47-1.95.67-.71,1.09-1.3,1.56-2.22h-2.34c-.51,0-.86.02-1.2.06v-1.6c.38.04.66.06,1.12.06h.73v-1.2c0-.39-.03-.76-.09-1.09h1.72c-.06.31-.07.66-.07,1.11v1.19h.6c.43,0,.6-.02.83-.04l.69.75c-.12.2-.21.38-.31.62-.48,1.05-.74,1.48-1.44,2.46.67.76,1.33,1.29,2.28,1.81-.33.46-.54.85-.78,1.42-.76-.48-1.21-.88-1.88-1.62v4.17ZM235,55.24h1.72c.72,0,1.21-.03,1.65-.07v1.72c-.51-.06-1.07-.09-1.65-.09h-4.92c-.6,0-1.12.03-1.62.09v-1.72c.45.04.96.07,1.63.07h1.57v-5.62h-1.08c-.48,0-.96.03-1.41.07v-1.63c.41.06.81.08,1.41.08h1.08v-2.54c0-.6-.03-.94-.09-1.5h1.79c-.08.57-.09.85-.09,1.5v2.54h1.51c.66,0,1.04-.02,1.42-.08v1.63c-.46-.04-.92-.07-1.42-.07h-1.51v5.62Z"/>
        <path d="M245.49,53.74c-.72,1.25-1.71,1.94-2.73,1.94-1.56,0-2.67-1.53-2.67-3.66,0-2.37,1.2-4.41,3.25-5.49,1-.54,2.08-.78,3.51-.78,3.14,0,5.46,2.22,5.46,5.19,0,2.62-1.29,4.51-3.78,5.58-.5.21-.89.33-1.08.33-.18,0-.25-.06-.45-.34-.25-.39-.54-.68-.95-.95,3.09-.79,4.49-2.25,4.49-4.68,0-1.25-.53-2.29-1.46-2.96-.53-.36-.95-.51-1.77-.64-.42,3.16-.92,4.89-1.83,6.46ZM243.33,48.43c-1,.88-1.58,2.15-1.58,3.55,0,1.16.38,1.83,1,1.83.75,0,1.52-1.04,2.08-2.82.36-1.12.54-1.98.77-3.65-1.07.23-1.59.48-2.28,1.08Z"/>
        <path d="M263.56,49.69h2.13c.68,0,1.1-.03,1.54-.09v1.63c-.48-.04-.93-.07-1.56-.07h-1.62c.86,1.5,2.1,2.74,3.58,3.58-.48.48-.69.78-.99,1.5-.61-.43-1.05-.85-1.62-1.5-.74-.85-1.05-1.32-1.53-2.22.03.54.04,1,.04,1.44v1.81c0,.67.03,1.2.09,1.67h-1.67c.06-.46.09-1,.09-1.68v-1.71c0-.4.02-.88.04-1.48-.91,1.65-1.93,2.76-3.39,3.73-.38-.71-.58-1-.9-1.36,1.54-.89,2.8-2.17,3.67-3.78h-.95c-.64,0-1.11.03-1.58.09v-.6c-.25.36-.43.69-.61,1.21-.38-.58-.6-1.05-.89-1.8.03.47.06,1.27.06,1.91v3.69c0,.77.03,1.32.09,1.77h-1.67c.06-.46.09-1.02.09-1.77v-3.1c0-.57.02-.93.11-1.86-.44,1.46-.87,2.43-1.52,3.41-.18-.68-.37-1.11-.67-1.6.72-.92,1.47-2.61,1.92-4.35h-.57c-.44,0-.69.02-.96.06v-1.53c.24.04.51.06.96.06h.72v-1.16c0-.76-.01-1.14-.08-1.5h1.65c-.06.39-.08.8-.08,1.5v1.16h.43c.36,0,.54-.02.78-.06v1.42c.57-1.02,1.05-2.52,1.09-3.49l1.46.38c-.06.16-.1.34-.21.79-.08.27-.1.4-.18.69h1.15v-.99c0-.61-.03-.99-.09-1.36h1.68c-.06.36-.09.77-.09,1.36v.99h1.7c.72,0,1.14-.03,1.54-.09v1.58c-.42-.04-.9-.08-1.54-.08h-1.7v1.81ZM260.43,47.88c-.25.62-.39.9-.81,1.6q-.36-.38-1.17-.94c.12-.17.17-.24.24-.35-.2-.03-.44-.04-.71-.04h-.38c.34.79.71,1.4,1.36,2.28v-.83c.45.06.87.09,1.56.09h1.53v-1.81h-1.63Z"/>
        <path d="M269.71,51.46c0-.57.02-.99.03-1.57-.25.51-.57.99-.95,1.48-.19-.71-.34-1.11-.63-1.73.92-1,1.59-2.16,2.16-3.73.32-.87.45-1.35.54-1.98l1.54.63c-.11.32-.15.44-.27.8q-.28.88-.93,2.37v8.04c0,.79.02,1.23.06,1.67h-1.65c.08-.57.09-.99.09-1.68v-4.29ZM280.15,48.27c.54,0,.98-.02,1.31-.06-.04.38-.06.77-.06,1.35v5.98c0,.72.03,1.21.09,1.8h-1.65v-.79h-6.1v.78h-1.59c.05-.48.08-1.05.08-1.57v-6.17c0-.51-.03-.99-.06-1.38.41.04.72.06,1.3.06h1.37v-1.94h-.72c-.69,0-1.23.03-1.7.08v-1.6c.42.06.92.09,1.7.09h6.03c.79,0,1.32-.03,1.75-.09v1.6c-.42-.04-1.02-.08-1.71-.08h-1.48v1.94h1.45ZM273.67,49.65v5.5h1.16v-5.5h-1.16ZM277.32,46.33h-1.11v1.94h1.11v-1.94ZM276.21,55.15h1.11v-5.5h-1.11v5.5ZM278.7,55.15h1.2v-5.5h-1.2v5.5Z"/>
        <path d="M289.47,52.74c-1.48.87-1.91,1.31-1.91,1.96,0,.27.11.45.33.58.33.2,1.07.3,2.01.3.81,0,1.93-.08,2.7-.18.32-.04.5-.09,1.09-.24h.08c.11,0,.18.07.23.18.09.31.15.77.15,1.31,0,.23-.08.31-.27.36-.36.08-2.03.17-3.12.17-1.83,0-2.8-.12-3.52-.42-.87-.36-1.31-1.04-1.31-1.98,0-.87.41-1.63,1.21-2.28.65-.51.79-.62,2.18-1.4-.12-.5-.35-.71-.81-.71-.62,0-1.26.24-1.96.71-.43.3-.95.72-1.26,1.03-.45.47-.5.5-.62.5-.15,0-.46-.34-.78-.87-.15-.25-.24-.45-.24-.55,0-.14.03-.17.39-.39,1.23-.82,2.25-1.88,2.87-2.95-1.07.07-1.62.09-2.21.09-.23,0-.27-.04-.34-.3-.05-.2-.12-.99-.14-1.4.51.07.81.09,1.53.09.58,0,1.23-.02,1.91-.04.31-.85.42-1.4.43-2.1,1.33.23,1.95.45,1.95.71,0,.06-.02.09-.06.18-.1.19-.22.43-.42.9q-.03.06-.04.1c.86-.12,1.61-.27,2.13-.39.33-.09.41-.1.48-.1.12,0,.18.04.21.14.06.27.15.96.15,1.17,0,.16-.06.24-.25.28-.48.14-2.13.39-3.51.52-.45.83-.76,1.31-1.23,1.81.67-.31,1.18-.43,1.78-.43.68,0,1.12.39,1.43,1.23,1.48-.81,2.28-1.24,2.37-1.3.69-.4.98-.63,1.31-1,.61.63,1.27,1.57,1.27,1.83,0,.09-.06.15-.25.2-.74.19-2.1.78-4.38,1.89.01.27.04.96.04,1.44v.72c0,.18-.03.27-.1.31-.08.08-.48.12-.93.12-.51,0-.6-.04-.6-.29v-.06c.03-.44.04-1,.04-1.36v-.08Z"/>
        <path d="M300.64,54.84c1.28-.36,2.08-.63,3.36-1.08v1.53c-1.11.44-1.84.69-3.62,1.25q-.46.15-1.51.44c-.13.03-.22.06-.32.07-.38.12-.6.2-.78.27l-.35-1.78c.5-.03.9-.1,1.58-.27v-9.25c0-.75-.01-1.12-.09-1.62h1.82c-.08.48-.09.85-.09,1.62v2.4h2c.69,0,.99-.01,1.38-.07v1.68c-.36-.06-.71-.07-1.38-.07h-2v4.9ZM306.13,55.26c0,.31.2.38,1.27.38.95,0,1.32-.06,1.46-.25.2-.29.29-1.1.29-2.91.58.31.93.47,1.54.65-.1,2.15-.27,2.97-.69,3.44-.39.44-1.02.57-2.75.57-1.32,0-1.82-.06-2.19-.25-.38-.21-.52-.56-.52-1.2v-9.64c0-.81-.02-1.19-.09-1.62h1.77c-.08.51-.09.82-.09,1.62v3.15c1.68-.98,2.79-1.83,3.39-2.64l1.12,1.32q-.24.18-.52.4c-1.12.93-2.33,1.69-3.99,2.6v4.41Z"/>
        <path d="M315.33,48.33c.63-.71.94-.89,1.56-.89s.96.18,1.58.84c1.23,1.32,1.8,1.86,3.13,2.91.87.69,2.01,1.41,3.12,1.96.34.18.39.23.39.33,0,.17-.34.81-.72,1.33-.21.3-.27.36-.39.36-.18,0-.81-.39-1.95-1.21-1.07-.75-2.54-2.08-3.87-3.52q-.97-1.06-1.25-1.06c-.29,0-.31.02-.99.85-.48.58-.92,1.1-1.62,1.92-.36.42-.53.63-.63.81-.11.18-.18.24-.29.24-.17,0-.44-.19-.83-.6-.32-.31-.42-.45-.72-.99.99-.65,1.81-1.42,3.46-3.28ZM321.63,49.17c-.06,0-.12-.03-.17-.12-.38-.55-.69-.93-1.25-1.42-.08-.07-.09-.1-.09-.15,0-.09.18-.27.5-.5.15-.12.18-.13.27-.13.12,0,.45.27.92.75.48.49.64.7.64.82,0,.17-.64.75-.82.75ZM323.89,47.31c0,.15-.62.71-.78.71-.06,0-.12-.04-.18-.15-.27-.39-.72-.89-1.25-1.37-.06-.04-.08-.07-.08-.1,0-.13.58-.6.75-.6.27,0,1.53,1.26,1.53,1.52Z"/>
        <path d="M96.18,75.19h-.09c-.08.02-.14.02-.17.02-.13,0-.21-.06-.25-.25-.09-.38-.15-.84-.18-1.41.21.02.38.02.48.02.81,0,1.75-.06,2.55-.17.15-.99.22-1.75.22-2.37v-.35c1.74.23,2.07.33,2.06.6,0,.07-.03.12-.09.25-.18.35-.19.39-.43,1.57.58-.1,1.33-.3,1.63-.4.06-.03.08-.03.12-.03.13,0,.17.06.29.58.06.3.12.72.12.84,0,.1-.04.17-.18.19q-.27.09-2.32.45c-.69,3.04-1.41,5.29-2.57,7.99-.08.19-.15.27-.24.27-.2,0-.72-.21-1.23-.5-.25-.13-.33-.21-.33-.29,0-.06.04-.16.12-.31,1.14-2.16,1.96-4.45,2.54-6.93-.66.09-1.12.14-2.04.21ZM102.58,80.89c.44.29,1.07.42,1.95.42.97,0,1.82-.09,2.29-.24.12-.03.15-.04.21-.04.13,0,.2.04.24.18.1.31.18.93.18,1.39,0,.2-.06.27-.25.31-.5.11-1.33.17-2.22.17-1.88,0-2.92-.3-3.62-1.02-.25-.27-.46-.62-.58-.99-.09-.21-.15-.46-.15-.55,0-.26.45-.53,1.23-.78.17.63.34.9.72,1.15ZM106.8,76.53c-.3-.04-.93-.07-1.46-.07-1.11,0-1.57.04-2.89.27-.03.01-.08.01-.1.01-.09,0-.14-.03-.17-.12-.04-.1-.11-.84-.11-1.16,0-.19.03-.28.15-.33.06-.03.15-.04.46-.1,1.02-.18,1.88-.25,2.92-.25.87,0,1.32.03,1.42.1.08.06.09.18.09.68,0,.43-.03.82-.06.91-.02.05-.08.08-.15.08-.03,0-.08,0-.12-.02Z"/>
        <path d="M117.96,75.97c2.05,0,3.39,1.21,3.39,3.06s-1.12,3.02-3.37,3.73c-.81.26-2.15.5-2.75.5-.32,0-.39-.08-.6-.51-.16-.35-.34-.56-.79-.87,3.77-.3,5.62-1.26,5.62-2.9,0-.92-.64-1.46-1.72-1.46-1.37,0-2.78.71-3.93,1.95-.21.21-.41.46-.54.69s-.23.3-.36.3c-.22,0-.75-.22-1.11-.49-.18-.14-.24-.24-.24-.48q0-.12.04-.48s0-.15.01-.31c.08-.96.12-1.37.3-2.72q.03-.16.14-.87s.04-.33.12-.89c.01-.13.03-.25.03-.49.72.1,1.4.27,1.68.43.12.06.18.14.17.23,0,.06-.03.1-.07.2-.17.25-.21.39-.35.96-.13.57-.34,1.89-.38,2.38,1.53-1.41,2.87-1.96,4.71-1.96ZM117.69,71.7c.58.34.76.51.76.67,0,.14-.24.58-.5.96-.24.35-.33.42-.45.42-.07,0-.12-.03-.3-.17-1-.76-1.8-1.2-2.92-1.59-.22-.09-.27-.12-.27-.24,0-.15.12-.41.39-.79.24-.36.34-.45.51-.45.36,0,1.83.63,2.78,1.19Z"/>
        <path d="M124.96,73.54c0-.44-.02-1.02-.04-1.35.69.07,1.2.18,1.6.33.36.14.48.23.48.39q0,.09-.06.24c-.2.51-.25,1.08-.25,2.44,0,1.92.12,3.12.42,4.03.22.71.57,1.11.97,1.11.62,0,1.12-.72,1.68-2.38.28.77.39.99.81,1.53.08.1.12.21.12.31,0,.24-.22.75-.53,1.19-.58.85-1.33,1.32-2.13,1.32-1.15,0-2.02-.93-2.56-2.77-.34-1.2-.51-2.71-.51-4.81v-1.58ZM133.89,73.78c.09,0,.17.04.29.15.75.72,1.53,1.92,2.03,3.09.33.79.64,1.86.64,2.17,0,.15-.08.23-.39.39-.34.18-1.05.42-1.23.42-.13,0-.19-.08-.24-.34-.2-1.16-.46-2-.93-2.97-.42-.87-.45-.92-1.47-2.17.63-.46,1.12-.73,1.3-.73Z"/>
        <path d="M139.42,73.54c0-.44-.02-1.02-.04-1.35.69.07,1.2.18,1.6.33.36.14.48.23.48.39q0,.09-.06.24c-.2.51-.25,1.08-.25,2.44,0,1.92.12,3.12.42,4.03.22.71.57,1.11.97,1.11.62,0,1.12-.72,1.68-2.38.28.77.39.99.81,1.53.08.1.12.21.12.31,0,.24-.22.75-.53,1.19-.58.85-1.33,1.32-2.13,1.32-1.15,0-2.02-.93-2.56-2.77-.34-1.2-.51-2.71-.51-4.81v-1.58ZM148.35,73.78c.09,0,.17.04.29.15.75.72,1.53,1.92,2.03,3.09.33.79.64,1.86.64,2.17,0,.15-.08.23-.39.39-.34.18-1.05.42-1.23.42-.13,0-.19-.08-.24-.34-.2-1.16-.46-2-.93-2.97-.42-.87-.45-.92-1.47-2.17.63-.46,1.12-.73,1.3-.73Z"/>
        <path d="M158.73,79.99c-.72,1.25-1.71,1.94-2.73,1.94-1.56,0-2.67-1.53-2.67-3.66,0-2.37,1.2-4.41,3.25-5.49,1-.54,2.08-.78,3.51-.78,3.14,0,5.46,2.22,5.46,5.19,0,2.62-1.29,4.51-3.78,5.58-.5.21-.89.33-1.08.33-.18,0-.25-.06-.45-.34-.25-.39-.54-.68-.95-.95,3.09-.79,4.49-2.25,4.49-4.68,0-1.25-.53-2.29-1.46-2.96-.53-.36-.95-.51-1.77-.64-.42,3.16-.92,4.89-1.83,6.46ZM156.57,74.68c-1,.88-1.58,2.15-1.58,3.55,0,1.16.38,1.83,1,1.83.75,0,1.52-1.04,2.08-2.82.36-1.12.54-1.98.77-3.65-1.07.23-1.59.48-2.28,1.08Z"/>
        <path d="M168.99,75.94c-.12.03-.18.06-.27.1-.08.04-.12.06-.2.06-.32,0-.55-.58-.74-1.69.12.02.23.02.29.02.63,0,2.24-.2,3.2-.39.31-1.32.48-2.31.48-3.03,0-.06,0-.14-.01-.25.64.07,1.26.21,1.68.38.24.09.36.22.36.38,0,.07-.02.12-.09.24q-.23.4-.69,2.06c.36-.05.76-.08,1.02-.08.62,0,1.1.12,1.44.36.6.44.9,1.32.9,2.69,0,2.23-.41,4.14-1.1,5.08-.48.66-1.11.98-1.99.98-.54,0-1.05-.07-1.2-.17q-.12-.07-.17-.63c-.04-.4-.13-.75-.32-1.17.78.25.98.3,1.46.3.72,0,1.02-.34,1.35-1.54.23-.79.35-1.83.35-2.92,0-1.17-.29-1.59-1.08-1.59-.27,0-.71.03-1.05.09-.04.17-.06.18-.12.39-.42,1.53-1.19,3.55-1.95,5.17-.79,1.63-.99,1.96-1.18,1.96-.12,0-.53-.21-.96-.5-.35-.21-.44-.3-.44-.42q0-.07.62-1.05c.83-1.27,1.91-3.78,2.28-5.25-1.11.24-1.73.39-1.86.44ZM176.64,74.26c0-.1.14-.24.57-.58.3-.23.45-.31.55-.31.09,0,.17.04.36.24.88.85,1.71,2,2.19,2.98.15.33.24.54.24.63,0,.15-.04.2-.52.58-.3.24-.65.44-.77.44-.1,0-.15-.04-.25-.3-.3-.73-.58-1.31-.94-1.86-.39-.6-.47-.69-1.35-1.64-.06-.09-.08-.13-.08-.18Z"/>
        <path d="M183.24,76.27c-.12.03-.18.06-.27.1-.08.04-.12.06-.18.06-.33,0-.57-.57-.75-1.68h.29c.63,0,2.24-.2,3.2-.39.31-1.31.48-2.31.48-3.02,0-.06,0-.15-.01-.25.64.06,1.26.19,1.68.38.24.09.36.21.36.36,0,.08-.02.14-.09.26q-.23.39-.69,2.04c.36-.04.76-.07,1.02-.07.62,0,1.1.12,1.44.36.6.44.9,1.32.9,2.69,0,2.23-.41,4.15-1.1,5.1-.48.66-1.11.98-2,.98-.54,0-1.05-.08-1.2-.17q-.12-.08-.17-.63c-.04-.41-.13-.77-.32-1.19.78.27.98.31,1.46.31.72,0,1.02-.35,1.35-1.56.23-.79.35-1.81.35-2.92,0-1.17-.29-1.59-1.08-1.59-.27,0-.71.04-1.05.09-.04.18-.06.2-.12.39-.42,1.54-1.19,3.55-1.95,5.17-.79,1.63-.99,1.96-1.18,1.96-.12,0-.53-.21-.96-.5-.35-.21-.44-.3-.44-.42q0-.07.62-1.05c.83-1.27,1.91-3.77,2.28-5.25-1.11.25-1.73.39-1.86.44ZM192.66,73.2c-.24.18-.41.25-.48.25-.04,0-.09-.03-.13-.1-.32-.51-.84-1.1-1.28-1.47-.03-.03-.04-.06-.04-.09,0-.06.11-.17.36-.36.25-.18.33-.23.43-.23.24,0,1.56,1.33,1.56,1.58,0,.09-.12.19-.42.42ZM191.07,74.79c0-.1.13-.24.57-.58.3-.23.45-.31.57-.31.2,0,.87.72,1.5,1.6.52.75,1.09,1.81,1.09,2.07,0,.15-.04.19-.52.58-.3.24-.65.44-.77.44-.1,0-.15-.04-.25-.3-.29-.72-.54-1.21-.95-1.86-.4-.65-.43-.67-1.15-1.45-.06-.08-.09-.12-.09-.18ZM193.03,70.18c.25,0,1.53,1.27,1.53,1.53,0,.07-.09.17-.39.38-.27.21-.41.28-.46.28q-.08,0-.38-.42c-.25-.34-.74-.85-1-1.08-.04-.04-.08-.07-.08-.12,0-.12.62-.57.78-.57Z"/>
        <path d="M207.6,78.48h.33c.58,0,.96-.03,1.23-.08v1.48c-.3-.04-.68-.06-1.23-.06h-.33v1.73h.57c.78,0,1.04-.02,1.41-.07v1.53c-.42-.04-.77-.06-1.44-.06h-3.27v.69h-1.53c.06-.36.08-.67.08-1.46v-6.79c-.15.19-.18.24-.38.46-.13-.4-.21-.57-.38-.87v1.33c0,.24.01.5.03.65q-.18-.02-.87-.03h-1.44v.38q-.01.15-.01.27h1.28c.54,0,.7-.02,1-.05v1.22c-.32-.03-.51-.04-1-.04h-1.35c-.04.39-.04.46-.08.73h1.67c.54,0,.72-.02,1-.04v1.26c-.28-.03-.52-.04-1.02-.04h-1.17c.62.6,1.09.92,2.1,1.36-.36.52-.52.83-.69,1.29-1.05-.54-1.75-1.11-2.46-1.96-.56,1.06-1.26,1.71-2.62,2.35-.21-.44-.53-.92-.84-1.27.81-.3,1.09-.47,1.51-.83.34-.3.55-.56.75-.94h-1.08c-.46,0-.75.02-1.08.06v-1.29c.3.04.58.06,1.08.06h1.47c.06-.3.08-.39.11-.73h-1.3c-.48,0-.78.01-1.08.06v-1.24c.31.04.58.06,1.08.06h1.39q.01-.15.03-.65h-1.52c-.51,0-.67,0-.9.03.01-.31.03-.48.03-.75v-1.72c0-.27-.02-.44-.03-.75.25.03.34.03.9.03h4.33c.39,0,.51,0,.81-.03-.02.12-.02.15-.03.3.75-.98,1.38-2.48,1.63-3.81l1.5.38c-.09.18-.12.27-.29.78-.13.38-.31.85-.54,1.36h1.16c.48-.92.71-1.53.9-2.42l1.42.33c-.39,1.06-.53,1.37-.9,2.08h.41c.69,0,1.05-.02,1.46-.07v1.48c-.33-.04-.83-.06-1.46-.06h-.36v1.47h.36c.58,0,.93-.03,1.21-.07v1.48c-.29-.06-.66-.08-1.21-.08h-.36v1.58ZM197.74,71.23c0-.35-.01-.57-.06-.84h1.5c-.03.2-.04.42-.04.84v.15h1.17v-.15c0-.41,0-.58-.04-.84h1.5c-.04.21-.06.41-.06.83v.17c.64,0,.92-.02,1.29-.06v1.4c-.3-.04-.74-.06-1.29-.06.01.54.01.55.03.82h-1.44c.02-.25.02-.3.02-.82h-1.17c0,.48,0,.58.01.82h-1.44c.02-.24.03-.39.03-.82h-.25c-.58,0-.88.02-1.2.06v-1.41c.29.06.63.08,1.21.08h.24v-.15ZM197.92,74.83v1.02h1.16v-1.02h-1.16ZM200.41,75.85h1.09v-1.02h-1.09v1.02ZM206.19,74.1h-1.32v1.47h1.32v-1.47ZM204.87,76.9v1.58h1.32v-1.58h-1.32ZM204.87,81.55h1.32v-1.73h-1.32v1.73Z"/>
        <path d="M215.68,71.04c.37.1.48.18.48.35,0,.1-.01.15-.09.36-.17.44-.29,1.2-.34,2.25-.12,2.42-.18,4.29-.18,5.77,0,.48.04.84.12,1.08.17.5.69.75,1.53.75,1.35,0,2.62-.55,3.79-1.65.54-.51.87-.92,1.42-1.74.09.48.21.79.54,1.47.04.12.08.21.08.35,0,.27-.29.63-1.04,1.3-1.49,1.33-3.13,2.02-4.86,2.02-1.14,0-1.98-.28-2.52-.82-.57-.6-.79-1.38-.79-2.86,0-1.17.01-2.07.13-5.56.02-.52.03-.84.03-.98,0-1.27-.01-1.65-.11-2.29.77.03,1.35.09,1.8.21Z"/>
        <path d="M226.18,73.54c0-.44-.02-1.02-.04-1.35.69.07,1.2.18,1.6.33.36.14.48.23.48.39q0,.09-.06.24c-.2.51-.25,1.08-.25,2.44,0,1.92.12,3.12.42,4.03.22.71.57,1.11.97,1.11.62,0,1.12-.72,1.68-2.38.28.77.39.99.81,1.53.08.1.12.21.12.31,0,.24-.22.75-.53,1.19-.58.85-1.33,1.32-2.13,1.32-1.15,0-2.02-.93-2.56-2.77-.34-1.2-.51-2.71-.51-4.81v-1.58ZM235.11,73.78c.09,0,.17.04.29.15.75.72,1.53,1.92,2.03,3.09.33.79.64,1.86.64,2.17,0,.15-.08.23-.39.39-.34.18-1.05.42-1.23.42-.13,0-.19-.08-.24-.34-.2-1.16-.46-2-.93-2.97-.42-.87-.45-.92-1.47-2.17.63-.46,1.12-.73,1.3-.73Z"/>
        <path d="M241.42,74.82c-.27.02-.43.03-.61.05-.14.01-.15.01-.17.01-.12,0-.18-.04-.23-.19-.08-.24-.18-1.04-.19-1.48.17.01.6.03,1.14.03.17,0,1.35-.07,1.88-.12.25-1.21.34-1.84.34-2.65,1.54.21,2.1.39,2.1.68,0,.1-.01.13-.24.48-.12.18-.17.34-.42,1.27.7-.12,1.12-.23,1.68-.41.1-.03.15-.04.22-.04.11,0,.13.08.23.51.07.37.12.69.12.85,0,.18-.04.21-.43.3-.51.12-1.38.27-2.31.39-.56,1.68-.93,2.58-1.62,3.99-.53,1.05-.83,1.6-1.23,2.23-.12.18-.19.24-.3.24-.15,0-.57-.22-1.09-.61-.24-.17-.3-.24-.3-.35s.06-.19.25-.46c.43-.54,1-1.47,1.5-2.46.42-.82.57-1.17,1-2.35-.58.05-.63.06-1.32.1ZM246.36,83.46c-1.64,0-2.75-.9-2.75-2.23s1.15-2.41,2.7-2.41c.36,0,.53.01,1.14.1-.06-.72-.06-1.01-.12-2.4,0-.29-.03-.68-.06-1.16.77.08,1.35.17,1.64.29.12.04.18.12.18.24,0,.08-.01.14-.03.24-.08.31-.09.54-.09.94,0,.56.04,1.5.09,2.23,1.07.48,1.5.72,2.25,1.31.33.25.45.39.45.51,0,.15-.08.29-.5.96-.18.3-.31.44-.42.44q-.09,0-.51-.39c-.33-.33-.71-.58-1.23-.9,0,1.4-1.02,2.23-2.74,2.23ZM246.33,80.25c-.72,0-1.21.34-1.21.87,0,.5.45.81,1.12.81.79,0,1.21-.4,1.21-1.2,0-.12,0-.24-.02-.24-.3-.15-.7-.24-1.11-.24ZM251.94,75.99c-.18.26-.27.33-.38.33-.08,0-.13-.03-.24-.13-.38-.36-.9-.75-1.46-1.1q-.36-.22-1.02-.52c-.21-.09-.29-.15-.29-.27,0-.1.08-.24.3-.58.36-.52.45-.61.58-.61.28,0,1.39.57,2.19,1.11.65.44.84.61.84.78,0,.12-.24.57-.54,1Z"/>
        <path d="M257.01,76.98c0,.72-.58,1.3-1.3,1.3s-1.3-.58-1.3-1.3.58-1.31,1.3-1.31,1.3.58,1.3,1.31ZM262,76.98c0,.72-.58,1.3-1.3,1.3s-1.31-.58-1.31-1.3.58-1.31,1.31-1.31,1.3.58,1.3,1.31ZM267.01,76.98c0,.72-.58,1.3-1.3,1.3s-1.31-.58-1.31-1.3.58-1.31,1.31-1.31,1.3.58,1.3,1.31Z"/>
        <path d="M271.47,76.98c0,.72-.58,1.3-1.3,1.3s-1.3-.58-1.3-1.3.58-1.31,1.3-1.31,1.3.58,1.3,1.31ZM276.46,76.98c0,.72-.58,1.3-1.3,1.3s-1.31-.58-1.31-1.3.58-1.31,1.31-1.31,1.3.58,1.3,1.31ZM281.47,76.98c0,.72-.58,1.3-1.3,1.3s-1.31-.58-1.31-1.3.58-1.31,1.31-1.31,1.3.58,1.3,1.31Z"/>
        <path d="M287.8,81.31c0,1.41-1.14,2.55-2.54,2.55s-2.53-1.14-2.53-2.55,1.14-2.54,2.53-2.54,2.54,1.14,2.54,2.54ZM283.9,81.31c0,.76.61,1.38,1.36,1.38s1.37-.62,1.37-1.38-.62-1.37-1.37-1.37-1.36.62-1.36,1.37Z"/>
      </g>
      <circle class="cls-11" cx="31.42" cy="86.93" r="30"/>
      <g>
        <path class="cls-1" d="M325.82,231.94c1.79.14,1.22,2.12.34,3.27-.18.24-.54.27-.77.08-1.56-1.33-1.01-3.46.43-3.34Z"/>
        <path class="cls-1" d="M325.72,232.73c-.31,0-.56-.25-.56-.56v-3.55l-.89-1.24c-.18-.25-.12-.61.13-.79.25-.18.61-.12.79.13l1,1.39c.07.1.11.21.11.33v3.73c0,.31-.25.56-.56.56Z"/>
        <path class="cls-6" d="M310.96,258.33c1.34-.08,2.63-.26,3.88-.53,9.79-2.16,10.15-7.15,10.02-11.31s-1.03-19.07-13.04-19.88c-12.01-.81-15.11,8.74-17.43,11.84s-10.78,12.79,5.09,18.2c1.55.53,3.09.93,4.6,1.21"/>
        <polygon class="cls-5" points="322.89 223.06 316.8 222.5 319.51 227.97 325.71 228.63 322.89 223.06"/>
        <rect class="cls-5" x="316.22" y="226.15" width="6.62" height="2.88" transform="translate(210.84 -149.35) rotate(38.45)"/>
        <path class="cls-12" d="M290.74,244.26c5.03.33,7.93,5.64,6.07,11.34-4.9-2.67-7.64-5.38-6.07-11.34Z"/>
        <path class="cls-12" d="M324.35,246.38c-5.8-.8-10.25,4.19-9.34,10.68,6.16-1.72,9.86-3.98,9.34-10.68Z"/>
        <ellipse class="cls-1" cx="302.72" cy="246.56" rx="1.82" ry="1.68" transform="translate(12.07 507.24) rotate(-81.05)"/>
        <ellipse class="cls-1" cx="312.8" cy="247.61" rx="1.68" ry="1.82" transform="translate(-12.11 16.12) rotate(-2.9)"/>
        <path class="cls-1" d="M302.56,236.95c1.65-.67,3.13-.04,3.82,1.25.16.3-.14.56-.46.4-1.03-.52-2.05-.78-3.16-.99-.37-.07-.51-.53-.2-.66Z"/>
        <path class="cls-1" d="M315.64,239.46c-1.22-1.29-2.83-1.33-4-.45-.27.21-.11.57.26.56,1.16-.05,2.19.14,3.29.41.37.09.68-.27.45-.52Z"/>
        <path class="cls-1" d="M310.96,258.89c-.3,0-.55-.23-.56-.53-.02-.31.22-.58.53-.6,1.29-.08,2.57-.25,3.79-.52,9.84-2.17,9.68-7.33,9.58-10.74-.13-4.28-.81-7.98-2.03-11-2.08-5.2-5.61-8-10.49-8.33-9.65-.65-13.25,5.48-15.63,9.54-.48.82-.9,1.53-1.31,2.07-.11.15-.24.32-.38.51-1.66,2.17-4.75,6.2-3.58,10.07.84,2.78,3.8,5.06,8.79,6.76,1.5.51,3.02.91,4.52,1.19.31.06.51.35.45.66s-.35.51-.66.45c-1.55-.29-3.12-.71-4.67-1.23-5.35-1.82-8.55-4.35-9.5-7.5-1.34-4.42,2.11-8.92,3.77-11.08.14-.18.26-.35.38-.5.37-.49.77-1.18,1.24-1.97,2.37-4.04,6.34-10.8,16.68-10.1,5.35.36,9.2,3.4,11.46,9.03,1.26,3.14,1.97,6.98,2.11,11.39.14,4.6-.54,9.69-10.46,11.88-1.28.28-2.61.47-3.97.54-.01,0-.02,0-.03,0Z"/>
        <path class="cls-1" d="M301.8,245.92c-.06,0-.12-.02-.17-.06-.75-.59-1.13-1.2-1.42-2.25-.04-.15.05-.31.2-.35.15-.04.31.05.35.2.29,1.06.65,1.51,1.23,1.96.12.1.14.27.05.4-.06.07-.14.11-.22.11Z"/>
        <path class="cls-1" d="M301.61,246.51c-.79,0-1.64-.46-2.32-1.25-.1-.12-.09-.3.03-.4.12-.1.3-.09.4.03.62.73,1.39,1.12,2.05,1.05.15-.02.29.09.31.25.02.15-.09.29-.25.31-.07,0-.15.01-.22.01Z"/>
        <path class="cls-1" d="M313.98,247.1c-.14,0-.26-.1-.28-.24-.02-.15.09-.3.24-.32.66-.09,1.42-.66,1.85-1.39.08-.13.25-.18.39-.1.13.08.18.25.1.39-.52.88-1.43,1.54-2.26,1.66-.01,0-.03,0-.04,0Z"/>
        <path class="cls-1" d="M315.05,248.34c-.37,0-.75-.07-1.11-.24-.14-.06-.2-.23-.14-.37.06-.14.23-.2.37-.14.85.39,1.82.09,2.47-.24.14-.07.31-.01.38.13.07.14.01.31-.13.38-.5.25-1.16.48-1.85.48Z"/>
        <g>
          <path class="cls-3" d="M312.59,252.21c-.67-1.82-3.62-3.78-5.13-3.57s-4.67,2.04-5.66,1.99-1.67-.72-1.79,1.58,1.69,3.49,4.1,2.64c3.35,1.91,9.62.49,8.48-2.64Z"/>
          <path class="cls-3" d="M312.59,254.58c-.74,3.66-4.9,5.8-6.16,5.26s-2.84-1.41-1.46-4.59c2.49.53,6.87-.11,6.98-1.62s.63.95.63.95Z"/>
          <path class="cls-10" d="M306.2,255.57c-.72,1.34-.37,3.05,1.82,1.98s2.19-2.27,2.19-2.27c0,0,1.44-.72-.48,0s-3.53.29-3.53.29Z"/>
          <path class="cls-1" d="M307.7,256.28c-1.05,0-2.18-.32-3.35-.98-2.28.65-3.54.04-4.21-.59-.84-.8-1.15-2.08-.82-3.34.33-1.27.9-1.38,1.78-1.4.64-.01,1.62-.04,3.2-.87,3.5-1.84,5.55-.78,7.54,1.37.19.2.17.51-.03.7s-.51.17-.7-.03c-1.78-1.92-3.39-2.73-6.36-1.17-1.79.94-2.9.97-3.64.98-.68.02-.69.03-.85.66-.24.9-.02,1.84.55,2.38.71.68,1.9.78,3.44.3.13-.04.28-.02.4.05,1.91,1.13,4.66,1.8,6.84-1.37.13-.19.38-.27.59-.18,0,0,.71.29,1.35.43.27.06.43.32.37.59s-.32.44-.59.37c-.42-.09-.85-.23-1.14-.34-1.22,1.62-2.71,2.44-4.39,2.44Z"/>
          <path class="cls-1" d="M307.01,260.39c-.6,0-1.17-.14-1.69-.42-.84-.45-1.38-1.1-1.59-1.91-.43-1.61.6-3.27.64-3.34.14-.23.45-.3.68-.16.23.14.3.45.16.68,0,.01-.84,1.38-.52,2.57.15.55.51.97,1.11,1.29.85.46,1.91.39,2.98-.19,1.5-.82,3.12-2.78,3.33-5.32.02-.27.26-.47.53-.45.27.02.47.26.45.53-.21,2.56-1.72,4.96-3.84,6.11-.75.41-1.51.61-2.23.61Z"/>
        </g>
        <path class="cls-1" d="M321.26,231.79c-.12,0-.25-.04-.35-.12-.24-.19-.29-.55-.09-.79l2.24-2.84c.12-.15.31-.23.5-.21l1.19.13-2.21-4.36-4.77-.45.69,1.4c.09.19.07.42-.05.59l-1.8,2.39c-.19.25-.54.3-.79.11-.25-.19-.3-.54-.11-.79l1.59-2.11-.99-1.99c-.09-.18-.08-.4.04-.57.12-.17.31-.26.52-.24l6.09.57c.19.02.36.13.45.31l2.82,5.57c.09.18.08.41-.04.58-.12.17-.32.26-.52.24l-1.91-.2-2.04,2.59c-.11.14-.28.21-.44.21Z"/>
      </g>
      <g>
        <path class="cls-7" d="M40.83,76.61c5.99-4.82,10.66-4.4,11.63-2.77.89,1.5-.2,9.39-9.12,4.98"/>
        <path class="cls-4" d="M45.07,79.19c2.15-3.7,6.52-2.97,7.65-2.44-1.95,3.62-3.96,4.96-7.65,2.44Z"/>
        <path class="cls-1" d="M48.07,80.77c-1.31,0-2.95-.38-4.99-1.39-.3-.15-.43-.52-.28-.82.15-.3.52-.42.82-.28,3.32,1.64,5.84,1.68,7.3.12,1.3-1.4,1.35-3.69,1.02-4.24-.21-.35-.72-.62-1.4-.75-.91-.17-4.28-.39-9.33,3.68-.26.21-.65.17-.86-.09-.21-.26-.17-.65.09-.86,3.68-2.96,7.54-4.43,10.31-3.93,1.04.19,1.83.66,2.23,1.32.64,1.09.43,3.95-1.18,5.69-.75.81-1.93,1.54-3.74,1.54Z"/>
        <path class="cls-7" d="M46.32,90.84c1.64-16.83-17.12-22.81-25.65-13.47-2.98,3.26-5.19,9.03-4.06,15.78-3.29,3.25-2.73,7.92,2.42,10.47,3.1,1.53,6.2,2.2,13.34,2.2,6.63,0,14.3-2.8,16.45-6.94,1.2-2.31.78-5.73-2.5-8.03Z"/>
        <path class="cls-2" d="M36.09,73.21c-.6-4.19-4.15-6.53-4.34-.47"/>
        <path class="cls-2" d="M24.4,74.27c-.51-4.21,2.31-7.38,4.07-1.58"/>
        <path class="cls-7" d="M19.94,77.33c-6.66-3.83-11.22-2.69-11.92-.92-.65,1.62,2.36,9.82,10.47,4.08"/>
        <path class="cls-4" d="M16.67,81.15c-2.15-3.7-7.04-2.78-8.16-2.25,1.95,3.62,4.48,4.77,8.16,2.25Z"/>
        <path class="cls-4" d="M29.51,72.72c1.23,7.47-2.33,14.46-12.54,14.46,0-11.43,12.54-14.46,12.54-14.46Z"/>
        <path class="cls-4" d="M31.75,72.74c0,8.41,6.81,12.73,13.85,13.26,0-11.43-13.85-13.26-13.85-13.26Z"/>
        <path class="cls-4" d="M15.52,99.61c13.82-6.39,25.47-3.61,33.3-.74-3.13,7.58-29.27,10.16-33.3.74Z"/>
        <path class="cls-1" d="M32.37,106.42c-7.6,0-10.65-.79-13.61-2.26-2.69-1.33-4.37-3.31-4.74-5.59-.32-1.98.37-3.97,1.94-5.63-1.1-7.14,1.47-12.92,4.26-15.98,4.25-4.65,11.26-5.93,17.43-3.18,3.01,1.34,5.47,3.51,7.11,6.28,1.79,3.02,2.53,6.55,2.2,10.5,3.38,2.57,3.64,6.23,2.4,8.6-2.36,4.55-10.5,7.26-17,7.26ZM30.99,73.56c-3.76,0-7.35,1.46-9.87,4.22-2.64,2.89-5.06,8.42-3.91,15.27.03.2-.03.39-.17.53-1.44,1.42-2.08,3.13-1.81,4.8.3,1.88,1.75,3.55,4.07,4.69,2.8,1.38,5.72,2.13,13.07,2.13,6.88,0,14.02-2.96,15.91-6.61,1.03-1.99.75-5.1-2.31-7.25-.18-.13-.28-.34-.26-.56.71-7.25-2.5-13.19-8.57-15.9-2.01-.89-4.11-1.33-6.16-1.33Z"/>
        <path class="cls-1" d="M13.29,83.12c-1.46,0-2.58-.54-3.4-1.18-2.09-1.64-2.9-4.58-2.44-5.76.29-.72.99-1.31,1.99-1.65,2.66-.93,6.7-.08,10.8,2.27.29.17.39.54.23.83-.17.29-.54.39-.83.23-5.62-3.23-8.91-2.49-9.79-2.18-.65.23-1.11.57-1.26.95-.21.53.31,2.97,2.06,4.35,1.89,1.49,4.48,1.14,7.5-.99.27-.19.65-.13.85.15.19.27.13.66-.15.85-2.23,1.58-4.07,2.14-5.56,2.14Z"/>
        <path class="cls-1" d="M36.09,73.81c-.3,0-.56-.22-.6-.52-.32-2.23-1.49-3.66-2.13-3.63-.31.02-.93.69-1,3.09-.01.34-.3.6-.63.59-.34-.01-.6-.29-.59-.63.11-3.62,1.4-4.23,2.15-4.27.03,0,.06,0,.09,0,1.46,0,2.94,2.06,3.31,4.67.05.33-.18.64-.52.69-.03,0-.06,0-.09,0Z"/>
        <path class="cls-1" d="M24.4,74.88c-.3,0-.57-.23-.6-.54-.32-2.67.61-5.08,2.07-5.39.74-.15,2.14.1,3.19,3.56.1.32-.08.66-.41.76-.32.1-.66-.08-.76-.41-.7-2.3-1.46-2.79-1.77-2.72-.62.13-1.38,1.81-1.11,4.05.04.33-.2.64-.53.68-.02,0-.05,0-.07,0Z"/>
        <path class="cls-1" d="M37.33,84.72c-.65-1.09-1.64-1.26-2.42-.7-.18.13-.11.42.12.44.71.07,1.33.3,1.99.61.22.1.44-.14.31-.35Z"/>
        <path class="cls-1" d="M26.37,84.92c.65-1.09,1.64-1.26,2.42-.7.18.13.11.42-.12.44-.71.07-1.33.3-1.99.61-.22.1-.44-.14-.31-.35Z"/>
        <circle class="cls-1" cx="33.22" cy="98.73" r=".57"/>
        <circle class="cls-1" cx="31.43" cy="98.73" r=".57"/>
        <path class="cls-1" d="M31.54,102.93c-.58,0-1.17-.13-1.74-.4-1.05-.5-1.76-1.38-1.96-2.34l-.5.2c-.32.13-.68-.02-.8-.34-.13-.32.02-.68.34-.8l1.32-.53c.21-.08.44-.05.62.09.17.14.26.36.22.59-.16.89.54,1.66,1.3,2.02.9.43,2.24.48,3.27-.69.23-.26.62-.28.87-.05.26.23.28.62.05.87-.81.91-1.88,1.39-2.99,1.39Z"/>
        <ellipse class="cls-1" cx="36" cy="93.27" rx="1.44" ry="1.56" transform="translate(-14.07 6.74) rotate(-8.95)"/>
        <ellipse class="cls-1" cx="28.34" cy="93.63" rx="1.56" ry="1.44" transform="translate(-66.61 117.2) rotate(-87.1)"/>
      </g>
    </g>
  </g>
</svg>