<?xml version="1.0" encoding="UTF-8"?>
<svg id="_レイヤー_2" data-name="レイヤー 2" xmlns="http://www.w3.org/2000/svg" width="339.66" height="208.16" viewBox="0 0 339.66 208.16">
  <defs>
    <style>
      .cls-1 {
        fill: #211815;
      }

      .cls-2 {
        fill: #f5f19b;
      }

      .cls-3 {
        fill: #ecbb6e;
      }

      .cls-4 {
        fill: #93c9ce;
      }

      .cls-5 {
        fill: #5c948d;
      }

      .cls-6 {
        fill: #fffba1;
      }

      .cls-7, .cls-8 {
        fill: #fff;
      }

      .cls-9 {
        fill: #d3f2c9;
      }

      .cls-10 {
        fill: #ceeaeb;
      }

      .cls-11 {
        fill: #f2ec67;
      }

      .cls-12 {
        fill: #f2d496;
      }

      .cls-8 {
        stroke: #ceeaeb;
        stroke-miterlimit: 10;
        stroke-width: 2.83px;
      }
    </style>
  </defs>
  <g id="_レイヤー_1-2" data-name="レイヤー 1">
    <g>
      <path class="cls-8" d="M9.89,97.54h239.38c4.68,0,8.47,3.79,8.47,8.47v69.68s9.69,9.69,9.69,9.69h-9.69s0,.5,0,.5c0,4.68-3.79,8.47-8.47,8.47H9.89c-4.68,0-8.47-3.79-8.47-8.47v-79.87c0-4.68,3.79-8.47,8.47-8.47Z"/>
      <circle class="cls-9" cx="305.91" cy="178.16" r="30"/>
      <g>
        <path d="M26.64,122.25c-.69,0-1.79.22-2.54.51-1.59.62-2.64,1.74-2.64,2.83,0,.69.45,1.16,1.35,1.38.41.11,1.11.18,1.6.17h.15c.25,0,.34.09.34.29,0,.5-.09,1.18-.17,1.38-.06.12-.13.17-.29.17-.91,0-2.07-.24-2.85-.6-1.15-.51-1.79-1.4-1.79-2.5,0-.71.27-1.43.78-2.07.29-.34.51-.55,1.05-.93-2.73.83-4.09,1.35-5.01,1.95-.12.08-.19.11-.27.11-.17,0-.3-.13-.51-.51-.21-.35-.36-.77-.36-.99,0-.13.06-.18.42-.29.34-.1.58-.25,1.16-.66.69-.51,1.77-1.44,2.7-2.32.77-.74,1.2-1.19,2.1-2.24-.87.11-3.23.51-3.57.6-.21.06-.22.06-.27.06-.14,0-.2-.06-.25-.21-.12-.33-.23-.88-.3-1.51.21.01.32.01.45.01.67,0,2.13-.12,3.93-.34.67-.08,1.07-.17,1.33-.3.18-.09.21-.11.32-.11.18,0,.42.2.84.71.3.34.39.51.39.67s-.06.24-.25.38q-.27.17-1.53,1.33c-1.04.96-2.27,2.01-3.65,3.1,2.12-.63,3.22-.93,5.52-1.44.51-.11,1.01-.24,1.58-.42.08-.03.13-.04.18-.04.12,0,.18.06.25.19.17.35.36,1.08.36,1.35,0,.21-.06.3-.22.3h-.34Z"/>
        <path d="M34.14,120.05c.97-.25,1.62-.34,2.33-.34,2.13,0,3.36,1.26,3.36,3.42,0,1.88-.81,3.39-2.45,4.59-.87.64-2.19,1.29-2.62,1.29-.2,0-.24-.04-.56-.5-.22-.34-.45-.55-.82-.83,1.72-.58,2.44-.96,3.22-1.63.9-.79,1.35-1.75,1.35-2.89,0-1.22-.57-1.91-1.58-1.91-.81,0-1.86.31-3.22.97-.2.09-.3.17-.55.35-.06.03-.12.06-.18.06-.29,0-.77-.84-1.1-1.96.56-.04.84-.12,2.82-.62ZM35.15,116.39c.54.17,1.35.32,2.08.41.3.03.41.04,1.17.08.22,0,.29.06.29.22,0,.5-.11,1.31-.2,1.46-.03.09-.1.12-.21.12-.34,0-1.56-.17-2.26-.31-1.19-.24-2.22-.54-2.43-.71-.05-.04-.08-.11-.08-.17,0-.12.31-.93.46-1.21.08-.12.12-.15.21-.15q.08,0,.96.27Z"/>
        <path d="M46.62,120.54c-1.06.18-1.3.22-1.56.3-.15.04-.27.06-.36.06-.27,0-.4-.48-.46-1.65.87,0,1.35-.04,2.42-.24,0-.48.01-1.03.01-1.23,0-.58-.03-1.09-.09-1.47,1.58.07,2.04.18,2.04.46q0,.08-.13.39t-.2,1.62c.48.38.74.67.72.87,0,.04-.03.08-.09.13-.22.2-.25.22-.52.62q-.06.08-.15.19l-.06.09c0,.22,0,.25-.02.54.45-.51.87-.93,1.28-1.26,1.32-1.08,2.31-1.53,3.39-1.53s1.77.43,2.29,1.33c.45.78.69,1.88.69,3.17,0,.78-.06,1.38-.23,2.5.72.51,1.5,1.3,1.5,1.51,0,.24-.84,1.08-1.09,1.08-.11,0-.12-.02-.32-.32-.12-.17-.28-.36-.61-.72-.21.39-.33.55-.54.75-.56.51-1.3.78-2.19.78-1.56,0-2.56-.79-2.56-2,0-1.28,1.04-2.24,2.4-2.24.78,0,1.35.11,1.86.33.06-.55.08-.83.08-1.3,0-2.37-.45-3.3-1.59-3.3-.81,0-1.89.57-3.03,1.59-.41.38-.72.69-1.37,1.39v.87c0,2,.04,4,.11,4.53v.06c0,.27-.21.34-.93.34-.66,0-.79-.06-.79-.34v-.12c.03-.43.04-.96.04-1.62q0-.99.01-2.17s-.03.04-.06.08c-.33.41-.87,1.14-1.22,1.63-.17.24-.25.32-.36.32-.15,0-.42-.27-.88-.87-.18-.22-.29-.42-.29-.5s.08-.17.45-.5c.27-.25,1.29-1.5,1.81-2.19.27-.38.46-.65.58-.84v-1.16ZM52.37,125.69c-.69,0-1.11.29-1.11.75s.32.69.89.69c.5,0,.9-.15,1.17-.45.13-.13.34-.51.34-.57h0c-.51-.33-.81-.42-1.29-.42Z"/>
        <path d="M63.08,126.89c0,1.41-1.14,2.55-2.54,2.55s-2.53-1.14-2.53-2.55,1.14-2.54,2.53-2.54,2.54,1.14,2.54,2.54ZM59.18,126.89c0,.76.61,1.38,1.36,1.38s1.37-.62,1.37-1.38-.62-1.37-1.37-1.37-1.36.62-1.36,1.37Z"/>
        <path d="M78.63,123.11c-.54,0-.91.02-1.32.08v-1c-.24.41-.27.46-.57,1.28-.33-.57-.5-.93-.72-1.61.01.96.03,1.59.03,2.01v3.65c0,.75.03,1.32.09,1.77h-1.63c.06-.46.09-1.04.09-1.77v-2.97c.03-1.08.06-1.74.09-2-.39,1.41-.72,2.17-1.47,3.4-.23-.76-.42-1.21-.74-1.77.57-.69.95-1.39,1.37-2.46.31-.84.42-1.18.54-1.79h-.57c-.43,0-.72.02-.96.06v-1.5c.24.04.51.06.96.06h.78v-1.15c0-.77-.03-1.14-.09-1.5h1.62c-.06.4-.07.81-.07,1.48v1.17h.39c.38,0,.54-.01.81-.06v1.48c-.27-.03-.51-.04-.82-.04h-.32c.17.57.66,1.38,1.2,1.95v-.13c.43.06.83.08,1.46.08h1.77v-.78h-1.33c-.75,0-.93,0-1.37.06v-1.36c.41.04.65.06,1.33.06h1.37v-.75h-1.59c-.66,0-.92.01-1.37.06v-1.43c.42.06.79.08,1.37.08h.21c-.2-.46-.42-.84-.83-1.39l1.37-.46c.43.69.71,1.21.96,1.86h1.26c.42-.69.65-1.17.86-1.86l1.54.4c-.35.71-.58,1.11-.83,1.46h.71c.57,0,1.02-.03,1.42-.08v1.44c-.42-.06-.81-.08-1.41-.08h-2.21v.75h1.77c.72,0,1.02-.01,1.44-.06v1.36c-.43-.04-.66-.06-1.44-.06h-1.77v.78h2.33c.58,0,1.08-.03,1.5-.08v1.44c-.51-.04-.96-.08-1.49-.08h-2.23c.22.68.42,1.02.9,1.7.51-.45.87-.9,1.33-1.59l1.16.83c-.6.76-.99,1.2-1.62,1.75.74.71,1.3,1.09,2.28,1.56-.41.46-.65.83-.95,1.42-1.62-1.03-2.56-2.1-3.27-3.72.03.46.04.77.04,1.04v2c0,.84-.45,1.11-1.83,1.11-.21,0-.57-.01-1-.04-.08-.63-.17-1-.39-1.46.51.09.88.14,1.36.14.33,0,.41-.08.41-.35v-1.33c-.72.54-1.53,1.1-2.21,1.49-.71.41-.84.5-1.2.76l-.6-1.54c.42-.12.69-.24,1.2-.48.92-.46,1.21-.63,2.8-1.68v-1.59h-1.91ZM78.29,123.21c.72.66.99.96,1.46,1.63l-1.06.79c-.47-.67-.69-.94-1.4-1.63l1-.79Z"/>
        <path d="M92.57,120.27c-1.16,2.02-1.96,3.09-3.67,4.8-.55-.5-.88-.74-1.46-1.07,1.8-1.67,2.64-2.68,3.6-4.42.77-1.38,1.19-2.49,1.25-3.3l1.88.5c-.12.21-.21.42-.51,1.17-.08.21-.09.24-.35.87h3.09c.86,0,1.35-.02,1.67-.08l.96,1.09q-.06.11-.17.32s-.03.06-.07.15c-.02.03-.08.17-.17.36-.35.69-.87,1.63-1.33,2.43-.6.97-.95,1.47-1.7,2.4.84.79,1.23,1.17,1.92,1.96l-1.25,1.2c-.88-1.05-1.32-1.5-2.19-2.29-.96-.87-1.52-1.3-2.76-2.17l1.2-1.11c.74.51,1.2.85,1.85,1.35,1.12-1.35,1.72-2.31,2.58-4.15h-4.36Z"/>
        <path d="M103.46,120.39c-.27.02-.43.03-.61.05-.14.01-.15.01-.17.01-.12,0-.18-.04-.23-.2-.08-.24-.18-1.04-.19-1.48.17.01.6.03,1.14.03.17,0,1.35-.07,1.88-.12.25-1.21.34-1.84.34-2.65,1.54.21,2.1.39,2.1.67,0,.11-.01.13-.24.48-.12.18-.17.34-.42,1.27.7-.12,1.12-.22,1.68-.41.1-.03.15-.04.22-.04.11,0,.13.08.23.51.07.38.12.69.12.85,0,.18-.04.21-.43.3-.51.12-1.38.27-2.31.39-.56,1.68-.93,2.58-1.62,3.99-.53,1.05-.83,1.61-1.23,2.24-.12.18-.19.24-.3.24-.15,0-.57-.22-1.09-.61-.24-.17-.3-.24-.3-.35s.06-.19.25-.46c.43-.54,1-1.47,1.5-2.46.42-.82.57-1.17,1-2.35-.58.04-.63.06-1.32.1ZM108.39,129.03c-1.64,0-2.75-.9-2.75-2.23s1.15-2.42,2.7-2.42c.36,0,.53.01,1.14.11-.06-.72-.06-1.01-.12-2.4,0-.29-.03-.67-.06-1.16.77.08,1.35.17,1.64.29.12.04.18.12.18.24,0,.08-.01.13-.03.24-.08.31-.09.54-.09.94,0,.56.04,1.5.09,2.24,1.07.48,1.5.72,2.25,1.3.33.25.45.39.45.51,0,.15-.08.29-.5.96-.18.3-.31.44-.42.44q-.09,0-.51-.39c-.33-.33-.71-.58-1.23-.9,0,1.39-1.02,2.23-2.74,2.23ZM108.36,125.82c-.72,0-1.21.34-1.21.87,0,.5.45.81,1.12.81.79,0,1.21-.41,1.21-1.2,0-.12,0-.24-.02-.24-.3-.15-.7-.24-1.11-.24ZM113.97,121.56c-.18.26-.27.33-.38.33-.08,0-.13-.03-.24-.13-.38-.36-.9-.75-1.46-1.09q-.36-.22-1.02-.53c-.21-.09-.29-.15-.29-.27,0-.11.08-.24.3-.58.36-.53.45-.62.58-.62.28,0,1.39.57,2.19,1.11.65.43.84.61.84.78,0,.12-.24.57-.54,1Z"/>
        <path d="M117.5,122.37h-.33c-.06,0-.1,0-.13.01h-.13c-.15,0-.25-.08-.29-.24-.08-.37-.12-.85-.12-1.54.9.09,2.97.15,5.8.15,2.55,0,5.49-.04,5.96-.09h.13c.21,0,.21.01.21,1,0,.66-.03.74-.24.74h-.1c-.69-.03-.97-.03-4.5-.08-.06,1.14-.12,1.62-.31,2.31-.47,1.7-1.35,2.88-2.85,3.81-.42.27-.75.42-.88.42-.08,0-.13-.03-.25-.15-.54-.55-.72-.69-1.26-.96,2.65-1.25,3.63-2.67,3.72-5.45-2.43.02-3.25.02-4.41.06ZM119.04,117.23c.35.01.65.03.81.03.76.04.99.04,1.98.04,2.26,0,3.34-.03,4.16-.12h.07c.21,0,.26.1.26.57v.32c0,.09,0,.24-.02.42,0,.41-.03.45-.31.45-.17,0-1.26-.03-2.31-.04-.22-.02-.6-.02-1.14-.02-1.92,0-3.27.03-3.75.09-.04.02-.09.02-.12.02-.15,0-.22-.06-.25-.2-.06-.32-.12-1.04-.12-1.62.3.04.41.04.75.06ZM127.59,118.4c-.3-.57-.63-1-1.11-1.52q-.09-.09-.09-.13c0-.09.09-.18.35-.38.24-.17.33-.22.42-.22.12,0,.27.12.64.52.48.53.83,1,.83,1.12,0,.09-.04.15-.22.3-.33.29-.54.42-.66.42-.06,0-.09-.03-.15-.12ZM129.71,117.27c-.18.13-.33.21-.41.21-.04,0-.09-.03-.15-.14-.31-.54-.67-1.02-1.12-1.47-.05-.04-.08-.09-.08-.12,0-.1.63-.55.76-.54.12.02.17.03.33.18.45.42,1.11,1.26,1.11,1.44,0,.09-.12.2-.45.44Z"/>
        <path d="M136.62,121.68c2.75,0,4.32-.03,5.83-.13h.19c.45,0,.45.01.45,1.21,0,.62-.04.72-.3.72h-.06c-.99-.04-1.54-.04-5.88-.04-1.59,0-2.38.02-3.76.06h-.44c-.48,0-.55.01-.84.06-.08,0-.13.02-.17.02-.17,0-.27-.08-.3-.21-.09-.38-.15-1.14-.15-1.83,1.21.12,2.28.15,5.42.15Z"/>
        <path d="M148.31,122.31c-.45.36-.69.51-.81.51s-.13,0-.42-.3c-.27-.27-.64-.54-1.06-.76,1.6-.97,2.56-1.84,3.49-3.15.63-.89,1.1-1.75,1.33-2.58,1.59.58,1.96.78,1.96.99,0,.07-.04.13-.19.24-.15.11-.35.38-.75.99h.27c.53.01.9.01.99.01,1.46,0,1.83-.03,2.29-.21.12-.04.17-.06.25-.06.21,0,.42.17.88.72.38.42.48.6.48.77,0,.13-.04.21-.21.38-.12.12-.3.4-.53.84-1.41,2.56-2.46,3.97-4.15,5.5-1.33,1.21-3.45,2.64-3.92,2.64-.13,0-.25-.06-.38-.18-.45-.43-.83-.7-1.26-.88,2.07-1,3.67-2.13,5.1-3.55q-.11-.1-.44-.45c-.31-.33-.66-.61-1.42-1.18-.09-.08-.12-.12-.12-.18,0-.08.2-.3.72-.84.25-.25.31-.3.4-.3.24,0,1.12.72,2.03,1.63.9-1.17,1.54-2.28,1.9-3.24q-1.71.03-3.9.04c-.69.9-1.56,1.79-2.56,2.61Z"/>
        <path d="M165.96,124.56c-1.48.87-1.91,1.31-1.91,1.96,0,.27.11.45.33.58.33.2,1.07.3,2.01.3.81,0,1.93-.08,2.7-.18.32-.04.5-.09,1.09-.24h.08c.11,0,.18.07.23.18.09.31.15.76.15,1.3,0,.23-.08.32-.27.36-.36.08-2.03.17-3.12.17-1.83,0-2.8-.12-3.52-.42-.87-.36-1.31-1.04-1.31-1.98,0-.87.41-1.63,1.21-2.28.65-.51.79-.62,2.17-1.4-.12-.5-.34-.71-.81-.71-.62,0-1.26.24-1.96.71-.43.3-.95.72-1.26,1.04-.45.46-.5.5-.62.5-.15,0-.46-.34-.78-.87-.15-.25-.24-.45-.24-.55,0-.14.03-.17.39-.39,1.23-.82,2.25-1.88,2.87-2.95-1.07.07-1.62.09-2.21.09-.23,0-.27-.04-.34-.3-.05-.2-.12-.99-.14-1.4.51.08.81.09,1.53.09.58,0,1.23-.01,1.91-.04.31-.85.42-1.39.43-2.1,1.33.22,1.95.45,1.95.71,0,.06-.02.09-.06.18-.1.2-.22.43-.42.9q-.03.06-.04.1c.86-.12,1.61-.27,2.13-.39.33-.09.41-.11.48-.11.12,0,.18.04.21.14.06.27.15.96.15,1.17,0,.17-.06.24-.25.28-.48.14-2.13.39-3.51.53-.45.83-.76,1.3-1.23,1.81.67-.31,1.18-.43,1.78-.43.68,0,1.12.39,1.43,1.23,1.48-.81,2.28-1.24,2.37-1.3.69-.4.98-.63,1.31-1,.61.63,1.27,1.58,1.27,1.83,0,.09-.06.15-.25.2-.74.19-2.1.78-4.38,1.89.01.27.04.96.04,1.44v.72c0,.18-.03.27-.1.31-.08.08-.48.12-.93.12-.51,0-.6-.04-.6-.29v-.06c.03-.44.04-1,.04-1.37v-.08Z"/>
        <path d="M177.14,126.66c1.28-.36,2.08-.63,3.36-1.08v1.53c-1.11.44-1.84.69-3.62,1.25q-.46.15-1.51.44c-.13.03-.22.06-.32.07-.38.12-.6.2-.78.27l-.35-1.79c.5-.03.9-.1,1.58-.27v-9.25c0-.75-.01-1.12-.09-1.62h1.82c-.08.48-.09.86-.09,1.62v2.4h2c.69,0,.99-.01,1.38-.07v1.68c-.36-.06-.71-.08-1.38-.08h-2v4.91ZM182.63,127.08c0,.31.2.38,1.27.38.95,0,1.32-.06,1.46-.25.2-.29.29-1.1.29-2.91.58.31.93.46,1.54.64-.1,2.15-.27,2.97-.69,3.44-.39.43-1.02.57-2.75.57-1.32,0-1.82-.06-2.19-.25-.38-.21-.52-.55-.52-1.2v-9.64c0-.81-.02-1.18-.09-1.62h1.77c-.08.51-.09.82-.09,1.62v3.15c1.68-.98,2.79-1.83,3.39-2.64l1.12,1.32q-.24.18-.52.41c-1.12.93-2.33,1.7-3.99,2.59v4.41Z"/>
        <path d="M199.58,118.91c.72,1.32,1.24,1.95,2.35,2.89-.08.09-.13.17-.18.21-.39.46-.48.57-.78,1.05-.38-.36-.51-.49-.76-.76-.3,1.09-.83,2.33-1.4,3.25.92,1.02,1.71,1.58,3.13,2.19-.4.57-.54.81-.82,1.51-1.61-.93-2.33-1.49-3.2-2.49-.97,1.09-1.89,1.8-3.22,2.49-.38-.67-.51-.87-.98-1.33,1.44-.62,2.34-1.26,3.3-2.34-.33-.53-.63-1.08-1-1.92-.03-.08-.18-.42-.42-1.04-.17.2-.24.27-.46.51-.29-.36-.39-.48-.73-.79v1.02c0,.7.01,1.17.04,1.53-.38-.03-.53-.03-1.26-.03h-.75v.91h1.08c.56,0,.79-.01,1.19-.07v1.5c-.45-.06-.66-.08-1.19-.08h-1.08v.84c0,.46.03.81.09,1.27h-1.58c.06-.46.09-.81.09-1.33v-.78h-1.18c-.63,0-.92.01-1.32.08v-1.5c.38.06.65.07,1.32.07h1.18v-.91h-.64c-.66,0-1,.01-1.47.04.04-.47.06-.96.06-1.61v-2.49c0-.66-.02-1.04-.06-1.5.45.03.77.04,1.44.04h.67v-.78h-1.11c-.6,0-.92.01-1.32.06v-1.45c.42.06.63.07,1.32.07h1.11v-.18c0-.42-.03-.78-.09-1.16h1.58c-.06.35-.09.72-.09,1.16v.18h.78c.67,0,.88-.01,1.3-.07v1.45c-.4-.04-.61-.06-1.3-.06h-.78v.78h.81c.69,0,.93-.02,1.2-.04-.03.28-.04.61-.04,1.41v1.04c.93-.9,1.42-1.65,1.9-2.85l1.31.62c-.53,1.14-.92,1.77-1.64,2.67l.93-.39c.13.77.49,1.71,1.02,2.54.42-.81.72-1.67.88-2.62l1.32.51c-.74-.82-1.17-1.48-1.79-2.68l1.23-.63ZM190.2,120.53v1h.88v-1h-.88ZM190.2,122.67v1.04h.88v-1.04h-.88ZM193.26,121.53v-1h-.88v1h.88ZM193.26,123.71v-1.04h-.88v1.04h.88ZM197.21,116.97c0-.47-.02-.74-.08-1.08h1.71c-.06.28-.08.6-.08,1.05v.5h1.46c.63,0,1.02-.02,1.46-.08v1.56c-.45-.04-.93-.08-1.46-.08h-3.96c-.6,0-1.04.02-1.44.08v-1.56c.39.06.79.08,1.44.08h.95v-.46Z"/>
        <path d="M209.37,119.85c-3.29.21-4.56.34-5.5.6-.06.01-.12.03-.17.03-.11,0-.2-.08-.24-.2-.13-.38-.21-.87-.25-1.62h.36c.48,0,.93-.01,2.37-.1,1.11-.06,2.05-.11,3.4-.15-.01-1.35-.03-1.56-.17-2.24,1.16.03,1.74.08,1.95.17.09.04.13.12.13.27,0,.03-.01.09-.04.17-.13.33-.18.66-.21,1.59,2.19-.06,2.52-.06,4.02-.06.41,0,.46,0,.51.05.06.06.09.28.09.79,0,.69-.02.76-.21.76h-.06c-.64-.06-2.25-.12-3.3-.12q-.34,0-1.09.01l-.03,2.46c.23.5.3.92.3,1.64,0,1.87-.69,3.31-2.14,4.38-.6.45-1.37.84-1.63.84-.13,0-.21-.04-.33-.17-.42-.48-.74-.72-1.28-1.02.9-.25,1.37-.46,1.95-.83.44-.28.83-.6,1.11-.91.19-.24.34-.47.57-.95-.43.45-.79.62-1.35.62-1.26,0-2.08-.96-2.08-2.42,0-1.53.97-2.64,2.33-2.64.43,0,.71.06,1,.19v-1.15ZM207.56,123.36c0,.63.36,1.06.9,1.06.57,0,.92-.41.92-1.09s-.33-1.11-.9-1.11c-.54,0-.92.46-.92,1.14Z"/>
        <path d="M225.51,121.22c2.12,0,3.62,1.44,3.62,3.48,0,1.39-.74,2.65-1.96,3.39-.86.51-1.91.76-3.09.76-1.91,0-3.02-.76-3.02-2.07,0-1.19.99-2.03,2.4-2.03,1.27,0,2.19.64,2.8,1.96.76-.55,1.08-1.14,1.08-1.95,0-1.29-.92-2.13-2.36-2.13s-3.04.74-4.35,2.04c-.24.24-.46.5-.73.84-.11.15-.18.21-.27.21-.27,0-1.33-1.05-1.33-1.32,0-.13.06-.21.39-.45.34-.27.84-.71,1.47-1.3,1.46-1.38,2.52-2.54,4.09-4.46-1.88.24-3.13.45-3.6.62-.08.01-.12.03-.17.03-.12,0-.2-.07-.29-.3-.18-.45-.27-.94-.32-1.6.41.06.69.08,1.02.08.72,0,1.93-.11,3.51-.29.55-.06.73-.11,1.16-.27.13-.06.21-.08.3-.08.21,0,.42.18.81.78.29.39.38.58.38.71,0,.2-.04.25-.38.46-.27.17-.43.3-.78.63-.75.72-.76.72-1.69,1.67-.66.67-.74.75-1.33,1.35.97-.54,1.74-.77,2.64-.77ZM224.07,126.41c-.23-.15-.48-.23-.77-.23-.46,0-.76.23-.76.58,0,.44.46.71,1.18.71.33,0,.62-.03.99-.13-.18-.5-.33-.72-.64-.93Z"/>
        <path d="M238.95,126.29c1.23,0,2.59-.18,3.94-.53.08-.03.12-.03.17-.03.09,0,.13.06.17.2.04.33.08.81.08,1.3,0,.3-.03.39-.17.45-.45.24-2.47.46-4.21.46-2.26,0-3.55-.38-4.59-1.35-.5-.46-.99-1.28-.99-1.61,0-.22.13-.31,1.37-1.02.54,1.49,1.79,2.12,4.25,2.12ZM239.09,117.66c.87,0,1.38-.03,2.4-.18h.11c.12,0,.17.04.2.13.03.18.06.63.06,1.17,0,.34-.03.46-.12.53-.12.07-1.42.17-2.43.17-1.33,0-2.45-.11-3.69-.35-.85-.17-.9-.21-.9-.73,0-.35.03-.92.08-1.33,1.3.4,2.73.6,4.3.6Z"/>
        <path d="M19.46,146.48c-.19-.66-.25-1.06-.43-2.91-.06-.72-.12-1.08-.27-1.59.91.02,1.5.06,1.9.17.23.06.33.17.33.33,0,.06-.01.13-.04.25-.1.36-.15.63-.15,1.02,0,.73.15,1.93.32,2.46.09.28.18.39.34.39.36,0,1.68-.69,2.4-1.25.19-.15.22-.17.3-.17.13,0,.27.11.5.39.38.51.67,1.06.67,1.27,0,.17-.11.27-.36.34-.93.25-2.46.86-3.49,1.35-1.83.9-2.66,1.72-2.66,2.65s.76,1.29,2.7,1.29c1.12,0,2.14-.1,3.52-.33.06-.01.17-.03.2-.03.12,0,.19.06.25.18.04.15.15,1.06.15,1.42,0,.21-.06.29-.26.34-.33.08-2.14.18-3.28.18-1.92,0-3.2-.25-3.99-.79-.67-.47-1.04-1.2-1.04-2.1,0-.69.2-1.3.6-1.9.52-.78,1.09-1.28,2.35-2.03-.31-.29-.43-.5-.57-.96Z"/>
        <path d="M30.81,147.36c-.12.03-.18.06-.27.11-.08.04-.12.06-.18.06-.33,0-.57-.57-.75-1.68h.29c.63,0,2.24-.2,3.2-.39.31-1.31.48-2.31.48-3.02,0-.06,0-.15-.01-.25.64.06,1.26.2,1.68.38.24.09.36.21.36.36,0,.08-.02.13-.09.25q-.23.39-.69,2.04c.36-.04.76-.08,1.02-.08.62,0,1.1.12,1.44.36.6.43.9,1.32.9,2.68,0,2.24-.41,4.16-1.1,5.1-.48.66-1.11.98-2,.98-.54,0-1.05-.08-1.2-.17q-.12-.08-.17-.63c-.04-.41-.13-.77-.32-1.19.78.27.98.32,1.46.32.72,0,1.02-.35,1.35-1.56.23-.79.35-1.81.35-2.92,0-1.17-.29-1.59-1.08-1.59-.27,0-.71.04-1.05.09-.04.18-.06.2-.12.39-.42,1.54-1.19,3.55-1.95,5.17-.79,1.63-.99,1.96-1.18,1.96-.12,0-.53-.21-.96-.5-.35-.21-.44-.3-.44-.42q0-.08.62-1.05c.83-1.28,1.91-3.77,2.28-5.25-1.11.25-1.73.39-1.86.43ZM40.23,144.29c-.24.18-.41.25-.48.25-.04,0-.09-.03-.13-.11-.32-.51-.84-1.09-1.28-1.47-.03-.03-.04-.06-.04-.09,0-.06.11-.17.36-.36.25-.18.33-.22.43-.22.24,0,1.56,1.33,1.56,1.58,0,.09-.12.19-.42.42ZM38.64,145.88c0-.11.13-.24.57-.58.3-.23.45-.32.57-.32.2,0,.87.72,1.5,1.61.52.75,1.09,1.81,1.09,2.07,0,.15-.04.2-.52.58-.3.24-.65.44-.77.44-.1,0-.15-.04-.25-.3-.29-.72-.54-1.21-.95-1.86-.4-.65-.43-.67-1.15-1.46-.06-.08-.09-.12-.09-.18ZM40.61,141.27c.25,0,1.53,1.28,1.53,1.53,0,.08-.09.17-.39.38-.27.21-.41.29-.46.29q-.08,0-.38-.42c-.25-.34-.74-.86-1-1.08-.04-.04-.08-.08-.08-.12,0-.12.62-.57.78-.57Z"/>
        <path d="M51.24,146.45c.34,1.29,1.11,2.69,2.07,3.77,1.06,1.23,2.26,2.04,3.97,2.74-.5.57-.69.89-1.05,1.65-2.85-1.46-4.65-3.38-5.73-6.12-.43,1.47-1.2,2.73-2.35,3.86-.97.97-2.01,1.65-3.43,2.28-.24-.55-.54-1-1-1.51,1.75-.71,3-1.56,3.93-2.68.9-1.1,1.38-2.25,1.63-3.98h-3.39c-.92,0-1.33.02-1.82.09v-1.8c.45.06.98.09,1.82.09h3.54c.03-.66.04-1.01.04-1.58,0-.72-.03-1.16-.11-1.58h1.91c-.08.51-.09.71-.11,1.7,0,.61-.01.94-.03,1.46h3.81c.81,0,1.33-.03,1.81-.09v1.8c-.55-.06-1-.09-1.8-.09h-3.72Z"/>
        <path d="M59.24,146.9c-.43.09-.73.17-1.11.27l-.12-1.56c.3,0,.61-.04,1.08-.15l.57-.12v-2.37c0-.69-.01-.99-.08-1.38h1.68c-.04.34-.06.63-.06,1.27v2.16l2.01-.42c.41-.09.77-.18,1.01-.27l.1,1.56c-.27.03-.63.08-1.05.17l-2.07.43v3.63c0,.32.06.36.44.36.48,0,.73-.1.84-.33.1-.25.18-1,.21-2.14.42.24.94.43,1.41.55-.11,1.84-.3,2.49-.83,2.92-.39.33-1,.46-2.07.46-1.23,0-1.54-.27-1.54-1.33v-3.81l-.42.09ZM64.43,143.79c-.53,0-.89.01-1.19.06v-1.58c.42.05,1.08.08,1.86.08h4.68c.67,0,1.06-.01,1.48-.06-.06.87-.06.9-.17,4.21-.12,3.3-.4,5.7-.81,6.75-.3.75-.96,1.09-2.13,1.09-.32,0-1.05-.03-1.44-.04-.06-.66-.15-1.07-.36-1.61.69.11,1.21.17,1.56.17.86,0,.98-.15,1.21-1.48.17-.93.29-2.13.38-3.51q.06-1.17.11-4.08h-2.13c-.11,3.03-.3,4.33-.83,5.94-.41,1.26-.99,2.29-1.88,3.33-.54.63-.97,1-1.89,1.6-.42-.52-.58-.67-1.28-1.18,1.2-.65,2-1.33,2.64-2.29.84-1.26,1.3-2.78,1.5-4.8.07-.81.09-1.08.13-2.59h-1.47Z"/>
        <path d="M79.88,146.75c.03,1.12.06,1.71.21,3.21,1.26.41,1.86.66,2.75,1.14,1.18.67,1.79,1.12,1.79,1.33,0,.18-.2.52-.54,1.02-.22.33-.39.48-.51.48-.08,0-.14-.03-.24-.14-1.07-1.02-1.92-1.57-3.18-2.08-.03.91-.2,1.39-.63,1.84-.53.52-1.44.81-2.62.81-1.96,0-3.17-.87-3.17-2.29,0-1.51,1.32-2.47,3.38-2.47.5,0,.93.03,1.3.08-.15-2.46-.2-3.65-.21-5.85-.01-.87-.04-1.39-.13-2.1.69.02,1.38.09,1.79.2.24.08.33.15.33.31,0,.08-.01.12-.06.24-.17.39-.22.96-.25,2.62q.12,0,.58-.03c.72-.04,1.74-.22,2.88-.54.04-.01.08-.01.12-.01.09,0,.12.03.18.18.15.36.32,1.1.32,1.35,0,.12-.06.17-.2.21-1.16.27-2.78.5-3.66.5h-.21ZM76.94,151.07c-1.02,0-1.63.34-1.63.92,0,.53.51.79,1.46.79,1.15,0,1.66-.41,1.66-1.35v-.12c-.49-.18-.92-.24-1.48-.24Z"/>
        <path d="M95,153.2c0,.66-.53,1.18-1.18,1.18s-1.19-.52-1.19-1.18.53-1.18,1.19-1.18,1.18.52,1.18,1.18ZM94.47,150.98h-1.33l-.41-8.98h2.16l-.42,8.98Z"/>
        <path d="M106.95,153.16c-1.33.25-1.49.29-2.94.5-.96.13-1.59.24-2.01.32l-.31-1.49c.09.02.15.02.21.02.25,0,.67-.03,1.25-.08v-4.47c-.62,0-.98.01-1.41.07v-1.38c.38.06.76.08,1.47.08h10.18c.72,0,1.09-.01,1.5-.08v1.38c-.45-.06-.83-.07-1.51-.07h-5v5.28c.74-.25,1.37-.58,1.95-1.02-.45-.5-.83-1.02-1.3-1.83l1.21-.55h-.38c-.46,0-.71.01-1.08.06v-1.35c.31.04.64.06,1.21.06h2.42c.48,0,.84-.01,1.08-.06l.73.81c-.09.15-.12.2-.22.42-.46.95-1.04,1.82-1.63,2.46.62.42,1.44.75,2.55,1.04-.29.42-.53.88-.74,1.41-1.54-.6-1.89-.78-2.82-1.49-.75.6-1.31.95-2.24,1.38-.19-.46-.43-.85-.75-1.2,0,.57.02,1.02.08,1.38h-1.59c.06-.34.09-.73.09-1.45v-.14ZM113.34,145.01c0,.55.02.87.04,1.25-.3-.03-.84-.04-1.32-.04h-7.3c-.62,0-1.04.01-1.49.04.04-.38.06-.72.06-1.25v-1.95c0-.54-.01-.87-.06-1.25.51.04.85.06,1.53.06h7.05c.69,0,1.03-.02,1.53-.06-.03.36-.04.68-.04,1.25v1.95ZM106.95,147.96h-2.4v.64h2.4v-.64ZM106.95,149.66h-2.4v.71h2.4v-.71ZM106.95,151.41h-2.4v.89c.85-.09.97-.11,2.4-.3v-.58ZM104.82,143.57h7.02v-.6h-7.02v.6ZM104.82,145.14h7.02v-.58h-7.02v.58ZM110.31,149.84c.38.75.58,1.05,1,1.51.42-.41.71-.83,1.08-1.51h-2.08Z"/>
        <path d="M119.69,149.49v3.42c0,.79.03,1.35.08,1.77h-1.67c.06-.5.09-1.11.09-1.77v-2.73s0-.25.01-.72c-.5.48-.93.84-1.63,1.33-.18-.56-.39-.95-.75-1.44.81-.5,1.47-1.02,2.12-1.67.81-.84,1.21-1.42,1.81-2.61h-2.05c-.51,0-1,.03-1.32.07v-1.53c.44.06.66.08,1.35.08h.48v-1.05c0-.52-.01-.88-.08-1.2h1.67c-.08.31-.09.58-.09,1.2v1.05h.3c.48,0,.78-.02,1.02-.06l.66.84c-.09.15-.17.29-.32.6-.39.87-.87,1.67-1.56,2.59.17.18.22.24.51.48.67-.78,1.04-1.3,1.38-2.02l1.11.84c-.96,1.33-.97,1.37-1.51,1.95.29.21.44.31.92.58-.33.36-.55.71-.81,1.21-.71-.51-1.21-.95-1.71-1.44v.21ZM123.44,143.84c-.69,0-1.29.03-1.73.08v-1.56c.44.06,1.05.09,1.73.09h4.15c.6,0,1.12-.03,1.38-.07q-.06.4-.1,3.09c-.06,3.88-.27,6.6-.57,7.63-.17.52-.39.82-.78,1.03-.31.17-.71.23-1.46.23-.4,0-.58-.02-1.5-.06-.08-.79-.14-1.05-.36-1.62.71.1,1.35.16,1.81.16.62,0,.75-.16.92-1.15.11-.62.24-2.19.3-3.38.06-1.47.06-1.95.09-4.47h-2c-.04,2.4-.21,3.87-.6,5.35-.36,1.41-.91,2.57-1.74,3.71-.44.58-.79.97-1.54,1.67-.33-.55-.67-.96-1.12-1.35,1-.81,1.62-1.54,2.14-2.58.72-1.41,1.08-2.88,1.23-4.96.03-.6.04-.75.04-1.83h-.3Z"/>
        <path d="M134.63,150.65c.04.06.06.11.06.17q0,.09-.25.78c-.32.92-.51,1.67-.57,2.25-.01.19-.08.27-.27.31-.21.06-.61.09-1,.09-.15,0-.22-.03-.27-.12-.13-.28-.38-1.32-.5-2.16-.1-.71-.15-1.44-.15-2.21,0-1.73.2-3.36.74-6.3.09-.48.12-.71.17-1.17.69.09,1.17.22,1.6.43.23.12.32.23.32.36,0,.09-.03.17-.11.29-.61,1.05-1.18,4.29-1.18,6.69,0,.36.01.93.06,1.65.36-.93.52-1.35.85-2.07.11.41.21.6.51,1ZM137.15,146.7c-.72,0-.87-.03-.92-.19-.04-.13-.09-.62-.09-.96,0-.12,0-.24.01-.51.41.03.64.04,1.14.04.81,0,1.32-.02,2.1-.08-.02-1.91-.03-2.15-.18-2.85.74.01,1.29.07,1.77.19.22.06.31.14.31.29,0,.06-.01.11-.06.22-.15.35-.23.93-.25,1.98.55-.08,1.03-.18,1.93-.39.08-.03.1-.03.15-.03.09,0,.13.04.17.15.03.14.07.71.07,1.02,0,.38-.01.43-.17.5-.24.12-.9.22-2.17.39,0,1.04.09,2.75.2,3.72.95.41,1.59.75,2.25,1.21.42.3.51.41.51.51,0,.17-.27.67-.58,1.11-.18.25-.27.33-.38.33s-.1,0-.45-.33c-.33-.33-.67-.58-1.33-1.02v.12c0,1.32-1.09,2.19-2.76,2.19s-2.8-.9-2.8-2.25,1.14-2.35,2.66-2.35c.55,0,.84.01,1.24.08q-.06-1.17-.1-3.18c-.65.04-1.67.09-2.26.09ZM138.38,151.11c-.75,0-1.25.34-1.25.87,0,.48.46.78,1.19.78.79,0,1.21-.36,1.21-1.05,0-.21-.02-.38-.02-.38-.39-.15-.73-.23-1.14-.23Z"/>
        <path d="M156.39,149.57h.33c.58,0,.96-.03,1.23-.08v1.49c-.3-.04-.68-.06-1.23-.06h-.33v1.73h.57c.78,0,1.04-.02,1.41-.08v1.53c-.42-.04-.77-.06-1.44-.06h-3.27v.69h-1.53c.06-.36.08-.67.08-1.46v-6.79c-.15.2-.18.24-.38.46-.13-.4-.21-.57-.38-.87v1.33c0,.24.01.5.03.65q-.18-.02-.87-.03h-1.44v.38q-.01.15-.01.27h1.28c.54,0,.7-.02,1-.05v1.22c-.32-.03-.51-.04-1-.04h-1.35c-.04.39-.04.46-.08.73h1.67c.54,0,.72-.01,1-.04v1.26c-.28-.03-.52-.04-1.02-.04h-1.17c.62.6,1.09.92,2.1,1.37-.36.52-.52.83-.69,1.29-1.05-.54-1.75-1.11-2.46-1.96-.56,1.06-1.26,1.71-2.62,2.35-.21-.43-.53-.92-.84-1.27.81-.3,1.09-.47,1.51-.83.34-.3.55-.55.75-.95h-1.08c-.46,0-.75.02-1.08.06v-1.29c.3.04.58.06,1.08.06h1.47c.06-.3.08-.39.11-.73h-1.3c-.48,0-.78.01-1.08.06v-1.25c.31.04.58.06,1.08.06h1.39q.01-.15.03-.65h-1.52c-.51,0-.67,0-.9.03.01-.32.03-.48.03-.75v-1.72c0-.27-.02-.44-.03-.75.25.03.34.03.9.03h4.33c.39,0,.51,0,.81-.03-.02.12-.02.15-.03.3.75-.98,1.38-2.48,1.63-3.81l1.5.38c-.09.18-.12.27-.29.78-.13.38-.31.86-.54,1.37h1.16c.48-.92.71-1.53.9-2.42l1.42.33c-.39,1.06-.53,1.37-.9,2.08h.41c.69,0,1.05-.02,1.46-.08v1.49c-.33-.04-.83-.06-1.46-.06h-.36v1.47h.36c.58,0,.93-.03,1.21-.07v1.48c-.29-.06-.66-.08-1.21-.08h-.36v1.58ZM146.54,142.32c0-.35-.01-.57-.06-.84h1.5c-.03.2-.04.42-.04.84v.15h1.17v-.15c0-.41,0-.58-.04-.84h1.5c-.04.21-.06.41-.06.83v.17c.64,0,.92-.01,1.29-.06v1.39c-.3-.04-.74-.06-1.29-.06.01.54.01.55.03.82h-1.44c.02-.25.02-.3.02-.82h-1.17c0,.48,0,.58.01.82h-1.44c.02-.24.03-.39.03-.82h-.25c-.58,0-.88.01-1.2.06v-1.41c.29.06.63.08,1.21.08h.24v-.15ZM146.72,145.92v1.02h1.16v-1.02h-1.16ZM149.21,146.94h1.09v-1.02h-1.09v1.02ZM154.98,145.19h-1.32v1.47h1.32v-1.47ZM153.66,147.99v1.58h1.32v-1.58h-1.32ZM153.66,152.64h1.32v-1.73h-1.32v1.73Z"/>
        <path d="M164.48,142.13c.38.1.48.18.48.34,0,.11-.01.15-.09.36-.17.43-.29,1.2-.34,2.25-.12,2.42-.18,4.29-.18,5.77,0,.48.04.84.12,1.08.17.5.69.75,1.53.75,1.35,0,2.62-.55,3.79-1.65.54-.51.87-.92,1.42-1.74.09.48.21.79.54,1.47.04.12.08.21.08.34,0,.27-.29.63-1.04,1.3-1.49,1.33-3.13,2.03-4.86,2.03-1.14,0-1.98-.29-2.52-.83-.57-.6-.79-1.38-.79-2.86,0-1.17.01-2.07.13-5.57.02-.52.03-.84.03-.97,0-1.28-.01-1.65-.11-2.29.77.03,1.35.09,1.8.21Z"/>
        <path d="M174.98,144.63c0-.44-.02-1.02-.04-1.35.69.07,1.2.18,1.6.33.36.14.48.23.48.39q0,.09-.06.24c-.2.51-.25,1.08-.25,2.44,0,1.92.12,3.12.42,4.04.22.71.57,1.11.97,1.11.62,0,1.12-.72,1.68-2.38.28.77.39.99.81,1.53.08.1.12.21.12.31,0,.24-.22.75-.53,1.19-.58.85-1.33,1.32-2.13,1.32-1.15,0-2.02-.93-2.56-2.77-.34-1.2-.51-2.71-.51-4.81v-1.58ZM183.9,144.87c.09,0,.17.04.29.15.75.72,1.53,1.92,2.03,3.09.33.79.64,1.86.64,2.17,0,.15-.08.23-.39.39-.34.18-1.05.42-1.23.42-.13,0-.19-.08-.24-.34-.2-1.16-.46-2-.93-2.97-.42-.87-.45-.92-1.47-2.17.63-.46,1.12-.73,1.3-.73Z"/>
        <path d="M190.35,142.41v-.21c.94.17,1.42.3,1.81.5.11.04.13.1.13.21,0,.06-.03.13-.09.24-.13.24-.18.42-.41,1.41-.28,1.29-.43,2.73-.43,4.3,0,.84.03,1.31.12,2.1l.79-1.61c.09.32.21.57.39.78.12.15.13.19.13.31s0,.12-.28.75c-.32.67-.5,1.26-.66,2.03-.04.24-.09.31-.17.34-.12.06-.63.13-.93.13-.21,0-.29-.04-.33-.18-.36-1.02-.66-3.12-.66-4.62,0-1.29.17-3.07.43-4.95.09-.62.14-1.07.14-1.38v-.17ZM195.47,146.66c-.84,0-1.08-.03-1.16-.13-.1-.13-.19-.75-.19-1.3v-.22c.6.06,1.08.09,1.84.09.58,0,.92-.02,1.51-.06-.04-1.56-.13-2.49-.31-2.97h.4c.53,0,1.17.04,1.5.12.15.03.23.12.23.24,0,.06-.02.12-.04.22-.08.21-.12.54-.12.93,0,.23.01.93.01,1.11v.15c.75-.12,1.11-.2,1.74-.41.06-.01.12-.03.18-.03.09,0,.13.04.17.13.06.17.12.75.12,1.08,0,.24-.04.35-.17.39-.2.07-1.11.25-2,.38.02.42.02.64.02.88,0,2.21-.27,3.78-.87,4.96-.54,1.06-1.71,2.31-2.19,2.31-.13,0-.19-.03-.36-.18-.5-.44-.58-.51-1.17-.78,1.05-.58,1.72-1.21,2.19-2.07.5-.91.76-2.17.76-3.55,0-.1,0-.36-.01-.72-.01-.15-.01-.38-.03-.67-.54.04-1.75.1-2.05.1Z"/>
        <path d="M207.44,146.48c-.19-.66-.25-1.06-.43-2.91-.06-.72-.12-1.08-.27-1.59.91.02,1.5.06,1.9.17.23.06.33.17.33.33,0,.06-.01.13-.04.25-.1.36-.15.63-.15,1.02,0,.73.15,1.93.32,2.46.09.28.18.39.34.39.36,0,1.68-.69,2.4-1.25.19-.15.22-.17.3-.17.13,0,.27.11.5.39.38.51.67,1.06.67,1.27,0,.17-.11.27-.36.34-.93.25-2.46.86-3.49,1.35-1.83.9-2.66,1.72-2.66,2.65s.76,1.29,2.7,1.29c1.12,0,2.14-.1,3.52-.33.06-.01.17-.03.2-.03.12,0,.19.06.25.18.04.15.15,1.06.15,1.42,0,.21-.06.29-.26.34-.33.08-2.14.18-3.28.18-1.92,0-3.2-.25-3.99-.79-.67-.47-1.04-1.2-1.04-2.1,0-.69.2-1.3.6-1.9.52-.78,1.09-1.28,2.35-2.03-.31-.29-.43-.5-.57-.96ZM212.88,143.12c.12-.09.2-.12.29-.12.21,0,1.51,1.38,1.51,1.6,0,.09-.12.23-.41.46-.3.25-.33.27-.4.27-.09,0-.11,0-.39-.42-.3-.42-.72-.9-1.04-1.17-.04-.04-.07-.09-.07-.14,0-.07.13-.21.51-.49ZM216.14,143.52c0,.09-.04.15-.22.3-.21.18-.5.38-.56.38-.09,0-.12-.04-.3-.28-.34-.5-.55-.74-1.09-1.23-.06-.06-.08-.09-.08-.13,0-.13.57-.57.75-.57.25,0,1.5,1.28,1.5,1.54Z"/>
        <path d="M217.74,150.9c.27-.24.34-.3.45-.3.19,0,1.09.66,1.75,1.29.75.69,1.59,1.69,1.59,1.9,0,.14-.03.17-.46.56-.57.52-.69.62-.79.62-.09,0-.18-.06-.25-.21-.53-.93-1.73-2.16-2.79-2.85-.12-.09-.18-.15-.18-.24,0-.1.03-.15.69-.76Z"/>
        <path d="M232.85,146.46h-.09c-.08.01-.13.01-.17.01-.13,0-.21-.06-.25-.25-.09-.38-.15-.83-.18-1.41.21.02.38.02.48.02.81,0,1.75-.06,2.55-.17.15-.99.23-1.74.23-2.37v-.34c1.74.24,2.07.33,2.05.6,0,.08-.03.12-.09.25-.18.34-.2.39-.44,1.58.58-.11,1.33-.3,1.64-.41.06-.03.07-.03.12-.03.13,0,.16.06.28.58.06.3.12.72.12.84,0,.1-.04.16-.18.19q-.27.09-2.33.45c-.69,3.06-1.41,5.29-2.56,8-.08.19-.15.27-.24.27-.2,0-.72-.21-1.23-.5-.26-.13-.33-.2-.33-.29,0-.06.04-.17.12-.31,1.14-2.16,1.97-4.46,2.54-6.92-.66.08-1.12.12-2.04.2ZM239.25,152.16c.43.29,1.06.42,1.95.42.97,0,1.81-.09,2.29-.24.12-.03.15-.04.21-.04.13,0,.19.04.24.18.11.31.18.93.18,1.39,0,.2-.06.27-.26.32-.49.1-1.33.17-2.22.17-1.88,0-2.92-.3-3.61-1.02-.25-.27-.46-.6-.58-.97-.09-.22-.15-.48-.15-.57,0-.25.45-.52,1.23-.78.17.63.34.92.72,1.15ZM243.47,147.8c-.3-.04-.93-.08-1.46-.08-1.11,0-1.58.04-2.89.27-.03.02-.08.02-.11.02-.09,0-.13-.03-.17-.12-.04-.11-.1-.84-.1-1.16,0-.19.03-.29.15-.33.06-.03.15-.04.46-.1,1.02-.18,1.88-.25,2.92-.25.87,0,1.32.03,1.43.1.07.06.09.18.09.67,0,.44-.03.83-.06.92-.01.04-.08.08-.15.08-.03,0-.08,0-.12-.01ZM241.82,142.52c.2,0,1.47,1.42,1.47,1.65,0,.06-.1.19-.22.29-.06.04-.15.12-.25.21-.13.12-.18.15-.33.21t-.08.03c-.06,0-.06-.01-.34-.45-.25-.39-.74-.99-.99-1.22-.03-.03-.07-.09-.07-.1.03-.06.04-.09.04-.09.07-.09.33-.3.39-.34.15-.08.24-.14.25-.15.01-.03.03-.03.04-.03h.09ZM244.35,143.57c-.21.15-.36.24-.43.24-.06,0-.09-.03-.17-.15-.33-.54-.65-.93-1.14-1.43-.04-.04-.06-.07-.06-.12,0-.14.57-.56.76-.56.11,0,.29.15.62.5.48.5.83.95.83,1.09,0,.09-.11.2-.41.42Z"/>
        <path d="M21.99,167.95c.18.12.25.21.25.32s-.01.12-.24.38c-.08.09-.3.42-.54.83q-.75,1.25-1.16,1.96c-.42.71-.69,1.18-.84,1.41q-.04.07-.25.45c-.2.35-.32.53-.53.81.97-.86,1.5-1.08,2.49-1.08.66,0,1.25.29,1.62.78.31.42.4.81.54,2.28.07.88.15,1.28.25,1.5.1.21.31.33.58.33,1.03,0,2.26-1.25,2.86-2.88.15.63.27.93.58,1.49.11.18.14.3.14.45,0,.17-.08.38-.26.66-.78,1.26-2.05,2.01-3.42,2.01-.86,0-1.58-.3-1.95-.79-.3-.42-.44-.97-.56-2.44-.07-.96-.15-1.29-.36-1.53-.17-.18-.41-.27-.74-.27-.99,0-2.29,1.33-3.06,3.1-.22.51-.38.97-.54,1.54-.06.22-.13.32-.24.32-.31,0-1.04-.3-1.42-.58-.1-.09-.15-.15-.15-.24,0-.08.03-.15.22-.57.12-.27.17-.34.27-.62q1.11-2.59,4.19-8.82c.34-.69.51-1.12.61-1.58.78.29,1.14.47,1.62.79Z"/>
        <path d="M30.41,171.97h-.09c-.08.01-.13.01-.17.01-.13,0-.21-.06-.25-.25-.09-.38-.15-.83-.18-1.41.21.02.38.02.48.02.81,0,1.75-.06,2.55-.17.15-.99.23-1.74.23-2.37v-.34c1.74.24,2.07.33,2.05.6,0,.08-.03.12-.09.25-.18.34-.2.39-.44,1.58.58-.11,1.33-.3,1.64-.41.06-.03.07-.03.12-.03.13,0,.16.06.28.58.06.3.12.72.12.84,0,.1-.04.16-.18.19q-.27.09-2.33.45c-.69,3.06-1.41,5.29-2.56,8-.08.19-.15.27-.24.27-.2,0-.72-.21-1.23-.5-.26-.13-.33-.2-.33-.29,0-.06.04-.17.12-.31,1.14-2.16,1.96-4.46,2.53-6.92-.66.08-1.12.12-2.04.2ZM36.81,177.67c.43.29,1.06.42,1.95.42.97,0,1.81-.09,2.29-.24.12-.03.15-.04.21-.04.13,0,.19.04.24.18.11.31.18.93.18,1.39,0,.2-.06.27-.25.32-.5.1-1.33.17-2.22.17-1.88,0-2.92-.3-3.61-1.02-.25-.27-.46-.6-.58-.97-.09-.22-.15-.48-.15-.57,0-.25.45-.52,1.23-.78.17.63.34.92.72,1.15ZM41.03,173.31c-.3-.04-.93-.08-1.46-.08-1.11,0-1.58.04-2.89.27-.03.02-.08.02-.11.02-.09,0-.13-.03-.17-.12-.04-.11-.1-.84-.1-1.16,0-.19.03-.29.15-.33.06-.03.15-.04.46-.1,1.02-.18,1.88-.25,2.92-.25.87,0,1.32.03,1.43.1.07.06.09.18.09.67,0,.44-.03.83-.06.92-.01.04-.08.08-.15.08-.03,0-.08,0-.12-.01ZM39.38,168.03c.2,0,1.47,1.42,1.47,1.65,0,.06-.1.19-.22.29-.06.04-.15.12-.25.21-.13.12-.18.15-.33.21t-.08.03c-.06,0-.06-.01-.34-.45-.25-.39-.74-.99-.99-1.22-.03-.03-.08-.09-.08-.1.03-.06.05-.09.05-.09.07-.09.33-.3.39-.34.15-.08.24-.14.25-.15.01-.03.03-.03.04-.03h.09ZM41.91,169.08c-.21.15-.36.24-.43.24-.06,0-.09-.03-.17-.15-.33-.54-.65-.93-1.14-1.43-.04-.04-.06-.07-.06-.12,0-.14.57-.56.76-.56.11,0,.29.15.62.5.48.5.83.95.83,1.09,0,.09-.11.2-.41.42Z"/>
        <path d="M50.91,167.95c.18.12.25.21.25.32s-.01.12-.24.38c-.08.09-.3.42-.54.83q-.75,1.25-1.16,1.96c-.42.71-.69,1.18-.84,1.41q-.04.07-.25.45c-.2.35-.32.53-.53.81.97-.86,1.5-1.08,2.49-1.08.66,0,1.25.29,1.62.78.31.42.4.81.54,2.28.07.88.15,1.28.25,1.5.1.21.31.33.58.33,1.03,0,2.26-1.25,2.86-2.88.15.63.27.93.58,1.49.11.18.14.3.14.45,0,.17-.08.38-.26.66-.78,1.26-2.05,2.01-3.42,2.01-.86,0-1.58-.3-1.95-.79-.3-.42-.44-.97-.56-2.44-.07-.96-.15-1.29-.36-1.53-.17-.18-.41-.27-.74-.27-.99,0-2.29,1.33-3.06,3.1-.22.51-.38.97-.54,1.54-.06.22-.13.32-.24.32-.31,0-1.04-.3-1.42-.58-.1-.09-.15-.15-.15-.24,0-.08.03-.15.22-.57.12-.27.17-.34.27-.62q1.11-2.59,4.19-8.82c.34-.69.51-1.12.61-1.58.78.29,1.14.47,1.62.79Z"/>
        <path d="M67.92,170.98h-1.38c-2.75,0-5.53.09-5.91.18-.08.02-.12.03-.14.03h-.07s-.06,0-.06,0c-.17-.04-.17-.06-.2-.18-.07-.36-.1-.77-.16-1.86.88.11,1.96.15,4.02.15,3.93,0,4.25,0,5.73-.08-.04,1.46-.04,2.29-.04,4.77,0,.87.04,3.51.08,4.04.01.22.01.24.01.31,0,.2-.04.32-.15.36-.09.03-.77.09-1.16.09q-.6,0-.6-.36,0-.06.01-.66h-1.49c-1.65,0-4.65.06-5.23.09-.36.03-.57.04-.86.09-.04.01-.09.01-.13.01-.17,0-.22-.06-.27-.37-.06-.29-.11-.84-.15-1.64,1,.09,2,.12,4.37.12q1.59,0,3.78-.01v-5.08Z"/>
        <path d="M75.57,170.2c.57.87,1.25,2.16,1.25,2.38,0,.11-.03.15-.21.27-.42.3-1.11.63-1.3.63q-.17,0-.5-.83c-.27-.67-.84-1.72-1.3-2.37-.06-.09-.09-.16-.09-.22,0-.09.04-.13.47-.41.43-.3.7-.43.84-.43.17,0,.39.25.85.97ZM85.46,169.86c0,.12-.01.15-.18.33-.14.18-.29.43-.5.9-.93,2.05-1.21,2.58-2.05,3.82-.99,1.49-2.25,2.78-3.74,3.83-.78.55-1.25.83-1.44.83-.12,0-.2-.03-.3-.14-.39-.38-.85-.71-1.3-.92,1.68-.84,2.66-1.56,3.88-2.85,1.35-1.41,2.46-3.27,3.12-5.28.18-.57.25-.95.34-1.62,1.4.45,2.16.84,2.16,1.09ZM79.83,172.17c-.6.33-.81.42-.93.42-.15,0-.18-.06-.39-.63-.35-.94-.63-1.53-1.25-2.53-.06-.08-.08-.12-.08-.18,0-.13.13-.24.75-.57.43-.24.52-.29.62-.29.17,0,.25.1.76.93.5.84,1.09,2.12,1.09,2.37,0,.13-.08.2-.58.48Z"/>
        <path d="M88.65,172.87c-.12.03-.18.06-.27.11-.08.04-.12.06-.18.06-.33,0-.57-.57-.75-1.68h.29c.63,0,2.24-.2,3.2-.39.31-1.31.48-2.31.48-3.02,0-.06,0-.15-.01-.25.64.06,1.26.2,1.68.38.24.09.36.21.36.36,0,.08-.02.13-.09.25q-.23.39-.69,2.04c.36-.04.76-.08,1.02-.08.62,0,1.1.12,1.44.36.6.43.9,1.32.9,2.68,0,2.24-.41,4.16-1.1,5.1-.48.66-1.11.98-2,.98-.54,0-1.05-.08-1.2-.17q-.12-.08-.17-.63c-.04-.41-.13-.77-.32-1.19.78.27.98.32,1.46.32.72,0,1.02-.35,1.35-1.56.23-.79.35-1.81.35-2.92,0-1.17-.29-1.59-1.08-1.59-.27,0-.71.04-1.05.09-.04.18-.06.2-.12.39-.42,1.54-1.19,3.55-1.95,5.17-.79,1.63-.99,1.96-1.18,1.96-.12,0-.53-.21-.96-.5-.35-.21-.44-.3-.44-.42q0-.08.62-1.05c.83-1.28,1.91-3.77,2.28-5.25-1.11.25-1.73.39-1.86.43ZM98.07,169.8c-.24.18-.41.25-.48.25-.04,0-.09-.03-.13-.11-.32-.51-.84-1.09-1.28-1.47-.03-.03-.04-.06-.04-.09,0-.06.11-.17.36-.36.25-.18.33-.22.43-.22.24,0,1.56,1.33,1.56,1.58,0,.09-.12.19-.42.42ZM96.48,171.39c0-.11.13-.24.57-.58.3-.23.45-.32.57-.32.2,0,.87.72,1.5,1.61.52.75,1.09,1.81,1.09,2.07,0,.15-.04.2-.52.58-.3.24-.65.44-.77.44-.1,0-.15-.04-.25-.3-.29-.72-.54-1.21-.95-1.86-.4-.65-.43-.67-1.15-1.46-.06-.08-.09-.12-.09-.18ZM98.45,166.78c.25,0,1.53,1.28,1.53,1.53,0,.08-.09.17-.39.38-.27.21-.41.29-.46.29q-.08,0-.38-.42c-.25-.34-.74-.86-1-1.08-.04-.04-.08-.08-.08-.12,0-.12.62-.57.78-.57Z"/>
        <path d="M102.59,171.06c-.34,0-.55.01-.91.08v-1.53c.33.06.55.08.94.08h.5v-1.23c0-.72-.01-1.04-.08-1.47h1.65c-.08.38-.09.76-.09,1.47v1.23h.25c.31,0,.48-.02.72-.04v1.47c-.24-.03-.41-.04-.72-.04h-.25v2.19c.36-.13.48-.19.97-.4v1.42c-.48.22-.64.3-.97.43v4.02c0,1.1-.35,1.41-1.54,1.41-.27,0-.72-.01-1.1-.04-.04-.6-.12-.92-.33-1.47.47.06.81.09,1.07.09.36,0,.42-.06.42-.39v-3.06q-.41.14-.76.26c-.17.06-.36.12-.58.21l-.21-1.58c.45-.04.81-.13,1.56-.38v-2.71h-.53ZM105.89,169.08c0-.76-.02-1.17-.05-1.63.48.04.92.06,1.64.06h5.31c.87,0,1.3-.02,1.72-.06-.04.51-.06.98-.06,1.79v9.12c0,.93.01,1.41.09,1.86h-1.59v-.75h-5.64v.75h-1.5c.06-.51.08-.93.08-1.77v-9.36ZM107.28,168.91v9.15h5.7v-9.15h-5.7ZM108.72,171.27c-.4,0-.66.01-.96.06v-1.44c.3.04.54.06,1.01.06h2.71c.49,0,.72-.01,1.03-.06v1.44c-.31-.04-.57-.06-1-.06h-.79v1.39h.63c.42,0,.74-.01.96-.04v1.37c-.19-.01-.25-.03-.43-.03.01.04.04.09.06.12.17.3.33.67.54,1.28l-.85.45c.52,0,.69-.01,1-.06v1.44c-.32-.04-.57-.06-.99-.06h-3.01c-.39,0-.65.01-.95.06v-1.44c.29.04.56.06.99.06h.75v-1.86h-.55c-.36,0-.62.01-.9.04v-1.37c.29.03.53.04.95.04h.51v-1.39h-.69ZM110.72,175.8h.81c-.14-.57-.25-.93-.53-1.48l.79-.36c-.2-.01-.29-.01-.42-.01h-.66v1.86Z"/>
        <path d="M123.09,170.25c.23-1.23.3-1.75.3-2.25,0-.06,0-.15-.01-.26,1.26.18,1.98.47,1.98.79,0,.12-.02.14-.18.44-.12.21-.22.57-.43,1.37,1.02.18,1.88.63,2.55,1.3.83.83,1.23,1.84,1.23,3.09,0,2.08-1.14,3.71-3.16,4.53-.41.17-1.2.38-1.4.38-.12,0-.2-.06-.3-.21-.24-.39-.6-.78-1.04-1.09,1.51-.25,2.24-.52,2.99-1.14.79-.65,1.2-1.49,1.2-2.5,0-1.52-.97-2.75-2.41-3.03-.5,1.56-1.04,2.8-1.7,3.95.22.22.36.36.6.58.17.15.23.24.23.34,0,.25-.84,1.08-1.08,1.08-.12,0-.32-.13-.75-.57-.92,1.09-1.82,1.63-2.71,1.63-1.25,0-2.07-1.05-2.07-2.65,0-1.44.6-2.78,1.75-3.9-.21-.54-.24-.67-.57-1.71-.12-.39-.25-.81-.44-1.24.54-.12,1.25-.23,1.61-.23.15,0,.24.04.28.15q.05.08.06.43c.01.32.15.88.38,1.58.97-.55,2.07-.87,3.1-.86ZM119.31,173.61c-.56.74-.86,1.51-.86,2.22s.29,1.12.72,1.12c.46,0,.9-.31,1.51-1.06-.55-.74-.93-1.37-1.38-2.28ZM122.75,171.6c-.83.12-1.47.36-2.23.87.39.78.69,1.29,1.15,1.9.51-.99.81-1.75,1.08-2.77Z"/>
        <path d="M138.75,172.24c2.12,0,3.62,1.44,3.62,3.48,0,1.39-.74,2.65-1.96,3.39-.86.51-1.91.76-3.09.76-1.91,0-3.02-.76-3.02-2.07,0-1.19.99-2.03,2.4-2.03,1.27,0,2.19.64,2.8,1.96.76-.55,1.08-1.14,1.08-1.95,0-1.29-.92-2.13-2.36-2.13s-3.04.74-4.35,2.04c-.24.24-.46.5-.73.84-.11.15-.18.21-.27.21-.27,0-1.33-1.05-1.33-1.32,0-.13.06-.21.39-.45.34-.27.84-.71,1.47-1.3,1.46-1.38,2.52-2.54,4.09-4.46-1.88.24-3.13.45-3.6.62-.08.01-.12.03-.17.03-.12,0-.2-.07-.29-.3-.18-.45-.27-.94-.32-1.6.41.06.69.08,1.02.08.72,0,1.93-.11,3.51-.29.55-.06.73-.11,1.15-.27.14-.06.21-.08.3-.08.21,0,.42.18.81.78.29.39.38.58.38.71,0,.2-.04.25-.38.46-.27.17-.43.3-.78.63-.75.72-.76.72-1.69,1.67-.66.67-.74.75-1.33,1.35.97-.54,1.74-.77,2.64-.77ZM137.31,177.43c-.23-.15-.48-.23-.77-.23-.46,0-.76.23-.76.58,0,.44.46.71,1.18.71.33,0,.62-.03.99-.13-.18-.5-.33-.72-.64-.93Z"/>
        <path d="M149.09,176.16c.04.06.06.11.06.17q0,.09-.25.78c-.32.92-.51,1.67-.57,2.25-.01.19-.08.27-.27.31-.21.06-.61.09-1,.09-.15,0-.22-.03-.27-.12-.13-.28-.38-1.32-.5-2.16-.1-.71-.15-1.44-.15-2.21,0-1.73.2-3.36.74-6.3.09-.48.12-.71.17-1.17.69.09,1.17.22,1.6.43.23.12.32.23.32.36,0,.09-.03.17-.11.29-.61,1.05-1.18,4.29-1.18,6.69,0,.36.01.93.06,1.65.36-.93.52-1.35.85-2.07.11.41.21.6.51,1ZM151.61,172.21c-.72,0-.87-.03-.92-.19-.04-.13-.09-.62-.09-.96,0-.12,0-.24.01-.51.41.03.64.04,1.14.04.81,0,1.32-.02,2.1-.08-.02-1.91-.03-2.15-.18-2.85.74.01,1.29.07,1.77.19.22.06.31.14.31.29,0,.06-.01.11-.06.22-.15.35-.23.93-.25,1.98.55-.08,1.03-.18,1.93-.39.08-.03.1-.03.15-.03.09,0,.13.04.17.15.03.14.07.71.07,1.02,0,.38-.01.43-.17.5-.24.12-.9.22-2.17.39,0,1.04.09,2.75.2,3.72.95.41,1.59.75,2.25,1.21.42.3.51.41.51.51,0,.17-.27.67-.58,1.11-.18.25-.27.33-.38.33s-.1,0-.45-.33c-.33-.33-.67-.58-1.33-1.02v.12c0,1.32-1.09,2.19-2.76,2.19s-2.8-.9-2.8-2.25,1.14-2.35,2.66-2.35c.55,0,.84.01,1.24.08q-.06-1.17-.1-3.18c-.65.04-1.67.09-2.26.09ZM152.84,176.62c-.75,0-1.25.34-1.25.87,0,.48.46.78,1.19.78.79,0,1.21-.36,1.21-1.05,0-.21-.02-.38-.02-.38-.39-.15-.73-.23-1.14-.23Z"/>
        <path d="M165.9,171.09c-3.29.19-4.56.34-5.5.6-.06.01-.12.03-.17.03-.11,0-.2-.08-.24-.2-.13-.38-.21-.87-.25-1.63.18.01.3.01.36.01.48,0,.93-.01,2.37-.1,1.11-.06,2.06-.11,3.41-.17-.01-1.35-.03-1.54-.17-2.24,1.16.03,1.74.09,1.95.18.09.03.13.11.13.26,0,.03-.01.09-.04.17-.13.33-.18.67-.21,1.59,2.19-.04,2.52-.04,4.02-.04.41,0,.46,0,.51.04.06.06.09.28.09.79,0,.69-.02.76-.21.76h-.06c-.64-.08-2.25-.13-3.3-.13q-.34,0-1.09.01l-.03,2.46c.22.51.3.92.3,1.63,0,1.89-.69,3.33-2.14,4.4-.6.45-1.37.84-1.63.84-.14,0-.21-.04-.33-.17-.42-.48-.74-.74-1.28-1.04.9-.25,1.37-.45,1.95-.83.43-.27.83-.6,1.11-.92.19-.22.34-.45.57-.94-.45.46-.79.61-1.35.61-1.26,0-2.08-.96-2.08-2.42,0-1.53.97-2.62,2.33-2.62.43,0,.7.04,1,.18v-1.14ZM164.09,174.58c0,.63.36,1.07.9,1.07.57,0,.92-.41.92-1.08s-.33-1.11-.9-1.11c-.54,0-.92.46-.92,1.12ZM169.82,169.12c-.42-.75-.75-1.2-1.12-1.57-.03-.03-.05-.08-.05-.12,0-.06.14-.2.35-.33q.36-.22.43-.22c.13,0,.34.19.78.73.39.48.64.86.64.98,0,.07-.04.12-.24.28-.24.21-.54.39-.63.39-.07,0-.12-.03-.17-.14ZM171.71,166.66c.42.46.79,1,.79,1.14,0,.1-.09.2-.39.41-.21.13-.39.22-.45.22q-.09,0-.36-.45c-.22-.41-.51-.76-.9-1.17-.03-.03-.04-.09-.04-.12,0-.1.09-.19.33-.33.2-.12.38-.19.45-.19.11,0,.27.13.57.5Z"/>
        <path d="M181.76,178.71c0,.66-.53,1.18-1.18,1.18s-1.19-.52-1.19-1.18.53-1.18,1.19-1.18,1.18.52,1.18,1.18ZM181.23,176.49h-1.33l-.41-8.98h2.16l-.42,8.98Z"/>
      </g>
      <path class="cls-8" d="M329.77,1.42H90.4c-4.68,0-8.47,3.79-8.47,8.47v40.63s-9.69,9.69-9.69,9.69h9.69v.5c0,4.68,3.79,8.47,8.47,8.47h239.38c4.68,0,8.47-3.79,8.47-8.47V9.89c0-4.68-3.79-8.47-8.47-8.47Z"/>
      <g>
        <path d="M99.58,20.99c-.19-.66-.25-1.06-.43-2.91-.06-.72-.12-1.08-.27-1.59.91.02,1.5.06,1.9.17.23.06.33.16.33.33,0,.06-.01.13-.04.25-.1.36-.15.63-.15,1.02,0,.74.15,1.93.32,2.46.09.29.18.39.34.39.36,0,1.68-.69,2.4-1.25.19-.15.22-.16.3-.16.13,0,.27.1.5.39.38.51.67,1.07.67,1.27,0,.17-.11.27-.36.35-.93.25-2.46.85-3.49,1.35-1.83.9-2.66,1.72-2.66,2.65s.76,1.29,2.7,1.29c1.12,0,2.14-.11,3.52-.33.06-.02.17-.03.2-.03.12,0,.19.06.25.18.04.15.15,1.07.15,1.42,0,.21-.06.29-.26.35-.33.07-2.14.18-3.28.18-1.92,0-3.2-.25-3.99-.79-.67-.46-1.04-1.2-1.04-2.1,0-.69.2-1.31.6-1.91.52-.78,1.09-1.27,2.35-2.02-.31-.29-.43-.5-.57-.96ZM105.03,17.63c.12-.09.2-.12.29-.12.21,0,1.51,1.38,1.51,1.6,0,.09-.12.23-.41.46-.3.26-.33.27-.4.27-.09,0-.11,0-.39-.42-.3-.42-.72-.9-1.04-1.17-.04-.04-.07-.09-.07-.14,0-.07.13-.21.51-.49ZM108.28,18.03c0,.09-.04.15-.23.3-.21.18-.49.38-.55.38-.09,0-.12-.04-.3-.29-.34-.5-.55-.73-1.09-1.23-.06-.06-.08-.09-.08-.13,0-.13.57-.57.75-.57.25,0,1.5,1.28,1.5,1.54Z"/>
        <path d="M116.58,16.95c.18.12.25.21.25.32s-.01.12-.24.38c-.08.09-.3.42-.54.83q-.75,1.25-1.16,1.96c-.42.71-.69,1.19-.84,1.41q-.04.07-.25.45c-.2.35-.32.53-.53.81.97-.86,1.5-1.08,2.49-1.08.66,0,1.25.29,1.62.78.31.42.4.81.54,2.28.07.88.15,1.27.25,1.5.1.21.31.33.58.33,1.03,0,2.26-1.25,2.86-2.88.15.63.27.93.58,1.49.11.18.14.3.14.45,0,.16-.08.38-.26.66-.78,1.26-2.05,2.01-3.42,2.01-.86,0-1.58-.3-1.95-.79-.3-.42-.44-.98-.56-2.45-.07-.96-.15-1.29-.36-1.53-.17-.18-.41-.27-.74-.27-.99,0-2.29,1.33-3.06,3.1-.22.51-.38.97-.54,1.54-.06.22-.13.32-.24.32-.31,0-1.04-.3-1.42-.58-.1-.09-.15-.15-.15-.24,0-.07.03-.15.22-.57.12-.27.17-.34.27-.62q1.11-2.59,4.19-8.82c.34-.69.51-1.12.61-1.58.78.29,1.14.47,1.62.79Z"/>
        <path d="M125.74,20.42c-.27.02-.43.03-.61.05-.14.01-.15.01-.17.01-.12,0-.18-.04-.23-.2-.08-.24-.18-1.04-.19-1.48.17.01.6.03,1.14.03.17,0,1.35-.07,1.88-.12.25-1.21.34-1.85.34-2.66,1.54.21,2.1.39,2.1.67,0,.11-.01.13-.24.48-.12.18-.17.34-.42,1.28.7-.12,1.12-.23,1.68-.41.1-.03.15-.04.22-.04.11,0,.13.08.23.51.07.38.12.69.12.85,0,.18-.04.21-.43.3-.51.12-1.38.27-2.31.39-.56,1.68-.93,2.58-1.62,3.99-.53,1.05-.83,1.61-1.23,2.24-.12.18-.19.24-.3.24-.15,0-.57-.22-1.09-.61-.24-.17-.3-.24-.3-.34s.06-.2.25-.46c.43-.54,1-1.47,1.5-2.46.42-.82.57-1.17,1-2.35-.58.04-.63.06-1.32.1ZM130.68,29.06c-1.64,0-2.75-.9-2.75-2.24s1.15-2.42,2.7-2.42c.36,0,.53.02,1.14.11-.06-.72-.06-1.01-.12-2.4,0-.29-.03-.67-.06-1.15.77.07,1.35.16,1.64.29.12.04.18.12.18.24,0,.08-.01.14-.03.24-.08.32-.09.54-.09.94,0,.56.04,1.5.09,2.24,1.07.48,1.5.72,2.25,1.31.33.25.45.39.45.51,0,.15-.08.29-.5.96-.18.3-.31.44-.42.44q-.09,0-.51-.39c-.33-.33-.71-.58-1.23-.9,0,1.4-1.02,2.24-2.74,2.24ZM130.65,25.85c-.72,0-1.21.34-1.21.87,0,.49.45.81,1.12.81.79,0,1.21-.41,1.21-1.2,0-.12,0-.24-.02-.24-.3-.15-.7-.24-1.11-.24ZM136.26,21.59c-.18.26-.27.33-.38.33-.08,0-.13-.03-.24-.13-.38-.36-.9-.75-1.46-1.09q-.36-.22-1.02-.52c-.21-.09-.29-.15-.29-.27,0-.1.08-.24.3-.58.36-.53.45-.62.58-.62.28,0,1.39.57,2.19,1.11.65.43.84.61.84.78,0,.12-.24.57-.54,1Z"/>
        <path d="M138.18,22.52c.36-1.27.46-2.17.46-3.79l1.16.25c-.03,1.56-.17,2.76-.47,4.02l-1.15-.48ZM141.58,27.45c0,.74.03,1.25.09,1.79h-1.67c.06-.5.09-1.12.09-1.81v-9.99c0-.64-.03-1.02-.09-1.51h1.67c-.08.51-.09.87-.09,1.51v1.2l.86-.33c.36.71.39.79.73,1.88l-.38.18c.38.03.62.05,1.2.05h2.13v-.6h-1.63c-.57,0-.84.01-1.21.06v-1.26c.36.03.63.04,1.23.04h1.62v-.54h-1.86c-.77,0-1.04.01-1.42.06v-1.35c.4.06.73.08,1.5.08h1.78c0-.42-.01-.64-.08-.96h1.64c-.06.33-.08.53-.08.96h2.21c.76,0,1.06-.01,1.48-.08v1.35c-.42-.05-.76-.06-1.47-.06h-2.22v.54h2.02c.62,0,.86-.01,1.19-.04v1.26c-.38-.04-.63-.06-1.21-.06h-2v.6h2.5c.69,0,1.05-.02,1.44-.09v1.42c-.43-.06-.82-.07-1.44-.07h-6.12c-.72,0-1.05.01-1.46.07v-1.26l-.45.2c-.14-.6-.29-1.06-.51-1.61v8.38ZM144.72,27.59c0,.72.03,1.2.08,1.63h-1.65c.06-.48.08-.79.08-1.63v-4.15c0-.54-.02-.79-.05-1.23.36.03.66.04,1.16.04h5.07c.61,0,.97-.01,1.29-.06-.05.33-.06.78-.06,1.49v4.05c0,1.1-.39,1.4-1.84,1.4-.34,0-.45,0-1.29-.04-.09-.6-.15-.87-.33-1.4.58.09,1.05.14,1.41.14.45,0,.54-.06.54-.36v-.48h-4.4v.62ZM149.11,24.03v-.58h-4.4v.58h4.4ZM149.11,25.79v-.59h-4.4v.59h4.4Z"/>
        <path d="M158.04,19.77c.6,0,.88-.01,1.26-.07v1.53c-.27-.04-.48-.06-.81-.06-.15.72-.24,1.01-.46,1.61.71,0,.93-.01,1.27-.06v1.5c-.38-.04-.71-.06-1.26-.06h-1.11v1.16h.99c.54,0,.81-.02,1.19-.06v1.52c-.38-.04-.67-.06-1.19-.06h-.99v1.05c0,.48.03,1.03.06,1.48h-1.56c.06-.48.07-.9.07-1.48v-1.05h-1.03c-.54,0-.81.02-1.2.06v-1.52c.38.04.64.06,1.2.06h1.03v-1.16h-1.27c-.54,0-.87.01-1.26.06v-1.5c.36.05.6.06,1.26.06h.15c-.09-.58-.16-.95-.36-1.61-.51,0-.72.02-1.05.06v-1.53c.36.06.67.07,1.26.07h1.29v-1.11h-.98c-.51,0-.82.01-1.2.06v-1.5c.34.04.63.06,1.2.06h.98v-.25c0-.41-.03-.9-.08-1.1h1.54c-.04.33-.06.63-.06,1.1v.25h.84c.57,0,.85-.01,1.2-.06v1.5c-.36-.04-.69-.06-1.2-.06h-.84v1.11h1.11ZM156.66,22.77c.2-.53.33-1,.45-1.61h-1.74c.2.69.25.9.38,1.61h.92ZM165.81,21.75c-.07.18-.09.27-.18.63-.3,1.33-.72,2.58-1.23,3.57.58.69,1.03,1.08,1.99,1.68-.43.68-.58.95-.82,1.52-.84-.66-1.32-1.1-1.96-1.86-.5.69-.98,1.2-1.71,1.86-.27-.51-.47-.79-.81-1.26.02.58.04.88.11,1.35h-1.64c.08-.58.09-.96.09-1.71v-9.64c0-.5-.03-1.08-.06-1.46.41.04.83.06,1.35.06h3.54c.62,0,1.1-.03,1.33-.06-.04.42-.06.58-.07.93-.17,2.65-.38,2.95-1.95,2.95-.39,0-.65-.01-1.3-.08-.09-.64-.15-.9-.32-1.35.57.11,1.17.17,1.49.17.45,0,.51-.13.57-1.21h-3.13v3.17h2.71c.66,0,1.07-.02,1.37-.06l.64.81ZM161.08,27.68c.67-.52,1.12-.99,1.61-1.66-.63-1.04-.89-1.72-1.37-3.64h-.24v5.31ZM162.63,22.37c.25,1,.45,1.56.86,2.28.31-.66.49-1.25.72-2.28h-1.58Z"/>
        <path d="M171.52,20.72c-1.07-.21-1.88-.53-2.43-.92-.27-.18-.33-.25-.33-.39,0-.17.12-.46.54-1.3.73.46,1.56.79,2.5.99.21-1.05.3-1.92.31-2.9.77.14,1.44.36,1.82.57.17.09.22.18.21.3,0,.06-.03.12-.11.27-.22.46-.24.51-.55,1.98.15.01.34.01.46.01h.11c.36-.01.63-.01.76-.01h.04c.13,0,.18.06.18.25,0,.66-.04,1.2-.1,1.31-.04.08-.24.1-.87.1-.29,0-.51-.01-.93-.03q-.32,1.54-.45,2.35c.51.04.62.04.87.04h.84c.15-.01.22.01.27.09.06.09.11.57.11,1.11,0,.27-.02.34-.11.39-.07.03-.4.05-.97.05-.27,0-.67-.02-1.2-.05-.01.27-.01.45-.01.57,0,1.38.64,2.01,2.05,2.01,1.58,0,2.52-.76,2.52-2.05,0-.47-.1-.89-.34-1.35-.3-.57-.58-.9-1.3-1.47h.13c.24,0,.75-.08,1.2-.17.24-.04.33-.06.41-.06.22,0,.38.1.67.48.69.84,1.04,1.72,1.04,2.66,0,2.11-1.71,3.51-4.31,3.51-2.43,0-3.64-1.21-3.64-3.67,0-.21,0-.38.03-.63-1.49-.32-2.29-1.05-2.29-2.12,0-.55.17-.96.58-1.38.04-.06.1-.07.17-.07.09,0,.19.07.54.36.27.22.31.27.31.35q0,.06-.09.19c-.06.1-.12.27-.12.36,0,.19.12.36.35.46.21.1.27.12.75.22l.39-2.43Z"/>
        <path d="M184.36,17.72c1.6,0,2.5-.12,3.25-.42.08-.03.12-.04.17-.04.12,0,.22.07.39.3.33.41.54.81.54.99,0,.13-.09.21-.43.39-2.26,1.11-3.71,3.25-3.71,5.47,0,1.72,1,2.8,2.59,2.8,1.41,0,2.49-.76,3.04-2.16.41-.99.58-2.19.58-3.75,0-1.16-.22-2.35-.64-3.5-.02-.06-.03-.11-.03-.15,0-.15.11-.22.53-.34.4-.11.88-.21,1.02-.21.12,0,.21.06.25.15t.06.29c.09.79.69,2.28,1.33,3.3.46.75,1.14,1.6,1.78,2.26.08.09.11.15.11.22-.02.32-.9,1.3-1.16,1.3-.13,0-.17-.03-.71-.75-.4-.52-1.02-1.9-1.53-3.36.25,1.38.28,1.7.28,2.67,0,1.74-.46,3.22-1.35,4.25-.84.99-2.02,1.49-3.5,1.49-1.32,0-2.35-.38-3.12-1.12-.78-.78-1.2-1.92-1.2-3.26,0-1.02.22-1.95.71-2.92.51-1.07,1-1.68,2.1-2.66-.78.13-.79.13-1.71.27-.09.01-.17.03-.22.04-.09.01-.17.03-.21.03-.27,0-.44-.55-.51-1.68.33.06.83.09,1.28.09Z"/>
        <path d="M200.8,20.99c-.19-.66-.25-1.06-.43-2.91-.06-.72-.12-1.08-.27-1.59.91.02,1.5.06,1.9.17.23.06.33.16.33.33,0,.06-.01.13-.04.25-.1.36-.15.63-.15,1.02,0,.74.15,1.93.32,2.46.09.29.18.39.34.39.36,0,1.68-.69,2.4-1.25.19-.15.22-.16.3-.16.13,0,.27.1.5.39.38.51.67,1.07.67,1.27,0,.17-.11.27-.36.35-.93.25-2.46.85-3.49,1.35-1.83.9-2.66,1.72-2.66,2.65s.76,1.29,2.7,1.29c1.12,0,2.14-.11,3.52-.33.06-.02.17-.03.2-.03.12,0,.19.06.25.18.04.15.15,1.07.15,1.42,0,.21-.06.29-.26.35-.33.07-2.14.18-3.28.18-1.92,0-3.2-.25-3.99-.79-.67-.46-1.04-1.2-1.04-2.1,0-.69.2-1.31.6-1.91.52-.78,1.09-1.27,2.35-2.02-.31-.29-.43-.5-.57-.96Z"/>
        <path d="M217.68,19.25c.23-1.23.3-1.75.3-2.25,0-.06,0-.15-.01-.25,1.26.18,1.98.46,1.98.79,0,.12-.02.13-.18.43-.12.21-.22.57-.43,1.37,1.02.18,1.88.63,2.55,1.3.83.83,1.23,1.84,1.23,3.09,0,2.08-1.14,3.71-3.16,4.53-.41.16-1.2.38-1.4.38-.12,0-.2-.06-.3-.21-.24-.39-.6-.78-1.04-1.09,1.51-.26,2.24-.53,2.99-1.14.79-.64,1.2-1.48,1.2-2.5,0-1.51-.97-2.75-2.41-3.03-.5,1.56-1.04,2.8-1.7,3.95.22.22.36.36.6.58.17.15.23.24.23.34,0,.26-.84,1.08-1.08,1.08-.12,0-.32-.13-.75-.57-.92,1.1-1.82,1.63-2.71,1.63-1.25,0-2.07-1.05-2.07-2.65,0-1.44.6-2.78,1.75-3.9-.21-.54-.24-.67-.57-1.71-.12-.39-.25-.81-.44-1.25.54-.12,1.25-.23,1.61-.23.15,0,.24.04.28.15q.05.08.06.44c.01.31.15.88.38,1.57.97-.55,2.07-.87,3.1-.86ZM213.9,22.61c-.56.74-.86,1.51-.86,2.22s.29,1.12.72,1.12c.46,0,.9-.31,1.51-1.06-.55-.74-.93-1.37-1.38-2.28ZM217.33,20.6c-.83.12-1.47.36-2.23.87.39.78.69,1.29,1.15,1.9.51-.99.81-1.75,1.08-2.77Z"/>
        <path d="M227.82,20.09c-.39.09-.53.13-1.07.33-.19.08-.3.11-.39.11-.33,0-.63-.62-.9-1.9.96-.04,1.31-.09,2.97-.35,1.8-.27,4.08-.62,5.28-.76,1.35-.18,2.43-.36,3-.48.1-.03.15-.03.22-.03.2,0,.27.09.41.46.12.32.21.76.21.97,0,.18-.06.24-.27.24-.32,0-.6.03-.89.08-2.53.42-4.56,2.64-4.56,4.98,0,1.75,1.38,2.91,3.72,3.12.21.01.29.09.29.27,0,.38-.15,1.1-.29,1.43-.08.16-.19.24-.39.24s-.65-.09-1.11-.22c-2.55-.75-3.88-2.37-3.88-4.67,0-1.25.41-2.4,1.19-3.39.42-.54.78-.84,1.63-1.42-1.96.33-4.04.72-5.17,1ZM235.5,20.48c.21,0,1.48,1.43,1.48,1.65,0,.07-.09.16-.36.4-.29.24-.3.24-.42.29q-.08.03-.11.03c-.06,0-.08-.01-.34-.43-.24-.38-.5-.71-.97-1.2-.03-.03-.08-.1-.08-.12.03-.08.04-.12.06-.12.04-.06.3-.27.36-.32.15-.07.24-.13.25-.15.01-.03.04-.03.04-.03h.08ZM238.06,21.51c-.22.17-.36.25-.43.25-.06,0-.09-.03-.17-.15-.45-.68-.67-.96-1.16-1.43-.03-.04-.06-.09-.06-.12,0-.08.09-.17.3-.32s.39-.24.46-.24c.11,0,.29.14.6.45.44.45.84,1,.84,1.14,0,.09-.11.2-.39.41Z"/>
        <path d="M241.41,22.25c-.6,0-.95.02-1.33.08v-1.58c.33.06.63.08,1.32.08h1.48v-3.33c0-.74-.03-1.14-.09-1.56h1.7c-.06.42-.08.79-.08,1.53v3.36h1.23c.75,0,1.07-.02,1.38-.08v1.56c-.34-.04-.67-.06-1.35-.06h-1.26v1.61h1.38c.78,0,1.16-.02,1.47-.06v1.56c-.41-.04-.71-.06-1.44-.06h-1.41v2.15c0,.65.03,1.2.09,1.78h-1.72c.07-.6.1-1.03.1-1.78v-2.15h-1.83c-.69,0-1.02.02-1.44.08v-1.59c.38.06.78.08,1.48.08h1.79v-1.61h-1.47ZM241.06,16.55c.66,1.2.97,1.95,1.38,3.18l-1.37.51c-.58-1.66-.79-2.14-1.39-3.12l1.38-.57ZM247.5,17c-.66,1.72-.93,2.37-1.46,3.36l-1.28-.57c.65-1.19.95-1.95,1.29-3.33l1.44.54ZM249.48,17.01c-.06.41-.07.75-.07,1.5v5.68c0,.74.01,1.23.06,1.53h-1.6c.03-.33.06-.88.06-1.53v-5.65c0-.76-.01-1.14-.06-1.53h1.62ZM252.48,16.05c-.06.41-.09.85-.09,1.74v9.54c0,.73-.17,1.12-.57,1.38-.31.2-.76.27-1.63.27-.38,0-1-.01-1.51-.04-.11-.71-.18-.98-.41-1.5,1,.12,1.26.13,1.68.13.84,0,.95-.04.95-.45v-9.28c0-.84-.03-1.35-.09-1.79h1.68Z"/>
        <path d="M263.28,21.56c-.03,1.52-.18,2.89-.41,4.06-.33,1.58-.69,2.45-1.59,3.69-.42-.62-.63-.87-1.12-1.29-.45-.03-.57-.03-1.08-.03h-3.12v.98h-1.58c.06-.5.09-1.04.09-1.65v-9.3c0-.67-.02-1.09-.09-1.63h1.65c-.06.39-.08.71-.08,1.21v6.66c.84-.9,1.26-1.56,1.75-2.71h-.5c-.36,0-.72.03-.96.06v-1.48c.41.04.54.04,1,.04h.9v-3.03c0-.58-.01-.83-.06-1.16h1.47c-.04.29-.06.57-.06,1.17v3.02h.87c.46,0,.72-.02.93-.04v1.5c-.31-.06-.58-.08-1.05-.08h-.5c.58,1.01.96,1.49,1.74,2.19-.3.42-.5.79-.67,1.27-.76-.88-1.02-1.26-1.38-1.99.03.31.06.78.06,1v1.27c0,.48.02.66.06.98h-1.47c.04-.33.07-.58.07-1v-1.12c0-.21,0-.36.02-.62q.01-.27.03-.46c-.43,1.09-.73,1.59-1.53,2.52-.17-.29-.39-.57-.74-.95v1.97h3.13c.63,0,1.12-.01,1.5-.06v.87c.96-1.57,1.25-3.45,1.25-8.28,0-1.2-.01-1.53-.08-2.01.81-.03,2.04-.3,3.03-.66.63-.21,1.05-.42,1.38-.66l1.14,1.42q-.08.01-.33.1s-.1.03-.22.08c-1.16.45-2.21.73-3.46.93v1.74h2.89c.53,0,.9-.03,1.26-.09v1.63c-.36-.04-.6-.06-1.14-.06h-.15v5.98c0,.69.03,1.19.09,1.63h-1.7c.06-.43.09-.94.09-1.63v-5.98h-1.36ZM257.14,16.52c.52,1.49.61,1.75.85,2.83l-1.09.46c-.23-1.12-.44-1.8-.88-2.79l1.12-.51ZM261.51,17.01c-.42,1.58-.55,1.98-.93,2.79l-.96-.51c.38-1.02.52-1.56.72-2.77l1.17.5Z"/>
        <path d="M273.52,16.64c.37.11.48.18.48.35,0,.1-.01.15-.09.36-.17.44-.29,1.2-.34,2.25-.12,2.42-.18,4.29-.18,5.78,0,.48.04.84.12,1.08.17.5.69.75,1.53.75,1.35,0,2.62-.55,3.79-1.65.54-.51.87-.92,1.42-1.74.09.48.21.79.54,1.47.04.12.08.21.08.34,0,.27-.29.63-1.04,1.3-1.49,1.34-3.13,2.03-4.86,2.03-1.14,0-1.98-.29-2.52-.82-.57-.6-.79-1.38-.79-2.87,0-1.17.01-2.07.13-5.56.02-.53.03-.84.03-.98,0-1.27-.01-1.65-.11-2.29.77.03,1.35.09,1.8.21Z"/>
        <path d="M284.8,20.42c-.27.02-.43.03-.61.05-.14.01-.15.01-.17.01-.12,0-.18-.04-.23-.2-.08-.24-.18-1.04-.19-1.48.17.01.6.03,1.14.03.17,0,1.35-.07,1.88-.12.25-1.21.34-1.85.34-2.66,1.54.21,2.1.39,2.1.67,0,.11-.01.13-.24.48-.12.18-.17.34-.42,1.28.7-.12,1.12-.23,1.68-.41.1-.03.15-.04.22-.04.11,0,.13.08.23.51.07.38.12.69.12.85,0,.18-.04.21-.43.3-.51.12-1.38.27-2.31.39-.56,1.68-.93,2.58-1.62,3.99-.53,1.05-.83,1.61-1.23,2.24-.12.18-.19.24-.3.24-.15,0-.57-.22-1.09-.61-.24-.17-.3-.24-.3-.34s.06-.2.25-.46c.43-.54,1-1.47,1.5-2.46.42-.82.57-1.17,1-2.35-.58.04-.63.06-1.32.1ZM289.74,29.06c-1.64,0-2.75-.9-2.75-2.24s1.15-2.42,2.7-2.42c.36,0,.53.02,1.14.11-.06-.72-.06-1.01-.12-2.4,0-.29-.03-.67-.06-1.15.77.07,1.35.16,1.64.29.12.04.18.12.18.24,0,.08-.01.14-.03.24-.08.32-.09.54-.09.94,0,.56.04,1.5.09,2.24,1.07.48,1.5.72,2.25,1.31.33.25.45.39.45.51,0,.15-.08.29-.5.96-.18.3-.31.44-.42.44q-.09,0-.51-.39c-.33-.33-.71-.58-1.23-.9,0,1.4-1.02,2.24-2.74,2.24ZM289.71,25.85c-.72,0-1.21.34-1.21.87,0,.49.45.81,1.12.81.79,0,1.21-.41,1.21-1.2,0-.12,0-.24-.02-.24-.3-.15-.7-.24-1.11-.24ZM295.32,21.59c-.18.26-.27.33-.38.33-.08,0-.13-.03-.24-.13-.38-.36-.9-.75-1.46-1.09q-.36-.22-1.02-.52c-.21-.09-.29-.15-.29-.27,0-.1.08-.24.3-.58.36-.53.45-.62.58-.62.28,0,1.39.57,2.19,1.11.65.43.84.61.84.78,0,.12-.24.57-.54,1Z"/>
        <path d="M298.48,19.14c0-.43-.02-1.02-.04-1.35.69.08,1.2.18,1.6.33.36.14.48.23.48.39q0,.09-.06.24c-.2.51-.25,1.08-.25,2.45,0,1.92.12,3.12.42,4.03.22.71.57,1.11.97,1.11.62,0,1.12-.72,1.68-2.38.28.76.39.99.81,1.53.08.11.12.21.12.31,0,.24-.22.75-.53,1.19-.58.86-1.33,1.32-2.13,1.32-1.15,0-2.02-.93-2.56-2.78-.34-1.2-.51-2.71-.51-4.81v-1.58ZM307.41,19.38c.09,0,.17.04.29.15.75.72,1.53,1.92,2.03,3.09.33.79.64,1.86.64,2.18,0,.15-.08.22-.39.39-.34.18-1.05.42-1.23.42-.13,0-.19-.08-.24-.34-.2-1.16-.46-2-.93-2.97-.42-.87-.45-.91-1.47-2.17.63-.46,1.12-.74,1.3-.74Z"/>
        <path d="M319.08,26.31c1.23,0,2.59-.18,3.94-.52.08-.03.12-.03.17-.03.09,0,.13.06.17.2.04.33.08.81.08,1.3,0,.3-.03.39-.17.45-.45.24-2.47.46-4.21.46-2.26,0-3.55-.38-4.59-1.35-.5-.46-.99-1.27-.99-1.6,0-.22.13-.32,1.37-1.02.54,1.49,1.79,2.12,4.25,2.12ZM319.21,17.69c.87,0,1.38-.03,2.4-.18h.11c.12,0,.17.04.2.13.03.18.06.63.06,1.17,0,.34-.03.47-.12.53-.12.08-1.42.17-2.43.17-1.33,0-2.45-.11-3.69-.35-.85-.16-.9-.21-.9-.73,0-.35.03-.92.08-1.33,1.3.41,2.73.6,4.3.6Z"/>
        <path d="M99.58,46.5c-.19-.66-.25-1.06-.43-2.91-.06-.72-.12-1.08-.27-1.59.91.02,1.5.06,1.9.17.23.06.33.16.33.33,0,.06-.01.13-.04.25-.1.36-.15.63-.15,1.02,0,.74.15,1.93.32,2.46.09.29.18.39.34.39.36,0,1.68-.69,2.4-1.25.19-.15.22-.16.3-.16.13,0,.27.1.5.39.38.51.67,1.07.67,1.27,0,.17-.11.27-.36.35-.93.25-2.46.85-3.49,1.35-1.83.9-2.66,1.72-2.66,2.65s.76,1.29,2.7,1.29c1.12,0,2.14-.11,3.52-.33.06-.02.17-.03.2-.03.12,0,.19.06.25.18.04.15.15,1.07.15,1.42,0,.21-.06.29-.26.35-.33.07-2.14.18-3.28.18-1.92,0-3.2-.25-3.99-.79-.67-.46-1.04-1.2-1.04-2.1,0-.69.2-1.31.6-1.91.52-.78,1.09-1.27,2.35-2.02-.31-.29-.43-.5-.57-.96Z"/>
        <path d="M110.53,46.49h-.09c-.08.01-.13.01-.17.01-.13,0-.21-.06-.25-.25-.09-.38-.15-.83-.18-1.41.21.01.38.01.48.01.81,0,1.75-.06,2.55-.17.15-.99.23-1.74.23-2.37v-.34c1.74.24,2.07.33,2.05.6,0,.08-.03.12-.09.26-.18.34-.2.39-.44,1.57.58-.11,1.33-.3,1.64-.4.06-.03.07-.03.12-.03.13,0,.16.06.28.59.06.3.12.72.12.84,0,.11-.04.16-.18.2q-.27.09-2.33.45c-.69,3.06-1.41,5.29-2.56,8-.08.19-.15.27-.24.27-.2,0-.72-.21-1.23-.5-.26-.13-.33-.2-.33-.29,0-.06.04-.16.12-.31,1.14-2.16,1.97-4.46,2.54-6.91-.66.07-1.12.12-2.04.19ZM116.94,52.19c.43.29,1.06.42,1.95.42.97,0,1.81-.09,2.29-.24.12-.03.15-.04.21-.04.13,0,.19.04.24.18.11.31.18.93.18,1.39,0,.2-.06.27-.26.32-.49.1-1.33.17-2.22.17-1.88,0-2.92-.3-3.61-1.02-.25-.27-.46-.6-.58-.98-.09-.22-.15-.48-.15-.57,0-.26.45-.53,1.23-.78.17.63.34.92.72,1.16ZM121.15,47.82c-.3-.04-.93-.08-1.46-.08-1.11,0-1.58.04-2.89.27-.03.01-.08.01-.11.01-.09,0-.13-.03-.17-.12-.04-.11-.1-.84-.1-1.15,0-.2.03-.29.15-.33.06-.03.15-.04.46-.11,1.02-.18,1.88-.25,2.92-.25.87,0,1.32.03,1.43.1.07.06.09.18.09.68,0,.43-.03.82-.06.91-.01.04-.08.08-.15.08-.03,0-.08,0-.12-.02ZM119.5,42.54c.2,0,1.47,1.42,1.47,1.65,0,.06-.1.19-.22.29-.06.04-.15.12-.25.21-.13.12-.18.15-.33.21t-.08.03c-.06,0-.06-.02-.34-.45-.25-.39-.74-.99-.99-1.22-.03-.03-.07-.09-.07-.1.03-.06.04-.09.04-.09.07-.09.33-.3.39-.34.15-.08.24-.13.25-.15.01-.03.03-.03.04-.03h.09ZM122.04,43.59c-.21.15-.36.24-.43.24-.06,0-.09-.03-.17-.15-.33-.54-.65-.93-1.14-1.42-.04-.04-.06-.08-.06-.12,0-.14.57-.56.76-.56.11,0,.29.15.62.5.48.49.83.94.83,1.09,0,.09-.11.2-.41.42Z"/>
        <path d="M126.75,46.08c-1.06.18-1.3.22-1.56.3-.15.04-.27.06-.36.06-.27,0-.4-.48-.46-1.65.87,0,1.35-.04,2.42-.24,0-.48.01-1.04.01-1.23,0-.58-.03-1.09-.09-1.47,1.58.08,2.04.18,2.04.46q0,.08-.13.39t-.2,1.62c.48.38.74.67.72.87,0,.04-.03.08-.09.13-.22.2-.25.22-.52.62q-.06.08-.15.2l-.06.09c0,.22,0,.25-.02.54.45-.51.87-.93,1.28-1.26,1.32-1.08,2.31-1.53,3.39-1.53s1.77.44,2.29,1.33c.45.78.69,1.88.69,3.17,0,.78-.06,1.38-.23,2.5.72.51,1.5,1.3,1.5,1.51,0,.24-.84,1.08-1.09,1.08-.1,0-.12-.02-.32-.31-.12-.17-.28-.36-.61-.72-.21.39-.33.55-.54.75-.55.51-1.3.78-2.19.78-1.56,0-2.56-.79-2.56-2,0-1.28,1.04-2.23,2.4-2.23.78,0,1.35.1,1.86.33.06-.56.08-.83.08-1.31,0-2.37-.45-3.3-1.59-3.3-.81,0-1.89.57-3.03,1.59-.41.38-.72.69-1.37,1.39v.87c0,1.99.04,4,.11,4.53v.06c0,.27-.21.34-.93.34-.66,0-.79-.06-.79-.34v-.12c.03-.43.04-.96.04-1.62q0-.99.01-2.18s-.03.04-.06.08c-.33.4-.87,1.14-1.22,1.63-.17.24-.25.31-.36.31-.15,0-.42-.27-.88-.87-.18-.23-.29-.42-.29-.5s.08-.16.45-.49c.27-.26,1.29-1.5,1.81-2.19.27-.38.46-.65.58-.84v-1.16ZM132.49,51.23c-.69,0-1.11.29-1.11.75s.32.69.89.69c.5,0,.9-.15,1.17-.45.13-.13.34-.51.34-.57h0c-.51-.33-.81-.42-1.29-.42Z"/>
        <path d="M146.2,53.22c0,.66-.52,1.18-1.18,1.18s-1.19-.52-1.19-1.18.53-1.19,1.19-1.19,1.18.53,1.18,1.19ZM145.68,51h-1.33l-.41-8.98h2.16l-.42,8.98Z"/>
        <path d="M160.66,53.22c0,.66-.53,1.18-1.18,1.18s-1.19-.52-1.19-1.18.53-1.19,1.19-1.19,1.18.53,1.18,1.19ZM160.14,51h-1.33l-.41-8.98h2.16l-.42,8.98Z"/>
      </g>
      <circle class="cls-10" cx="31.42" cy="51.75" r="30"/>
      <g>
        <path class="cls-7" d="M40.58,42.28c5.99-4.81,10.66-4.4,11.63-2.77.89,1.5-.2,9.39-9.11,4.98"/>
        <path class="cls-4" d="M44.82,44.85c2.15-3.69,6.52-2.97,7.64-2.44-1.95,3.62-3.96,4.96-7.64,2.44Z"/>
        <path class="cls-1" d="M47.81,46.43c-1.31,0-2.94-.38-4.99-1.39-.3-.15-.42-.51-.28-.82.15-.3.52-.42.82-.28,3.32,1.64,5.84,1.68,7.29.12,1.3-1.4,1.35-3.69,1.02-4.24-.21-.35-.72-.62-1.4-.75-.91-.16-4.27-.39-9.33,3.68-.26.21-.65.17-.86-.09-.21-.26-.17-.65.09-.86,3.68-2.96,7.53-4.43,10.31-3.92,1.04.19,1.83.66,2.23,1.32.64,1.09.43,3.95-1.18,5.69-.75.81-1.93,1.54-3.74,1.54Z"/>
        <path class="cls-7" d="M46.06,56.5c1.64-16.82-17.11-22.8-25.64-13.47-2.97,3.25-5.19,9.02-4.06,15.77-3.29,3.25-2.73,7.92,2.42,10.46,3.1,1.53,6.19,2.19,13.34,2.19,6.63,0,14.3-2.8,16.45-6.93,1.2-2.31.78-5.72-2.5-8.03Z"/>
        <path class="cls-2" d="M35.84,38.87c-.6-4.19-4.15-6.52-4.34-.47"/>
        <path class="cls-2" d="M24.16,39.94c-.51-4.2,2.31-7.38,4.07-1.58"/>
        <path class="cls-7" d="M19.7,43c-6.66-3.82-11.21-2.69-11.91-.92-.65,1.62,2.36,9.82,10.47,4.08"/>
        <ellipse class="cls-1" cx="35.32" cy="58.45" rx="1.44" ry="1.56" transform="translate(-8.66 6.21) rotate(-8.95)"/>
        <path class="cls-4" d="M16.43,46.81c-2.15-3.69-7.03-2.78-8.16-2.25,1.95,3.62,4.47,4.77,8.16,2.25Z"/>
        <path class="cls-4" d="M29.26,38.39c1.23,7.46-2.33,14.45-12.53,14.45,0-11.42,12.53-14.45,12.53-14.45Z"/>
        <path class="cls-4" d="M31.5,38.4c0,8.41,6.81,12.72,13.84,13.25,0-11.42-13.84-13.25-13.84-13.25Z"/>
        <path class="cls-4" d="M15.28,65.27c13.81-6.39,25.45-3.61,33.28-.74-3.13,7.57-29.25,10.15-33.28.74Z"/>
        <path class="cls-1" d="M32.12,72.07c-7.59,0-10.64-.79-13.61-2.26-2.68-1.33-4.37-3.31-4.74-5.59-.32-1.98.37-3.96,1.94-5.63-1.1-7.13,1.47-12.92,4.26-15.97,4.25-4.65,11.25-5.93,17.42-3.18,3.01,1.34,5.47,3.51,7.11,6.28,1.79,3.02,2.53,6.54,2.2,10.49,3.38,2.56,3.63,6.22,2.4,8.6-2.36,4.54-10.49,7.26-16.99,7.26ZM30.74,39.23c-3.76,0-7.35,1.46-9.87,4.22-2.64,2.89-5.06,8.42-3.91,15.26.03.2-.03.39-.17.53-1.44,1.42-2.08,3.13-1.81,4.79.3,1.88,1.75,3.54,4.07,4.69,2.8,1.38,5.71,2.13,13.07,2.13,6.88,0,14.01-2.96,15.91-6.6,1.03-1.98.75-5.1-2.31-7.25-.18-.13-.28-.34-.26-.56.71-7.25-2.49-13.19-8.56-15.89-2.01-.89-4.11-1.33-6.15-1.33Z"/>
        <path class="cls-1" d="M31.75,68.56c-1.88,0-3.48-.99-4.4-2.72l-.45.09c-.33.07-.65-.14-.72-.47-.07-.33.14-.65.47-.72l.91-.19c.28-.06.57.09.68.35.73,1.67,2.12,2.55,3.82,2.43,1.72-.13,3.25-1.27,3.64-2.72.07-.28.34-.46.62-.45l.77.04c.34.02.59.3.58.64-.02.34-.31.59-.64.58l-.31-.02c-.69,1.72-2.5,2.99-4.57,3.14-.14.01-.27.02-.41.02Z"/>
        <ellipse class="cls-1" cx="35.32" cy="58.45" rx="1.44" ry="1.56" transform="translate(-8.66 6.21) rotate(-8.95)"/>
        <ellipse class="cls-1" cx="27.65" cy="58.8" rx="1.56" ry="1.44" transform="translate(-32.47 83.45) rotate(-87.1)"/>
        <path class="cls-1" d="M13.05,48.78c-1.46,0-2.58-.54-3.4-1.18-2.09-1.64-2.9-4.58-2.43-5.75.29-.72.99-1.3,1.99-1.65,2.66-.93,6.69-.08,10.79,2.27.29.17.39.54.22.83-.17.29-.54.39-.83.22-5.62-3.23-8.91-2.48-9.78-2.18-.65.23-1.11.57-1.26.95-.21.53.31,2.97,2.06,4.35,1.89,1.49,4.48,1.14,7.49-.99.27-.19.65-.13.85.15.19.27.13.65-.15.85-2.23,1.58-4.07,2.14-5.55,2.14Z"/>
        <path class="cls-1" d="M35.84,39.48c-.3,0-.56-.22-.6-.52-.32-2.23-1.48-3.66-2.12-3.62-.31.02-.93.69-1,3.09-.01.34-.3.59-.63.59-.34-.01-.6-.29-.59-.63.11-3.61,1.4-4.22,2.15-4.27.03,0,.06,0,.09,0,1.46,0,2.94,2.06,3.31,4.67.05.33-.18.64-.52.69-.03,0-.06,0-.09,0Z"/>
        <path class="cls-1" d="M24.16,40.55c-.3,0-.57-.23-.6-.54-.32-2.66.61-5.08,2.07-5.39.74-.15,2.14.1,3.19,3.56.1.32-.08.66-.41.76-.32.1-.66-.08-.76-.41-.7-2.3-1.46-2.78-1.77-2.72-.62.13-1.38,1.81-1.11,4.05.04.33-.2.64-.53.68-.02,0-.05,0-.07,0Z"/>
        <path class="cls-1" d="M36.59,49.98c-.65-1.09-1.64-1.26-2.41-.7-.18.13-.11.42.12.44.71.07,1.33.3,1.98.61.22.1.44-.14.31-.35Z"/>
        <path class="cls-1" d="M25.69,50.38c.65-1.09,1.64-1.26,2.41-.7.18.13.11.42-.12.44-.71.07-1.33.3-1.98.61-.22.1-.44-.14-.31-.35Z"/>
        <circle class="cls-1" cx="32.97" cy="64.39" r=".57"/>
        <circle class="cls-1" cx="31.18" cy="64.39" r=".57"/>
      </g>
      <g>
        <g>
          <path class="cls-6" d="M316.72,194.64l2.44-1.25,1.46-4.73.45-7.2-1.46-6.87-4.68-6.99-5.39-2.36-6.79-.22-6.1,3.81-4.7,6.93-3.53,4.99-1.3,4.93,1.86,3.93,6.11,3.68c3.93,2.14,16.2,3.55,21.64,1.34Z"/>
          <path class="cls-12" d="M287.89,182.31c4.13.27,6.52,4.64,4.99,9.32-4.03-2.19-6.28-4.42-4.99-9.32Z"/>
          <path class="cls-1" d="M322.71,171.41c1.96.16,1.33,2.31.37,3.56-.2.26-.59.3-.84.08-1.7-1.45-1.1-3.77.47-3.64Z"/>
          <path class="cls-1" d="M322.61,172.25c-.33,0-.6-.27-.6-.6v-3.87l-.98-1.36c-.19-.27-.13-.64.14-.83.27-.19.64-.13.83.14l1.09,1.52c.07.1.11.22.11.35v4.07c0,.33-.27.6-.6.6Z"/>
          <ellipse class="cls-1" cx="298.88" cy="181.22" rx="1.67" ry="1.55" transform="translate(73.37 448.27) rotate(-81.05)"/>
          <ellipse class="cls-1" cx="308.38" cy="182.89" rx="1.55" ry="1.67" transform="translate(-8.85 15.82) rotate(-2.9)"/>
          <path class="cls-1" d="M298.03,180.67c-.06,0-.13-.02-.19-.06-.7-.55-1.05-1.12-1.32-2.09-.04-.16.05-.32.21-.37.16-.04.32.05.37.21.26.96.59,1.37,1.11,1.78.13.1.15.29.05.42-.06.07-.15.11-.23.11Z"/>
          <path class="cls-1" d="M297.86,181.21c-.74,0-1.53-.42-2.16-1.16-.11-.13-.09-.31.03-.42.13-.11.31-.09.42.03.55.65,1.26,1.01,1.85.95.16-.02.31.1.33.26.02.16-.1.31-.26.33-.07,0-.14.01-.21.01Z"/>
          <path class="cls-1" d="M309.46,182.46c-.15,0-.27-.11-.3-.26-.02-.16.09-.31.26-.34.49-.07,1.22-.49,1.67-1.25.08-.14.27-.19.41-.1.14.08.19.27.1.41-.48.82-1.33,1.44-2.11,1.54-.01,0-.03,0-.04,0Z"/>
          <path class="cls-1" d="M310.45,183.6c-.34,0-.7-.06-1.04-.22-.15-.07-.22-.25-.15-.4.07-.15.25-.22.4-.15.77.35,1.64.08,2.24-.22.15-.07.33-.01.4.14.07.15.01.33-.14.4-.46.23-1.07.45-1.71.45Z"/>
          <polygon class="cls-5" points="318.97 161.13 312.98 160.57 315.65 165.97 321.76 166.62 318.97 161.13"/>
          <polygon class="cls-5" points="317.37 169.19 312.09 165.17 314 162.45 319.11 166.51 317.37 169.19"/>
          <path class="cls-12" d="M321.25,185.31c-5.72-.79-10.1,4.13-9.2,10.53,6.07-1.7,9.72-3.92,9.2-10.53Z"/>
          <path class="cls-1" d="M302.41,176.56c-1.73-.3-2.63-1.6-2.54-3.04.02-.34.41-.4.6-.09.59.98,1.31,1.72,2.13,2.48.27.25.15.71-.18.65Z"/>
          <path class="cls-1" d="M308.14,177.06c1.54.83,3.06.36,3.88-.82.19-.28-.08-.57-.41-.44-1.07.4-2.09.55-3.2.64-.37.03-.55.46-.26.62Z"/>
          <path class="cls-1" d="M309.95,196.34c-2.36,0-4.28-.24-4.41-.25-.33-.04-.56-.34-.52-.67s.34-.56.67-.52c.06,0,5.61.69,9.39-.29,5.98-1.55,5.72-6.95,5.57-10.19-.01-.26-.02-.5-.03-.71-.07-2.22-.44-6.51-2.13-10.33-2.12-4.8-5.64-7.39-10.45-7.72-9.35-.63-12.53,5.04-14.64,8.79-.48.86-.9,1.6-1.33,2.17-.17.23-.38.49-.61.78-1.72,2.17-4.59,5.8-3.56,9.3.77,2.6,3.63,4.77,8.5,6.43.31.11.48.45.37.76-.11.31-.45.48-.76.37-5.26-1.79-8.37-4.22-9.26-7.22-1.21-4.09,2.03-8.18,3.77-10.38.22-.28.42-.54.59-.76.38-.51.78-1.22,1.24-2.04,2.12-3.77,5.66-10.08,15.76-9.4,5.29.36,9.15,3.19,11.46,8.43,1.77,4.01,2.16,8.47,2.23,10.77,0,.21.02.44.03.69.15,3.12.45,9.61-6.46,11.4-1.7.44-3.69.57-5.43.57Z"/>
          <path class="cls-1" d="M317.37,169.78c-.13,0-.26-.04-.37-.13-.26-.2-.3-.58-.1-.84l2.2-2.79c.13-.16.33-.25.53-.22l1.09.12-2.14-4.21-4.6-.43.65,1.31c.1.2.08.44-.06.62l-1.77,2.35c-.2.26-.57.32-.84.12-.26-.2-.32-.57-.12-.84l1.55-2.06-.96-1.94c-.1-.19-.08-.42.04-.6.12-.18.33-.28.55-.26l6,.56c.2.02.38.14.48.32l2.78,5.49c.1.2.08.43-.04.61-.12.18-.34.28-.55.25l-1.86-.2-2,2.54c-.12.15-.29.23-.47.23Z"/>
          <g>
            <path class="cls-3" d="M307.1,187.28c-.54-1.83-3.33-3.94-4.82-3.82s-4.72,1.72-5.69,1.6-1.6-.82-1.86,1.44,1.44,3.53,3.87,2.85c3.18,2.08,9.43,1.07,8.5-2.07Z"/>
            <path class="cls-3" d="M307.19,188.78c-.96,3.55-5.93,6.02-7.13,5.41s-3.89-1.63-2.34-4.67c2.41.67,7.43.52,7.63-.95s1.84.22,1.84.22Z"/>
            <path class="cls-1" d="M302.35,191.02c-1.13,0-2.33-.39-3.55-1.18-2.28.5-3.5-.18-4.12-.86-.78-.85-1.02-2.14-.61-3.38.41-1.25,1.01-1.32,1.88-1.29.63.02,1.59.06,3.19-.65,3.58-1.6,5.53-.43,7.38,1.82.18.22.15.55-.07.73-.22.18-.55.15-.73-.07-1.62-1.98-3.15-2.87-6.14-1.53-1.83.82-2.97.77-3.66.75q-.65-.02-.84.57c-.28.86-.13,1.78.38,2.34.65.7,1.8.87,3.33.5.14-.03.29,0,.42.07,1.8,1.22,4.44,2.05,6.76-.92.15-.19.42-.25.64-.15,0,0,.68.33,1.29.5.28.08.44.37.36.65s-.37.44-.65.36c-.39-.11-.8-.28-1.08-.4-1.22,1.42-2.63,2.13-4.16,2.13Z"/>
            <path class="cls-1" d="M300.89,194.43c-.84,0-1.62-.2-2.27-.61-2.95-1.84-1.53-4.57-1.52-4.59.14-.25.45-.35.71-.21.25.14.35.45.21.71-.1.19-.92,1.92,1.15,3.21.99.62,2.52.59,3.97-.09,1.83-.85,3.09-2.45,3.35-4.27.04-.29.31-.48.59-.44.29.04.48.31.44.59-.32,2.17-1.79,4.06-3.95,5.06-.91.42-1.83.63-2.69.63Z"/>
          </g>
        </g>
        <g>
          <polygon class="cls-11" points="287.6 168.8 285.39 171.26 287.72 173.85 289.83 171.22 287.6 168.8"/>
          <path class="cls-1" d="M290.85,171.5c-1.55,0-2.71-.89-3.25-2.38-.54,1.49-1.7,2.38-3.25,2.38-.19,0-.34-.15-.34-.34s.15-.34.34-.34c1.79,0,2.91-1.46,2.91-3.82,0-.19.15-.34.34-.34s.34.15.34.34c0,2.32,1.14,3.82,2.91,3.82.19,0,.34.15.34.34s-.15.34-.34.34Z"/>
          <path class="cls-1" d="M287.74,175.96c-.19,0-.34-.15-.34-.34,0-2.33-1.28-4.02-3.05-4.02-.19,0-.34-.15-.34-.34s.15-.34.34-.34c1.53,0,2.77,1,3.35,2.55.51-1.6,1.64-2.55,3.14-2.55.19,0,.34.15.34.34s-.15.34-.34.34c-1.71,0-2.77,1.54-2.77,4.02,0,.19-.15.34-.34.34Z"/>
        </g>
      </g>
    </g>
  </g>
</svg>