<?xml version="1.0" encoding="UTF-8"?>
<svg id="_レイヤー_2" data-name="レイヤー 2" xmlns="http://www.w3.org/2000/svg" width="374" height="77.36" viewBox="0 0 374 77.36">
  <defs>
    <style>
      .cls-1 {
        fill: #d4e9de;
      }

      .cls-2 {
        fill: #fff;
      }

      .cls-3 {
        fill: #739b9e;
      }
    </style>
  </defs>
  <g id="_レイヤー_1-2" data-name="レイヤー 1">
    <g>
      <rect class="cls-1" x="0" y="0" width="374" height="77.36"/>
      <rect class="cls-2" x="7.58" y="14.39" width="358.85" height="51.32" rx="25.57" ry="25.57"/>
      <g>
        <path class="cls-3" d="M118.56,34.02c2.85,0,4.21,1.15,4.21,3.6,0,1.07-.42,2.06-1.12,2.69-.74.66-1.76.98-3.09.98h-2.3v5.2h-2.07v-12.47h4.37ZM118.06,39.59c1.81,0,2.62-.61,2.62-1.97s-.77-1.89-2.62-1.89h-1.81v3.86h1.81Z"/>
        <path class="cls-3" d="M132.66,34.02v1.7h-5.76v3.39h4.4v1.68h-4.4v3.97h6.03v1.73h-8.1v-12.47h7.83Z"/>
        <path class="cls-3" d="M139.33,34.02c1.49,0,2.45.27,3.12.86.62.56.99,1.46.99,2.42,0,1.58-.78,2.62-2.32,3.07.82.35,1.02.67,1.84,2.82l1.25,3.3h-2.19l-1.06-3.09c-.62-1.82-1.09-2.37-2.02-2.37h-2.03v5.46h-2v-12.47h4.42ZM138.75,39.35c1.82,0,2.66-.59,2.66-1.89,0-.54-.21-1.02-.56-1.3-.37-.27-1.1-.43-2.11-.43h-1.83v3.62h1.84Z"/>
        <path class="cls-3" d="M153.69,39.22c2.02-.56,3.47-.82,4.56-.82,2.26,0,3.65,1.23,3.65,3.23,0,1.2-.5,2.26-1.44,3.06-.62.53-1.55.98-2.79,1.34-.69.19-1.42.34-1.75.34-.19,0-.29-.05-.35-.21-.22-.56-.48-.96-.82-1.3,3.52-.37,5.31-1.49,5.31-3.31,0-.93-.77-1.65-1.76-1.65-1.73,0-3.62.58-5.6,1.68-.16.08-.26.13-.32.13-.27,0-.72-.8-1.09-1.95.78-.11,1.06-.18,2.38-.54Z"/>
        <path class="cls-3" d="M169.04,37.7c-.42.1-.56.14-1.14.35-.21.08-.32.11-.42.11-.35,0-.67-.66-.96-2.03,1.02-.05,1.39-.1,3.17-.37,1.92-.29,4.35-.66,5.63-.82,1.44-.19,2.59-.38,3.2-.51.11-.03.16-.03.24-.03.21,0,.29.1.43.5.13.34.22.82.22,1.04,0,.19-.06.26-.29.26-.34,0-.64.03-.94.08-2.71.45-4.87,2.82-4.87,5.31,0,1.87,1.47,3.11,3.97,3.33.22.02.3.1.3.29,0,.4-.16,1.17-.3,1.52-.08.18-.21.26-.42.26s-.69-.1-1.18-.24c-2.72-.8-4.15-2.53-4.15-4.98,0-1.33.43-2.56,1.26-3.62.45-.58.83-.9,1.74-1.52-2.1.35-4.31.77-5.52,1.07Z"/>
        <path class="cls-3" d="M184.53,38.05c-.29.02-.46.03-.66.05-.14.02-.16.02-.18.02-.13,0-.19-.05-.24-.21-.08-.26-.19-1.1-.21-1.58.18.02.64.03,1.22.03.18,0,1.44-.08,2-.13.27-1.3.37-1.97.37-2.83,1.65.22,2.24.42,2.24.72,0,.11-.02.14-.26.51-.13.19-.18.37-.45,1.36.75-.13,1.2-.24,1.79-.43.11-.03.16-.05.24-.05.11,0,.14.08.24.54.08.4.13.74.13.91,0,.19-.05.22-.46.32-.54.13-1.47.29-2.46.42-.59,1.79-.99,2.75-1.73,4.26-.56,1.12-.88,1.71-1.31,2.39-.13.19-.21.26-.32.26-.16,0-.61-.24-1.17-.66-.26-.18-.32-.26-.32-.37s.06-.21.27-.5c.46-.58,1.07-1.57,1.6-2.62.45-.88.61-1.25,1.07-2.51-.62.05-.67.06-1.41.11ZM189.79,47.27c-1.74,0-2.93-.96-2.93-2.39s1.23-2.58,2.88-2.58c.38,0,.56.02,1.22.11-.06-.77-.06-1.07-.13-2.56,0-.3-.03-.72-.06-1.23.82.08,1.44.18,1.75.3.13.05.19.13.19.26,0,.08-.02.14-.03.26-.08.34-.1.58-.1,1.01,0,.59.05,1.6.1,2.38,1.14.51,1.6.77,2.4,1.39.35.27.48.42.48.54,0,.16-.08.3-.53,1.02-.19.32-.34.46-.45.46q-.1,0-.54-.42c-.35-.35-.75-.62-1.31-.96,0,1.49-1.09,2.39-2.93,2.39ZM189.76,43.85c-.77,0-1.3.37-1.3.93,0,.53.48.86,1.2.86.85,0,1.3-.43,1.3-1.28,0-.13,0-.26-.02-.26-.32-.16-.75-.26-1.18-.26ZM195.75,39.3c-.19.27-.29.35-.4.35-.08,0-.14-.03-.26-.14-.4-.38-.96-.8-1.55-1.17q-.38-.24-1.09-.56c-.22-.1-.3-.16-.3-.29,0-.11.08-.26.32-.62.38-.56.48-.66.62-.66.3,0,1.49.61,2.34,1.18.69.46.9.66.9.83,0,.13-.26.61-.58,1.07Z"/>
        <path class="cls-3" d="M206.58,34.36c.19.13.27.22.27.34s-.02.13-.26.4c-.08.1-.32.45-.58.88q-.8,1.33-1.23,2.1c-.45.75-.74,1.26-.9,1.5q-.05.08-.27.48c-.21.37-.34.56-.56.86,1.04-.91,1.6-1.15,2.66-1.15.7,0,1.33.3,1.73.83.34.45.43.86.58,2.43.08.94.16,1.36.27,1.6.11.22.34.35.62.35,1.1,0,2.42-1.33,3.06-3.07.16.67.29.99.62,1.58.11.19.14.32.14.48,0,.18-.08.4-.27.7-.83,1.34-2.19,2.15-3.65,2.15-.91,0-1.68-.32-2.08-.85-.32-.45-.46-1.04-.59-2.61-.08-1.02-.16-1.38-.38-1.63-.18-.19-.43-.29-.78-.29-1.06,0-2.45,1.42-3.27,3.31-.24.54-.4,1.04-.58,1.65-.06.24-.14.34-.26.34-.34,0-1.1-.32-1.52-.62-.11-.1-.16-.16-.16-.26,0-.08.03-.16.24-.61.13-.29.18-.37.29-.66q1.18-2.77,4.47-9.41c.37-.74.54-1.2.66-1.68.83.3,1.22.5,1.73.85Z"/>
        <path class="cls-3" d="M216.52,38.65h-.1c-.08.02-.14.02-.18.02-.14,0-.22-.06-.27-.27-.1-.4-.16-.88-.19-1.5.22.02.4.02.51.02.86,0,1.87-.06,2.72-.18.16-1.06.24-1.86.24-2.53v-.37c1.86.26,2.21.35,2.19.64,0,.08-.03.13-.1.27-.19.37-.21.42-.46,1.68.62-.11,1.42-.32,1.74-.43.06-.03.08-.03.13-.03.14,0,.18.06.3.62.06.32.13.77.13.9,0,.11-.05.18-.19.21q-.29.1-2.48.48c-.74,3.27-1.5,5.65-2.74,8.53-.08.21-.16.29-.26.29-.21,0-.77-.22-1.31-.53-.27-.14-.35-.21-.35-.3,0-.06.05-.18.13-.34,1.22-2.31,2.1-4.75,2.71-7.38-.7.08-1.2.13-2.18.21ZM223.36,44.73c.46.3,1.14.45,2.08.45,1.04,0,1.94-.1,2.45-.26.13-.03.16-.05.22-.05.14,0,.21.05.26.19.11.34.19.99.19,1.49,0,.21-.06.29-.27.34-.53.11-1.42.18-2.37.18-2,0-3.12-.32-3.86-1.09-.27-.29-.5-.64-.62-1.04-.1-.24-.16-.51-.16-.61,0-.27.48-.56,1.31-.83.18.67.37.98.77,1.23ZM227.86,40.07c-.32-.05-.99-.08-1.55-.08-1.18,0-1.68.05-3.09.29-.03.02-.08.02-.11.02-.1,0-.14-.03-.18-.13-.05-.11-.11-.9-.11-1.23,0-.21.03-.3.16-.35.06-.03.16-.05.5-.11,1.09-.19,2-.27,3.12-.27.93,0,1.41.03,1.52.11.08.06.1.19.1.72,0,.46-.03.88-.06.98-.02.05-.08.08-.16.08-.03,0-.08,0-.13-.02ZM226.1,34.44c.21,0,1.57,1.52,1.57,1.76,0,.06-.11.21-.24.3-.06.05-.16.13-.27.22-.14.13-.19.16-.35.22t-.08.03c-.06,0-.06-.02-.37-.48-.27-.42-.78-1.06-1.06-1.3-.03-.03-.08-.1-.08-.11.03-.06.05-.1.05-.1.08-.1.35-.32.42-.37.16-.08.26-.14.27-.16.02-.03.03-.03.05-.03h.1ZM228.8,35.56c-.22.16-.38.26-.46.26-.06,0-.1-.03-.18-.16-.35-.58-.69-.99-1.22-1.52-.05-.05-.06-.08-.06-.13,0-.14.61-.59.82-.59.11,0,.3.16.66.53.51.53.88,1.01.88,1.17,0,.1-.11.21-.43.45Z"/>
        <path class="cls-3" d="M238.75,39.27c.62-.26,1.46-.42,2.03-.42,2.45,0,4.05,1.41,4.05,3.54,0,1.46-.75,2.77-2.03,3.59-1.04.64-2.96,1.14-4.48,1.14q-.48,0-.62-.43c-.13-.38-.38-.78-.71-1.1,2.19-.13,2.88-.24,3.89-.69,1.33-.56,2.02-1.44,2.02-2.53,0-1.22-.88-2.05-2.19-2.05-1.73,0-3.75.96-5.47,2.61-.24.24-.37.37-.91,1.02-.14.19-.26.26-.35.26-.29,0-1.31-1.15-1.31-1.49,0-.1.03-.14.27-.35,1.15-1.01,4.03-4.07,6.08-6.47-1.58.19-2.95.43-3.55.64-.29.11-.37.13-.43.13-.14,0-.21-.08-.3-.37-.16-.43-.29-1.07-.35-1.7.21.03.37.05.62.05,1.55,0,4.87-.38,5.43-.64.19-.08.26-.1.35-.1.27,0,.58.24,1.02.8.29.34.4.53.4.64,0,.16-.1.27-.34.4-.21.13-.37.24-.59.43-.35.27-.48.4-1.6,1.49q-1.46,1.42-2.55,2.45c.87-.51,1.23-.7,1.63-.85Z"/>
        <path class="cls-3" d="M253.31,37.69c1.04-.27,1.73-.37,2.48-.37,2.27,0,3.59,1.34,3.59,3.65,0,2-.86,3.62-2.61,4.9-.93.69-2.34,1.38-2.8,1.38-.21,0-.26-.05-.59-.53-.24-.37-.48-.59-.88-.88,1.84-.62,2.61-1.02,3.44-1.74.96-.85,1.44-1.87,1.44-3.09,0-1.3-.61-2.03-1.68-2.03-.86,0-1.98.34-3.44,1.04-.21.1-.32.18-.59.37-.06.03-.13.06-.19.06-.3,0-.82-.9-1.17-2.1.59-.05.9-.13,3.01-.66ZM254.38,33.78c.58.18,1.44.34,2.22.43.32.03.43.05,1.25.08.24,0,.3.06.3.24,0,.53-.11,1.39-.21,1.55-.03.1-.11.13-.22.13-.37,0-1.67-.18-2.42-.34-1.26-.26-2.37-.58-2.59-.75-.05-.05-.08-.11-.08-.18,0-.13.34-.99.5-1.3.08-.13.13-.16.22-.16q.08,0,1.02.29Z"/>
        <path class="cls-3" d="M267.58,36.5c.37-.96.72-1.47,1.33-1.98.74-.61,1.62-.9,2.74-.9,2.4,0,3.94,1.31,3.94,3.36,0,.69-.19,1.34-.56,1.87-.29.42-.42.54-1.31,1.36-1.25,1.12-1.52,1.55-1.52,2.4v.85h-1.63v-.9c0-.72.14-1.36.43-1.87.22-.4.46-.67,1.1-1.31.67-.66.88-.9,1.06-1.18.22-.32.35-.77.35-1.2,0-1.07-.72-1.74-1.86-1.74s-1.81.59-2.29,1.98l-1.78-.74ZM272.69,45.83c0,.7-.56,1.26-1.26,1.26s-1.26-.56-1.26-1.26.56-1.26,1.26-1.26,1.26.56,1.26,1.26Z"/>
      </g>
      <g>
        <g>
          <path class="cls-3" d="M42.39,35.58c.02-1.97.63-3.49,1.83-4.55,1.13-1.05,2.47-1.58,4.03-1.58s2.98.53,4.11,1.58c1.15,1.06,1.74,2.58,1.77,4.56v9.42c-.04,1.96-.63,3.48-1.77,4.54-1.13,1.05-2.5,1.59-4.11,1.61-1.56-.02-2.91-.56-4.03-1.61-1.2-1.06-1.81-2.57-1.83-4.53v-9.44ZM51.18,35.77c-.06-2.14-1.03-3.23-2.92-3.27-1.9.04-2.87,1.13-2.91,3.27v9.07c.04,2.16,1.01,3.25,2.91,3.27,1.89-.02,2.87-1.11,2.92-3.27v-9.07Z"/>
          <path class="cls-3" d="M60.93,38.64h1.02c1.01,0,1.8-.29,2.36-.87.56-.56.84-1.29.84-2.18-.02-.9-.31-1.64-.87-2.22-.56-.56-1.28-.85-2.16-.87-.63,0-1.21.21-1.73.63-.55.42-.92,1.07-1.11,1.96h-2.97c.15-1.58.77-2.91,1.86-4,1.07-1.07,2.35-1.62,3.83-1.64,1.88.02,3.38.64,4.48,1.86,1.06,1.19,1.6,2.6,1.62,4.22,0,.82-.15,1.61-.44,2.37-.34.76-.95,1.44-1.83,2.04.9.59,1.55,1.29,1.95,2.11.38.82.57,1.68.57,2.58-.02,2-.62,3.58-1.8,4.73-1.16,1.18-2.66,1.78-4.48,1.8-1.41,0-2.66-.47-3.74-1.4-1.09-.94-1.79-2.29-2.11-4.06h2.97c.26.71.64,1.29,1.12,1.73.49.46,1.15.69,1.96.69.87,0,1.6-.31,2.2-.93.61-.58.92-1.4.94-2.47-.02-1.09-.33-1.93-.94-2.53-.6-.58-1.35-.87-2.27-.87h-1.27v-2.69Z"/>
        </g>
        <path class="cls-3" d="M33.72,42.84c-.76.79-1.8,1.41-3.01,1.81-.17-.32-.31-.52-.56-.82,1.2-.29,2.21-.79,2.94-1.47h-1.5c-.05.18-.06.22-.13.43l-1.01-.02c.24-.56.38-1.02.49-1.58.08-.39.14-.77.14-.95.17.02.4.03.82.03h1.78l-.02-.58h-1.93c-.34,0-.56,0-.8.04v-.83c-.1.08-.13.12-.26.23-.17-.29-.35-.5-.56-.69.74-.57,1.16-1.12,1.35-1.76l.93.17c-.11.23-.14.29-.25.47h1.11c.41,0,.64-.02.85-.04v.7c.34-.4.55-.78.7-1.3l.92.16q-.07.17-.22.49h1.65c.46,0,.67,0,.95-.05v.9c-.26-.04-.52-.05-.9-.05h-.68c.23.33.23.35.38.59l-.71.2h.41c.43,0,.59,0,.81-.03-.03.16-.04.3-.04.61v.91c0,.31,0,.45.04.63-.2-.02-.47-.03-.81-.03h-1.99v.57h2.47c.33,0,.52,0,.74-.03-.02.11-.02.17-.03.26t-.03.26s-.02.22-.05.55c-.09.86-.14,1.07-.31,1.27-.17.2-.43.26-1.02.26-.25,0-.43,0-.8-.03-.05-.36-.11-.56-.22-.85.33.04.74.08.95.08.47,0,.49-.05.55-1.01h-2.22l.02,1.45c0,.46.02.68.06.95h-1.02c.04-.25.05-.4.05-.75v-.22l-.02-.96ZM32.48,38.94c-.11-.29-.22-.5-.39-.8h-.48c-.21.29-.4.5-.68.77.21.03.38.04.79.04h.75ZM33.69,41.04h-1.77c-.03.19-.04.21-.12.57h1.9v-.57ZM34.18,38.94c-.13-.16-.31-.33-.56-.51.15-.12.2-.15.32-.27-.15,0-.32-.02-.49-.02h-.48c.11.17.17.26.34.58l-.71.22h1.58ZM36.01,38.94c-.1-.22-.26-.51-.44-.79h-.53c-.23.33-.42.55-.69.79h1.67ZM34.59,40.28h1.87v-.58h-1.88v.58Z"/>
        <path class="cls-3" d="M79.63,44.74v-.47h-5.38v.47h-1.01c.04-.28.05-.64.05-1.12v-5.46c0-.42-.02-.69-.05-1.04.32.04.59.05,1.02.05h5.36c.42,0,.7,0,1.02-.05-.04.32-.04.6-.04,1.04v5.47c0,.47.02.89.04,1.11h-1ZM74.25,43.42h5.38v-5.39h-5.38v5.39ZM77.85,39.01c.38,0,.6,0,.83-.03-.02.21-.03.41-.03.68v2.06c0,.29,0,.47.03.68-.26-.02-.47-.03-.83-.03h-1.85c-.43,0-.57,0-.84.03.03-.23.04-.42.04-.68v-2.06c0-.25,0-.45-.04-.68.22.02.46.03.84.03h1.85ZM76.11,41.58h1.63v-1.76h-1.63v1.76Z"/>
      </g>
      <rect class="cls-1" x="95.06" y="32.52" width="1.42" height="15.06"/>
    </g>
  </g>
</svg>